<?xml version="1.0" ?><svg height="512" id="svg4156" version="1.1" width="512" xmlns="http://www.w3.org/2000/svg" xmlns:cc="http://creativecommons.org/ns#" xmlns:dc="http://purl.org/dc/elements/1.1/" xmlns:inkscape="http://www.inkscape.org/namespaces/inkscape" xmlns:rdf="http://www.w3.org/1999/02/22-rdf-syntax-ns#" xmlns:sodipodi="http://sodipodi.sourceforge.net/DTD/sodipodi-0.dtd" xmlns:svg="http://www.w3.org/2000/svg"><defs id="defs4158"/><g id="layer1" transform="translate(0,448)"><g id="g41644" style="fill:#4d4d4d;fill-opacity:1" transform="translate(12497.453,-20341.011)"><path d="m -12436.188,20190.827 c -8.275,0 -14.943,6.668 -14.943,14.943 l 0,55.333 c 0,8.275 6.668,14.921 14.943,14.921 l 36.918,0 18.122,112.987 69.171,0 141.07,0 69.15,0 18.121,-112.987 36.919,0 c 8.275,0 14.943,-6.646 14.943,-14.921 l 0,-55.333 c 0,-8.275 -6.668,-14.943 -14.943,-14.943 l -389.471,0 z" id="rect4552" style="fill:#4d4d4d;fill-opacity:1;fill-rule:nonzero;stroke:none"/><path d="m -12291.25,20519.281 c -3.863,1.515 -47.561,18.749 -59.719,27.063 -12.718,8.698 -20.541,18.5 -27.312,33.437 -6.642,14.651 -10.843,31.616 -11,47.188 45.89,-0.281 91.79,-0.282 137.687,-0.219 -3.63,-6.634 -7.979,-14.992 -12.062,-23.312 -11.83,-24.887 -20.901,-54.236 -27.594,-84.157 z m 99.562,0 c -6.692,29.921 -15.733,59.27 -27.562,84.157 -4.088,8.332 -8.488,16.705 -12.125,23.343 45.918,0.07 91.835,0.136 137.75,-0.03 -0.195,-15.512 -4.359,-32.387 -10.969,-46.969 -6.77,-14.937 -14.593,-24.739 -27.312,-33.437 -12.137,-8.3 -55.787,-25.494 -59.782,-27.063 z m -61.968,31.188 a 2.3193718,2.3596777 0 0 0 -2.032,2.812 l 3.594,18.688 a 2.3193718,2.3596777 0 0 0 2.282,1.937 l 16.687,0 a 2.3193718,2.3596777 0 0 0 2.281,-1.937 l 3.594,-18.688 a 2.3193718,2.3596777 0 0 0 -2.281,-2.812 l -23.875,0 a 2.3193718,2.3596777 0 0 0 -0.25,0 z m 4.062,28.187 a 2.3193718,2.3596776 0 0 0 -2.031,1.844 l -4.469,19.812 c 4.208,9.042 8.813,17.882 13.875,26.469 0.469,0 0.938,0 1.407,0 5.106,-8.53 9.773,-17.378 14,-26.437 l -4.469,-19.844 a 2.3193718,2.3596776 0 0 0 -2.281,-1.844 l -15.782,0 a 2.3193718,2.3596776 0 0 0 -0.25,0 z" id="path37174-2" style="font-size:medium;font-style:normal;font-variant:normal;font-weight:normal;font-stretch:normal;text-indent:0;text-align:start;text-decoration:none;line-height:normal;letter-spacing:normal;word-spacing:normal;text-transform:none;direction:ltr;block-progression:tb;writing-mode:lr-tb;text-anchor:start;baseline-shift:baseline;color:#2d2d2d;fill:#4d4d4d;fill-opacity:1;stroke:none;stroke-width:16.00000191;marker:none;visibility:visible;display:inline;overflow:visible;enable-background:accumulate;font-family:Sans;-inkscape-font-specification:Sans" transform="translate(0,-448)"/><path d="m -12241.429,19909.011 c -29.702,0.399 -45.749,13.69 -53.448,27.037 -7.697,13.347 -7.58,26.711 -7.578,26.828 0,0.117 -0.326,23.155 -0.326,23.155 -0.392,0.192 -0.825,0.326 -1.185,0.581 -1.659,1.174 -2.743,2.856 -3.418,4.557 -1.349,3.401 -1.511,7.149 -1.511,11.926 0,15.113 8.706,29.472 17.343,37.895 6.765,24.985 26.357,43.752 50.123,44.45 23.765,-0.698 43.311,-19.465 50.076,-44.45 8.636,-8.423 17.343,-22.782 17.343,-37.895 0,-4.777 -0.163,-8.525 -1.511,-11.926 -0.675,-1.701 -1.759,-3.383 -3.418,-4.557 -0.36,-0.255 -0.793,-0.389 -1.185,-0.581 0,0 1.368,-12.002 -0.326,-22.922 -1.694,-10.921 -4.541,-18.274 -10.438,-22.923 -2.036,-13.501 -8.294,-19.634 -19.459,-24.573 -7.535,-3.291 -18.347,-6.432 -31.082,-6.602 z" id="path37176-88" style="font-size:medium;font-style:normal;font-variant:normal;font-weight:normal;font-stretch:normal;text-indent:0;text-align:start;text-decoration:none;line-height:normal;letter-spacing:normal;word-spacing:normal;text-transform:none;direction:ltr;block-progression:tb;writing-mode:lr-tb;text-anchor:start;baseline-shift:baseline;color:#2d2d2d;fill:#4d4d4d;fill-opacity:1;stroke:none;stroke-width:16.00000191;marker:none;visibility:visible;display:inline;overflow:visible;enable-background:accumulate;font-family:Sans;-inkscape-font-specification:Sans"/></g></g></svg>