<?xml version="1.0" ?><!DOCTYPE svg  PUBLIC '-//W3C//DTD SVG 1.1//EN'  'http://www.w3.org/Graphics/SVG/1.1/DTD/svg11.dtd'><svg enable-background="new 0 0 80.001 100" height="100px" id="Layer_1" version="1.1" viewBox="0 0 80.001 100" width="80.001px" xml:space="preserve" xmlns="http://www.w3.org/2000/svg" xmlns:xlink="http://www.w3.org/1999/xlink"><g><g><path d="M70.705,0H9.213v0.01C4.144,0.059,0,3.97,0,8.751v82.5C0,96.075,4.189,100,9.311,100h61.396    c5.112,0,9.295-3.926,9.295-8.75v-82.5C80,3.941,75.818,0,70.705,0z M22.547,89.902H12.523c-1.845,0-3.343-1.387-3.343-3.146    c0-1.719,1.489-3.125,3.343-3.125h10.023c1.843,0,3.341,1.406,3.341,3.125C25.887,88.515,24.394,89.902,22.547,89.902z     M22.547,77.909H12.523c-1.845,0-3.343-1.406-3.343-3.145c0-1.739,1.489-3.145,3.343-3.145h10.023    c1.843,0,3.341,1.405,3.341,3.145C25.889,76.502,24.394,77.909,22.547,77.909z M22.547,65.917H12.523    c-1.845,0-3.343-1.406-3.343-3.146s1.489-3.146,3.343-3.146h10.023c1.843,0,3.341,1.408,3.341,3.146    C25.889,64.509,24.394,65.917,22.547,65.917z M22.547,53.924H12.523c-1.845,0-3.343-1.406-3.343-3.154    c0-1.739,1.489-3.145,3.343-3.145h10.023c1.843,0,3.341,1.406,3.341,3.145C25.887,52.499,24.394,53.924,22.547,53.924z     M45.017,89.902H34.995c-1.855,0-3.354-1.387-3.354-3.146c0-1.719,1.494-3.125,3.354-3.125h10.021    c1.849,0,3.343,1.406,3.343,3.125C48.357,88.515,46.863,89.902,45.017,89.902z M45.017,77.909H34.995    c-1.855,0-3.354-1.406-3.354-3.145c0-1.739,1.494-3.145,3.354-3.145h10.021c1.849,0,3.343,1.405,3.343,3.145    C48.357,76.502,46.863,77.909,45.017,77.909z M45.017,65.917H34.995c-1.855,0-3.354-1.406-3.354-3.146s1.494-3.146,3.354-3.146    h10.021c1.849,0,3.343,1.408,3.343,3.146C48.357,64.509,46.863,65.917,45.017,65.917z M45.017,53.924H34.995    c-1.855,0-3.354-1.406-3.354-3.154c0-1.739,1.494-3.145,3.354-3.145h10.021c1.849,0,3.343,1.406,3.343,3.145    C48.357,52.499,46.863,53.924,45.017,53.924z M67.479,89.902H57.457c-1.848,0-3.341-1.387-3.341-3.146    c0-1.719,1.488-3.125,3.341-3.125h10.021c1.848,0,3.343,1.406,3.343,3.125C70.818,88.515,69.325,89.902,67.479,89.902z     M67.479,77.909H57.457c-1.848,0-3.341-1.406-3.341-3.145c0-1.739,1.488-3.145,3.341-3.145h10.021    c1.848,0,3.343,1.405,3.343,3.145C70.82,76.502,69.325,77.909,67.479,77.909z M67.479,65.917H57.457    c-1.848,0-3.341-1.406-3.341-3.146s1.488-3.146,3.341-3.146h10.021c1.848,0,3.343,1.408,3.343,3.146    C70.82,64.509,69.325,65.917,67.479,65.917z M67.479,53.924H57.457c-1.848,0-3.341-1.406-3.341-3.154    c0-1.739,1.488-3.145,3.341-3.145h10.021c1.848,0,3.343,1.406,3.343,3.145C70.818,52.499,69.325,53.924,67.479,53.924z     M69.954,40.359H10.051c-0.588,0-1.063-0.448-1.063-1V13.174c0-0.552,0.479-1,1.063-1h59.906c0.588,0,1.063,0.448,1.063,1v26.185    C71.017,39.911,70.541,40.359,69.954,40.359z" fill="#4D4D4D"/><g><path d="M25.141,24.005c-0.072,0.032-0.146,0.065-0.219,0.097c-0.531,0.236-1.057,0.02-1.173-0.484     c-0.113-0.504,0.221-1.102,0.751-1.334l0.997-0.437c0.531-0.233,1.438-0.422,2.023-0.422h0.019c0.59,0,1.063,0.448,1.063,1v8.404     c0,0.552-0.473,1-1.063,1h-0.374c-0.592,0-1.063-0.448-1.063-1v-6.243C26.104,24.034,25.672,23.769,25.141,24.005z" fill="#4D4D4D"/><path d="M35.672,31.093c0-0.407,0.318-1.009,0.714-1.345l0.716-0.608c2.413-2.033,3.587-3.201,3.62-4.418     c0-0.848-0.543-1.521-1.817-1.521c-0.529,0-1.029,0.14-1.465,0.337c-0.525,0.239-1.063,0.137-1.266-0.345     c-0.199-0.479,0.018-1.149,0.549-1.385c0.753-0.333,1.687-0.56,2.714-0.56c2.501,0,3.874,1.376,3.874,3.265     c0,1.745-1.346,3.137-2.94,4.482c0,0-0.229,0.179-0.513,0.4c-0.279,0.221-0.029,0.417,0.558,0.422     c0.626,0.005,1.417,0.007,2.043,0.009c0.589,0.001,1.062,0.449,1.062,1.001v0.001c0,0.552-0.473,1-1.063,1h-5.714     C36.148,31.829,35.672,31.499,35.672,31.093z" fill="#4D4D4D"/><path d="M49.979,29.825c0.474,0.146,1.026,0.259,1.587,0.259c1.347,0,2.023-0.608,2.023-1.393     c0-1.024-1.09-1.489-2.23-1.489c0,0-0.235,0-0.521,0c-0.289,0-0.527-0.391-0.527-0.872c0-0.482,0.229-0.873,0.505-0.873h0.5     c0.866-0.016,1.978-0.32,1.978-1.201c0-0.624-0.547-1.088-1.634-1.088c-0.461,0-0.932,0.095-1.347,0.222     c-0.557,0.171-1.087,0.008-1.229-0.478c-0.149-0.486,0.146-1.119,0.695-1.294c0.686-0.215,1.549-0.37,2.455-0.37     c2.365,0,3.674,1.168,3.674,2.593c0,0.808-0.354,1.487-1.078,1.969c-0.479,0.319-0.467,0.522,0.045,0.794     c0.829,0.443,1.404,1.217,1.404,2.214c0,1.841-1.721,3.188-4.521,3.188c-0.882,0-1.683-0.135-2.318-0.328     c-0.556-0.17-0.852-0.817-0.699-1.321C48.879,29.853,49.422,29.655,49.979,29.825z" fill="#4D4D4D"/></g></g></g></svg>
