<?xml version="1.0" ?><!DOCTYPE svg  PUBLIC '-//W3C//DTD SVG 1.1//EN'  'http://www.w3.org/Graphics/SVG/1.1/DTD/svg11.dtd'><svg enable-background="new 0 0 512 512" height="512px" id="Layer_1" version="1.1" viewBox="0 0 512 512" width="512px" xml:space="preserve" xmlns="http://www.w3.org/2000/svg" xmlns:xlink="http://www.w3.org/1999/xlink"><g><path d="M158.141,256.641c16.367,2.359,35.164,13.75,44.25,28.563c4.109,6.641,7.336,14.438,10.5,17.172   c9.813,6.344,2.063,11.844-3.234,14.375c-2.57,1.219-4.281,3-6.82,7.078c-8.313,13.688-28.844,15.016-46.133,8.063   C124.938,319.25,96.445,283.109,96,278.813C99.734,263.953,134.5,253.234,158.141,256.641z M172.773,230.25   c2.211-3.25,3.695-4.672,5.922-5.656c4.602-2.016,11.336-6.422,2.813-11.5c-2.75-2.188-5.547-8.406-9.125-13.75   c-7.875-11.828-24.219-20.953-38.43-22.828c-20.523-2.734-50.711,5.828-53.953,17.719c0.375,3.453,25.133,32.359,52.719,42.484   C147.727,242.266,165.555,241.203,172.773,230.25z M142.719,143.484c1.867-2.844,3.133-4.109,5.023-4.953   c3.898-1.766,9.625-5.625,2.375-10.078c-2.328-1.922-4.695-7.359-7.727-12.031c-6.688-10.328-20.547-18.328-32.602-19.969   c-17.405-2.39-43.03,5.094-45.788,15.516c0.313,3,21.336,28.313,44.719,37.156C121.469,154,136.594,153.063,142.719,143.484z    M272.289,270.125c0.359,8.203,2.273,16.781,1.063,21.109c-5.141,11.688,5.547,11.203,12.086,9.844   c3.172-0.656,5.898-0.297,10.828,1.422c16.398,5.922,36.367-6.375,48.095-23.438c21.625-31.25,25.344-79.892,23.047-83.75   c-12.875-9.891-52.047,3.906-71.914,22.172C281.727,230.141,271.406,251.891,272.289,270.125z M241.125,181.063   c-4.273,10.031,4.641,9.609,10.086,8.422c2.641-0.547,4.898-0.25,9.016,1.219c13.664,5.094,30.306-5.438,40.086-20.063   c18-26.797,21.125-68.5,19.188-71.797c-10.727-8.5-43.358,3.344-59.914,19.031c-11.477,10.797-20.078,29.484-19.336,45.063   C240.555,170,242.148,177.359,241.125,181.063z M200.977,109.891c2.094-0.469,3.922-0.219,7.203,1.031   c10.93,4.234,24.25-4.563,32.07-16.75c14.391-22.297,16.891-57.063,15.352-59.813c-8.594-7.078-34.695,2.797-47.93,15.859   c-9.18,9.016-16.055,24.563-15.477,37.547c0.242,5.891,1.516,12.016,0.711,15.109C189.469,111.234,196.625,110.875,200.977,109.891   z M267.938,380.016C259.984,245.625,228.617,101.781,96,46.359c117.453,100.625,139.07,227.484,143.055,354.344   c-6.789-8.109-54.406-59.188-143.055-14.859c80.81,0,127.608,66.717,140.395,87.83c2.373,3.918,6.637,6.326,11.218,6.326h14.709   c5.591,0,10.561-3.545,12.387-8.829c9.83-28.452,48.927-115.194,157.291-102.968C348.227,304.344,291.727,350.141,267.938,380.016z   " fill="#4D4D4D"/></g></svg>