<?xml version="1.0" ?><!DOCTYPE svg  PUBLIC '-//W3C//DTD SVG 1.1//EN'  'http://www.w3.org/Graphics/SVG/1.1/DTD/svg11.dtd'><svg enable-background="new 0 0 512 512" height="512px" id="Layer_1" version="1.1" viewBox="0 0 512 512" width="512px" xml:space="preserve" xmlns="http://www.w3.org/2000/svg" xmlns:xlink="http://www.w3.org/1999/xlink"><g><path d="M448,106.719v186.563c0,3.016-1.5,5.905-4.063,7.922c-2.281,1.813-5.22,2.797-8.25,2.797   c-0.438,0-0.845-0.03-1.25-0.047c-38.22-3.406-54.595-21.5-61.5-47.953H232c-13.234,0-24,7.578-24,20.813V288   c8.844,0,16,7.156,16,16v16c0,8.828-7.156,16-16,16H96c-8.844,0-16-7.172-16-16v-16c0-8.844,7.156-16,16-16v-8   c0-72.406,56.641-131.438,128-135.594V128c0-8.844,7.156-16,16-16h16V91.547c-5.719-3.313-10.313-8.281-13.078-14.344   C231.375,87.094,215.953,96,198.078,96C187.031,96,176,82.656,176,69.344V42.656C176,29.313,187.031,16,198.078,16   c20.5,0,37.813,14.625,49.672,27.359C253.625,36.469,262.266,32,272.031,32c9.75,0,18.375,4.453,24.25,11.328   C308.125,30.609,325.406,16,345.906,16C356.969,16,368,29.313,368,42.656v26.688C368,82.656,356.969,96,345.906,96   c-17.875,0-33.281-8.891-44.813-18.766c-2.766,6.063-7.375,11.031-13.094,14.344V112h16.031c8.844,0,15.969,7.156,15.969,16v16   h52.906c6.938-26.438,23.28-44.547,61.53-47.969C434.844,96,435.25,96,435.688,96c3.031,0,5.97,0.969,8.25,2.734   C446.5,100.766,448,103.688,448,106.719z M112,440c0,22.094,17.906,40.031,40,40c22.078,0.031,40-17.906,40-40c0-40-40-88-40-88   S112,400,112,440z" fill="#4D4D4D"/></g></svg>