<?xml version="1.0" ?><svg enable-background="new 0 0 515.91 728.5" height="512" id="Layer_1" version="1.1" viewBox="0 0 512.00003 512" width="512" xml:space="preserve" xmlns="http://www.w3.org/2000/svg" xmlns:cc="http://creativecommons.org/ns#" xmlns:dc="http://purl.org/dc/elements/1.1/" xmlns:inkscape="http://www.inkscape.org/namespaces/inkscape" xmlns:rdf="http://www.w3.org/1999/02/22-rdf-syntax-ns#" xmlns:sodipodi="http://sodipodi.sourceforge.net/DTD/sodipodi-0.dtd" xmlns:svg="http://www.w3.org/2000/svg"><defs id="defs7"/><g id="g18376" transform="matrix(0.95998854,0,0,0.95998854,6547.4982,-25611.248)"><path d="m -6768.4062,27325.219 0,300.969 c 0,9.515 7.6715,17.187 17.1874,17.187 l 395,0 c 9.5151,0 17.1876,-7.671 17.1876,-17.187 l 0,-300.969 -429.375,0 z m 214.6874,48 c 61.3479,0 111.0938,49.746 111.0938,111.093 0,61.348 -49.7459,111.063 -111.0938,111.063 -61.3478,0 -111.0937,-49.715 -111.0937,-111.063 0,-61.347 49.7459,-111.093 111.0937,-111.093 z" id="path18343" style="fill:#4d4d4d;fill-opacity:1;fill-rule:nonzero;stroke:none" transform="translate(0,-448)"/><path d="m -6748.9466,26857.43 c -27.592,0 -46.159,-11.336 -41.774,-24.95 0,0 38.903,-120.673 38.903,-120.673 2.981,-9.214 22.811,-16.438 44.55,-16.438 21.738,0 37.86,7.224 36.093,16.438 0,0 -23.157,120.673 -23.157,120.673 -2.619,13.614 -27.008,24.95 -54.615,24.95 0,0 0,0 0,0" id="path11452-5" style="fill:#4d4d4d;fill-opacity:1;fill-rule:nonzero;stroke:none"/><path d="m -6618.9576,26857.43 c -27.591,0 -48.084,-11.336 -46.017,-24.95 0,0 18.363,-120.673 18.363,-120.673 1.419,-9.214 20.003,-16.438 41.742,-16.438 21.738,0 39.092,7.224 38.886,16.438 0,0 -2.603,120.673 -2.603,120.673 -0.315,13.614 -22.764,24.95 -50.371,24.95 0,0 0,0 0,0" id="path11454-6" style="fill:#4d4d4d;fill-opacity:1;fill-rule:nonzero;stroke:none"/><path d="m -6488.9516,26857.43 c -27.591,0 -50.024,-11.336 -50.26,-24.95 0,0 -2.193,-120.673 -2.193,-120.673 -0.158,-9.214 17.211,-16.438 38.95,-16.438 21.738,0 40.322,7.224 41.694,16.438 0,0 17.921,120.673 17.921,120.673 2.035,13.614 -18.504,24.95 -46.112,24.95 0,0 0,0 0,0" id="path11456-6" style="fill:#4d4d4d;fill-opacity:1;fill-rule:nonzero;stroke:none"/><path d="m -6358.5676,26857.43 c -27.591,0 -51.964,-11.336 -54.536,-24.95 0,0 -22.779,-120.673 -22.779,-120.673 -1.751,-9.214 14.387,-16.438 36.125,-16.438 21.755,0 41.553,7.224 44.503,16.438 0,0 38.54,120.673 38.54,120.673 4.354,13.614 -14.246,24.95 -41.853,24.95 0,0 0,0 0,0" id="path11458-6" style="fill:#4d4d4d;fill-opacity:1;fill-rule:nonzero;stroke:none"/><path d="m -6553.7188,27418.469 c -17.868,0.239 -27.5249,8.221 -32.1562,16.25 -4.6308,8.03 -4.5322,16.056 -4.5312,16.125 0,0.07 -0.2188,13.937 -0.2188,13.937 -0.2357,0.116 -0.471,0.191 -0.6875,0.344 -0.998,0.706 -1.6567,1.728 -2.0625,2.75 -0.8117,2.048 -0.9062,4.282 -0.9062,7.156 0,9.09 5.2416,17.747 10.4374,22.813 4.0698,15.032 15.8279,26.33 30.125,26.75 14.2969,-0.42 26.0552,-11.718 30.125,-26.75 5.1959,-5.066 10.4376,-13.723 10.4376,-22.813 0,-2.874 -0.095,-5.108 -0.9063,-7.156 -0.4062,-1.022 -1.0646,-2.044 -2.0625,-2.75 -0.2166,-0.153 -0.4518,-0.228 -0.6875,-0.344 0,0 0.8002,-7.211 -0.2187,-13.781 -1.0191,-6.571 -2.7021,-10.984 -6.25,-13.781 -1.2246,-8.121 -5.0021,-11.81 -11.7188,-14.781 -4.5333,-1.98 -11.0569,-3.867 -18.7188,-3.969 z m -28.4687,94.219 c -2.0801,0.801 -27.2645,10.555 -34.25,15.25 -6.9179,4.648 -11.3151,9.908 -15.0625,17.624 13.7628,17.669 33.2007,30.836 55.4375,35.313 36.5348,8.643 77.3746,-5.353 100.2813,-35.031 -3.7768,-7.873 -8.1846,-13.201 -15.1876,-17.906 -6.9519,-4.673 -31.9298,-14.337 -34.2187,-15.219 -5.8524,8.696 -15.1103,15.141 -25.6563,16.281 -12.5527,1.314 -24.5306,-6.166 -31.3437,-16.312 z" id="path18356" style="fill:#4d4d4d;fill-opacity:1;fill-rule:nonzero;stroke:none" transform="translate(0,-448)"/></g></svg>