<?xml version="1.0" ?><!DOCTYPE svg  PUBLIC '-//W3C//DTD SVG 1.1//EN'  'http://www.w3.org/Graphics/SVG/1.1/DTD/svg11.dtd'><svg enable-background="new 0 0 512 512" height="512px" id="Layer_1" version="1.1" viewBox="0 0 512 512" width="512px" xml:space="preserve" xmlns="http://www.w3.org/2000/svg" xmlns:xlink="http://www.w3.org/1999/xlink"><g><path d="M287.164,199.578C306.664,188.609,320,167.969,320,144c0-35.344-28.656-64-64-64s-64,28.656-64,64   c0,23.969,13.336,44.617,32.844,55.578l-95.492,248.484c-4.375,12.5,2.219,26.202,14.727,30.577   c2.625,0.923,5.297,1.345,7.93,1.345c9.914,0,19.195-6.188,22.656-16.078l11.086-31.922h140.5l11.094,31.922   c3.461,9.891,12.742,16.078,22.656,16.078c2.633,0,5.305-0.422,7.93-1.345c12.509-4.375,19.103-18.077,14.728-30.577   L287.164,199.578z M226.75,313.992l53.422,16.031l-75.352,47.102L226.75,313.992z M237.227,283.852L256,224l23.156,72.43   L237.227,283.852z M228.586,400l71.109-44.445L315.141,400H228.586z M464,144c0.016,43.297-27.383,84.781-73.297,110.93   c-1.281,0.734-2.719,1.063-4.125,1.063c-2.281,0.031-4.523-0.906-6.125-2.633l-3.313-3.617c-1.547-1.656-2.258-3.883-1.977-6.117   c0.211-2.234,1.43-4.273,3.32-5.594c33.97-23.891,53.517-57.29,53.517-94.024c0-36.734-19.547-70.141-53.539-94.07   c-1.844-1.305-3.078-3.336-3.328-5.57c-0.25-2.234,0.492-4.461,2.047-6.148l3.273-3.57c1.594-1.766,3.836-2.68,6.125-2.648   c1.406-0.031,2.82,0.336,4.125,1.047C436.617,59.234,464.016,100.695,464,144z M370.695,144c0-22.625-11.103-43.594-31.25-58.938   c-1.978-1.516-3.195-3.703-3.406-6.141c-0.219-2.414,0.594-4.836,2.258-6.617l1.664-1.852c1.781-1.945,4.258-2.953,6.789-2.961   c1.578,0.008,3.188,0.406,4.641,1.234c31.445,18.219,48.617,45.672,48.609,75.266c0.008,29.602-17.164,57.047-48.602,75.289   c-1.461,0.797-3.056,1.219-4.648,1.219c-2.516,0-5.008-1.031-6.789-2.953l-1.656-1.836c-1.655-1.805-2.492-4.195-2.266-6.656   c0.211-2.406,1.43-4.625,3.406-6.141C359.594,187.563,370.703,166.648,370.695,144z M131.547,253.359   c-1.602,1.727-3.844,2.664-6.125,2.633c-1.406,0-2.844-0.328-4.125-1.063C75.383,228.781,47.984,187.297,48,144   c-0.016-43.305,27.383-84.766,73.297-110.953c1.305-0.711,2.719-1.078,4.125-1.047c2.289-0.031,4.531,0.891,6.125,2.648l3.273,3.57   c1.555,1.688,2.297,3.914,2.047,6.148c-0.25,2.234-1.484,4.266-3.328,5.57C99.547,73.867,80,107.273,80,144.008   c0,36.735,19.547,70.133,53.516,94.023c1.891,1.32,3.109,3.359,3.32,5.594c0.281,2.234-0.43,4.461-1.977,6.117L131.547,253.359z    M112,143.992c-0.008-29.594,17.164-57.047,48.609-75.266c1.453-0.828,3.063-1.227,4.641-1.234   c2.531,0.008,5.008,1.016,6.789,2.961l1.664,1.852c1.664,1.781,2.477,4.203,2.258,6.617c-0.211,2.438-1.43,4.625-3.406,6.141   c-20.148,15.344-31.25,36.313-31.25,58.938c-0.008,22.648,11.102,43.563,31.25,58.914c1.977,1.516,3.195,3.734,3.406,6.141   c0.227,2.461-0.609,4.852-2.266,6.664l-1.656,1.828c-1.781,1.922-4.273,2.953-6.789,2.953c-1.594,0-3.188-0.422-4.648-1.219   C129.164,201.039,111.992,173.594,112,143.992z" fill="#4D4D4D"/></g></svg>