<?xml version="1.0" ?><svg height="512" id="svg4156" version="1.1" width="512" xmlns="http://www.w3.org/2000/svg" xmlns:cc="http://creativecommons.org/ns#" xmlns:dc="http://purl.org/dc/elements/1.1/" xmlns:inkscape="http://www.inkscape.org/namespaces/inkscape" xmlns:rdf="http://www.w3.org/1999/02/22-rdf-syntax-ns#" xmlns:sodipodi="http://sodipodi.sourceforge.net/DTD/sodipodi-0.dtd" xmlns:svg="http://www.w3.org/2000/svg"><defs id="defs4158"/><g id="layer1" transform="translate(0,448)"><g id="g30674" transform="matrix(0.95560408,0,0,0.95560408,2182.732,-14199.589)"><path d="m -1929.5353,14675.094 150.531,150.532 c 18.546,18.545 18.546,48.392 0,66.937 -18.544,18.546 -48.423,18.546 -66.968,0 l -149.156,-149.156 c 4.072,-2.493 8.045,-5.13 11.906,-7.938 22.594,-15.549 40.722,-36.488 53.687,-60.375 z" id="path11835" style="fill:#4d4d4d;fill-opacity:1;stroke:none"/><g id="g30670" transform="matrix(-1,0,0,1,-4187.6186,0)"><path d="m -2093.7853,14410.25 c 44.5141,0 89.0203,16.895 122.8438,50.719 67.643,67.647 67.6157,178.04 -0.031,245.687 -67.646,67.651 -178.0415,67.678 -245.6875,0.03 -67.647,-67.647 -67.647,-178.072 0,-245.719 33.823,-33.824 78.3609,-50.719 122.875,-50.719 z m -0.031,47.688 c -32.1327,0 -64.2543,12.316 -88.9063,36.968 -49.299,49.303 -49.2728,128.508 0.031,177.813 49.3051,49.287 128.4825,49.298 177.7812,0 49.307,-49.303 49.3342,-128.509 0.031,-177.813 -24.6525,-24.652 -56.8048,-36.968 -88.9374,-36.968 z" id="path11831" style="font-size:medium;font-style:normal;font-variant:normal;font-weight:normal;font-stretch:normal;text-indent:0;text-align:start;text-decoration:none;line-height:normal;letter-spacing:normal;word-spacing:normal;text-transform:none;direction:ltr;block-progression:tb;writing-mode:lr-tb;text-anchor:start;baseline-shift:baseline;color:#2d2d2d;fill:#4d4d4d;fill-opacity:1;stroke:none;stroke-width:68.23180389;marker:none;visibility:visible;display:inline;overflow:visible;enable-background:accumulate;font-family:Sans;-inkscape-font-specification:Sans"/><path d="m -2093.7683,14468.776 c 5.832,0 10.635,4.816 10.635,10.649 l 0,13.779 c 13.611,1.667 26.748,6.414 35.651,15.31 9.133,9.175 13.738,21.198 13.738,35.269 0,10.723 -2.262,19.869 -7.082,27.093 -4.663,6.997 -10.83,12.43 -18.317,16.213 -6.613,3.341 -14.657,6.317 -23.99,9.022 l 0,46.764 c 2.555,-1.169 4.675,-2.597 6.533,-4.251 2.823,-2.509 4.849,-5.199 6.18,-8.092 0,0 0,-0.01 0,-0.01 1.449,-3.147 3.242,-7.905 5.303,-14.162 0,-0.02 0,-0.04 0,-0.05 l 0,0 c 1.133,-3.558 3.307,-6.589 6.329,-8.64 0,0 0,-0.01 0,-0.01 0,0 0,0 0,0 3.06,-2.073 6.792,-3.062 10.827,-3.062 5.151,0 9.852,1.951 13.355,5.55 3.42,3.511 5.346,7.882 5.346,12.508 0,5.535 -1.178,11.129 -3.5,16.732 -2.354,5.686 -5.973,11.076 -10.744,16.172 -4.866,5.194 -10.907,9.5 -18.031,12.918 0,0 -0.01,0.01 -0.03,0.01 -6.521,3.064 -13.908,5.014 -21.611,5.973 l 0,13.779 c 0,5.834 -4.803,10.636 -10.636,10.636 -5.833,0 -10.635,-4.802 -10.635,-10.636 l 0,-13.833 c -9.682,-1.188 -19.21,-3.914 -27.572,-8.571 -0.04,-0.02 -0.07,-0.04 -0.111,-0.05 -8.537,-5.173 -15.14,-11.998 -19.59,-20.273 -4.412,-8.203 -6.629,-17.092 -6.629,-26.478 0,-7.488 1.401,-14.482 4.197,-20.874 2.79,-6.361 6.79,-11.873 11.948,-16.459 0,-0.01 0.01,-0.02 0.03,-0.03 4.802,-4.379 10.291,-7.795 16.39,-10.115 5.441,-2.075 12.647,-4.313 21.339,-6.74 l 0,-40.627 c -6.428,3.086 -10.317,7.939 -12.248,15.256 0,0.01 0,0.02 0,0.03 -1.257,4.592 -3.365,8.389 -6.509,11.018 -3.14,2.629 -7.21,3.909 -11.645,3.909 -4.846,0 -9.315,-1.851 -12.726,-5.262 -3.397,-3.39 -5.305,-7.796 -5.305,-12.536 0,-4.135 1.144,-8.452 3.185,-12.959 l 0,-0.01 c 2.049,-4.517 4.926,-8.843 8.585,-13 0,-0.02 0.03,-0.04 0.04,-0.05 4.724,-5.536 10.357,-9.778 16.773,-12.548 0,0 0.01,-0.01 0.03,-0.01 5.912,-2.489 12.709,-4.064 19.834,-4.866 l 0,-13.711 c 0,-5.618 4.466,-10.244 10.007,-10.581 0,0 0.03,-0.01 0.04,-0.01 0.194,-0.03 0.391,-0.05 0.588,-0.05 z m 10.635,54.638 0,34.681 c 4.224,-1.912 7.416,-3.936 9.554,-5.905 2.577,-2.371 3.98,-5.825 3.98,-11.305 0,-5.783 -1.481,-9.378 -4.239,-11.784 -2.292,-1.998 -5.927,-4.324 -9.295,-5.687 z m -21.271,79.19 c -5.755,2.161 -10.182,4.611 -13.137,7.231 -3.354,2.978 -5.044,6.999 -5.044,13.028 0,5.479 1.764,10.005 5.509,14.162 3.042,3.372 7.234,5.826 12.672,7.409 z" id="path8501-3-9" style="font-size:medium;font-style:normal;font-variant:normal;font-weight:normal;font-stretch:normal;text-indent:0;text-align:start;text-decoration:none;line-height:normal;letter-spacing:normal;word-spacing:normal;text-transform:none;direction:ltr;block-progression:tb;writing-mode:lr-tb;text-anchor:start;baseline-shift:baseline;color:#2d2d2d;fill:#4d4d4d;fill-opacity:1;fill-rule:nonzero;stroke:none;stroke-width:16;marker:none;visibility:visible;display:inline;overflow:visible;enable-background:accumulate;font-family:Sans;-inkscape-font-specification:Sans"/></g></g></g></svg>