<?xml version="1.0" ?><!DOCTYPE svg  PUBLIC '-//W3C//DTD SVG 1.1//EN'  'http://www.w3.org/Graphics/SVG/1.1/DTD/svg11.dtd'><svg enable-background="new 0 0 100 100" id="Layer_1" version="1.1" viewBox="0 0 100 100" xml:space="preserve" xmlns="http://www.w3.org/2000/svg" xmlns:xlink="http://www.w3.org/1999/xlink"><g><path d="M70.4,39.693c7.416-7.787,8.649-18.742,8.649-18.742S68.094,22.184,60.307,29.6l-1.538-1.538l-9.04,7.331   l-25.095-1.7l-0.278,5.284l14.535,11.605l-4.107,4.107l-13.835-1.043l0.73,6.709l14.544,3.421l3.421,14.544l6.709,0.73   l-1.043-13.835l4.107-4.107l11.605,14.535l5.284-0.278l-1.7-25.095l7.331-9.04L70.4,39.693z M54.249,45.751   c-0.744-0.744,0.062-4.217,3.949-8.518c0.301,0.867,0.934,1.851,1.826,2.743c0.892,0.892,1.876,1.525,2.743,1.826   C58.465,45.689,54.993,46.494,54.249,45.751z M65.003,39.626L65.003,39.626c-0.549,0.549-2.035-0.043-3.311-1.319   c-1.276-1.276-1.868-2.761-1.318-3.31l0,0v0c4.811-4.81,8.834-5.82,9.642-5.012C70.823,30.793,69.813,34.816,65.003,39.626z" fill="#4D4D4D"/><path d="M32.559,67.441c-0.744-0.744,0.062-4.217,3.949-8.518c0.301,0.867,0.934,1.851,1.826,2.743   c0.892,0.892,1.876,1.525,2.743,1.826C36.775,67.38,33.302,68.185,32.559,67.441z" fill="#4D4D4D"/><path d="M69.761,58.534c-0.924-0.924-5.077,1.733-9.278,5.933c-4.2,4.2-6.857,8.354-5.933,9.278   c0.924,0.924,5.077-1.733,9.278-5.933S70.685,59.457,69.761,58.534z M41.466,30.239c-0.924-0.924-5.077,1.733-9.278,5.933   s-6.857,8.354-5.933,9.278c0.924,0.924,5.077-1.733,9.278-5.933S42.39,31.162,41.466,30.239z" fill="#4D4D4D"/></g></svg>
