<?xml version="1.0" ?><!DOCTYPE svg  PUBLIC '-//W3C//DTD SVG 1.1//EN'  'http://www.w3.org/Graphics/SVG/1.1/DTD/svg11.dtd'><svg enable-background="new 0 0 500 500" height="500px" id="Layer_1" version="1.1" viewBox="0 0 500 500" width="500px" xml:space="preserve" xmlns="http://www.w3.org/2000/svg" xmlns:xlink="http://www.w3.org/1999/xlink"><g><path d="M68.866,274.178l17.691-45.581l-6.24-71.099c0-48.008,35.113-86.916,79.167-89.029   c0.279-7.558,1.271-14.771,2.939-21.598c-27.895,0.224-53.894,11.644-73.471,32.703C69.576,100.417,59,127.774,59,157.095v0.942   l-0.013,0.938L68.866,274.178z" fill="#4D4D4D"/><path d="M420.509,157.364l-6.396,72.956l17.67,45.524l10.144-116.802l0.074-1.005v-0.942   c0-29.321-10.695-56.615-30.125-77.47C392.067,58.368,365.635,47,337.432,47h-0.583c1.708,6,2.732,13.965,3.02,21.503   C384.55,69.882,420.509,108.874,420.509,157.364z" fill="#4D4D4D"/><path d="M249.69,167.681c37.963,0,68.768-49.753,68.768-94.71c0-44.979-30.805-70.366-68.768-70.366   c-37.982,0-68.795,24.32-68.795,70.366C180.896,119.003,211.708,167.681,249.69,167.681z" fill="#4D4D4D"/><path d="M447.759,376.448l-59.488-153.27c-3.698-9.531-11.798-16.055-21.073-18.152   c-12.989-5.438-32.532-9.99-47.742-13.024c-1.04,2.816-2.156,5.716-3.465,8.78l-42.791,163.442   c-1.577-19.748-4.271-96.653-4.271-101.807c0-5.591-17.21-23.348-17.21-23.348s20.092-16.681,20.092-23.341   c0-6.663-12.937-20.607-20.843-20.607s-20.975,14.615-20.975,20.607c0,5.982,19.454,23.341,19.454,23.341   s-17.985,17.409-17.985,23.348c0,4.21-2.501,81.527-3.966,101.586l-42.583-162.878c0,0-1.225-3.66-2.002-9.271   c-16.243,3.08-37.483,7.786-51.115,13.425c-8.459,2.227-15.818,8.161-19.564,16.699c-1.352,2.234-2.138,4.291-2.613,6.641   L52.242,376.448c-4.806,12.384-0.764,26.455,9.883,34.4l108.106,80.674c5.308,3.961,11.512,5.873,17.664,5.873   c9.014,0,17.915-4.107,23.722-11.888c9.769-13.09,7.076-31.618-6.015-41.387l-90.089-67.229l27.718-71.418l-9.438,71.418   l90.089,67.229c11.085,8.271,14.711,22.824,9.632,35.038c5.089,0.153,10.291,0.236,15.621,0.236c5.9,0,11.67-0.104,17.328-0.29   c-5.047-12.203-1.413-26.726,9.655-34.984l90.089-67.229l-9.438-71.418l27.719,71.418l-90.09,67.229   c-13.091,9.769-15.783,28.297-6.015,41.387c5.807,7.78,14.708,11.888,23.723,11.888c6.151,0,12.355-1.912,17.663-5.873   l108.105-80.674C448.523,402.903,452.564,388.832,447.759,376.448z" fill="#4D4D4D"/></g></svg>
