<?xml version="1.0" ?><!DOCTYPE svg  PUBLIC '-//W3C//DTD SVG 1.1//EN'  'http://www.w3.org/Graphics/SVG/1.1/DTD/svg11.dtd'><svg enable-background="new 0 0 512 512" height="512px" id="Layer_1" version="1.1" viewBox="0 0 512 512" width="512px" xml:space="preserve" xmlns="http://www.w3.org/2000/svg" xmlns:xlink="http://www.w3.org/1999/xlink"><g><path d="M64,207c0-7.156-0.039-19.219-2.555-30.891C76.828,176.703,80,196.656,80,223v16.672   c-5.727,0.453-11.094,1.922-16,4.375V207z M240,480H129.602c0-32-4-40.484-21.953-49.406   c-24.164-12.016-39.711-27.483-50.211-39.359C23.688,353,0,310.734,0,281.031C0,256,0,240,0,208s6.797-48,28.797-48   c16,0,19.203,20.25,19.203,47v50.953c-13.438,19.766-8.281,48.234,7.328,65.875c0.164,0.172,16.766,17.531,39.453,44.641   l20.414,22.516c0.609,0.875,1.258,1.673,2.055,2.267c5.25-12.25-4.5-30.75-8.969-36.078c-2.266-2.703-4.406-5.219-6.531-7.719l0,0   c-19.914-23.392-33.719-37.813-33.719-37.813c-11.125-12.578-15.266-35.594-1.969-48.031c13.313-12.405,35.219-5.952,46.344,6.642   l44.5,50.797c14.422,1.156,37.758,4.72,53.695,18.359C234.102,359.5,240,384,240,480z M447.984,244.047   c-4.906-2.453-10.267-3.922-15.984-4.375V223c0-26.344,3.156-46.297,18.547-46.891c-2.531,11.672-2.563,23.734-2.563,30.891   V244.047z M301.406,339.406c15.922-13.641,39.25-17.203,53.672-18.359l44.5-50.797c11.125-12.594,33.031-19.047,46.344-6.641   c13.297,12.438,9.156,35.453-1.969,48.031c0,0-13.813,14.422-33.719,37.813l0,0c-2.125,2.5-4.267,5.016-6.531,7.719   c-4.469,5.328-14.219,23.828-8.969,36.078c0.797-0.594,1.438-1.391,2.063-2.266l20.406-22.517   c22.688-27.108,39.281-44.469,39.453-44.641c15.608-17.642,20.781-46.109,7.344-65.875V207c0-26.75,3.188-47,19.188-47   c22,0,28.798,16,28.798,48s0,48,0,73.031c0,29.703-23.688,71.969-57.438,110.203c-10.5,11.875-26.031,27.344-50.219,39.358   C386.391,439.516,382.391,448,382.391,480H272C272,384,277.906,359.5,301.406,339.406z M277.953,17.703   c-78.594-12.109-152.125,41.75-164.25,120.344c-12.117,78.578,41.75,152.125,120.344,164.25   c78.594,12.109,152.125-41.75,164.25-120.344C410.406,103.375,356.547,29.828,277.953,17.703z M207.305,260.016   c-42.242-21.188-67.992-67.828-60.398-117.063c0.32-2.031,0.813-3.984,1.234-5.922c7.906,22.578,31.672,11.078,47.195,26.641   c23.219,23.188-7.359,25.188-4.086,45.656c3.023,18.906,16.375,13.703,17.977,26.438C204,245.75,204.633,253.828,207.305,260.016z    M336.656,239.016c-24.359,24.359-59.516,37.281-96.195,31.625c-1.656-0.266-3.203-0.672-4.82-1   c10.055-4.719,16.984-12.953,23.641-26.328c5.155-10.516,25.233-12.906,27.641-23.391c0.828-3.594,4.172-18.047-8.453-29.375   c-8.844-8-24.125-7.891-35.547-10.156c-13.5-2.672-17.156-22.516-24.047-24.172c-13.797-3.297,7.102-15.938-6.719-33.672   c-8.93-11.531-36.281,16.5-34.133-6.406c1.633-17.563,22.445-23.094,39.758-18.313c9.688,2.672,20.906,32.609,29.078,29.359   c10.453-4.219-5.977-24,6.289-28.063c8.414-2.797-20.883-3.781-5.445-22.359c13.922-16.766,15.608-6.422,21.733-27.938   c1.72,0.203,3.422,0.266,5.156,0.547c17.219,2.656,32.813,9.203,46.234,18.438c0.641,4.859-4.781,15.016,0.781,19.734   c6.766,5.703-32.017,6.313-32.017,13.141c-1.313,20.031,22.453,12.875,16.125,45.625c-4.563,23.469,9.845,35.828,17.078,26.063   c5.156-6.938,16.625,8.203,19.281,13.875C351.719,206.938,314.5,215.875,336.656,239.016z" fill="#4D4D4D"/></g></svg>