<?xml version="1.0" ?><!DOCTYPE svg  PUBLIC '-//W3C//DTD SVG 1.1//EN'  'http://www.w3.org/Graphics/SVG/1.1/DTD/svg11.dtd'><svg enable-background="new 0 0 500 500" height="500px" id="Layer_1" version="1.1" viewBox="0 0 500 500" width="500px" xml:space="preserve" xmlns="http://www.w3.org/2000/svg" xmlns:xlink="http://www.w3.org/1999/xlink"><g><circle cx="247.875" cy="91.345" fill="#4D4D4D" r="82.751"/><path d="M347.385,236.297C332.154,212.087,305.215,196,274.5,196h-52.033c-31.069,0-58.288,16.454-73.42,41.134   c21.111,7.396,43.617,14.585,62.685,19.128c14.982,3.571,26.964,11.056,35.235,21.913c8.327-10.857,20.41-18.34,35.391-21.911   C302.13,251.553,325.605,243.985,347.385,236.297z" fill="#4D4D4D"/><path d="M207.677,274.179C152.089,260.933,70,226.525,70,226.525c0,9.674,0,29.218,0,52.552   c1-0.125,2.92-0.077,4.22-0.077h1.526C95.662,279,111,293.975,111,312.424v40.399C111,371.273,95.662,386,75.746,386H74.22   c-1.299,0-3.22,0.296-4.22,0.17c0,17.929,0,20.125,0,27.666c0,27.512,47.498,40.946,71.396,47.014   C165.29,466.915,242,491.406,242,491.406s0-149.027,0-160.424C242,314.839,242.813,282.552,207.677,274.179z" fill="#4D4D4D"/><path d="M96,319.009C96,306.854,86.147,297,73.993,297h-0.985C60.853,297,51,306.854,51,319.009v26.982   C51,358.146,60.853,368,73.007,368h0.985C86.147,368,96,358.146,96,345.991V319.009z" fill="#4D4D4D"/><path d="M389,352.823v-40.399c0-18.21,16-33.136,36-33.521c0-23.258,0-42.727,0-52.377   c0,0-82.59,34.407-138.176,47.653C251.686,282.552,252,314.839,252,330.982c0,11.396,0,160.424,0,160.424   s77.211-24.491,101.104-30.557C377.002,454.782,425,441.348,425,413.836c0-7.517,0-9.642,0-27.49   C405,385.96,389,371.034,389,352.823z" fill="#4D4D4D"/><path d="M448,318.826C448,306.671,437.766,297,425.612,297h-0.52C412.938,297,403,306.671,403,318.826v26.781   c0,12.154,9.938,22.393,22.093,22.393h0.52C437.766,368,448,357.762,448,345.607V318.826z" fill="#4D4D4D"/></g></svg>
