<?xml version="1.0" ?><!DOCTYPE svg  PUBLIC '-//W3C//DTD SVG 1.1//EN'  'http://www.w3.org/Graphics/SVG/1.1/DTD/svg11.dtd'><svg enable-background="new 0 0 80 80" height="80px" id="Layer_1" version="1.1" viewBox="0 0 80 80" width="80px" xml:space="preserve" xmlns="http://www.w3.org/2000/svg" xmlns:xlink="http://www.w3.org/1999/xlink"><path d="M9.834,17.441h6c0.826,0,1.5-0.671,1.5-1.5s-0.674-1.5-1.5-1.5h-6c-0.829,0-1.5,0.671-1.5,1.5  S9.005,17.441,9.834,17.441z M9.834,21.441h6c0.826,0,1.5-0.671,1.5-1.5s-0.674-1.5-1.5-1.5h-6c-0.829,0-1.5,0.671-1.5,1.5  S9.005,21.441,9.834,21.441z M70.166,14.441h-6c-0.828,0-1.5,0.671-1.5,1.5s0.672,1.5,1.5,1.5h6c0.828,0,1.5-0.671,1.5-1.5  S70.994,14.441,70.166,14.441z M70.166,18.441h-6c-0.828,0-1.5,0.671-1.5,1.5s0.672,1.5,1.5,1.5h6c0.828,0,1.5-0.671,1.5-1.5  S70.994,18.441,70.166,18.441z M9.834,36.442h6c0.826,0,1.5-0.671,1.5-1.5s-0.674-1.5-1.5-1.5h-6c-0.829,0-1.5,0.671-1.5,1.5  S9.005,36.442,9.834,36.442z M17.334,38.942c0-0.829-0.674-1.5-1.5-1.5h-6c-0.829,0-1.5,0.671-1.5,1.5s0.671,1.5,1.5,1.5h6  C16.66,40.442,17.334,39.771,17.334,38.942z M70.166,29.442l-22.875,0v-9.71l16.793-6.298c0.027,0.001,0.055,0.008,0.082,0.008h6  c0.828,0,1.5-0.671,1.5-1.5s-0.672-1.5-1.5-1.5H46.615L41.058,1.67c-0.549-0.868-1.984-0.868-2.533,0l-5.558,8.771H9.834  c-0.829,0-1.5,0.671-1.5,1.5s0.671,1.5,1.5,1.5h5.686l16.771,6.289v9.711l-22.457,0c-0.829,0-1.5,0.671-1.5,1.5s0.671,1.5,1.5,1.5  h5.688l16.77,6.289v4.906L19.842,72.981H12.9v6h9v-1.219c11.671-4.362,24.526-4.362,36.197,0v1.219h9v-6H59.74L47.291,43.636v-4.905  l16.792-6.297c0.028,0.001,0.055,0.008,0.083,0.008h6c0.828,0,1.5-0.671,1.5-1.5S70.994,29.442,70.166,29.442z M47.291,13.441h8.228  l-8.228,3.085V13.441z M39.791,5.275l3.273,5.167h-6.547L39.791,5.275z M35.291,13.441h9v3.311l-4.373,4.373l-4.627-4.627V13.441z   M44.291,20.994v4.503l-2.252-2.251L44.291,20.994z M35.291,20.74l2.506,2.506l-2.506,2.505V20.74z M35.291,29.993l4.627-4.626  l4.373,4.372v2.039l-4.373,4.373l-4.627-4.627V29.993z M44.291,36.021v4.504l-2.252-2.252L44.291,36.021z M35.291,35.767  l2.506,2.506l-2.506,2.506V35.767z M34.721,45.591l5.197-5.197l4.756,4.756l0.982,2.314l-5.738,5.74L34,47.289L34.721,45.591z   M24.063,13.441h8.228v3.085L24.063,13.441z M24.063,32.441h8.228v3.085L24.063,32.441z M32.736,50.267l5.06,5.058l-6.404,6.404  l-2.47-2.469L32.736,50.267z M27.658,62.238l1.611,1.612l-3.987,3.988L27.658,62.238z M25.361,72.002l6.03-6.03l4.216,4.216  C32.154,70.462,28.725,71.073,25.361,72.002z M39.679,70.018l-6.166-6.167l6.405-6.404l6.402,6.404l-6.165,6.165  C39.996,70.015,39.838,70.017,39.679,70.018z M44.23,70.183l4.211-4.211l5.994,5.993C51.084,71.049,47.668,70.45,44.23,70.183z   M54.114,67.401l-3.552-3.551l1.436-1.436L54.114,67.401z M50.734,59.436l-2.293,2.293l-6.403-6.404l4.882-4.882L50.734,59.436z   M47.291,35.527v-3.085h8.228L47.291,35.527z M70.166,33.442h-6c-0.828,0-1.5,0.671-1.5,1.5s0.672,1.5,1.5,1.5h6  c0.828,0,1.5-0.671,1.5-1.5S70.994,33.442,70.166,33.442z M70.166,37.442h-6c-0.828,0-1.5,0.671-1.5,1.5s0.672,1.5,1.5,1.5h6  c0.828,0,1.5-0.671,1.5-1.5S70.994,37.442,70.166,37.442z" fill="#4D4D4D"/></svg>
