<?xml version="1.0" encoding="utf-8"?>
<!-- Generator: Adobe Illustrator 15.0.0, SVG Export Plug-In . SVG Version: 6.00 Build 0)  -->
<!DOCTYPE svg PUBLIC "-//W3C//DTD SVG 1.1//EN" "http://www.w3.org/Graphics/SVG/1.1/DTD/svg11.dtd">
<svg version="1.1" id="Layer_1" xmlns="http://www.w3.org/2000/svg" xmlns:xlink="http://www.w3.org/1999/xlink" x="0px" y="0px"
	 width="512px" height="512px" viewBox="0 0 512 512" enable-background="new 0 0 512 512" xml:space="preserve">
<g>
	<path fill="#4D4D4D" d="M304,48c0,26.523-28.656,48-64,48c-17.531,0-33.375-5.297-44.938-13.852C185.531,90.57,171.656,96,156,96
		c-13.109,0-24.938-3.852-34.094-10.008C116.094,92.031,106.688,96,96,96c-17.688,0-32-10.742-32-24s14.313-24,32-24
		c3.125,0,6.063,0.438,8.906,1.063C109.188,30.281,130.375,16,156,16c10.969,0,21.125,2.641,29.516,7.109
		C196.75,9.297,216.844,0,240,0C275.344,0,304,21.477,304,48z M128,160v-32c0-8.836-7.156-16-16-16H48c-8.844,0-16,7.164-16,16v32
		H128z M480,458v12c0,5.523-4.469,10-10,10H26c-5.531,0-10-4.477-10-10v-12c0-5.523,4.469-10,10-10h6V176h96v80l103.281-78.883
		c1.641-1.25,3.844-1.469,5.703-0.555c1.844,0.922,3.016,2.805,3.016,4.867V256l103.281-78.883c1.641-1.25,3.844-1.469,5.703-0.555
		c1.844,0.922,3.016,2.805,3.016,4.867V256l103.281-78.883c1.641-1.25,3.844-1.469,5.703-0.555c1.844,0.922,3.016,2.805,3.016,4.867
		V256v192h6C475.531,448,480,452.477,480,458z M208,384h-48v32h48V384z M208,320h-48v32h48V320z M304,384h-48v32h48V384z M304,320
		h-48v32h48V320z M400,384h-48v32h48V384z M400,320h-48v32h48V320z"/>
</g>
</svg>
