<?xml version="1.0" ?><!DOCTYPE svg  PUBLIC '-//W3C//DTD SVG 1.1//EN'  'http://www.w3.org/Graphics/SVG/1.1/DTD/svg11.dtd'><svg enable-background="new 0 0 512 512" height="512px" id="Layer_1" version="1.1" viewBox="0 0 512 512" width="512px" xml:space="preserve" xmlns="http://www.w3.org/2000/svg" xmlns:xlink="http://www.w3.org/1999/xlink"><g><path d="M346.373,219.619c23.911,0,44.138-15.772,50.847-37.481l-50.847-15.733v-53.214   c-29.389,0-53.214,23.824-53.214,53.214C293.159,195.795,316.984,219.619,346.373,219.619z" fill="#4D4D4D"/><path d="M407.743,160.605c0-29.389-23.825-53.214-53.214-53.214v53.214l50.847,15.733   C406.913,171.366,407.743,166.083,407.743,160.605z" fill="#4D4D4D"/><path d="M461.547,310.913V95.697c0-16.483-13.41-29.893-29.893-29.893H80.334c-16.483,0-29.893,13.41-29.893,29.893   v220.453c0,0.123,0.008,0.245,0.009,0.367v39.986c-0.003,0.157-0.012,0.313-0.012,0.471v2.195c0,0.158,0.009,0.314,0.012,0.471   v0.561h0.014c0.543,14.065,12.11,25.303,26.308,25.303h133.378c-0.237,5.912-3.53,32.74-43.602,37.777h1.285   c-6.328,0-11.458,5.13-11.458,11.458s5.13,11.458,11.458,11.458H343.52c6.328,0,11.458-5.13,11.458-11.458   s-5.13-11.458-11.458-11.458h1.918c-40.072-5.036-43.365-31.865-43.602-37.777h133.378c14.198,0,25.766-11.238,26.308-25.303h0.038   v-49.296L461.547,310.913z M256,370.641c-8.074,0-14.62-6.546-14.62-14.62c0-8.074,6.545-14.62,14.62-14.62   s14.62,6.546,14.62,14.62C270.62,364.095,264.074,370.641,256,370.641z M436.893,316.151c0,2.889-2.35,5.239-5.239,5.239H80.334   c-2.889,0-5.239-2.35-5.239-5.239V95.697c0-2.889,2.35-5.239,5.239-5.239h351.319c2.889,0,5.239,2.35,5.239,5.239V316.151z" fill="#4D4D4D"/><path d="M119.196,231.342H97.339c-2.209,0-4,1.791-4,4v63.054c0,2.209,1.791,4,4,4h21.857c2.209,0,4-1.791,4-4   v-63.054C123.196,233.133,121.405,231.342,119.196,231.342z" fill="#4D4D4D"/><path d="M165.631,185.342h-21.857c-2.209,0-4,1.791-4,4v109.054c0,2.209,1.791,4,4,4h21.857c2.209,0,4-1.791,4-4   V189.342C169.631,187.133,167.841,185.342,165.631,185.342z" fill="#4D4D4D"/><path d="M212.067,136.842H190.21c-2.209,0-4,1.791-4,4v157.554c0,2.209,1.791,4,4,4h21.857c2.209,0,4-1.791,4-4   V140.842C216.067,138.633,214.276,136.842,212.067,136.842z" fill="#4D4D4D"/><path d="M258.502,178.842h-21.857c-2.209,0-4,1.791-4,4v115.554c0,2.209,1.791,4,4,4h21.857c2.209,0,4-1.791,4-4   V182.842C262.502,180.633,260.711,178.842,258.502,178.842z" fill="#4D4D4D"/><rect fill="#4D4D4D" height="12.226" width="120.5" x="288.315" y="237.589"/><rect fill="#4D4D4D" height="12.226" width="120.5" x="288.315" y="262.236"/><rect fill="#4D4D4D" height="12.226" width="85.75" x="288.315" y="287.14"/></g></svg>