<?xml version="1.0" ?><!DOCTYPE svg  PUBLIC '-//W3C//DTD SVG 1.1//EN'  'http://www.w3.org/Graphics/SVG/1.1/DTD/svg11.dtd'><svg enable-background="new 0 0 100 100" id="Layer_1" version="1.1" viewBox="0 0 100 100" xml:space="preserve" xmlns="http://www.w3.org/2000/svg" xmlns:xlink="http://www.w3.org/1999/xlink"><path d="M47.176,44.495c-1.855-0.525-8.701-0.446-9.297,0.596c-0.561,0.983,0.701,4.07,1.684,5.613  c0.982,1.543,2.315,1.508,4.982,1.508c2.666,0,4.548-3.2,4.746-4.666C49.606,45.302,48.851,44.969,47.176,44.495z M56.542,44.495  c-1.676,0.474-2.43,0.807-2.115,3.052c0.198,1.465,2.08,4.666,4.746,4.666c2.667,0,3.999,0.035,4.982-1.508  c0.982-1.544,2.245-4.631,1.684-5.613C65.243,44.048,58.397,43.97,56.542,44.495z M71.442,64.463  c1.269-2.677,3.499-4.767,5.097-7.292c0.49-0.774,0.34-1.918-0.328-2.543c-1.271-1.189-2.556-2.208-3.961-3.13  c0.568-1.047,1.167-2.072,1.84-3.071c0.477-0.706,0.28-2.751-0.753-3.571c-2.111-1.676-4.324-3.064-6.614-4.206  c2.602-0.789,5.035-2.016,6.82-3.812c0.827-0.833,0.826-2.824-1.947-3.128c-1.384-0.152-3.271-0.462-5.151-0.824  c-0.102-2.931-2.107-9.816-4.068-11.586c-3.793-3.426-7.13,2.882-10.792,0.171c-0.941-0.696-5.679-2.349-7.628,0.935  c-1.111,1.871-2.548,7.642-4.402,10.73c-3.072,0.936-5.581,1.823-6.268,2.104c-3.923,1.602-4.314,2.518-4.092,3.558  c0.222,1.04,1.393,1.197,2.838,1.152c1.603-0.05,3.152-0.008,4.682,0.066c-6.135,2.341-11.911,5.8-17.263,9.387  c-1.366,0.915-2.014,2.613-0.756,4.033c3.043,3.434,6.653,5.843,9.759,9.211c-3.97,2.455-7.822,5.072-11.558,7.871  c6.964,2.679,13.915,7.179,20.681,8.428c15.866,2.93,30.542-2.784,45.52-7.428C79.618,68.523,75.642,66.371,71.442,64.463z   M68.023,46.72c-0.13,0.143-0.379,0.957-0.579,1.611c-0.393,1.283-0.88,2.879-1.668,3.963c-1.241,1.715-4.365,1.971-6.117,1.971  c-0.689,0-1.38-0.041-1.998-0.117c-2.861-0.354-4.823-5.07-4.842-5.117c-0.089-0.221-0.16-0.445-0.229-0.66  c-0.199-0.627-0.3-0.85-0.465-0.85h-0.589c-0.105,0-0.167,0.102-0.327,0.705c-0.068,0.258-0.143,0.533-0.252,0.805  c-0.018,0.047-1.98,4.764-4.841,5.117c-0.618,0.076-1.31,0.117-1.999,0.117c-1.756,0-4.887-0.256-6.129-1.971  c-0.787-1.084-1.274-2.68-1.667-3.963c-0.2-0.654-0.449-1.469-0.594-1.625c-0.557-0.416-0.722-1.647-0.547-2.539  c0.159-0.816,0.587-1.353,1.203-1.517c0.832-0.219,4.219-0.547,7.192-0.547c2.309,0,3.919,0.193,4.784,0.574  c2.105,0.922,4.95,0.922,7.056,0c0.865-0.381,2.475-0.574,4.784-0.574c2.975,0,6.36,0.328,7.191,0.549  c0.614,0.16,1.039,0.695,1.198,1.504C68.766,45.056,68.581,46.3,68.023,46.72z" style="fill:#4D4D4D"/></svg>
