<?xml version="1.0" ?><!DOCTYPE svg  PUBLIC '-//W3C//DTD SVG 1.1//EN'  'http://www.w3.org/Graphics/SVG/1.1/DTD/svg11.dtd'><svg enable-background="new 0 0 512 512" height="512px" id="Layer_1" version="1.1" viewBox="0 0 512 512" width="512px" xml:space="preserve" xmlns="http://www.w3.org/2000/svg" xmlns:xlink="http://www.w3.org/1999/xlink"><g><path d="M509.531,281.953L432.727,144h15.281c8.844,0,16-7.156,16-16s-7.156-16-16-16h-144v-1   c0-8.281-6.719-15-15-15h-15l-0.891-21.063C282.039,69.266,288,59.359,288,48c0-17.688-14.32-32-31.992-32   C238.32,16,224,30.313,224,48c0,11.359,5.977,21.281,14.898,26.953L238.008,96h-15c-8.281,0-15,6.719-15,15v1h-144   c-8.844,0-16,7.156-16,16s7.156,16,16,16h15.125L2.445,282.688c-2.344,4.203-3.031,9.141-1.938,13.844   c5.219,22.422,29.813,39.438,46.813,39.438h98.125c3.984,0,35.781-15.609,45.078-36.625c2.484-5.609,2.172-12.047-0.797-17.391   L112.898,144h95.109v1c0,8.281,6.719,15,15,15h12.344l-11.344,272h-33c-8.281,0-15,6.719-15,15v1h-12.5   c-10.766,0-19.5,8.734-19.5,19.5v5.75c0,3.734,3.031,6.75,6.75,6.75h210.5c3.719,0,6.75-3.016,6.75-6.75v-5.75   c0-10.766-8.734-19.5-19.5-19.5h-12.5v-1c0-8.281-6.719-15-15-15h-33l-11.344-272h12.344c8.281,0,15-6.719,15-15v-1h94.953   l-76.703,138.688c-2.328,4.203-3.016,9.141-1.938,13.844c5.219,22.422,29.813,39.438,46.813,39.438h98.117   c4,0,35.781-15.609,45.094-36.625C512.813,293.734,512.5,287.297,509.531,281.953z M19.492,288l76.5-138.438L173.633,288H19.492z    M339.32,288l76.5-138.438L493.438,288H339.32z" fill="#4D4D4D"/></g></svg>