<?xml version="1.0" ?><svg height="512" id="Layer_1" version="1.1" viewBox="0 0 512.00003 512" width="512" xml:space="preserve" xmlns="http://www.w3.org/2000/svg" xmlns:cc="http://creativecommons.org/ns#" xmlns:dc="http://purl.org/dc/elements/1.1/" xmlns:rdf="http://www.w3.org/1999/02/22-rdf-syntax-ns#" xmlns:svg="http://www.w3.org/2000/svg"><defs id="defs7"/><g id="g2984" transform="matrix(0.96000051,0,0,0.96000051,10.239594,10.239757)"><g id="g11502" transform="translate(14553.207,-17080.083)"><path d="m -14231.368,17100.161 c -102.896,-39.826 -217.861,7.794 -260.024,105.699 -0.948,2.201 -2.083,4.277 -2.957,6.53 0,0 0,0.02 0,0.03 -1.749,4.718 0.922,10.608 5.615,12.424 4.693,1.817 10.61,-0.749 12.493,-5.416 0,0 0,-0.02 0,-0.03 0,0 0,-0.02 0,-0.03 10.119,-26.223 39.804,-38.434 67.44,-27.737 27.621,10.69 41.297,39.804 31.283,65.976 l -0.02,0.05 c -1.749,4.719 0.898,10.6 5.59,12.417 4.693,1.816 10.61,-0.751 12.493,-5.418 l 0.02,-0.05 c 10.389,-26.572 38.421,-40.518 66.495,-34.548 l -82.299,212.633 c -9.71,25.088 -35.691,36.39 -59.092,27.333 -23.403,-9.059 -34.88,-35.151 -25.808,-58.59 0.958,-2.375 0.934,-5.127 -0.09,-7.477 -1.019,-2.35 -3.02,-4.263 -5.409,-5.188 -2.39,-0.925 -5.157,-0.859 -7.493,0.194 -2.335,1.051 -4.206,3.071 -5.096,5.473 -12.852,33.203 3.705,70.825 36.892,83.67 33.185,12.844 70.863,-4.027 84.173,-38.416 l 82.367,-212.807 c 25.534,14.264 37.368,43.913 27.013,70.94 0,0 -0.01,0.03 -0.02,0.05 -1.749,4.718 0.898,10.599 5.591,12.415 4.693,1.817 10.61,-0.75 12.492,-5.416 0,-0.02 0.01,-0.03 0.02,-0.05 10.215,-26.094 39.929,-38.413 67.549,-27.723 27.624,10.691 41.398,39.738 31.407,66.024 0,0.03 -0.02,0.05 -0.03,0.07 -1.741,4.722 0.903,10.584 5.6,12.391 4.693,1.817 10.629,-0.771 12.502,-5.442 l 0.02,-0.05 c 0.08,-0.216 0.12,-0.451 0.201,-0.666 39.275,-102.212 -13.968,-218.649 -118.933,-259.275 z" id="path4531-4-5-6" style="font-size:medium;font-style:normal;font-variant:normal;font-weight:normal;font-stretch:normal;text-indent:0;text-align:start;text-decoration:none;line-height:normal;letter-spacing:normal;word-spacing:normal;text-transform:none;direction:ltr;block-progression:tb;writing-mode:lr-tb;text-anchor:start;baseline-shift:baseline;color:#000000;fill:#4d4d4d;fill-opacity:1;stroke:none;stroke-width:16;marker:none;visibility:visible;display:inline;overflow:visible;enable-background:accumulate;font-family:Sans;-inkscape-font-specification:Sans"/><path d="m -14251.333,17326.034 c -52.95,0 -52.302,46.215 -52.302,46.215 l -0.338,24.562 c -4.327,-0.06 -5.359,4.23 -5.359,12.778 0,12.812 7.833,26.221 14.936,33.146 2.407,10.072 7.003,18.942 13.191,25.702 -0.217,0.133 -0.452,0.256 -0.667,0.389 l 0,0 c -21.102,12.87 -46.256,21.589 -62.692,30.308 -4.532,2.402 -9.37,6.613 -13.286,11.977 -2.667,3.691 -4.987,7.639 -6.983,11.736 -0.07,0.145 -0.147,0.291 -0.219,0.437 -0.273,0.568 -0.539,1.147 -0.8,1.72 -3.969,8.496 -6.643,17.573 -8.196,26.672 -0.03,0.17 -0.07,0.341 -0.1,0.509 -0.07,0.428 -0.153,0.859 -0.218,1.286 -0.278,1.575 -0.552,3.131 -0.777,4.68 -0.19,1.276 -0.435,4.004 -0.338,5.334 0,0.08 -0.02,0.161 -0.02,0.243 -0.586,8.304 15.009,11.008 15.009,11.008 5.834,1.727 16.563,3.635 29.58,5.382 23.223,3.833 47.005,5.127 70.366,5.845 2.266,0.07 4.638,0.113 7.103,0.12 0.152,0 0.311,0 0.462,0 1.227,0 2.488,0 3.757,0 2.467,0 4.838,-0.05 7.105,-0.12 23.35,-0.718 47.128,-2.016 70.341,-5.845 13.037,-1.75 23.789,-3.655 29.63,-5.382 0,0 15.57,-2.704 14.984,-11.008 0,-0.08 -0.01,-0.162 -0.02,-0.243 0.1,-1.33 -0.148,-4.058 -0.339,-5.334 -0.32,-2.213 -0.683,-4.453 -1.116,-6.717 -1.719,-9.951 -4.77,-19.87 -9.407,-29.024 -0.05,-0.103 -0.09,-0.212 -0.146,-0.315 -1.911,-3.829 -4.09,-7.518 -6.595,-10.984 -3.917,-5.364 -8.778,-9.575 -13.311,-11.977 -16.437,-8.719 -41.589,-17.438 -62.691,-30.308 l 0,0 c -0.217,-0.133 -0.451,-0.256 -0.667,-0.389 6.188,-6.76 10.784,-15.63 13.19,-25.702 7.102,-6.925 14.936,-20.334 14.936,-33.146 0,-8.548 -1.057,-12.836 -5.382,-12.778 l -0.315,-24.562 c 0,0 0.648,-46.215 -52.301,-46.215 z" id="path12346-2" style="fill:#4d4d4d;fill-opacity:1;stroke:none"/></g></g></svg>