<?xml version="1.0" ?><!DOCTYPE svg  PUBLIC '-//W3C//DTD SVG 1.1//EN'  'http://www.w3.org/Graphics/SVG/1.1/DTD/svg11.dtd'><svg enable-background="new 0 0 512 512" height="512px" id="Layer_1" version="1.1" viewBox="0 0 512 512" width="512px" xml:space="preserve" xmlns="http://www.w3.org/2000/svg" xmlns:xlink="http://www.w3.org/1999/xlink"><g><path d="M496,422.063c0,16.188,0,7.656,0,19.156C496,453.875,429.641,480,352,480s-144-26.125-144-38.781   c0-11.5,0-2.969,0-19.156c0-40.344,55.289-34.469,88.625-54.063l31.313,73.406l13.297-33.438C333.781,404,328,393.688,328,383.453   c0-10.235,6.75-15.453,24-15.453c17.992,0,24,5.219,24,15.453s-5.781,20.547-13.219,24.516l13.313,33.438L407.375,368   C440.711,387.594,496,381.719,496,422.063z M419.492,240.797c6.805-62.594-39.344-80.797-72.25-80.797   c-16.32,0-15.266,11.875-15.266,11.875c-33.109,0-53.556,13.453-47.47,68.922c-8.047,0.281-14.789,2.469-11.772,20.406   c3.5,20.875,9.164,25.484,19.188,25.484C296.664,322.125,329.141,352,352,352s55.453-29.766,60.078-65.313   c10.022,0,15.688-4.609,19.188-25.484C434.281,243.266,427.539,241.078,419.492,240.797z M257.523,75.375   c35.969,7.32,67.617,26.289,91.25,52.625h50.125C361.953,70.352,297.563,32,224,32C109.125,32,16,125.125,16,240   c0,98.375,68.383,180.609,160.148,202.25c-0.008-0.359-0.148-0.672-0.148-1.031v-19.156c0-7.655,1.133-14.344,2.984-20.375   c-38-10.602-70.617-34.155-92.68-65.719h69.883c6.5,23.594,15.375,43.297,25.789,57.961c4.57-9.641,11.391-17.069,19.336-22.836   c-4.945-9.891-9.688-21.578-13.766-35.125h71.656c0,0-12-16.469-9.414-31.969h-69.836c-2.648-14.609-4.516-30.594-5.227-48.016   h71.703c-1.227-20.734,3.508-31.516,3.516-31.969h-75.219c0.711-17.438,2.586-33.422,5.227-48.031h79.522   C269.25,152.5,291.797,144,291.797,144C283.586,114.203,271.688,90.25,257.523,75.375z M68.734,304   c-6.219-15.047-10.328-31.156-11.922-48.016h87.547c0.641,16.782,2.328,32.859,4.852,48.016H68.734z M144.359,224.016H56.813   c1.594-16.859,5.703-32.984,11.93-48.031h80.477C146.695,191.156,145,207.219,144.359,224.016z M156.195,144H86.328   c24.266-34.703,61.219-59.891,104.141-68.625C176.305,90.25,164.406,114.203,156.195,144z M187.555,144   c10.352-34.359,24.898-57.203,36.445-67.203c11.531,10,26.086,32.844,36.438,67.203H187.555z" fill="#4D4D4D"/></g></svg>