<svg xmlns="http://www.w3.org/2000/svg" xmlns:cc="http://creativecommons.org/ns#" xmlns:dc="http://purl.org/dc/elements/1.1/" xmlns:inkscape="http://www.inkscape.org/namespaces/inkscape" xmlns:rdf="http://www.w3.org/1999/02/22-rdf-syntax-ns#" xmlns:sodipodi="http://sodipodi.sourceforge.net/DTD/sodipodi-0.dtd" xmlns:svg="http://www.w3.org/2000/svg" height="512" id="svg2" version="1.0" viewBox="0 0 511.99999 511.99999" width="512" xml:space="preserve">
  <defs id="defs1006"/>
  <g id="g3494">
    <path d="m203.1 455.8c0.2 -0.1 0.8 -0.6 0.8 -0.9 -0 -0.1 -0.5 -0.8 -0.6 -1 -0.1 -0.1 -1.2 -1.4 -1.2 -1.4 -0.2 -0.2 -0.5 -0.3 -0.7 -0.5 -0.3 -0.3 -1.1 -1.1 -1.3 -1.5 -0.2 -0.3 -0.3 -0.6 -0.5 -0.8 -0.1 -0.1 -0.2 -0.1 -0.2 -0.2 -0.3 -0.3 -0.6 -0.7 -0.8 -1.1 -0.2 -0.4 -0.5 -0.8 -0.7 -1.2 -0.1 -0.3 -0.1 -0.5 -0.3 -0.8 -0.3 -0.4 -1.1 -1 -1.2 -1.5 -0.1 -0.1 -0.1 -0.2 -0.3 -0.2 -0.7 -0.2 -2.3 1.2 -2.7 1l-0 -0.1c0.2 -0.2 0.6 -0.2 0.7 -0.5l-0 -0.1c-0.1 -0.2 -0.9 -0.4 -1.2 -0.5 -0.1 0 -0.3 0 -0.4 0 -0.5 -0 -0.8 -0.3 -1.3 -0.3 -0.2 0 -1.3 0.2 -1.4 0.2 -0.4 0.1 -0.9 0.3 -1.4 0.3l0 -0.1c0.2 -0.1 0.4 -0.1 0.7 -0.1 0.3 -0.1 0.6 -0.4 0.8 -0.5 0.1 -0 0.2 -0.1 0.2 -0.1 0.2 -0 0.4 -0 0.6 -0 0.2 -0 0.4 -0.2 0.7 -0.2 0.1 -0 1 0 1 0 0.7 0.2 1.2 0.8 2 0.8 0.5 -0 0.5 -0.4 0.9 -0.6 0.8 -0.3 0.8 0.1 1 0.2 0.1 -0 0.1 -0.1 0.2 -0.2 0.3 -0.5 0 -1 -0.2 -1.5 -0.3 -0.6 -0.8 -1.5 -1 -2.1 -0.2 -0.5 -0.2 -1 -0.4 -1.5 -0.2 -0.5 -0.6 -1 -0.6 -1.6 0 -0.3 0.1 -0.5 0 -0.8 -0 -0.2 -0.5 -1.2 -0.6 -1.3l-0.1 -0c-0.2 0 -0.2 0.2 -0.3 0.3 -0.3 0.1 -0.6 0.2 -0.9 0.3 -0.4 0.2 -1 0.8 -1.3 1.1l-0.1 0c-0 -0.2 1 -1.1 1.2 -1.2 0.2 -0.1 0.3 -0.1 0.5 -0.2 0.1 -0.1 1.5 -1.4 1.6 -1.5 0.2 -0.2 0 -0.9 -0 -1.3 -0 -0.2 -0 -0.7 0 -0.9 0.1 -0.2 0.2 -0.4 0.3 -0.6 0.1 -0.7 0.2 -1.6 0.5 -2.2 0.3 -0.6 0.9 -1 1.3 -1.5 0.2 -0.2 0.2 -0.5 0.4 -0.7 0.2 -0.1 0.5 -0.3 0.6 -0.4 0.1 -0.2 0.1 -0.3 0.4 -0.4 0.7 -0.4 2.2 -1 3.1 -1.2 0.8 -0.2 1.7 -0.3 2.5 -0.7 0.3 -0.1 0.8 -0.5 0.6 -0.9 -0.4 -0.2 -1.5 -0.6 -1.8 -0.9 -0.4 -0.4 -0.3 -1.2 -0.9 -1.3 -0.4 -0.1 -0.5 0.1 -0.8 0.2 -0.4 0.1 -1.2 0 -1.7 -0 -0.3 -0 -0.6 -0.2 -0.9 -0.1 -0.2 0 -0.5 0.2 -0.7 0.3 -0.1 0 -1.2 0.2 -1.3 0.2 0.1 -0.5 1.1 -0.4 1.4 -0.5 0.3 -0.1 0.6 -0.2 0.8 -0.2 0.2 0 0.3 0.1 0.5 0.1 0.2 0 0.4 -0.1 0.6 -0 0.2 0 0.4 0.1 0.6 0.1 0.2 0 0.5 -0.1 0.7 -0.2 0.1 -0 0.4 -0.1 0.5 -0.1 0.2 -0.1 0.2 -0.6 0.2 -0.9 -0.2 -0.4 -0.6 -0.8 -0.7 -1.2 -0.1 -0.2 -0 -0.4 -0.1 -0.5 -0.1 -0.2 -0.8 -0.5 -1 -0.6l0.1 -0c0.2 0 1 0.3 1.1 0.5 0.2 0.2 0.2 0.9 0.5 1.2 0.3 0.4 0.7 0.7 0.9 1 0.1 0.2 0 0.5 0.2 0.7 0.2 0.2 0.5 0.4 0.6 0.6 0.2 0.2 0.3 0.5 0.4 0.7 0.2 0.3 0.4 0.2 0.6 0.3 0.2 0.1 0.4 0.4 0.5 0.5 0.3 0.2 1.4 0 1.8 -0 0.4 -0.1 0.7 -0.3 1 -0.4 0.2 -0.1 0.5 -0.1 0.7 -0.2 0.4 -0.2 2 -1.2 2.3 -1.5 0.1 -0.1 0.2 -0.2 0.3 -0.3 0.2 -0.2 0.7 -0.5 0.8 -0.7 0.5 -0.8 0.8 -3 0.9 -3.9 0 -0.2 -0 -0.6 0.1 -0.8 0.4 -1.3 0.6 -1 0.7 -2.6 0 -0.3 0.8 -1.8 0.7 -1.9l-0.1 -0.1c-0.7 -0.3 -0.5 0.3 -0.7 0.6 -0.1 0.1 -0.2 0.2 -0.3 0.4 -0.1 0.2 -0.1 0.6 -0.2 0.7 -0.2 0.2 -0.8 0.3 -1.1 0.3 -0.2 0 -0.4 0.1 -0.5 -0.1 -0.1 -0.2 0.3 -0.3 0.4 -0.4 0 -0.1 -0 -0.3 0 -0.4 0.1 -0.5 1 -0.2 1.1 -0.3l0.1 -0.2 -0 -0.1c-0.1 -0 -0.3 -0.2 -0.3 -0.3 0.1 -0.1 0.2 -0.2 0.3 -0.2 0.5 -0.3 0.4 -0.6 0.7 -0.9 0.1 -0.1 0.3 -0.1 0.3 -0.2 0.2 -0.3 -0.4 -0.6 -0.3 -1 0.3 -0.3 0.4 -0.8 0.7 -1.1 0 -0.1 1.4 -1.2 1.4 -1.2 0.1 -0.1 0.3 -0.1 0.4 -0.2 0.1 -0.1 0.2 -0.5 0.4 -0.6 0.2 -0.1 0.3 -0.2 0.5 -0.3 0.4 -0.2 0.6 -0.5 1 -0.6 0.1 -0 0.5 -0.1 0.6 -0.2 0.1 -0.1 0.1 -0.4 0.2 -0.5 0 -0.1 0.1 -0.1 0.2 -0.2 0.2 -0.3 0.5 -0.6 0.7 -0.9 0.1 -0.1 0.2 -0.3 0.3 -0.5 0.1 -0.2 0.4 -0.4 0.6 -0.5 0.3 -0.2 0.6 -0.2 0.9 -0.3 0.4 -0.1 0.6 -0.4 1 -0.4 0.2 -0 1.2 -0.2 1.3 -0.2 0.2 -0.1 0.2 -0.3 0.4 -0.5 0.2 -0.2 0.6 -0.3 0.8 -0.6 0.3 -0.3 0.5 -0.6 0.8 -0.8 0.1 -0.1 0.2 -0.1 0.3 -0.1 0.2 -0 0.4 -0.1 0.5 -0.1 0.5 -0.1 0.6 -0.3 1.2 -0.3 0.1 -0 0.4 -0 0.5 -0.1 0 -0.2 0 -0.4 0.1 -0.6 0.5 -0.4 1 -0.1 1.6 -0.1l0 -0.1c-0.1 -0.2 -0.2 -0.3 -0.3 -0.5 -0 -0.4 1.6 -1.4 2 -1.5 0.2 -0.1 0.4 -0.1 0.6 -0.2 0.2 -0.2 0.1 -0.2 0.1 -0.4 0.1 -0.3 0.7 -0.8 0.9 -0.9 0.2 -0 0.5 0 0.7 -0 0.1 -0 0.3 -0.1 0.4 -0.1 0.2 -0 0.8 0.4 0.9 0 0 -0.3 -0.8 -0.5 -0.7 -0.9 0 -0.1 0.1 -0.1 0.1 -0.2 0.1 -0.3 -0.5 -0.4 -0.5 -0.7 -0 -0.2 0.2 -0.3 0.3 -0.3 0.1 -0 0.3 -0.1 0.4 -0.1 0.4 -0 0.7 0.3 1 0.4 0.1 0 0.5 -0 0.6 -0.1l0 -0.1 -0 -0.1 -0.2 -0.1c0 -0.2 0.1 -0.1 0.2 -0.2 -0 -0.4 -0.8 -0.2 -1 -0.5 -0.3 -0.3 -0 -1 -0.4 -1.3 -0.1 -0.1 -0.7 -0.4 -0.9 -0.4 -0.2 0 -1.4 0.6 -1.7 0.7 -0.3 0.1 -0.8 0.1 -1.2 0.1 -0.1 0 -0.4 0.2 -0.4 0.2 -0.1 0.1 -0.3 0.2 -0.4 0.3 -0.4 0.2 -1.2 0.3 -1.5 -0.1l0.1 -0c0.3 0.1 0.5 0.2 0.8 0.2 0.6 -0.1 1.2 -0.5 1.7 -0.7 0.3 -0.1 0.7 0 0.9 -0.1l0.1 -0c0.4 -0.2 0.6 -0.6 1.1 -0.8 0.6 -0.2 1.5 0.3 1.8 0 0 -0 0.5 -1.3 0.6 -1.4 0.1 -0.3 0.4 -0.5 0.5 -0.8 0 -0 0 -0.1 0 -0.2 0.1 -0.3 0.3 -0.8 0.3 -1 0 -0.2 -0.1 -0.5 -0 -0.7 0 -0.1 0.1 -0.2 0.1 -0.3 0 -0.2 -0 -0.4 -0 -0.5 0 -0.1 0.1 -0.3 0.1 -0.4 0 -0.1 0.1 -0.8 0 -0.9 -0.1 -0.4 -0.4 -0.5 -0.4 -0.8 -0 -0.3 0.1 -1 -0.2 -1.2 -0.3 -0.3 -0.7 -0.4 -1 -0.6 -0.2 -0.2 -0.2 -0.4 -0.5 -0.6 -0.1 -0.1 -0.3 -0.1 -0.4 -0.1 -0.3 -0 -0.5 -0.3 -0.8 -0.4 -0.1 -0 -0.3 -0 -0.4 -0 -0.5 0.1 -0.8 0.3 -1.1 0.4 -0.3 0 -0.5 -0.2 -0.8 -0.2 -0.2 -0 -0.3 0.2 -0.5 0.2 -0.1 0 -0.2 0 -0.3 -0 -0.2 -0 -0.4 -0.1 -0.5 -0.1 -0.3 -0 -0.6 0 -0.9 -0 -0.1 -0 -0.2 -0 -0.2 -0.1 -0.1 -0.5 -0.6 -0.1 -1 -0.2 -0.2 -0 -0.3 -0.1 -0.4 -0.2 -0.2 -0 -0.3 0 -0.5 -0.1 -0.8 -0 -1.8 0.2 -2.6 -0.1 -0.3 -0.1 -0.4 -0.3 -0.6 -0.4 -0.2 -0.1 -0.5 -0.1 -0.7 -0.3 -0.3 -0.2 -0.3 -0.7 -0.6 -0.9 -0.1 -0.1 -0.2 -0.1 -0.3 -0.2 -0.1 -0.1 -0.2 -0.2 -0.3 -0.3 -0.2 -0.1 -0.3 -0.2 -0.5 -0.3 -0.2 -0.2 -0.4 -0.6 -0.7 -0.7 -0.1 -0 -0.1 0 -0.2 0.1 -0.4 -0 -0.5 -0.6 -0.7 -0.8 -0.1 -0.1 -0.3 -0.2 -0.3 -0.3 -0.1 -0.2 -0 -0.2 -0.2 -0.3 -0.3 -0.2 -0.8 -0.2 -1.1 -0.4 -0.2 -0.1 -0.2 -0.5 -0.4 -0.6 -0.4 -0.2 -0.8 -0.2 -1.2 -0.5 -0.2 -0.2 -0.3 -0.4 -0.4 -0.5 -0.1 -0.1 -0.2 -0.1 -0.3 -0.2 -0.1 -0.1 -1.6 -2 -1.7 -2.2 -0.1 -0.2 -0 -0.4 -0.1 -0.5 -0.2 -0.4 -0.4 -0.7 -0.5 -1.1 -0 -0.2 -0 -0.4 -0.1 -0.5 -0.3 -1 -0.5 -1.7 -0.4 -2.7 0 -0.2 0.2 -0.3 0.3 -0.5 0.2 -0.3 -0 -0.5 0.3 -0.9 0.1 -0.1 0.4 -0.2 0.4 -0.3l-0 -0.1c-0.1 -0.1 -0.1 -0.1 -0.1 -0.2 0 -0.1 0.1 -0.2 0.2 -0.2 0.2 -0.2 0.8 -0.7 1 -0.9 0.1 -0.1 0.2 -0.4 0.4 -0.5 0.2 -0.2 0.3 -0.2 0.5 -0.4 0.2 -0.1 0.1 0.1 0.5 -0.2 0 -0.2 -0.2 -0.3 -0.2 -0.5 0 -0.1 0.1 -0.1 0.2 -0.1 0.1 -0.1 -0 -1 0.3 -1.6 0.4 -0.8 1.9 -0.8 2 -2 0.1 -0.1 0.2 -0.1 0.2 -0.2 0.1 -0.2 0.2 -0.4 0.4 -0.5 0.1 -0.1 0.1 -0.1 0.2 -0.2 0.1 -0.1 0.1 -0.3 0.2 -0.3 0.1 -0.1 0.3 -0.2 0.4 -0.4 0.1 -0.2 0.1 -0.3 0.2 -0.5 0.1 -0.1 0.2 -0.2 0.3 -0.3 0.4 -0.6 0.1 -0.4 0.8 -0.9 0.2 -0.1 0.4 -0.2 0.6 -0.3 0.2 -0.1 0.5 -0.3 0.6 -0.4 0.3 -0.1 0.5 0.1 0.8 0.1 0.5 0 0.9 -0.2 1.3 -0.3 0.3 -0 0.5 0.1 0.8 0.1 0.2 -0 0.4 -0.1 0.6 -0.1 0.2 0 0.3 0.1 0.4 0.1 0.1 -0 0.3 -0.2 0.3 -0.3 -0.1 -0.3 -0.6 -0.3 -0.9 -0.6l-0 -0.1c0.2 -0.3 1.2 0.4 1.6 0.1 0 -0.3 -0.7 -0.2 -0.9 -0.4 -0.3 -0.6 1.2 -0.7 1.4 -0.8 0.1 -0.1 0.3 -0.2 0.4 -0.2 0.1 -0 0.2 0 0.3 -0 0.1 -0.1 0.1 -0.2 0.3 -0.2 0.2 -0 0.5 0.1 0.7 0 0.1 -0 0.1 -0 0.1 -0.1 0.1 -0.1 0.1 -0.2 0.2 -0.2 0.3 -0.2 0.4 -0.2 0.6 -0.6 0 -0.1 0.1 -0.1 0.1 -0.2 0.1 -0 0.1 -0 0.2 -0l0 0.1 0.1 0c0.2 -0 0.7 -0.1 0.9 -0.1 0.1 0 1.2 0.2 1.3 0.2 0.5 0.2 -0 0.7 1.2 0.6 0.2 -0 0.2 0.1 0.4 -0l0 -0.1c-0 -0 -0.1 -0.1 -0.1 -0.1 -0.1 -0.3 0.4 -0.3 0.6 -0.3 0.1 0.1 0.1 0.2 0.2 0.4l0.1 0c0.2 -0.2 0.3 -0.1 0.5 -0 0.5 -0.1 0.4 0.1 0.6 0.2 0.1 0 0.2 -0 0.3 0.1 0.1 0.1 0.1 0.2 0.2 0.2l0.1 -0.1 0 -0.1c-0 -0 -0 -0.1 -0 -0.2l0.1 -0c0.1 0 0.1 0.1 0.2 0.1 0.3 0.1 0.9 -0.1 0.7 -0.4 -0.1 -0.1 -0.1 -0.1 -0.1 -0.2 0.1 -0.1 0.3 -0 0.4 -0.1l0 -0.1c-0.1 -0.1 -0.2 -0.1 -0.3 -0.2 0 -0.1 0.1 -0.1 0.1 -0.2 0 -0.1 -0 -0.2 0.1 -0.3 0.4 -0.1 0.4 -0 0.7 -0.4l0 -0.1c-0.1 -0.1 -0.4 -0.3 -0.6 -0.3 -0.1 -0 -0.2 -0 -0.3 -0.1 -0.1 -0 -0.2 -0.1 -0.3 -0.2 -0.2 -0.1 -0.3 -0 -0.5 -0 -0 -0 -0.6 -0.3 -0.7 -0.3 -0.1 -0.2 -0.1 -0.6 -0.1 -0.8 0.1 -0.1 0.2 -0.1 0.3 -0.3 0.1 -0.2 -0 -0.4 0.1 -0.6 0.1 -0.3 0.3 -0.4 0.5 -0.6 0.3 -0.4 -0 -0.4 0.7 -0.8 0.1 -0.1 0.3 -0.1 0.5 -0.1 0.2 -0.1 0.4 -0.3 0.6 -0.4 0.2 -0.1 1 -0.1 0.8 -0.5l0 -0.1c0.3 -0.2 0.5 0.2 0.7 0.2 0.1 -0.1 0.3 -0.1 0.4 -0.2l-0 -0.1 -0.1 -0c-0.1 -0 -0.2 -0 -0.3 -0.1l-0 -0.1c0.1 -0.1 0.3 -0.2 0.3 -0.4 -0 -0 -0 -0.1 -0 -0.2l0.1 -0c0.4 0.1 0.4 0.1 0.7 0.2 0.1 -0 0.3 -0.2 0.4 -0.3l-0 -0.1c-0.2 -0.2 -0.4 -0.1 -0.6 -0.2 -0 -0.1 -0 -0.1 -0 -0.2 -0 -0.1 -0.1 -0.1 -0.2 -0.1 -0 -0.1 0.2 -0.4 0.2 -0.5 0.1 -0.1 0.2 -0.1 0.3 -0 0.1 -0.1 0.1 -0.2 0.2 -0.3 0.2 -0.2 0.9 -0.3 0.7 -1l-0.1 -0c-0.1 0 -0.1 0 -0.2 -0 -0.1 -0.1 -0.1 -0.2 -0.1 -0.3 -0.4 -0.3 -0 -0.4 -0.1 -0.7 -0.1 -0.2 -0.4 -0.2 -0.5 -0.4 -0.1 -0.3 -0.1 -0.5 -0 -0.7 0 -0.1 -0 -0.2 -0 -0.3 0.1 -0.4 0.7 -0.3 1 -0.5l0 -0.1c-0 -0.2 -0.2 -0.2 -0.2 -0.5 0.1 -0.1 0.3 -0.6 0.3 -0.7l-0.1 -0.1c-0.1 -0 -0.1 -0 -0.2 -0.1 -0.2 -0.3 0.1 -0.5 0.2 -0.8l-0 -0.1c-0.2 0.1 -0.4 0.2 -0.6 0.2 -0.3 -0.1 -0.1 -0.7 -0.2 -0.9 -0.1 -0.4 -0.6 -1.1 -0.6 -1.2 -0 -0.2 0.2 -0.5 0.1 -0.7 -0.1 -0.1 -0.2 -0.2 -0.3 -0.4 -0.1 -0.3 -0 -1.1 0.1 -1.4 0.1 -0.2 0.3 -0.3 0.4 -0.5 0.1 -0.2 0.2 -0.4 0.3 -0.5 0.3 -0.3 0.7 -0.4 0.9 -0.7 0.3 -0.3 0.5 -1 0.9 -1.3 0.2 -0.2 0.9 -0.6 1 -0.8 0.1 -0.2 -0.1 -0.6 -0.1 -0.9 0 -0.2 0.2 -0.4 0.2 -0.4 0.2 -0.1 1.1 -0.9 1.3 -1.1 0.2 -0.1 0.4 -0.2 0.5 -0.3 0.3 -0.3 0.6 -0.5 1 -0.7 1 -0.5 1.8 -0.4 2.6 -0.6 0.7 -0.2 3.2 -1.3 3.7 -1.8l-0 -0c-0.3 -0.3 -0.1 -0.2 -0.2 -0.5l-0.1 -0.1c-0.4 0.1 -0.8 0.4 -1.2 0.4 -0.1 -0 -0.8 -0.2 -0.8 -0.3 -0.1 -0.1 -0.2 -0.3 -0.4 -0.3 -0.1 0 -0.3 0.1 -0.4 0.1 -1.3 0.2 -1.6 -0.7 -2.4 -1 -0.3 -0.1 -0.5 -0.2 -0.7 -0.3 -0 -0 -0.1 -0.1 -0.1 -0.1 -0.2 -0 -0.4 -0 -0.6 -0.1 -0.1 -0 -0.2 -0.2 -0.3 -0.2 -0.1 -0.1 -0.3 -0 -0.4 -0.1 -0.1 -0.1 -0.3 -0.2 -0.4 -0.2 -0.2 -0.1 -0.5 0.1 -0.6 -0.1 -0.1 -0.1 -0.3 -0.5 -0.2 -0.7 0.1 -0.1 0.4 -0.3 0.5 -0.4 0.2 -0.4 0 -0.6 0.6 -0.9 0.5 -0.2 1.1 -0.1 1.5 -0.3 0.2 -0.1 0.5 -0.3 0.6 -0.4 0.1 -0.2 0.2 -0.4 0.4 -0.5 0.3 -0.1 0.6 -0.2 0.9 -0.3 0.1 -0.1 0.3 -0.2 0.4 -0.2 0.1 -0 0.1 -0.1 0.2 -0.1 0.8 -0.1 1.9 -0.3 2.7 -0 0.2 0.1 0.3 0.2 0.5 0.2 0.2 0.1 0.5 0.2 0.6 0.4 0.1 0.2 0.1 0.3 0.1 0.5 0.2 0.2 0.7 -0.1 0.7 0.4l0.1 0.1c0.2 0 0.2 0 0.3 0 0.1 0 0.1 0.1 0.2 0.2 0 0.2 -0.3 0.3 -0.4 0.5 -0 0.1 0 0.2 0 0.3 -0 0.4 -0.5 0.9 -0.3 1.2 0.1 0.1 0.5 0.3 0.7 0.5 0.4 0.4 0.5 1 1.2 1.1 0.5 0.1 0.6 -0.3 1 -0.4 0.3 -0 0.7 0 1 -0 0.8 -0.1 1.6 -0.3 2.3 -0.5 0.2 -0 0.5 -0 0.7 -0.1 0 -0 0.1 -0 0.1 -0.1 0.1 -0.1 0.2 -0.3 0.3 -0.4 0.1 -0 0.2 -0.1 0.2 -0.1l0.1 -0.1c0.3 -0.4 -0 -0.5 0 -0.8 0 -0.3 0.6 -1 0.7 -1.4 0.2 -0.7 -0.2 -2.3 -0.2 -3.1 0 -0.4 0.2 -0.8 0.1 -1.2 -0.2 -0.8 -0.6 -0.8 -0.9 -1.2 -0.3 -0.4 -0.7 -1.5 -0.9 -2 -0.4 -0.1 -0.5 -0 -0.9 -0 -0.9 0.1 -1 0.1 -1.8 0.6 -0.2 0.1 -0.3 0.3 -0.6 0.3 -0.5 0.2 -1 0.3 -1.6 0.5 -0.4 0.1 -0.7 0.3 -1 0.4 -0.2 0.1 -1.4 0.1 -1.6 0.1 -0 0 -0.1 0.1 -0.1 0.1 0.2 0.6 2.6 -0 3.3 0.4 0.2 0.1 0.2 0.2 0.3 0.4 0.2 0.4 0.1 0.4 -0.1 0.6l-0 0.1c0.4 0.3 0.1 0.7 -0.2 0.9 -0.2 0.1 -0.3 0.3 -0.5 0.4 -0.2 0.1 -1.6 -0.1 -1.8 -0.1 -0.2 -0 -0.4 -0.2 -0.6 -0.2 -0.2 0 -0.3 0.3 -0.5 0.3 -0.1 0 -1.2 0.1 -1.3 0.1 -0.2 -0.1 -0.2 -0.2 -0.5 -0.2 -0.3 0 -1 0.1 -1.2 0 -0.3 -0.3 0.2 -0.7 0.4 -0.9 0.2 -0.2 0.3 -0.5 0.4 -0.7 0.2 -0.2 0.8 -0.6 0.9 -0.8 -0 -0.1 -0.2 -0.2 -0.4 -0.2 -0.9 -0.3 -0.9 0.1 -1.4 0 -0.3 -0 -0.5 -0.3 -0.8 -0.4 -0.2 -0.1 -0.5 0 -0.8 0 -0.4 -0.1 -0.7 -0.4 -1.1 -0.5 -0.3 -0 -0.6 -0 -0.8 -0.2 -0.4 -0.2 -1.4 -1 -1.6 -1.4 -0.1 -0.2 -0.1 -0.5 -0.3 -0.7 -0.6 -0.9 -0.7 -1 -0.3 -2 0.2 -0.4 0.3 -0.8 0.5 -1.2 0.1 -0.2 0.3 -0.6 0.3 -0.7 -0.1 -0.1 -0.2 -0.3 -0.2 -0.4 -0.2 -0.5 -0.4 -1.2 -0.2 -1.8 0.1 -0.2 0.2 -0.3 0.2 -0.5 0.1 -0.2 0.1 -0.4 0.1 -0.7 0 -0.2 0.1 -0.4 0 -0.5 -0.1 -0 -0.1 -0.1 -0.1 -0.2 -0.3 -0.3 -0.8 -0.5 -0.9 -1 -0.1 -0.2 -0 -0.5 -0.1 -0.8 -0.1 -0.4 -0.3 -0.6 -0.3 -1 -0 -0.6 -0.4 -1.1 -0.5 -1.6 -0.1 -0.4 -0.4 -2.4 -0.4 -2.8 -0 -0.9 0.5 -1.2 0.6 -1.8 -0 -0.1 -0 -0.3 0 -0.4 0.1 -0.1 1.4 -1.1 1.5 -1.1 0.3 -0.1 1.1 0.1 1.3 -0l0 -0.1c-0.1 -0.1 -0.2 -0 -0.4 -0.1l-0 -0c-0 -0.2 0.2 -0.2 0.2 -0.3l-0 -0.1 -0.1 -0c-0.2 0 -0.5 0.2 -0.7 0.1l-0 -0.1c0 -0.2 0.3 -0.1 0.4 -0.1 0.2 -0.1 0.3 -0.2 0.5 -0.2 0.4 -0.1 0.6 0.2 1 0.2 0.2 0 0.7 -0.1 0.8 0.2 -0 0.1 -0.2 0.2 -0.2 0.2 -0 0.1 -0.1 0.2 -0.1 0.2l0 0.1c0.2 0.1 0.8 -0.1 0.7 0.3 -0.3 0.5 -0.9 -0.1 -1.2 0.3l-0.1 0 -0.1 -0c0 -0.1 0 -0.1 0.1 -0.2l-0 -0.1c-0.2 -0.1 -0.9 0 -0.8 0.4 0 0.1 0.1 0.1 0.1 0.1 0.2 0.4 1.1 -0 1.5 -0 0.3 -0 0.8 0.1 1.1 0.2 0.8 0.2 1.5 0.6 2.3 0.8 0.5 0.1 0.9 0.1 1.4 0.3 0.2 0.1 0.4 0.3 0.7 0.4 0.3 0.1 0.6 0.2 0.9 0.3 0.4 0.2 0.9 0.4 1.3 0.6 0.1 0.1 0.2 0.2 0.4 0.2 0.5 0.1 0.8 -0.4 1.1 -0.3l0.1 0 0 0.1c-0 0 -0.1 0.1 -0.1 0.1 0 0.1 -0 0.1 -0 0.2l-0.1 0c-0 0.1 0 0.1 0.1 0.2 0.4 0.2 0.8 0.1 1.2 0.3 0.7 0.4 1 1.1 1.9 1.4 1.2 0.3 2.7 -0 4 -0.1 0.4 -0 0.8 0.1 1.2 0.1 0.4 0 0.7 -0.3 1.1 -0.2 0.2 0 0.5 0.1 0.7 0.2 0.7 0.1 1.9 0 2.6 -0.1 0.3 -0.1 0.4 -0.2 0.6 -0.4 0.3 -0.2 1.2 -0.3 1.5 -0.5 0.4 -0.1 1 -0.7 1 -0.7 0.2 -0.1 0.8 0.2 1 0 0 -0.1 0 -0.2 0.1 -0.2 0.4 -0.1 0.9 -0.2 1.2 -0.4 0.2 -0.1 0.4 -0.3 0.6 -0.5 0.6 -0.4 2.9 -1.1 3.2 -1.5 0.1 -0.1 0.1 -0.2 0.2 -0.4 0.1 -0.6 0.5 -1 0.7 -1.5 0.1 -0.3 0.1 -0.6 0.2 -0.9 0.1 -0.3 0.6 -0.2 0.6 -0.6l-0.1 -0.1c-0.2 -0 -0.3 0.1 -0.4 0.1 -0.2 0.1 -0.4 0.1 -0.6 0.2 -0.2 0.1 -0.4 0.3 -0.6 0.4 -0.1 0 -0.2 0 -0.3 0 -0.1 -0 -0.1 -0.1 -0.1 -0.2 0 -0.1 0.1 -0.1 0.2 -0.2l-0 -0.1c-0.1 -0.1 -0.3 -0.3 -0.3 -0.5l0.1 -0.1c0.2 -0.1 0.3 0.4 0.5 0.4 0.4 0.2 0.9 -0.1 0.7 -0.6 -0.1 -0.2 -0.1 -0.3 -0.2 -0.5l-0.1 -0 -0.1 0c-0.1 0.1 -0.1 0.1 -0.2 0.1l-0.1 -0c-0.2 -0.1 -0.2 -0.4 -0.4 -0.5 -0 -0.1 -0 -0.3 -0 -0.4 -0.2 -0.2 -0.8 -0.3 -1.1 -0.6 -0.3 -0.2 -0.4 -1.3 -0.6 -1.6 -0.1 -0.2 -0.3 -0.4 -0.3 -0.6 -0 -0.1 0.1 -0.3 0.2 -0.4 0.1 -0.1 0.2 -0.1 0.3 -0.2 0.1 -0.1 0.1 -0.3 0.3 -0.4 0.5 -0.3 0.6 0 0.9 -0.6 0.1 -0.2 0.1 -0.4 0.1 -0.6 0 -0.1 0.1 -0.3 0.1 -0.4 0 -0.4 -0.4 -0.7 -0.3 -1 0 -0.2 0.2 -0.4 0.3 -0.6 0.1 -0.3 0.2 -0.7 0.2 -1 0 -0.2 0.2 -0.4 0.2 -0.6 0 -0.2 -0.1 -0.3 -0.1 -0.5 0.1 -0.1 0.2 -0.1 0.3 -0.1 0 -0 0.1 -0.1 0.1 -0.1l-0 -0.1c-0.1 -0.1 -0.3 -0.3 -0.3 -0.4l0.1 -0c0.3 0 0.3 0.4 0.5 0.4 0.2 0.1 1.4 0.4 1.4 -0 0.1 -0.1 0.3 0.1 0.4 -0.1 0 -0.2 -0 -0.4 0 -0.5l0.1 -1.2c0 -0.2 0.1 -0.4 0.1 -0.6 0 -0.2 0 -0.5 0.1 -0.7 0.1 -0.4 0.2 -0.7 0.3 -1.1 0 -0.2 -0 -0.5 0 -0.6 0 -0.1 0.2 -0.1 0.2 -0.3 -0 -0 -0 -0.1 -0.1 -0.1l-0 -0.1c0 -0 0 -0.1 0 -0.2l-0 -0.1c-0.4 -0.2 -0.9 -0.1 -1.3 -0.4 -0.1 -0.1 -0.7 -0.7 -0.8 -0.8 -0 -0.1 -0.1 -0.3 -0.2 -0.4 -0.2 -0.1 -0.4 0.1 -0.6 -0.2l0 -0.1c-0 -0.1 -0.1 -0.1 -0.1 -0.2l0 -0.1c0.2 -0 0.5 0 0.6 -0.1l0.1 0c0 0.1 0.1 0.1 0.2 0.1 0.1 -0.1 0.1 -0.1 0.2 -0.1l0.1 0c0.1 0.1 0.1 0.3 0.2 0.5 0.1 0.2 1.2 1 1.5 1 0.2 -0.1 0.5 -0.4 0.4 -0.7 -0 -0.1 -0.2 -0.2 -0.3 -0.2 -0.1 -0.1 -0.2 -0.2 -0.3 -0.3 -0.2 -0.1 -0.3 -0.2 -0.5 -0.3 -0.4 -0.2 -0.7 -0.4 -1.1 -0.5 -0.5 -0.1 -1.1 0 -1.6 -0.2l-0 -0.1c0.2 -0.3 0.6 0.1 0.9 0 0 -0.2 -0.7 -0.6 -0.9 -0.8 -0.5 -0.7 0 -1 -0.1 -1.3 -0.1 -0 -0.2 -0 -0.3 -0.1 -0.1 -0.3 0.2 -0.3 0.2 -0.5 0 -0.1 0.3 -0.6 0.3 -0.7 -0 -0 -0.1 -0 -0.1 -0.1l0 -0.1c0.2 -0.2 0.4 -0.1 0.5 -0.3 -0 -0.1 -0.1 -0.1 -0.1 -0.3l0.1 -0.1c0.1 0 0.2 -0 0.2 -0.1 -0 -0 -0 -0.1 -0.1 -0.1 -0.3 -0.2 -0.5 0.2 -0.6 0.1 -0 -0.1 -0.1 -0.1 -0.1 -0.2 -0 -0 -0.1 -0 -0.1 -0 -0 -0 -0 -0.1 -0 -0.2 0.1 -0.1 0.1 -0.1 0.2 -0.2 -0 -0.1 -0.1 -0.2 -0.2 -0.2 -0.1 -0.1 -0 -0.2 -0.1 -0.3 -0.1 -0 -0.2 0.1 -0.3 0.2 0 -0.1 0.1 -0.1 0.1 -0.2 0 -0.2 -0.3 -0.3 -0.2 -0.9 -0.1 0 -0.1 -0 -0.2 -0 0 -0.2 0.1 -0.2 0.2 -0.4 0.7 -0.2 0.3 -0.1 0.8 0 0.1 0 0.2 -0 0.3 -0 0.1 0 0.2 0.1 0.3 0.1 0.4 -0.2 0.4 0.1 0.9 0.1 0.2 -0 0.4 -0.1 0.6 -0 0.2 0.1 0.3 0.3 0.5 0.5 0 0 0.1 0.1 0.1 0.1 0 0.1 -0.1 0.2 -0 0.3 0 0.1 0.1 0.1 0.1 0.2 0.1 0.1 0.1 0.3 0.2 0.4 0.1 0.1 0.3 0.1 0.4 0.2 0.1 0.1 0.3 0.2 0.4 0.2 0.5 0.2 1.2 0.2 1.7 0.4 0.3 0.1 0.6 0.2 0.9 0.3 0.2 0 0.5 0 0.7 -0.1 0.1 -0 0.3 -0.1 0.4 -0.1 0.2 0 0.5 0.2 0.7 0.3 0.5 0.2 1.7 0.3 2.2 0.2 0.6 -0.1 0.8 -0.4 1.5 -0.4 0.3 -0 0.4 0.1 0.6 0.2 0.3 0.1 0.5 -0.1 0.8 -0.1 0.4 0 0.9 0.2 1.3 0.2 0.3 -0 0.7 0 1 -0.1 0.3 -0.1 0.4 -0.3 0.8 -0.3 0.2 0 0.4 0.1 0.6 0.1 0.6 0 1.2 0 1.8 -0.1 0.4 -0.1 0.8 -0.2 1.2 -0.2 0.7 -0.1 1.5 -0.3 2.3 -0.4 0.4 -0.1 0.8 0 1.2 -0 0.5 -0.1 1 -0.2 1.5 -0.3 0.2 -0 0.5 -0.2 0.7 -0.2 0.5 -0.1 1 -0.1 1.5 -0.2 0.3 -0 0.5 -0.2 0.7 -0.2 0.2 -0.1 0.5 0 0.8 -0 0.5 -0.1 1.1 -0.2 1.6 -0.3 0.5 -0.1 1 -0 1.5 -0.1 0.4 -0.1 1.2 -0.4 1.5 -0.5 0.2 -0.1 0.3 -0.2 0.5 -0.3 0.2 -0.1 0.5 -0.1 0.7 -0.1 1.1 -0.1 2.1 -0.4 3.2 -0.5 0.4 -0.1 0.7 -0.2 1.1 -0.3 0.8 -0.1 1.7 -0.2 2.4 -0.4 0.5 -0.1 0.9 -0.5 1.3 -0.6 0.5 -0.2 1.3 -0.4 1.9 -0.6 0.3 -0.1 0.6 -0.3 0.8 -0.4 0.5 -0.1 1 -0.1 1.4 -0.2 0.7 -0.1 1.3 -0.5 2 -0.7 0.4 -0.1 0.8 -0.2 1.3 -0.3 0.5 -0.1 0.8 -0.4 1.2 -0.6 0.2 -0.1 0.5 -0.1 0.8 -0.2 0.6 -0.2 1.2 -0.7 1.8 -1 0.3 -0.2 0.7 -0.2 1 -0.4 0.2 -0.1 0.3 -0.4 0.6 -0.5 0.3 -0.1 0.6 -0.1 0.8 -0.2 0.4 -0.2 0.3 -0.3 0.5 -0.5 0.2 -0.1 0.5 -0.2 0.7 -0.3 0.4 -0.2 0.8 -0.5 1.2 -0.7 0.5 -0.3 1.5 -1.1 1.7 -1.6 0.1 -0.2 -0 -0.3 -0 -0.5 0 -0.1 0.1 -0.2 0.1 -0.3 -0 -0.2 -0.2 -0.3 -0.2 -0.5 -0 -0.3 0.3 -1.5 0.4 -1.7 0.4 -0.9 1.2 -1.5 1.8 -2.3 0.2 -0.3 0.4 -0.6 0.7 -0.9 0.5 -0.5 1.1 -0.9 1.6 -1.3 0.2 -0.2 0.3 -0.4 0.5 -0.7 0.2 -0.2 0.4 -0.4 0.6 -0.6 0.2 -0.2 0.3 -0.5 0.4 -0.7 0.1 -0.1 0.2 -0.3 0.3 -0.4 0.2 -0.3 0.1 -0.7 0.3 -0.9 0.1 -0.1 0.3 -0.3 0.4 -0.4 0.3 -0.4 0.5 -1 0.8 -1.4 0.3 -0.4 0.5 -0.7 0.8 -1.1 0.1 -0.2 0.2 -0.3 0.3 -0.5 0.2 -0.4 0.5 -0.8 0.7 -1.2 0.1 -0.1 0.3 -0.2 0.4 -0.4 0.2 -0.3 0.9 -1 1 -1.4 0 -0.1 0 -0.4 0 -0.6 -0 -0.1 -0 -0.1 -0 -0.2l-0 -0.1c-0.1 -0.5 0 -0.9 -0 -1.4 -0 -0.3 -0 -0.6 -0.1 -1 -0 -0.1 -0.1 -0.3 -0.1 -0.4 -0 -0.3 0.1 -0.6 0.1 -1 -0 -0.4 -0.3 -0.6 -0.4 -1 -0.1 -0.4 0.2 -0.9 0.1 -1.4 -0.1 -0.3 -0.2 -0.4 -0.3 -0.6 -0.2 -0.3 -0.1 -0.9 -0.6 -1 -0.1 -0 -0.2 0 -0.2 0.1l-0 0.1c0.1 0.1 0.1 0.3 0.2 0.4l-0 0.1 -0.1 0c-0.8 -0.3 -1.4 0.1 -2 0.5l-0.1 -0 0 -0.1c0.1 -0.1 0.2 -0.3 0.1 -0.4 -0.3 -0.1 -0.7 -0.2 -1.1 -0.3 -0.4 -0.1 -1.2 -0.7 -1.6 -1.1 -0.1 -0.1 -0.2 -0.2 -0.3 -0.3 -0.3 -0.3 -0.7 -0.5 -1 -0.9 -0.1 -0.2 -0.1 -0.4 -0.3 -0.6 -0.1 -0.2 -0.4 -0.3 -0.5 -0.4 -0.2 -0.3 -0.2 -0.8 -0.3 -1.1 -0.1 -0.3 -0.4 -0.4 -0.5 -0.9 -0.2 -0.6 -0.2 -1.9 -0.1 -2.5 0.1 -0.4 0.6 -0.9 0.8 -1.3 0.1 -0.2 0.2 -0.5 0.3 -0.7 0.1 -0.2 0.3 -0.3 0.4 -0.4 0.2 -0.2 0.3 -0.5 0.4 -0.7 0.1 -0.2 0.4 -0.4 0.6 -0.5 0.1 -0.1 0.1 -0.2 0.2 -0.3 0.3 -0.4 0.6 -0.9 0.5 -1.4 -0.1 -0.2 -0.2 -0.4 -0.4 -0.6 -0.1 -0.2 -0.2 -0.5 -0.4 -0.8 -0.4 -0.5 -0.9 -1 -1.3 -1.6 -0.2 -0.3 -0.3 -0.6 -0.6 -0.8 -0.2 -0.2 -0.5 -0.2 -0.7 -0.4 -0.4 -0.4 -0.6 -0.5 -1.1 -0.9 -0.1 -0.1 -0.2 -0.2 -0.3 -0.3 -0.6 -0.3 -1 -0.5 -1.6 -0.9 -0.1 -0.1 -0.2 -0.2 -0.4 -0.3 -0.4 -0.3 -0.9 -0.5 -1.3 -0.8 -0.3 -0.2 -0.5 -0.4 -0.8 -0.6 -0.2 -0.1 -0.6 -0.3 -0.9 -0.3 -1.4 -0.2 -0.8 -0.4 -1.5 -0.7 -0.2 -0.1 -0.3 -0.1 -0.5 -0.1 -0.4 -0.1 -0.7 -0.3 -1.1 -0.4 -0.2 -0.1 -0.5 -0.1 -0.7 -0.2 -0.2 -0.1 -1.6 -1.1 -1.8 -1.3 -0.3 -0.3 -0.3 -0.9 -0.5 -1 -0.2 -0.2 -0.5 -0 -0.7 -0.1 -0.1 -0.1 -0.1 -0.2 -0.2 -0.2 -0.1 -0.1 -0.2 -0.1 -0.3 -0.1 -0.2 -0.2 0 -0.6 -0.2 -0.9 -0.2 -0.2 -0.5 -0.3 -0.6 -0.6 -0.1 -0.4 0.3 -0.5 0.4 -0.7 0 -0.1 0 -0.2 0 -0.3 0 -0.1 0.1 -0.1 0.1 -0.2 0.1 -0.4 -0.7 -0.7 -1.1 -0.9l-0 -0.1c0.1 -0 0.1 -0 0.2 -0l0 -0.1c-0 -0.1 0 -0.1 0 -0.2l0.1 -0c0.1 0 0.2 0.1 0.2 0.1 0.2 -0.1 0.4 0 0.5 0.1l0.1 -0c0.2 -0.3 0.2 -0.1 0.4 -0.3 0.1 -0.1 0.4 -0.6 0.4 -0.8 0.1 -0.2 0.3 -0.1 0.4 -0.3 0.1 -0.2 -0.1 -0.3 -0.2 -0.5 -0.1 -0.4 0.3 -1.6 -0.2 -1.8 -0.1 -0.1 -0.4 -0.2 -0.5 -0.2 -0 -0.2 0.2 -0.4 0.1 -0.7 -0 -0.1 -0.1 -0.1 -0.2 -0.2 -0 -0.1 -0 -1.1 -0.1 -1.4 -0.1 -0.2 -0.2 -0.3 -0.4 -0.4 -0.3 -0.4 -0.6 -0.8 -0.7 -1.3 -0 -0.2 0 -0.4 -0 -0.6 -0 -0.2 -0 -0.4 -0 -0.5 0.1 -0.4 0.2 -0.9 0.3 -1.3 0 -0.2 -0.1 -0.4 -0.1 -0.6 -0 -0.4 0.2 -0.8 0.3 -1.1 0 -0.2 0 -0.4 0.1 -0.6 0 -0.1 0.1 -0.2 0.2 -0.2 0.2 -0.4 0.4 -0.8 0.8 -1.1 0.1 -0.1 0.3 -0.2 0.3 -0.3 0 -0.2 -0.2 -0.4 -0.2 -0.6 -0 -0.3 0.2 -1.8 0.2 -1.9 -0.1 -0 -0.2 -0.2 -0.2 -0.3 0 -0.1 0.1 -0.2 0.2 -0.2 0.2 -0.1 1.4 0 1.7 0l0 0.3c0.7 -0.1 1.4 -0.3 1.7 -1 0.2 -0.4 0.2 -0.9 0.3 -1.4 0 -0.2 -0 -0.2 -0.1 -0.4 -0 -0.1 0 -0.3 0 -0.4 0 -0.3 -0.1 -0.6 -0.1 -0.9 -0 -0.2 -0.2 -0.5 -0.2 -0.7 -0.1 -0.6 -0.1 -1.4 -0.1 -2 -0 -0.2 -0.2 -0.4 -0.2 -0.6 -0.3 -0.8 -0.7 -2.8 0.2 -3.3 0 -0 0 -0 0.1 -0 0.4 -0.3 0.3 -0.3 0.5 -0.7 0.4 -0.9 -0.3 -1 -0.3 -1.4 -0.2 -0.3 -0.7 -0.7 -0.7 -1.1 0.1 -0.5 0.1 -1 0.5 -1.3 0.1 -0.2 0 -0.5 -0 -0.7l-0.4 0c0 -0 0.2 -0.1 0.2 -0.2 0.1 -0.4 -0.3 -1 -0.5 -1.2 -0.3 -0.8 0.5 -1.2 1.3 -1.1 0.6 -0.2 1.3 -2.8 1.5 -3.6 0 -0 -0 -0.2 -0.1 -0.2 -0.1 -0.2 -0.2 -0.5 -0.4 -0.7 -0.2 -0.3 -0.8 -0.2 -0.9 -0.7 0.1 -0.5 0.7 -0.8 1.1 -0.9 0.4 -0.1 0.1 -0.6 0.1 -0.7 -0 -0.2 0.1 -0.4 0.1 -0.6 0.1 -0.2 0.5 -0.4 0.5 -0.7 0.1 -0.5 0.3 -0.9 0.4 -1.4 0.1 -0.4 -0.2 -0.4 0 -0.9l0.4 -0.8c0.4 -0.7 -0.7 -1.7 -0.5 -2.1 0.1 -0.1 0.3 -0.1 0.5 -0.1 0 0.1 0.1 0.1 0.2 0.1 0.4 0.2 0.4 -0.2 0.6 -0.4 0.4 -0.8 0.1 -0.7 0.1 -0.9 0 -0.2 0.1 -0.3 0.1 -0.5 -0 -0.2 -0.1 -0.5 -0.1 -0.7 -0 -0.2 0 -0.4 0 -0.5 -0 -0.2 -0.3 -0.5 -0.4 -0.6 -0.2 -0.2 0 -0.5 -0.1 -0.6 -0.1 -0.1 -0.5 -0.4 -0.5 -0.5 0.1 -0.3 0.1 -0.6 0.1 -0.9 0 -0.2 0.5 -0.7 0.7 -0.8 0.1 -0.1 0.3 -0.2 0.4 -0.3 0.3 -0.3 0.3 -0.3 0.7 -0.6 0.1 -0.1 0.4 -0.3 0.5 -0.3 0.2 -0.4 0.6 0 0.9 -1.2 0 -0.2 0.1 -0.5 0.2 -0.7 0 -0.2 -0.7 -0.7 -0.4 -1l0.1 -0.1 0.2 0c0.5 0 1.1 -0.3 1.4 -0.5 0.5 -0.3 0.5 -0.6 0.8 -1 0.1 -0.2 0.3 -0.3 0.4 -0.5 0.2 -0.3 0.7 -0.3 0.9 -0.6 0.6 -1 -0.2 -1.6 0.7 -2.6 1.1 -1.2 0.9 -0.4 1.5 -0.7 0.7 -0.3 0.8 -0.5 1.3 -1 0.3 -0.3 0.6 -1 1.1 -1 0.1 -0.1 0 -0.3 0 -0.5 0.2 -0.4 0.6 -0.7 0.9 -1 0.1 -0.1 0.1 -0.3 0.2 -0.3 0.1 -0 0.1 -0 0.2 -0 0.2 -0.2 0.4 -0.2 0.6 -0.4 0.2 -0.2 0.2 -0.4 0.5 -0.7 0.1 -0.2 -0 -0.4 0.1 -0.6 0.3 -0.4 0.6 -0.2 0.8 -0.4 0.1 -0.2 0.3 -0.4 0.4 -0.6 0.4 -0.6 0.2 -1.3 0.5 -1.9 0.1 -0.2 0.2 -0.3 0.3 -0.4 0.1 -0.1 0.1 -0.3 0.2 -0.4 0 -0 0.1 -0.1 0.1 -0.1 0.1 -0 0.1 -0.1 0.2 -0.1 0.2 -0 0.3 -0.1 0.5 -0.1 0.2 -0.1 0.3 -0.2 0.5 -0.3 0.3 -0.1 0.5 -0 0.8 -0.1 0.2 -0.1 0.4 -0.6 0.4 -0.8 0 -0.1 -0.1 -0.2 -0.1 -0.3 -0 -0.3 0.1 -0.4 0.3 -0.6 0.3 -0.2 0.7 -0.2 1 -0.6 0.5 -0.8 -0.4 -1.8 1 -2 0.2 -0 0.4 -0 0.5 -0 0.4 -0.2 0.4 -0.7 0.7 -1 0.3 -0.3 0.9 -0.9 1.2 -1.2 0.1 -0.1 0.3 -0.1 0.4 -0.2 0.1 -0.2 -0 -0.7 -0.1 -0.9 -0 -0.6 0.5 -0.6 1 -0.7 0.1 -0 0.3 -0.1 0.4 -0.2 0.1 -0 0.2 0 0.3 -0.1 0.3 -0.2 -0.6 -1.1 0.2 -1.8 0.1 -0.1 1.5 0.2 1.7 0.4 0.1 0.1 0.1 0.5 0.4 0.6 0 0 0.1 -0 0.1 -0 0.1 -0.2 0.1 -0.4 0.2 -0.7 0.2 -0.9 0.2 -0.7 -0.5 -1.2 -0 -0 -0.5 -0.3 -0.5 -0.3 -0.1 -0.1 -0.1 -0.2 -0.1 -0.3 0.1 -0.3 0.8 -0.3 1 -0.5 0.1 -0.1 0.9 -0.7 0.9 -0.8 0.1 -0.2 -0 -0.2 -0 -0.3 0.1 -0.2 0.2 -0.4 0.4 -0.4 0.2 0.1 0.1 0.4 0.2 0.6 0 0 0.1 0.1 0.2 0.1 0.2 -0.2 0.1 -0.5 0.3 -0.6 0.1 -0 0.1 -0 0.2 -0.1 0.1 -0.1 0.1 -0.4 0.2 -0.5l0.1 -0c0.2 0 0.3 0.3 0.5 0.3 0.2 0 0.3 -0.4 0.7 -0.7 0.2 -0.1 0.3 -0.2 0.4 -0.4 -0.1 -0.2 -0.1 -0.3 -0.2 -0.4 0.1 -0.2 0.4 -0.2 0.6 -0.4 0.1 -0.1 0 -0.5 0.2 -0.6 0.2 -0.1 0.6 -0.1 0.8 -0.1 0.4 -0.2 0.5 -0.9 1.1 -0.8 0.3 0.2 0.2 0.4 0.5 0.5l0.1 -0c0.1 -0.1 0 -0.3 0 -0.5 0.2 -0.6 1.4 0.3 1.2 -0.4 -0.2 -0.2 -0.6 -0.4 -0.7 -0.6 0.1 -0.1 0.3 -0.3 0.4 -0.2 0.1 0.1 0.3 0.3 0.3 0.3 0.2 0.1 0.3 -0.2 0.5 -0.3 0.1 -0 0.3 0 0.5 0 0.1 -0.1 0.1 -0.2 0.2 -0.3 0.1 -0.1 0.2 -0.2 0.3 -0.3 0.2 -0.3 -0 -1.2 0.1 -1.4 0.1 -0.2 0.5 -0.1 0.7 -0.3 0.2 -0.2 0.2 -1.1 0.5 -1.3l0.1 0c0.2 0.1 0.1 0.3 0.2 0.5 -0 0 0 0.2 0.2 0.2 0.2 -0 0.3 -0.3 0.5 -0.3 0.2 -0 0.5 0.3 0.8 0.1 0.1 -0.1 -0.1 -0.6 -0.1 -0.8l0 -0c0.2 -0.1 0.3 0.5 0.5 0.6 0.5 0.1 0.5 -1.2 0.8 -1.3 0.3 -0.1 0.4 0.6 0.6 0.7 0.1 0 0.3 -0.3 0.4 -0.3 0.2 -0.1 0.4 0 0.6 -0.1 0.1 -0.2 -0.1 -0.5 -0.3 -0.6l-0 -0.1c0.1 -0.1 0.3 -0.1 0.4 -0.1 0.1 -0 0.2 -0.2 0.3 -0.2 0.3 -0.1 0.5 0.6 0.6 0.7 0.1 0 0.1 0.1 0.2 0.1 0.3 -0.1 -0.1 -0.7 0 -0.9l0 -0c0.2 -0.1 0.4 0.4 0.5 0.5 0 0 0.1 0.1 0.2 0.1 0.4 -0.1 -0.1 -0.6 0.4 -0.8 0.1 -0 0.2 -0.1 0.3 -0.1 0.3 -0.1 0.2 -0.6 0.2 -0.8 0 -0.2 0.2 -0.3 0.2 -0.5 0.1 -0.1 0 -0.7 0.3 -0.6 0.2 0.1 -0 0.5 0.1 0.6 0.1 0.1 0.3 0 0.4 0.1 0.8 0.1 0.6 -0.4 0.9 -0.6 0.1 -0.1 0.4 -0.1 0.4 -0.3 0.1 -0.2 0 -0.3 0.1 -0.5 0.3 -0.3 0.6 0 0.7 -0.1 0.1 -0.2 -0.1 -0.6 0.2 -0.6 0.2 0.1 0.3 0.4 0.5 0.3 0.2 -0.1 0.1 -0.8 0.6 -0.6 0.1 0.1 -0 0.3 0.3 0.5 0 0 0.4 -0.1 0.4 -0.3 -0 -0.2 -0.1 -0.3 -0.1 -0.4 -0 -0.1 -0.2 -0.3 0.1 -0.2 0.3 0.1 0.5 -0.1 0.3 -0.3 -0.1 -0.2 -0.2 -0.5 0 -0.6 0.2 -0 0.4 -0.2 0.4 -0.3 -0.1 -0.1 -0.1 -0.2 0.1 -0.3 0.2 -0.1 0.3 -0.2 0.3 -0.3 -0 -0.1 -0.1 -0.2 0 -0.3 0.2 -0 0.4 -0.3 0.5 -0.5 0.1 -0.1 0.3 -0.4 0.1 -0.5 -0.2 -0.1 -0.2 -0.3 -0 -0.4 0.2 -0.1 0.2 -0.3 -0 -0.4 -0.2 -0.1 -0.2 -0.4 -0.3 -0.5 -0 -0.1 -0.1 -0.3 -0.2 -0.3 -0.1 0 -0.3 -0.1 -0.1 -0.3 0.2 -0.1 0.2 -0.3 -0.1 -0.3 -0.2 -0 -0.3 -0.2 -0.3 -0.3 0 -0.1 -0 -0.3 0.1 -0.4 0.2 -0.1 0.3 -0.2 0.3 -0.3 0 -0.1 0 -0.2 -0.1 -0.2 -0.1 -0 -0.3 -0.1 -0.2 -0.3 0.2 -0.2 0.2 -0.5 0.2 -0.6 0 -0.1 0.1 -0.4 -0 -0.5 -0.1 -0.1 -0.1 -0.3 -0 -0.5 0 -0.2 0.1 -0.4 0.3 -0.4 0.1 -0.1 0.1 -0.2 0.1 -0.3 -0 -0.2 -0 -0.4 0.1 -0.5 0.1 -0.1 0.4 -0.4 0.5 -0.5 0.1 -0.2 0.3 -0.6 0.3 -0.7 0 -0.2 0.2 -0.4 0.2 -0.6 0 -0.2 -0 -0.5 0 -0.5 0.1 -0.1 0.2 -0.2 0.2 -0.2 -0.2 -0.3 -0.4 -0.5 -0.6 -0.8 -0.1 -0.1 -0.1 -0.2 -0.1 -0.3 -0.1 -0.2 -0.3 -0.4 -0.5 -0.6 -0.1 -0.1 -0.3 -0.3 -0.4 -0.4 0 -0.1 0 -0.1 0 -0.2 0.1 -0.5 0.1 -0.4 -0.1 -0.8l-0.2 -0.3c0 0 -0.1 -0.1 -0.2 -0.1 -0.1 -0 -0.2 -0.2 -0.2 -0.3 -0 -0 -0.1 -0.1 -0.2 -0.2 -0.1 -0 -0.1 -0.1 -0.1 -0.2 -0 -0.1 -0.2 -0.1 -0.3 -0.2 -0.2 -0 -0.1 -0.2 -0.1 -0.2 0 0 -0 -0.2 -0.1 -0.2 -0 -0.1 -0 -0.2 -0 -0.2 0 -0 0.1 -0.1 0.2 -0 0.1 0.1 0.1 -0.3 0.1 -0.3 0 -0.1 -0 -0.2 -0.1 -0.2 -0 0 -0.1 -0 -0.2 -0.1 -0.1 -0 -0.1 -0.1 -0.1 -0.1 0 -0 0.2 -0.1 0.3 -0.1 0.1 -0 0.1 -0.1 0 -0.1 -0 -0.1 -0.1 -0.1 -0.1 -0.2 -0 -0 -0.1 -0.1 -0.1 -0.2 -0.1 -0.1 -0 -0.1 0.1 -0.3 0.1 -0.1 0 -0.1 0.1 -0.1 0.1 -0 0.1 -0.2 0.1 -0.3 0 -0.1 -0.2 -0.3 -0.3 -0.3 -0.1 -0.1 -0 -0.2 0.1 -0.2 0.1 -0.1 -0.1 -0.2 -0.3 -0.2 -0.1 0 -0 -0.2 -0 -0.2 0 -0.1 -0.1 -0.2 -0.2 -0.3 -0.1 -0.1 0.3 -0.2 0.4 -0.3 0 -0.1 -0 -0.2 -0.1 -0.2 -0 -0.1 -0.1 -0.3 -0.2 -0.2 -0.1 0 -0.3 -0 -0.2 -0.1 0.2 -0.2 0.1 -0.2 -0 -0.3 -0.1 -0.1 -0.3 -0.2 -0.6 -0.2 -0.2 -0 -0.2 0.1 -0.1 0.2 0.1 0.1 -0 0.1 -0.1 0.2 -0.1 0.1 -0.1 -0 -0.2 -0.1 -0 -0.1 -0.1 -0.5 -0.1 -0.5l-0.1 -0.1c-0.1 -0.1 -0.1 -0.1 -0.2 -0.2 -0.5 -0.4 -0.4 0.2 -0.7 0.2 -0.1 -0 -0.2 0.5 -0.6 0.5 -0.1 -0 -0.1 -0.3 -0.2 -0.4 -0.3 -0.6 -0.2 -0.5 0 -0.9 0.1 -0.1 0.2 -0.3 0.1 -0.5 -0.2 -0.1 -0.6 0.4 -0.7 0.6 -0.2 0.2 -0.5 -0.1 -0.6 0.1 -0.1 0.3 -0.3 0.5 -0.3 0.7 -0.2 0.3 -0.4 -0.5 -0.6 -0.5 -0.1 0.1 -0.4 0.1 -0.5 0.2 -0.1 0.1 -0.1 0.5 -0.3 0.5 -0.1 0 -0.3 -0.2 -0.4 -0.1 -0.1 0.1 0 0.5 -0.2 0.7 -0.1 0 -0.2 0.6 -0.3 0.7 -0.3 0 -0.2 -0.4 -0.3 -0.6 -0.1 -0.1 -0.4 -0.5 -0.6 -0.6 -0.1 -0 -0.2 0.1 -0.3 0.2l-0.1 -0c-0.4 -0.2 0.2 -0.7 -0.8 -0.6 -0.1 0.4 0.1 0.5 0.1 0.9 0 0 0 0.1 -0 0.1 -0.2 0.2 -0.6 -0.2 -0.8 0.1 -0.2 0.3 0.2 0.7 0.3 1 0 0.3 -0 0.3 0.2 0.7 0.1 0.2 0.4 0.4 0.4 0.7 0 0.3 -0.2 0.6 -0.3 0.8 -0.2 0.4 -0.2 0.5 -0 0.9 0.4 0.9 -1.2 -0.2 -0.8 1.1 0.1 0.3 0.4 0.6 0.4 0.9 0 0.6 -0.5 0.6 -0.4 1 0.1 0.5 0.7 0.5 0.7 0.8 -0 0.2 -0.7 0.4 -0.8 0.7 -0.1 0.2 0.5 0.4 0.4 0.7 -0 0.1 -0.5 0.7 -0.6 1 -0.1 0.2 0 0.4 0 0.5 0 0.6 -0.4 0.8 -0.7 1.1 -0.3 0.2 -0.7 0.6 -0.7 1 0 0.1 0.3 0.3 0.3 0.6 0 0.2 -0.2 1.1 -0.5 1.1 -0.2 0 -0.6 -0.6 -1.3 0 -0.5 0.4 0.1 1.8 -0.9 1.6 -0.2 -0 -0.5 -0 -0.7 0.1 -0.2 0.1 -0.3 0.4 -0.4 0.5 -0.2 0.2 -0.5 0.3 -0.6 0.4 -0.1 0.1 -0.2 0.3 -0.2 0.4 -0 0.3 0.3 0.7 0.2 0.8 -0.1 0.2 -0.8 0.4 -1 0.3 -0.1 -0 -0.2 -0.2 -0.2 -0.3 -0.4 -0.4 -0.6 0.1 -0.9 0.2 -0.6 0.2 -0.7 -0.1 -1.2 0.3 -0.2 0.2 -0.4 0.3 -0.5 0.5 -0.4 0.5 -0.1 0.8 -0.2 1.2 -0.3 0.3 -0.7 -0 -1.1 0.1 -0.5 0.2 -0.2 0.7 -0.3 0.8 -0.2 0.2 -0.4 -0.1 -0.6 0.2 -0.4 0.6 0.5 0.7 0.4 1.1 -0 0.2 -0.3 0.4 -0.3 0.6 -0 0.2 0.1 0.3 0.1 0.5 -0 0.3 -0.9 0.7 -1.2 0.9 -0.2 0.2 -0.3 0.7 -0.6 0.8 -0.1 0 -0.4 -0 -0.6 -0 -1.2 -0.2 -0.8 -1.1 -1.3 -1.4 -0.3 -0.2 -0.6 0.1 -1 0 -0.4 -0.1 -0.8 -0.6 -1.1 -0.6 -0.2 -0.1 -0.8 0 -1.1 0.1 -0.5 0.2 -0.6 0.8 -1.1 1 -0.2 0.1 -0.5 0.1 -0.7 0.3 -0.2 0.2 0.1 0.7 -0.1 1.1 -0.1 0.2 -0.5 0.5 -0.7 0.7 -0.4 0.4 0 1 -0.6 1.1 -0.7 0.2 -0.6 -0.3 -0.9 -0.4 -0.1 0 -0.1 0.1 -0.3 0 -0.2 -0.1 -0.5 -1.9 -1.5 -1.9 -0.1 -0 -0.5 0.2 -0.7 0.2 -0.2 0 -0.4 -0.1 -0.6 0 -0.4 0.2 -0.1 0.6 -0.2 0.9 -0.3 0.9 -0.3 0.5 -0.9 0.9 -0.2 0.1 -0.4 0.3 -0.7 0.3 -0.7 0 -1 -1 -1.9 -1.3l0 -0.7c-1.6 1 -3 -1.1 -5 -0.7 -0.5 0.1 -1.5 0.5 -2 0.1 -0.1 -0.1 -0.1 -0.1 -0.2 -0.2 -0.1 -0.1 -0.7 -0.5 -0.9 -0.6 -0.2 -0.2 -0.5 -0.3 -0.8 -0.5 -0.5 -0.3 -1 0.2 -1.3 -0.1 -1.1 -1 -0.8 -0.3 -2.2 -0.9 -0.3 -0.1 -0.6 -0 -1 0 -0.2 0 -1.1 0.1 -1.2 -0 -0.2 -0.1 -0.3 -0.3 -0.6 -0.3 -0.9 -0 -1.4 0.3 -2.2 0.5 -0.2 0 -0.3 -0.1 -0.5 -0.1 -0.2 -0 -0.2 0 -0.4 0.1 -0.4 0.1 -0.3 -0.3 -0.9 0.2 -0.1 0.1 -0.9 0.3 -1 0.1 -0.1 -0.2 0.4 -0.8 0 -1.1 -0.1 -0.1 -0.3 -0.2 -0.4 -0.2 -0.2 -0.1 -0.3 -0.1 -0.4 -0.3 0.2 -1.3 1.2 -0.7 1.4 -1.1 -0 -0.1 -0.1 -0.8 0 -0.9 0.1 -0 0.2 -0 0.3 0 0 0 0.1 0.2 0.1 0.3l0 0 0 -0c0.2 -0.2 -0.1 -0.6 -0 -0.8 0 -0.1 0.2 -0.1 0.3 -0.1l0.1 -0 0 -0.1c-0 -0.2 -0.3 -0.7 -0.2 -0.9l0.1 -0c0.7 0 1 -0.3 1.4 -0.8 0.1 -0.1 0.4 0.2 0.6 -0l0 -0.1c0 -0.3 -0.5 -0.4 -0.5 -0.7 0 -0.1 0.1 -0.1 0.1 -0.1 0.4 -0.1 0.2 0.1 0.7 -0.1 0 -0 0.1 -0.1 0.1 -0.1l-0.2 -0.3 0 -0.1 0.1 -0.1 0.3 0 0.1 -0.1c0.1 -0.2 -0 -0.4 -0 -0.6 -0 -0.2 0 -0.5 0 -0.8 0 -0 0 -0.1 0 -0.1 0 0 0.1 0 0.1 0 0.1 0 0.2 0.1 0.3 0.1 0.1 0 0.4 -0.1 0.3 -0.3 -0 -0 -0.2 -0.2 -0.2 -0.3 -0 -0.1 0.2 -0.3 0.2 -0.4 -0.1 -0.4 -0.4 -0.7 -0.4 -0.8 0 -0.2 0.2 -0.3 0.2 -0.5 -0 -0.1 -0.2 -0.2 -0.3 -0.3l0.1 -0.1c0.2 -0 0.4 0 0.5 -0.1l0 -0.1c-0.2 -0.5 -0.5 -0.1 -0.3 -1.1 0 -0.1 0.3 -0.2 0.4 -0.2 0.1 -0.1 0.1 -0.2 0.1 -0.2 0.2 -0.7 -0.2 -0.6 -0.1 -1.1 0.1 -0.2 0.5 -0.2 0.7 -0.4 0 -0.1 0 -0.2 -0 -0.3 -0.2 -0.1 -0.5 -0.2 -0.5 -0.4l0 -0.1c0.2 -0.1 0.3 0 0.5 0l0.1 -0 0 -0.1c-0.2 -0.3 0.2 -0.8 0.5 -0.9 0.2 -0 0.3 0 0.5 -0 0.2 -0.1 0.3 -0.2 0.5 -0.3 0.1 -0 0.1 -0 0.2 -0.1 0.3 -0.2 0.5 -0.5 0.8 -0.8 0.1 -0.1 0.6 -0.3 0.8 -0.4 0 -0.1 0 -0.2 0 -0.3 -0.3 -0.2 -0.6 -0.3 -0.4 -0.7 0.2 -0.1 0.4 -0.2 0.5 -0.3 0 -0.1 0 -0.2 0 -0.2l-0.3 -0.3 -0 -0.2 0.1 -0.1c0.3 -0.1 0.7 -0.1 0.7 -0.5 -0 -0.4 -0.3 -0.6 -0.2 -1l0.1 -0.1c0.1 -0 0.2 0 0.2 0.1 0.3 0 0.7 -0.4 0.8 -0.7l-0 -0.1c-0.1 0 -0.2 0 -0.3 0l-0.1 -0.1c-0 -0.1 0.2 -0.6 0.2 -0.6 0.2 0 0.3 -0.1 0.5 -0.1 0.1 -0 0.2 0.1 0.3 0.1l0 -0c0.2 -0.2 -0.1 -0.7 0.1 -0.9 0.2 -0.2 0.4 0.2 0.8 0.2l0.1 -0.1 0.1 -0.5 0.1 -0 0.2 0c0.4 -0.3 0 -0.7 0.1 -0.8 0.2 -0.6 0.3 -0.8 -0 -1.3 -0.2 -0.3 -0.4 -0.6 -0.8 -0.6 -0.1 -0.1 -0 -0.3 -0.1 -0.5 -0.4 -0.3 -0.5 -0.2 -0.4 -0.8 0 -0.1 0.1 -0.2 0 -0.3 -0.4 0.2 -0.3 0.1 -0.7 -0.1 -0.1 -0.2 -0.5 -0.7 -0.5 -0.7 -0.1 -0.3 0.2 -0.2 -0.2 -0.7 -0 -0.1 -0 -0.1 -0.1 -0.2 -0.2 -0.2 -0.5 -0.2 -0.8 -0.5 -0.1 -0.1 -0.1 -0.4 -0.2 -0.5 -0.1 -0 -0.9 -0.2 -1 -0.1 -0.1 0.2 -0.2 -0.1 -0.4 0.1l-0.1 -0 -0.1 -0.1c0 -0.1 0 -0.2 -0.1 -0.3l0.1 -0.1 -0 -0.1c-0.2 0.1 -0.4 0.1 -0.6 0.1l-0.2 0c-0.1 -0.1 -0.2 -0.4 -0.4 -0.4 -0.1 0 -0.1 0.1 -0.2 0.1 -0 -0 -0.1 -0.1 -0.2 -0.1 -0.1 -0.2 -0.1 -0.2 -0.2 -0.4 0 0 -0.1 -0.2 -0.2 -0.2 -0.1 -0 -0.2 -0 -0.3 0l-0.1 -0c0 0 -0.4 -0.3 -0.4 -0.4l-0 -0.1c-0 -0 -0.1 -0.1 -0.1 -0.1l-0.2 0.1c-0.3 0.1 -0.8 1 -1 0.9 -0.2 -0.2 -0.1 -0.3 -0.5 -0.6 -0.3 -0.1 -0.3 -0.5 -0.5 -0.5l-0.1 -0c0 0 0.2 -0.3 -0.3 -0.7 -0.1 -0.1 -0.3 -0.2 -0.5 -0.2 -0 -0 -0.2 -0.2 -0.2 -0.2 -0.2 0.1 -0.6 -0.3 -0.8 -0.3 -0.4 0.1 -1.3 0.3 -1.4 -0.2l-0.2 -0c-0.2 -0.1 -0.2 -0.4 -0.3 -0.5l-0.2 0c-0.3 -0.1 -0.7 -0 -1 -0.2 -0.1 -0.2 -0.2 -0.3 -0.4 -0.4 -0.1 0 -0.2 -0.1 -0.3 -0.1l-0.1 0c-0 -0.2 -1.2 -1.1 -1.4 -1l-0.2 -0.1c-0.2 -0.2 -0.4 -0.2 -0.4 -0.3 -0 -0.1 -0.1 -0.1 -0.1 -0.2 -0.2 -0.1 -0.3 -0.1 -0.5 -0.2 -0.1 0.1 -0.1 0.1 -0.2 0.1l-0.2 -0.1c-0.1 -0.2 -0.3 -0.1 -0.4 -0.4 -0.1 -0.1 -0.7 -0.5 -0.8 -0.5 -0.1 -0 -0.2 -0 -0.3 -0.1 -0.1 -0.1 -0.2 -0.2 -0.2 -0.3 -0.1 -0.1 -0.3 -0.1 -0.5 -0.1 -0 -0 -0.6 -0.3 -0.7 -0.4 -0.2 -0.1 -0.4 -0.8 -0.5 -1 -0.1 -0.2 -0.4 -0.1 -0.5 -0.2 -0.1 -0.2 -0.4 -0.4 -0.5 -0.6l-0.2 -0.5c-0.1 0 -0.2 -0.1 -0.2 -0.2 -2.3 -1.5 -4.6 -3 -6.9 -4.5 -0.3 0.1 -0.6 0.3 -0.9 0.4 -0.3 0.1 -0.8 0 -1.1 0 -0.5 0 -1 0.1 -1.5 0.1 -0.1 0 -0.3 -0.1 -0.4 -0.2 -0.7 -0.4 -0.2 -0.3 -0.5 -0.6 -0.1 -0.1 -0.3 -0.1 -0.4 -0.2 -0.5 -0.2 -0.1 -0.3 -0.9 -0.3 -0.1 0 -0.2 0 -0.3 0.1 -0.3 -0.1 -0.6 -0 -0.8 -0.3 -0.1 -0.1 -0.1 -0.3 -0 -0.4 -0 -0.1 -0.1 -0.2 -0.2 -0.2 -0.4 0 -0.7 0.1 -1.1 -0 -0.2 -0.1 -0.3 -0.3 -0.5 -0.3 0 0 -0.2 -0.1 -0.2 -0.1 0 0 -0.3 0 -0.4 0 -0 -0 -0.3 -0.1 -0.3 -0.1 -0.5 0.1 -0 0.1 -0.6 0 -0.1 -0.3 -0.4 -0.3 -0.7 -0.5 -0.1 -0.1 -0.3 -0.4 -0.5 -0.4l-0.1 0c-0 0.2 -0.4 0.1 -0.5 0.1 -0.3 -0.2 -0.6 -1 -0.7 -1 -0 -0.1 -0 -0.1 -0.1 -0.2 -0.1 -0.2 -0.6 -0.5 -0.5 -0.7 0 0 -0.1 -0.2 -0.2 -0.3 0 -0.2 0.1 -0.2 -0 -0.5l0 -0.1 0.1 -0.1c-0.1 -0.2 -0.4 -0.3 -0.6 -0.6 -0 -0 -0.1 -0 -0.1 -0 -0.2 -0.1 -0.2 -0.4 -0.3 -0.5l-0.1 0c0 0 -0.5 0 -0.6 0 -0.1 -0.1 -0.5 -0.4 -0.5 -0.4l0 -0.1 -0 -0.1c-0.1 -0 -0.1 -0 -0.2 -0 -0 -0 -0.1 -0.1 -0.1 -0.2 -0.4 -0.2 -0 -0.2 -0.6 -0.3 -0.1 -0 -0 -0.2 -0.1 -0.3 -0.1 0.1 -0.2 0.1 -0.4 0l-0 0 0 0.1c-0 0 -0.1 0.1 -0.1 0.1 -0.1 -0 -0.3 -0.2 -0.4 -0.2 -0.4 -0.5 -0.8 -0.2 -0.9 -0.5 0 -0 0 -0.1 0 -0.1l-0.1 -0c-0.1 -0.3 -0.1 -0.2 -0.2 -0.4 0 0 0.2 -0.2 0.3 -0.3 -0.1 -0 -0.5 -0.1 -0.5 -0.1 -0.1 -0.1 -0.2 -0.2 -0.3 -0.3 -0 -0.1 0 -0.1 -0 -0.2 0 0 -0.4 -0.3 -0.4 -0.3 -0.2 -0.1 -0.6 -0 -0.8 0l-0.2 -0.1 -0 -0.2c-0.1 -0.1 -0.2 -0.2 -0.3 -0.2 -0.1 0 -0.2 -0 -0.3 -0.1 -0.1 -0.4 -0 -0.8 -0.5 -1 -0 0 -0.2 -0.1 -0.2 -0.1 -0.1 -0 -0.3 0 -0.3 -0.1 -0 -0.1 -0 -0.2 -0.1 -0.3 -0.2 -0.2 -0.3 -0.1 -0.4 -0.4 0 0 -0.1 -0.1 -0.1 -0.2 -0.1 -0.1 -0.4 0 -0.6 -0.2 -0.1 0 -0.3 0 -0.3 -0.1l-0.1 -0.2c-0.2 -0.1 -0.3 -0.3 -0.4 -0.4 -0 -0 -0.1 -0 -0.2 -0.1 -0 -0.1 -0.1 -0.4 -0.2 -0.4l-0 -0.4c0.1 -0.2 -0 -0.7 -0.4 -0.6 0 0 0 -0.2 0 -0.2 -0 -0.2 -0 -0.5 -0.1 -0.6 -0.1 -0.1 -0.2 -0.2 -0.3 -0.4l-0.1 0c-0.1 -0 -0.1 -0.5 -0.2 -0.5 -0 0 -0.2 0 -0.2 0 -0.1 -0.1 -0.1 -0.3 -0.1 -0.4 -0.1 -0 -0.2 -0.1 -0.2 -0.1 -0 -0.1 -0.1 -0.2 -0 -0.3l-0 -0 -0.2 -0c-0.1 -0 -0.1 -0.1 -0.1 -0.2l0.1 -0.2 -0.2 -0.4 -0.1 -0 -0.1 0.1 -0 -0c-0.1 -0.1 -0.1 -0.4 -0 -0.5 -0 -0.1 -0 -0.2 -0 -0.4l0.1 -0 0 -0.1c-0.2 -0.1 -0.3 -0.3 -0.4 -0.4l-0.3 -0.2 -0 -0.1 -0.2 -0.1c0 -0.1 0.2 -0.1 0.3 -0.2 0.2 -0.2 0.2 -0.7 -0.1 -0.8 -0 -0.1 -0 -0.2 -0.2 -0.3l-0 -0c-0 0 -0.1 0.1 -0.1 0.2l-0 0c-0.1 -0.1 0 -0.4 -0 -0.5 -0.1 -0.1 -0.4 -0.1 -0.5 -0.1l-0.1 -0.1 0 -0.1 -0 -0 -0.5 -0.2 -0.1 0.2c-0 -0 -0.1 -0.1 -0.1 -0.2 -0 -0.1 -0.1 -0.1 -0.2 -0.1 -0.5 -0.3 -0.2 -0.2 -0.4 -0.5 -0.1 -0 -0.2 0.1 -0.3 0 0 -0 0.1 -0.1 0.1 -0.2 -0.1 -0.1 -0.2 0 -0.2 -0 -0 -0.1 0 -0.3 0.1 -0.4l-0 -0.1 -0.1 -0c-0.1 0 -0.2 0.1 -0.3 0.2 -0.1 0 -0.5 -0.1 -0.6 -0.2l-0.1 -0.3 -0.1 -0.1 0.1 -0.3 -0.3 0.1 -0.1 -0c-0 -0.1 -0.1 -0.2 -0.1 -0.2l-0 -0.1 -0.1 -0 -0.1 0.1 -0.1 -0c-0 -0.1 -0.2 -0.2 -0.3 -0.2 -0 0 -0.1 0 -0.1 0.1 -0 -0 -0.1 -0 -0.1 -0l-0 -0.1 0.1 -0.1 0.1 -0.1 -0 -0.1 -0.2 -0.1 -0 -0.1 0.1 -0.1 -0 -0.1c-0.1 -0 -0.2 -0.1 -0.2 -0l-0 0.1c-0.2 0 -0.3 -0.5 -0.5 -0.7 -0.1 -0 -0.3 0 -0.4 0 -0.1 -0.2 -0.3 -0.6 -0.5 -0.6l-0.2 -0.2c-0 0.1 -0.1 0.3 -0.1 0.4l-0.1 0c-0.3 -0.2 -0.2 -0.5 -0.4 -0.8 -0 -0.2 0.2 -0.4 0.2 -0.6 0 -0.2 -0.1 -0.4 -0.2 -0.6 -0 -0.1 0.1 -0.3 0 -0.5 -0.7 0 -1.4 -0 -2.1 -0 -1 -0 -2.1 0 -3.1 0 -3 -0 -6 0 -8.9 -0l-0.1 0.1c0 0.4 -0.2 0.5 -0.1 0.8 -0.1 0.1 -0 0.3 -0.2 0.4 0 0 -0.2 0 -0.2 0.1l-0.2 0.4c-0 0.1 0 0.1 0 0.1 -0 0.3 -0.2 0.7 -0.2 0.7 -0.1 0.1 -0.1 0.4 -0.2 0.5 -0 0.1 -0.1 0.1 -0.1 0.2 0 0 0.1 0 0.1 0.1l-0.1 0.2c-0.1 0 -0.3 -0 -0.3 -0 -0 0.1 -0.2 0.6 -0.2 0.6 -0 0.1 0 0.1 0 0.2 0 0 -0.3 0.6 -0.3 0.6 0 0 0 0.1 0.1 0.1 -0 0.1 -0.1 0.2 -0.2 0.3 -0 0.1 -0 0.5 -0.1 0.6l-0.2 -0c-0.1 0 -0.1 0.1 -0.1 0.2l0.1 0.1c-0.1 0.1 -0.4 0.6 -0.4 0.6 -0.1 0.1 -0.1 0.3 -0.2 0.3l-0.2 -0c-0.1 0.1 -0.3 0.8 -0.3 0.8 -0 0 -0.1 0.1 -0.1 0.2 -0.4 0.4 0 1 -0.2 1.1 -0 0 -0.1 0 -0.1 0 -0.1 0.2 -0.2 0.3 -0 0.5 -0 0.1 -0.1 0.2 -0.1 0.2 0 0.1 -0 0.2 -0 0.3 -0 0.2 0.1 0.2 0.1 0.3l-0.1 0.1c-0.1 0.1 0.1 0.4 0.1 0.4 -0.2 0.3 -0.1 0.2 -0.2 0.4 0 0 -0.1 0.3 -0.1 0.5 0 0 -0.1 0.3 -0.2 0.5l-0.3 0.1 -0.1 -0 -0 -0.3c-0.1 -0.1 -0.1 -0.3 0 -0.4l-0 -0.1c0 -0 -0.2 -0.1 -0.2 -0.1 0 0 0 -0.2 0.1 -0.3 0.1 -0.3 0.1 -0.7 -0.2 -1 -0.1 0 -0.4 -0.2 -0.4 -0.2 -0.1 -0.1 0 -0.3 -0.1 -0.4 -0.1 0 -0.2 -0 -0.3 -0.1 -0 -0.1 0.1 -0.2 0 -0.3 -0.1 -0.1 -0.1 -0.3 -0.1 -0.4 -0.1 -0.1 -0.1 -0.6 0 -0.6 0 0 0.1 -0.1 0.1 -0.2 0 -0.1 -0 -0.4 0.1 -0.5 -0 -0 -0.5 -0.5 -0.5 -0.5 -0 -0.2 -0.3 -0.3 -0.3 -0.5l0 -0.2c0 0 -0.1 -0.2 -0.2 -0.3l-0 -0c-0.1 -0 -0.2 0.1 -0.2 0.1 -0 0 -0.1 -0 -0.1 -0 -0 -0 -0.1 -0.1 -0.1 -0.1 0.1 -0.1 0 -0.2 0.1 -0.3 0 -0.2 -0.4 -0.3 -0.5 -0.5 -0.1 -0.2 -0.1 -0.6 -0.1 -0.9l0 -0 0.1 -0c0.1 -0 0.2 -0.3 0.2 -0.4 -0.4 -0.5 -0.4 -0.3 -0.7 -0.6 -0.1 -0.1 -0.1 -0.3 -0.4 -0.6 -0.1 -0 -0.1 -0.1 -0.2 -0.1 -0.1 -0.1 -0.3 -0 -0.5 -0.1 -0.2 0.1 -0.7 0.2 -0.8 -0.1 -0.1 -0.1 -0.2 -0 -0.3 -0.1 -0.2 -0 -1 -0.8 -1.3 -0.9 -0 0 -0 0 -0.1 0 -0 0 -0.1 0.1 -0.1 0.1 -0.2 0 -1 -0.4 -1.2 -0.6 -0.6 -0.1 -1.2 0 -1.7 0 -1.5 0 -2.9 0.1 -4.4 0.1l-0.1 0.1c-0.4 -0.1 -0.8 -0.2 -1.2 -0.3l-0.2 0.3c-0.1 0.1 -0.2 -0 -0.2 -0 -0.1 0 -0.4 0.1 -0.5 0.1l-0.1 0.1c-0.3 0.1 -0.7 -0.3 -0.8 -0.2 -0.7 0.5 -0.7 -0.4 -1.2 -0.4 0 -0 -0 -0.1 -0 -0.2 -0.2 -0.1 -1 -1.5 -1.4 -1.8 -0.5 -0.1 -1 -0.2 -1.5 -0.2 -0 -0.2 0.1 -0.4 0.1 -0.6 -0.7 -0.8 -0.6 -0.6 -1.5 -1l-0.8 -0.3c-0.1 0.1 -0.4 0.1 -0.3 0.3l0.1 0.1c0 0.1 0 0.5 0.1 0.7 -0 0.1 -0.3 0.8 -0.3 0.8 -0.1 0.1 -0 0.3 -0.1 0.4 -0.1 -0 -0.1 0.1 -0.1 0.2 0 0.1 -0 0.1 0 0.2 -0.1 0.1 -0 0.2 -0.1 0.3l0.1 0.2c-0.1 0.1 -0 0.2 -0.1 0.4 -0 0 -0.1 0.1 -0.1 0.1l0.1 0.3c-0 0 -0.1 0.1 -0.1 0.1 0 0 0 0.3 0 0.3 -0 0 -0.1 0.1 -0.2 0.1l-0.1 -0 -0.1 -0.1 -0 0c-0 0.2 -0 0.2 -0.1 0.3l0 0.1c0 0 -0.2 0.1 -0.2 0.1 -0.4 0.1 -3.1 0.9 -3.4 1l-0.2 0.4 -0.4 -0.2c-0.2 0 -0.6 0.4 -0.8 0.5 -0.1 0.8 -0.2 1.4 -0.5 2.2 -0.1 0.2 -0 0.4 -0 0.5 -0.1 0.1 -1.8 0.8 -1.8 0.8 -0.2 0.2 -0.3 0.4 -0.5 0.6 -0 0 -0 0 -0 0l-0.6 0 -0 0.1c0 0.5 0.1 1 0.1 1.5 -0.2 0.2 -0.4 0.3 -0.6 0.4 -0.2 0.2 -0.6 0.3 -0.8 0.5 -0 0 -0.6 1.2 -0.7 1.4 0.4 0.3 2 2.2 2.4 2.7 -0.1 0.2 -1.3 4.6 -1.3 4.6 -0.6 2.1 -1.2 4.1 -1.7 6.1 -0.1 0.5 -0.8 3 -0.9 3.2 -0.1 0.2 -0.3 0.4 -0.4 0.6 -0.1 0.1 -0.1 0.3 -0.1 0.5l-0.1 0c-2 0.9 -3.9 1.8 -5.9 2.7 -0.5 0.2 -5.5 2.4 -5.9 2.8 -0.1 0.1 -0.1 0.5 -0.2 0.6 -0.6 1 -1 -0.4 -1.4 0.4 -0.2 0.4 0.1 0.6 0 0.8 -0.1 0.1 -0.4 0.4 -0.6 0.7 -0.1 0.1 -0.1 0.5 -0.2 0.6 -0.1 -0 -0.2 -0 -0.2 0 -0.1 0.1 -0.4 0.6 -0.5 0.8 -0.1 0.2 -0.5 0.8 -0.5 0.8l-0.1 0.8c-0.1 0.8 0.5 0.3 1.1 1.2l0 0c0.4 0.5 0.5 0.9 0.8 1.4 0.1 0.1 0.5 0.3 0.7 0.3 0 0.3 0.2 0.6 0.4 0.8 -0.2 0.2 -0.5 0.4 -0.8 0.5 -0.2 -0.1 -0.5 -0.3 -0.8 -0.2 -0.2 0.2 -0.3 0.4 -0.5 0.6 -0 0.2 -0 0.3 -0 0.5 -0.2 0.1 -0.4 0.2 -0.5 0.4l0.1 0.4 -0.1 0.2c-0.1 0.5 0.6 0.8 0.1 1.7 -0.1 0.2 -0.3 0.3 -0.5 0.4 -0.1 0.1 -0.2 0.2 -0.2 0.4 0.4 0.7 0.6 0.4 0.4 1.3 0.2 0.2 0.4 0.4 0.5 0.7 -0.1 0.1 -0.2 0.6 -0.2 0.7 0.1 0.3 0.6 0.7 0.7 1.1 0 0.3 0.1 0.5 0.1 0.8 0 0.1 0 0.2 0.1 0.3 0.4 2.2 0.7 4.4 1.1 6.5l-0 0.1c-0.1 0 -2.2 1.6 -2.2 1.6 -0.1 1 -0.2 2 -0.2 2.9 1.1 1.9 2.3 3.8 3.5 5.6 0.1 0 0.3 0.2 0.4 0.3 -0.2 0.3 -0.7 0.7 -0.7 1.1l0.2 0.3c-0.1 0.2 -0.2 0.6 -0.3 0.6 -0.6 0.1 -1.1 -0.1 -1.8 0.1 -0.3 0.4 -0.6 0.9 -0.7 1.4 -0 0.1 -0 0.3 -0.1 0.4l-0.2 0c0 0 -0.3 -0.2 -0.4 -0.2 -0.4 -0 -0.8 -0.8 -0.9 -1.2l-0.3 -0.1c-0.3 0.2 -0.7 0.1 -1.1 0.3 -0.4 0.6 -1.2 1.3 -1 2 0 0.2 0.3 0.5 0.4 0.7 -0.1 0.2 -0.3 0.3 -0.4 0.4 -0.1 0.1 -0.4 0.9 -0.5 1.2 -0.3 0.7 -0.8 2 -1.2 2.6 -0.3 0.1 -0.7 0.6 -0.9 0.9 0 0.2 0.1 0.5 0.1 0.7l0.1 0.1 -0 0.2 -0.2 0.1c-0 0.7 -0.4 1.4 -0.5 2.1 -0 0.1 0 0.2 -0 0.3 -0.1 0.3 -0.4 0.5 -0.6 0.7 -0 0.1 -0.1 0.3 -0.1 0.4 -0.1 0.1 -0.4 0.1 -0.6 0.1 -0.5 0.2 -0.4 0.6 -0.6 1l-0.2 0.2c-0 0.2 -0 0.4 -0 0.5 -0.1 0.1 -0.3 0.5 -0.4 0.7 -0.2 0.2 -0.3 0.2 -0.5 0.3 -0 0.2 -0.2 0.4 -0.3 0.6l-0.1 0.1c-0.2 -0.1 -0.5 -0.5 -0.7 -0.5 -0.2 0.2 -0.4 0.5 -0.2 0.8 -0.2 0.4 -0 1.1 -0.5 1.3 -0.1 -0 -0.3 -0 -0.5 0 -0.3 0.2 -0.4 0.5 -0.6 0.8 -0.2 0 -0.4 0 -0.6 -0l-0.1 0.1c-0 0.1 0.1 0.4 0.2 0.5 -0.1 0.1 -0.2 0.2 -0.3 0.3 -0.1 0.2 0.2 1 0.2 1.2 -0.2 0.3 -0.3 0.6 -0.5 0.9 -0 0 -0.1 0.1 -0.1 0.1 -0 0 -0.3 1.3 -0.3 1.4 0 0.2 0.3 0.9 0.4 1.3 -0.2 0.4 -0.4 0.9 -0.6 1.2 -0.1 0.2 -0.3 0.4 -0.4 0.5l-0.2 -0.1c-0 0.2 0.1 0.3 0.1 0.5 -0 0.2 -0 0.7 -0 0.7 -0.5 0.4 -0.1 1.4 -0.3 2l-0.1 0.2c-0.2 0.1 -0.5 -0 -0.7 0 -0.2 0 -0.8 0.5 -1 0.6 -0.1 -0 -0.2 0 -0.2 0.1 -0 0.1 0.1 0.3 0.1 0.4 -0.1 0.3 -0.1 0.5 -0.2 0.8 -0.2 0.1 -0.4 0.2 -0.6 0.2 -0.2 0.5 -0.2 0.7 -0.2 1.2l0.1 0.2c0.3 0.1 0.5 0.6 0.3 0.8 0.1 0.3 0.1 0.8 0.3 1.1 -0 0 -0.1 0.1 -0.1 0.2 0 0.1 0.1 0.2 0.2 0.3 0 0.2 -0.1 0.4 -0.1 0.7 0 0.2 0.1 0.3 0.1 0.5 0.1 0.2 0.7 1 0.7 1.2 -0.1 0.1 -0.1 0.1 -0.2 0.2 0 0.1 0.1 0.2 0.1 0.3 -0.1 0.2 -0.3 0.4 -0.4 0.6l-0 0.2c0.1 0.1 0.2 0.2 0.3 0.3 0 0.1 -0.1 0.3 -0 0.5 0.1 0.3 0.5 0.4 0.2 0.7 0 0.1 0.1 0.2 0.1 0.2 -0 0.1 -0.2 0.4 -0.2 0.4 -0.2 0.2 -0.2 0.7 -0.3 1 -0 0 0.1 0.5 0.1 0.5 -0.1 0.3 -0.6 0.7 -0.1 1 0.9 0 1.6 0 1.5 1.1 -0 0.1 -0.1 0.5 -0.2 0.5l-0.1 -0c-0 0 -0.2 0 -0.2 0 -0.2 0.4 -0.3 0.7 -0.5 1.1 -0 0 -0.1 0.1 -0.1 0.1 -0.1 0.2 -0.1 0.5 -0.2 0.6 -0.1 0.2 -0.7 0.7 -1 0.7 -0.4 0 -1.6 -0.6 -1.9 -0.8l-0.2 0 -0.1 0.1c0.1 0.2 0.3 0.6 0.4 0.8 0 0.1 0 0.2 0 0.3 -0 0.1 -0.1 0.3 -0.1 0.3 -0.4 0.3 -0.7 1.1 -0.9 1.6 -0.1 0.4 -0.3 0.8 -0.3 1.2 -0 0.3 0.2 0.6 0.1 1 -0.1 0.2 -0.4 0.4 -0.5 0.6 -0.3 0.7 -0.3 1.2 -0.5 1.9 -0 0 -0 0 -0 0.1 -0.1 0.7 0.3 0.7 0.1 1.7l0 0.1c0.1 0.1 0.2 0 0.3 0.1l0.1 0.1c-0 0.1 -0.4 0.3 -0.5 0.3 -0.2 0.1 -0.1 0.5 -0.3 0.7 -0.5 0.1 -0.4 0.2 -0.5 0.6 -0 0.1 -0.1 0.2 -0.2 0.3 -0 0.1 -0 0.2 -0.1 0.3l-0.1 0c-0.1 -0.1 -0 -0.2 -0.1 -0.3 -0.1 -0.3 -0.3 -0.6 -0.5 -0.8l-0.1 -0 -0.1 0c-0.6 1.1 -0.7 0.1 -0.8 1.9 -0 0.6 -0.4 1.2 -0.3 1.8 0.1 0.8 0.1 1.3 -0.3 1.9 -0 0.3 0.1 0.3 0.1 0.5 0 0.2 -0 0.4 0 0.6 0.1 0.5 0.2 0.7 0.5 1.2 0.1 0.2 0.1 0.5 0.2 0.7l0.1 0c0.1 -0 0.1 -0 0.2 -0 0.4 0.4 0.1 1.9 0.4 2.3 0.1 0.2 0.4 0.3 0.6 0.4 0.1 0 0.4 0.2 0.5 0.2 1 -0.1 0.9 -0.1 1.6 0.6 0.7 0.8 0 0.8 -0.3 1.2 -0.1 0.1 -0.2 0.4 -0.3 0.4 -0.7 0.2 -0.6 0 -0.8 0 -0.2 -0.2 -0.3 -0.3 -0.6 -0l-0 0.1 0 0.1c0 0 0.4 0.2 0.6 0.4 -0 0.1 -0 0.1 -0.1 0.2 0 0.2 0.2 0.6 0.5 0.6 0.3 0.3 -0.1 0.5 -0.1 0.8 0 0.2 0 0.5 -0.1 0.8 -0 0.1 -0.1 0.2 -0.1 0.3 -0 0.1 0.9 0.6 1 0.7 0.7 0.5 0 1.1 0.1 1.5 0 0 0.1 0.3 0.1 0.3 0.1 0.1 0.3 0.1 0.5 0.2 0.7 0.3 0.5 0.6 0.7 1.1 0.1 0.2 0.1 0.6 -0.1 0.7 -0.8 0.6 -0.2 0.7 -0.1 1.4 0 0.2 -0 0.6 0 0.8 0.1 0.4 0.4 0.6 0.5 1 0.2 0.2 0.1 -0 0.3 0.3 0.1 0.1 0.2 0.2 0.3 0.2 0.1 0.1 0 0.4 0.1 0.5 0.3 0.3 0.8 0.2 0.6 0.8 -0 0.2 -0.3 0.5 -0.4 0.7 0 0 0 0.3 0 0.4 -0.2 0.4 -0.2 0.4 -0.6 0.6 -0 0 -0.3 0.1 -0.2 0.2 0.2 0.4 0.3 0.8 0.3 1.3 0 0.1 -0.1 0.3 -0 0.4 0.1 0.3 0.3 0.5 0.4 0.8 0.1 0.3 0 1.8 0.6 1.7 1 -0.1 0.9 -1.3 1.2 -1.5 0.3 -0.2 0.8 0.6 1 0.8 0.3 0.3 0.8 0.8 0.7 1.3 0.2 0.2 0.5 0.6 0.3 1 -0.2 0.6 -1.1 0.6 -1.2 1 -0.1 0.3 -0.4 0.6 -0.4 1 -0 0.2 0 0.5 0 0.7 -0 0.3 -0.2 0.6 -0.2 0.9 -0.1 0.3 0.4 0.7 0.3 1.1 -0.1 0.6 -0.8 0 -0.1 1.9 0 0.1 -0 0.5 0 0.7 0.1 0.3 0.4 0.4 0.4 0.6 0.1 0.6 -0.3 0.8 -0.3 1 0 0.1 0.1 0.3 0.1 0.4 -0 0.1 -0.3 0.4 -0.4 0.7 0.5 0.4 0.8 0.6 0.7 1.3 0 0 0.1 0.1 0.1 0.2 -0.1 0.3 -0.8 0.6 -1 0.7l-0.1 0.3 -0.1 0c-0.1 0 -0.6 -0.6 -0.7 -0.6l-0.1 -0c-0.1 0 -0.5 0.4 -0.5 0.4 -0.1 -0 -0.2 -0 -0.3 -0l-0 0.1c0 0 0 0.1 0 0.1 0.5 0.9 0.1 0.8 0.1 1.1 0 0.1 0.2 0.4 0.2 0.5 -0.1 0.1 -0.3 0.4 -0.5 0.4 -0.2 0.6 -0.5 0.5 -0.9 0.8 -0.1 0.1 -0.2 0.3 -0.2 0.5 -0.1 0.4 -0.4 0.6 -0.6 0.9 -0.1 0.2 -0.4 0.5 -0.4 0.7 -0 0.1 0.1 0.6 -0 0.7 -0.7 0.3 -0.2 0.4 -0.5 0.7 -0.3 0 -0.7 0.2 -0.6 0.5 0 0 0.5 0.3 0.6 0.4 0.1 0.1 0 0.2 -0 0.3 -0.2 0.7 -0.9 1.6 -1 1.8 -0.1 0.3 -0 0.6 -0.2 0.9l-0 0.1c-0.5 0.9 0.1 1.7 -0.1 2.1 -0.1 0.1 -0.2 0.1 -0.2 0.2 -0.1 0.1 -0.1 0.3 -0.3 0.4 -0.7 0.6 -1.5 -0.1 -1.9 0.4 -0.1 0.1 -0.1 0.3 -0.1 0.4 -0 0.1 -0.3 0.3 -0.2 0.5 0.1 0.1 0.2 0.2 0.3 0.3 0.6 0.6 1.3 -0.1 1.7 0.9 0 0.1 -0.1 0.3 -0.1 0.3 -0.1 0.3 -0.2 0.6 -0.2 1 0.1 0.5 0.7 0.7 0.7 1.1 -0.2 0.3 -0.1 0.3 -0.3 0.4 0.1 0.1 0.3 0.5 0.3 0.7l-0 0.1c-0.1 0 -0.1 0.1 -0.1 0.1 -0.2 0.4 0 0.7 0.2 1.1 0.3 0.6 0.2 1 0.4 1.3 0.1 0.1 0.2 0.2 0.3 0.4 0 0 0 0.1 0 0.1 -0 0.1 -0.1 0.1 -0.1 0.2 -0.5 0.1 -0.5 0.3 -0.7 0.7 -0.1 0.1 -0.3 0.3 -0.3 0.5 0 0 0 0.1 0 0.1 0.1 0.1 0.4 0 0.5 0.1 0.1 0.2 -0.3 0.3 -0.3 0.6 0 0.4 0.4 0.7 0.4 1 -0 0.1 -0.4 0.4 -0.4 0.6 -0.1 0.5 -0 0.8 -0.3 1.2l-0 0c-0.5 0.4 -1.1 -0.6 -1.7 -0.6 -0 0 -0.1 0 -0.1 0.1 -0 0.1 0 0.5 0 0.5 -0.3 0.4 -0.3 0.3 -0.5 0.5 -0.3 0.3 0.1 0.4 -0.6 0.5l-0 0c-0.1 0.1 -0.3 0.1 -0.3 0.2 -0 0.1 0.1 0.3 0.1 0.6 -0 0.1 -0.3 0.3 -0.2 0.5 0.1 0.1 0.3 0.4 0.4 0.5 0.2 0.6 -0.6 0.9 -1 0.5l-0.2 -0c-0 0.1 -0.2 0.1 -0.2 0.2l-0.1 -0c-0 -0.1 -0.1 -0.2 -0.2 -0.2 -0.2 -0 -0.8 -0.2 -0.8 -0.2 -0 -0 -0.1 0 -0.1 0l-0 0.1c0.4 0.7 -0.3 1 -0.8 1.3 -0.4 -0.1 -0.6 -0.5 -1 -0.3 -0 0 -0 0.1 -0 0.1 -0.1 0.4 -0.2 1.5 -0.2 1.8 0 0.2 0.2 0.5 0.4 0.7 0.1 0.1 -0.2 0.5 -0.3 0.5 -0.1 0 -0.2 0.2 -0.3 0.1 -0.1 -0.2 -0.1 -0.4 -0.2 -0.5 -0.1 -0 -0.2 -0.1 -0.2 -0 -0.1 0.1 -0.1 0.7 -0.1 0.8 -0 0.2 -0.2 1 -0.1 1.1 -0.1 0.5 -0.8 0.6 -0.5 1 0.1 0 0.2 -0.1 0.4 -0.1l0.1 0 0 0.1c-0.1 0.2 -0.2 0.4 -0.2 0.5 -0 0.2 0.8 0.3 0.4 0.8 -0.1 0.1 -0.1 0.1 -0.2 0.2 -0.3 0 -0.7 -0.3 -1 -0.1l-0 0.1 0 0.1c0.1 0.1 0.4 0.2 0.6 0.3 0.5 0.8 -0.1 0.9 0.7 1.4 0 0 0.1 0.1 0.1 0.1 -0.1 0.2 -0.6 0.3 -0.6 0.5 -0.2 0.5 0.4 0.4 -0.4 1.6 -0.1 0.2 -0.3 0.3 -0.4 0.4 -0.2 0.3 0.1 0.5 0.1 0.7 0.1 0.2 0.1 0.4 0.1 0.6l-0 0c0.1 0.2 0.6 0.6 0.7 0.7 0.1 0.2 0.3 0.5 0.2 0.8 -0.1 0.2 -0.5 0.4 -0.4 0.7 0.1 0.2 0.2 0.3 0.3 0.4 0.2 0.6 -0.4 0.5 -0.6 0.8 -0.1 0.1 -0.1 0.2 -0.2 0.4 -0 0 -0 0.1 -0 0.1 -0 0.1 -0.1 0.5 -0.1 0.5 0 0.2 0.5 1 0.6 1.1 0 0.1 -0.1 0.2 -0 0.4 0 0.2 0.2 0.3 0.2 0.5 -0.1 0.1 -0.7 0.6 -0.7 0.6l0.7 0.3c0.4 0.2 0.2 0.7 0.4 1 0.1 0.1 0.5 0.6 0.5 0.7 0.1 0.3 0.2 0.6 0.3 0.9 0.1 0.1 0.5 0.4 0.5 0.5 -0 0.2 -0.5 0.2 -0.6 0.4 -0.1 0.3 0.3 0.4 0.3 0.6 0 0.4 -0.2 0.8 -0.2 1.2 -0 0.3 0.2 0.7 0.2 1.1 0 0.6 0 1.2 0.5 1.7 0.1 0.1 0.3 0.1 0.4 0.3 0.2 0.2 0.2 0.4 0.4 0.5 0.4 0.3 0.8 0.4 0.9 0.9 0.2 0.5 -0.7 1 -0.9 1.4 -0.1 0.2 0.1 0.3 0.1 0.5 -0.3 0.4 -0.7 1 -1.2 1 -0.1 -0 -0.2 -0.1 -0.3 -0.1 -0.1 -0 -0.2 -0 -0.3 -0.1 -0.4 -0.1 -0.9 0.4 -1.2 0.6 -0.2 0.1 -0.6 0.4 -0.7 0.5 -0.1 0.1 -0.4 -0.1 -0.6 -0.1 -0.1 0.1 0.1 0.4 -0.3 0.7 -0.3 0.2 -1.9 0.9 -2 1.1 -0 0.1 0.1 0.4 0.2 0.4 -0 0 -0.1 0.2 -0.1 0.2 0 0.1 0.1 0.2 0.1 0.2 -0 0 -0 0.2 0 0.2 -0.1 0.2 -0.2 0.2 -0.3 0.4 -0.1 0.2 0.2 0.6 0.3 0.8 0 0.2 -0.1 0.5 -0 0.7 0.1 0.5 0.3 0.6 0.4 1 0.1 0.2 -0.1 0.5 -0.1 0.7 -0 0.2 0.2 0.3 0.1 0.5 -0 0.4 -0.5 1.1 -0.9 1.3 -0 0 -0.1 0.1 -0 0.2 -0.1 0.1 -0.2 0.3 -0.2 0.4 0.1 0.1 0.4 0.2 0.3 0.4 -0 0.1 -0.1 0.1 -0.1 0.2 -0.1 0.2 0 0.4 -0.1 0.6 -0.1 0.1 -1 0.2 -0.8 0.7 0 0 0.4 0.3 0.5 0.3 0.3 0.2 0.2 0.9 -0.1 1 -0.2 -0 -0.4 -0.1 -0.6 -0.1 -0.2 -0 -0.5 0.2 -0.8 0.1l-0.1 -0c-0.3 -0.4 -0.3 -0.7 -0.8 -0.7 -0.3 -0 -0.3 0.5 -0.3 0.7 -0 0 -0.1 0.1 -0.1 0.2 -0.2 0.4 0.4 0.4 0.4 0.8 -0.1 0.2 -0.4 0.4 -0.4 0.6 0 0.1 0.3 0.3 0.3 0.5 0.1 0.3 -0.2 1.1 0.1 1.3 0 0 0.1 0.1 0.1 0.1 0 0 0 0 0.1 0 0.1 0 0.4 -0.1 0.4 -0 0 0.1 0 0.2 -0 0.2l0 0.1c0.1 0.1 0.5 0.2 0.6 0.3 0 0.2 -0.1 0.4 -0.1 0.5 -0 0 -0.2 0.4 -0.2 0.5 -0 0 -0.2 0.1 -0.2 0.1 -0.2 0.2 -0.2 0.4 -0.5 0.6 -0.1 0 -0.1 0.2 -0.2 0.2 -0.1 0.3 0.3 0.5 0.2 0.8 -0.1 0.1 -0.1 0.2 -0.1 0.3 -0.1 0.1 -0.2 0.1 -0.4 0.2 -0.2 0 -0.3 -0.1 -0.5 -0.2 -0.1 -0.1 -0.3 -0.1 -0.4 -0.1 -0.1 -0 -0.2 -0.1 -0.2 -0.2 -0.2 -0 -0.4 0.1 -0.4 0.4l0.1 0c0 -0 0.1 -0 0.2 -0l0.1 0c0.1 0.4 -0.2 0.7 -0.2 0.9 0 0.1 0.2 0.3 0.2 0.3 -0.1 0.2 -0.3 0.3 -0.4 0.4l0 0.1c0.1 0.1 0.3 0.2 0.4 0.2 0.1 0.1 0.1 0.2 0.2 0.3 0.1 0.1 0.2 0.1 0.2 0.2 0.1 0.1 0 0.2 0.1 0.4 0.1 0.1 0.3 0.1 0.4 0 0.1 -0.1 0.1 -0.2 0.1 -0.3l0.1 -0c0.6 0.4 0.4 0.4 0.7 1 0 0.1 0.1 0.2 0.1 0.3 -0.1 0.2 -0.3 0.2 -0.4 0.3l-0 0.2c-0.1 0.1 -0.4 0.5 -0.4 0.5 -0.5 0.1 -0.9 -1.1 -1.2 -0.1 -0 0.1 -0.1 0.2 -0.1 0.4 -0.1 0.5 -0.2 0.9 -0.3 1.3 -0 0 -0 0.2 -0.1 0.2 -0.1 -0 -0.2 -0.1 -0.3 -0.1l-0.1 0.1c0.2 0.2 0.4 0.3 0.6 0.5 0.4 0.7 -0.9 1.5 -1.3 1.9 -0.1 0.4 0.3 0.7 0.5 1 0.1 0.2 0 0.4 0.1 0.5 0.2 0.4 0.8 1.3 0.6 1.7 -0.1 0.2 -0.4 0.1 -0.5 0.3l-0 0.1c0.1 0.3 0.8 0.8 0.8 1.2 -0.3 0.4 -0.2 0.2 -0.1 0.7 0 0 -0 0.8 -0.1 0.8 0 0 -0.2 0 -0.3 -0l-0.1 0 -0 0.1c0 0.3 0.4 0.7 0.5 1.1 0.1 0.3 -0.3 0.7 -0.3 1 -0.1 0.1 -0.3 0.3 -0.5 0.4l-0 0.2c0.4 0.5 0.3 0.2 0.5 0.8 0 0.1 0.1 0.2 0.2 0.3 0.1 0.4 -0.1 0.8 0 1.3 0.1 0.3 0.4 0.4 0.4 0.6 -0 0.1 -0.4 0.4 -0.5 0.5 -0 0 -0 0.1 -0 0.1 0 0.3 0.3 0.3 0.3 0.6 0.1 0.2 -0 0.6 0 0.8 0 0 0.2 -0.1 0.4 -0.1 0.2 0.3 0.3 1 0.4 1.4 0.1 0.1 0.2 0.2 0.2 0.4 -0.3 0.4 -0.2 0.6 -0.1 1l0.1 0.7c0.1 0.5 -0.5 0.9 0.2 1.3l0.1 0.1c-0 0.2 -0.3 0.2 -0 1l-0 0.1c-0.1 0 -0.3 0.2 -0.4 0.2 -0.1 0.1 -0.1 0.1 -0.2 0.2 -0.1 0.1 -0.3 0.1 -0.4 0.1 -0.1 0 -0.2 0.1 -0.3 0.2 -0.3 0.1 -0.2 -0.4 -0.8 0.3 -0.1 0.1 -0.2 0.1 -0.3 0.1 -0.5 -0.2 -0 -0.6 -1 -0.6 -0.1 -0 -0.2 -0 -0.4 -0 -0.1 0 -0.4 0.5 -0.4 0.5 0 0.2 0.3 0.3 0.2 0.5 -0.2 0.1 -0.4 0.2 -0.5 0.4 -0.1 0.2 -0.1 0.3 -0.2 0.4 -0 0.1 -0.2 0.3 -0.3 0.4 0 0 -0.1 0.2 -0.1 0.2 0.2 0.1 0.3 0.3 0.4 0.4 0.3 0.3 0.8 0.6 0.3 1 -0.1 0.2 0.1 0.4 0 0.5 0.1 0.2 0.2 0.3 0.4 0.4 0 0.1 0.1 0.3 0 0.4 -0.4 0.3 -0.9 0.5 -1.1 0.9 -0.1 0.2 -0.1 0.3 -0.1 0.5 0 0.2 0.2 0.2 0.2 0.5 0 0.2 -0.2 0.3 -0.1 0.7 0.1 0.5 0.3 0.9 0.3 1.3 0 0.3 -0.2 0.6 -0.2 0.8 0 0.4 0.1 0.9 0 1.2 0.3 0.6 0.9 1.1 1.4 1.5 0.4 0.4 0.1 0.3 0.2 0.8 0.1 0.3 1.4 0.1 1.2 0.7 0.2 0.1 0.4 0.1 0.5 0.1 0.2 0.1 0.4 0.1 0.6 0.2 0.2 0.1 0.3 0.3 0.5 0.1 0.1 -0 0.2 0.1 0.3 0.1 0 0.2 0.1 0.4 0.1 0.6 -0.1 0.4 -0.2 0.6 0 0.9 0 0.1 -0 0.6 -0.1 0.6l-0.1 0c-0.4 -0.4 -0.4 -0.1 -0.8 -0.1 -0.5 0.7 -0.9 0.2 -1.1 0.2 -0.2 0.1 -0.1 0.5 -0.1 0.6 -0.1 0.1 -0.3 0.3 -0.5 0.4 0 0.1 0.1 0.1 0.1 0.2 0.1 0 0.2 0.1 0.2 0.1l0 0.1c-0.1 0.2 -0.4 0.4 -0.4 0.6 0 0.1 0.7 0 0.9 0.2 0 0.1 0.1 0.1 0.2 0.2 0.1 0.3 -0.4 0.7 -0.2 0.9 0.2 0.3 1 -0.2 1.2 -0 0.1 0.1 0.2 0.7 0.5 0.6 0 -0 0.2 -0 0.2 -0l0.2 0.3 0 0.3 0.1 0.1c0.5 0.1 0.9 -0.2 1.3 0.3 0.1 0.1 0.1 0.2 0.1 0.4 -0.1 0.1 -0.2 0.3 -0.1 0.3l-0 0.1c-0.4 0 -0.7 0.2 -1.1 0.3 -0.3 0.1 -0.8 0.8 -0.9 1.1 -0.1 0.1 -0 0.3 -0.1 0.4 0 0.1 0.1 0.2 0.2 0.3 0.2 0.1 0.4 0 0.5 0.1 -0 0.2 -0.1 0.4 -0 0.6 0.7 0.2 0.5 0.7 0.3 1.1 -0.1 0.1 -0.1 0.3 -0.2 0.4 -0.2 0.1 -0.4 0.2 -0.5 0.4 -0.2 0.3 -0.3 0.6 -0.6 0.8 -0.2 0.1 -0.5 0.1 -0.8 0.2l-0.1 0.2c0 0.3 0.7 1.1 0.7 1.3 0 0.2 -0.1 0.3 -0.2 0.5 -0.3 0.4 -0.1 0.4 0.2 0.8 -0.2 0.9 -0.1 0.3 -0.6 0.7 -0 0.1 0 0.2 0.1 0.3 0.2 0.6 0.6 0.5 1.1 0.3 0.1 -0.1 0.3 -0.2 0.4 -0.2 0.2 -0 0.5 0.3 0.8 0.3 0.2 0 0.4 -0 0.6 -0 0.3 -0 0.6 0 0.8 0 0.5 -0 1 -0.1 1.5 -0.1 0.6 0 0.8 0.4 1.1 0.4 0.4 0 1 -0.1 1.5 0.1 0.5 0.2 0.6 0.4 0.8 0.9 0.1 0.1 0.2 0.2 0.3 0.3 0.1 0.1 0.1 0.2 0.1 0.2 -0.1 0.1 -0.2 0.8 -0.3 0.8 -0.2 0.1 -0.4 0.1 -0.6 0.1 -0.2 0 -0.2 0.2 -0.4 0.3 -0.1 0.3 -0.2 0.3 -0.3 0.5 -0.1 0.4 0.2 0.8 0.2 1.1 0 0.1 -0.1 0.2 -0 0.3 -0.4 0.6 -0.6 1.1 -1.4 1 -0.2 -0 -0.4 -0 -0.6 -0.1 -0.2 -0.1 -0.4 -0.4 -0.6 -0.6 -0.1 -0.1 -0.5 -0.3 -0.5 -0.3 -0.7 -0.2 -1.4 0.6 -2.1 0.7 -0.7 0.1 -1.3 -0.5 -1.7 -0.5 -0.3 0 -0.4 0.2 -0.5 0.5 -0.3 0.3 -0.7 -0 -1 -0.1 -0.2 -0.1 -0.4 0.1 -0.7 0.1 -0.4 -0.1 -0.7 -0.2 -1 -0.4 -0.1 -0 -0.1 -0.1 -0.2 -0.1 -0.1 0 -0.2 0.2 -0.3 0.3 0 0.4 0.2 0.8 0.2 1.1 -0 0.1 -0.1 0.3 -0.1 0.5 -0 0.4 0.6 0.4 0.8 0.4 0.5 -0.1 0.9 0.2 1.3 0.5 0.4 0.1 0.6 -0.2 1 -0.2 0.1 -0 0.2 0.1 0.3 0.1 0.1 -0 0.3 -0.1 0.4 -0.1 0.2 0 0.3 0.3 0.5 0.4 0.1 0.1 0.2 0.1 0.4 0.1 0.1 0 0.2 0.1 0.3 0.1 0.8 0.1 0.9 -0.3 1.6 0.5 0.2 0.3 0.3 0.6 0.5 0.8 0 0 0.2 0.2 0.2 0.2 0.1 0.2 -0 0.4 0 0.5 0.1 0.2 0.3 0.2 0.4 0.4 0.1 0.1 0.1 0.2 0.2 0.3 0.2 0 0.6 0.3 0.8 0.2 0.3 0.2 1.1 1.5 1 1.8 -0.2 0.2 -0.4 0.3 -0.5 0.5 -0.1 0.1 -0.1 0.2 -0.2 0.3 -0.4 0.4 -1.5 0.4 -1.8 0.7 0.1 0.5 1.3 1 0.1 1.7 -0.2 0.1 -0.8 0.1 -1 0.2 -0.1 0 -0.5 -0.2 -0.7 -0.2 -0.2 -0 -1.5 0.5 -1.5 0.6l0.1 0.1c0.1 -0 0.4 0.2 0.4 0.2 -0 0.4 -0.6 0.7 -0.5 0.9 0.1 0.9 -0.1 0.5 -0.1 1 -0 0.1 0 0.2 0 0.4 0.1 0.1 0.4 0.5 0.4 0.5 0.1 0.2 0.2 0.5 0.1 0.7 -0.6 0.4 0.8 0.5 1.3 1 0.1 0.4 0.5 1 0.4 1.4 -0.2 0.1 -0.5 0.2 -0.6 0.4 -0.7 0.6 -0.7 1.1 -1.5 1.6 -0.4 0.2 -1 0.1 -1.4 0.3l-0 0.1 0 0c0.1 0.1 0.6 0.6 0.6 0.6 0.3 -0 0.8 -0.2 1 0.1 -0 0.1 -0 0.3 0 0.4 0.5 0.4 0.3 1.6 0.5 2.2 0.2 0.7 0.4 1.2 0.8 1.8 -0 0 -0 0.1 -0 0.1 0 0.3 -0.1 1 -0.1 1.1 0.1 0.3 0.4 0.8 0.3 1 0 0.1 0.1 0.3 0 0.4 -0.1 0.1 -0.2 0.1 -0.3 0.1 -0.1 0 -0.7 0.4 -0.7 0.5 -0.1 0.1 -0.1 0.2 -0.2 0.3 -0.2 0.2 -0.6 0.5 -0.9 0.5 -0.4 0.1 -1.2 -0.1 -1.4 0.3 0 0.2 0.2 0.4 0.2 0.6 -0.1 0.4 -0.5 0.5 -0.4 1.2 0 0.2 0.1 0.2 0.2 0.3 0 0 0.2 0.8 0.2 0.9 -0.3 0.1 -1 0.5 -0.9 0.8 0.5 0.4 1.7 0.3 1.8 1.3 -0.2 0.1 -0.3 0.2 -0.5 0.4l-0 0.1c0 0.1 0.3 0.3 0.3 0.4 -0.3 0.4 -1.4 -0.3 -1.9 -0.4l-0.2 0.1c-0 0 -0 0.1 -0.1 0.1 -0 0.1 0.2 0.5 0.2 0.7 -0.1 0.5 -0.4 0.5 -0.6 0.9 -0.2 -0 -0.5 -0 -0.6 0.1 -0 0.2 -0.1 0.4 -0.2 0.6 -0 0.1 -0.1 0.3 -0.2 0.4 -0.3 0.5 -0.5 0.2 -0.9 0.1 -0.2 -0 -0.4 0.1 -0.5 0.1 -0.5 0.1 -0.9 0.4 -1.1 0.7 -0 0 -0 0.1 -0 0.2 0 0.1 0.4 0.2 0.5 0.3 0.2 0.2 -0 0.8 -0.1 1.1 0 0.2 0 0.3 0.2 0.5 0 0 0.1 0.1 0.1 0.2l-0.1 0.1c-0.3 -0 -0.6 0.2 -0.8 0.4 -0.2 -0.1 -0.5 -0.1 -0.6 0.2 0 0.1 0.1 0.2 0 0.2 -0.1 0 -0.3 0.1 -0.3 0.1l-0 0.1c0 0.1 0.1 0.2 0.1 0.3l0.2 -0 0 0.1c-0.1 0.2 -0.1 0.2 -0.3 0.4 -0.3 -0.1 -0.7 -0.1 -1 -0.2l-0.1 0.1 0 0.1c0.3 0.2 0.4 0.7 0.6 1 -0 0.1 -0.2 0.5 -0.2 0.6 -0.3 0.5 -0.7 0.4 -0.6 1.1 0.2 0.3 0.6 0.2 0.8 0.4 0.2 0.2 0.1 0.8 0.5 0.8 0.2 0.2 0.1 0.6 0.3 0.7 0.2 0.2 0.5 0 0.7 0.2 0.1 0.2 0 0.5 0 0.7 0 0.3 0.2 0.5 0.3 0.8 0 0.2 0.1 0.9 -0 1.1 0.2 0.4 0.5 0.8 0.4 1.3l-0.1 0.1c-0 0 -0.1 0 -0.1 0.1 -0.1 0 -0.6 -0.1 -0.7 -0.1 -0 0 -0.1 0.1 -0.1 0.1 -0.1 0 -0.2 0.1 -0.2 0.2l0.1 0.1c0.1 0 0.2 0.1 0.3 0.2 -0 0.1 -0.6 0.2 -0.9 0.4l0 0.1c0.1 0.1 0.3 0.2 0.4 0.3l-0.1 0.1c-0.8 0.6 -0.6 0.6 -1.5 0.6 -0.1 -0.1 -0.1 -0.4 -0.2 -0.5 -0.3 0 -0.6 0.2 -0.8 0.3 -0 0.6 0.3 1.1 0.4 1.7 0.1 0.3 0.2 0.8 0.2 1.1 -0 0.2 -0.1 0.4 -0.1 0.6 0 0.2 0.1 0.5 0.1 0.7 0.1 0.5 -0.8 1 -1.1 1.3 -0.6 0.5 -1.2 0.9 -2 1.2 -0.3 0.1 -0.6 0.2 -0.9 0.2 -0.2 -0 -0.6 -0.2 -0.8 -0.1 -0.1 0.1 -0.2 0.3 -0.3 0.4 -0.1 0.1 -0.3 0.1 -0.4 0.2 -0.1 0.1 -0 0.1 -0.1 0.1 -0.3 0.4 -0.5 0.8 -0.9 1.1 -0.1 0.1 -0.2 0.2 -0.3 0.3 -0 0.2 0.2 0.3 0.1 0.5 -0.1 0.2 -1.7 0.6 -2 0.5 -0.1 -0 -0.3 -0.2 -0.4 -0.3 -0.3 -0.1 -1.2 -0 -1.5 0 -1 0.1 -1.4 0 -1.4 1.1 -0 0.2 -0 0.7 0.1 0.9 0.1 0.2 0.4 0.2 0.4 0.5l-0 0.1c-0.4 0.2 0.2 0.6 0 0.9 -0.3 0.6 -1 0.4 -0.8 1.2 0 0.1 0.2 0.3 0.3 0.4l-0.1 0.2c-0.2 0.2 -0.8 -0.1 -1 0.2 -0 0.1 0 0.2 0.1 0.3 0 0.1 0 0.1 0.1 0.2 0.1 0.2 1.2 0.7 0.9 1.3 -0 0 -0.1 0 -0.1 0.1 -0.1 0 -0.3 0.2 -0.3 0.3 -0.2 0.6 0.7 0.6 1 0.8 0.1 0.2 -0.1 0.5 -0 0.7 0.1 0.1 0.2 0.3 0.2 0.4 -0 0.1 -0.1 0.3 -0.1 0.4 -0.2 0.3 -0.9 1.1 -1.3 1.2l-0 0.1c-0 0.1 0 0.1 0 0.1 0.1 0.4 0.1 0.8 0.2 1.2 0.1 0.3 0.3 0.3 0.3 0.5 -0 0.3 -0.4 0.2 -0.5 0.4 -0 0.2 0.2 0.4 0.2 0.6 -0.1 0.1 -0.1 0.3 -0.1 0.4 -0 0.3 -0.3 0.5 -0.4 0.8 -0 0.1 0 0.2 -0 0.3 -0 0.2 -0.1 0.4 -0.1 0.6 -0 0 0 0.2 0 0.3 0.2 0.3 0.5 0.3 0.6 0.4l0 0.1c-0.1 0.1 -0.1 0.2 -0.2 0.2 0 0 0 0.1 0 0.1 0.5 0.4 0.8 0.9 1.3 1.4 0.2 0.2 0.5 0.4 0.7 0.6 0.2 0.1 0.2 0.4 0.4 0.5 0.4 0.4 0.8 0.6 1.2 1 0.1 0.1 0.1 0.3 0.2 0.4 0.3 0.3 0.8 0.5 0.9 0.9 0.2 0 0.4 0 0.5 0.2 0 0.1 -0 0.1 -0 0.2 -0.1 0.1 -0.4 0.1 -0.5 0.2 -0.1 0.4 -0.1 0.4 -0 0.8 0.2 0.2 0.4 0.2 0.6 0.3 1 0.2 2.4 -1.4 3.1 -1.8 0.5 -0.2 1.1 -0.3 1.6 -0.6 0.2 0 0.9 0.6 1.1 0.7 0.6 0.3 0.6 0.2 1.1 -0.3 0.2 -0.3 0.9 -0.6 1.2 -0.6 0.2 0 0.4 0.2 0.6 0.3 0.7 0.2 0.3 -0.4 1.1 0.2 0.3 0 0.4 0 0.6 0.3 0 0.1 -0.5 0.9 -0.6 1.3 0 0.1 1.2 1.6 1.2 1.6 0 0.4 -0.2 2.1 -0.2 2.5 -0 0.1 -0.1 0.2 -0.2 0.2 -0.2 -0 -0.9 -0 -1 0.1 -0.2 0.6 -0.7 0.5 -0.7 0.8 0 0.1 -0 0.2 -0 0.2 0.4 1.6 1.4 1.2 1.8 1.7 0.2 0.8 -1 0.4 -0.8 1.8 0.1 0.8 -0.3 0.9 -0.3 1.1 0 0.2 0.1 0.4 0 0.5 -0.1 0.5 -0.9 0.3 -1.1 1.3 0 0.1 0.1 0.3 0.2 0.4 0.6 0 0.8 -0.3 1.1 0.3l0.5 1.2c0.4 0.2 1 0.2 1.5 0.4 0.9 0.4 1.6 1.1 2.4 1.7 0.1 0.1 0.3 0.2 0.4 0.3 0.1 0.1 0.1 0.3 0.2 0.4 0.1 0.4 -0.9 0.7 -1 0.8 0.1 0.4 0.4 0.3 0.7 0.2 0.1 0.1 0.3 0.3 0.4 0.4 0.2 0.1 2.7 0.1 3 0.1 0.3 -0 0.6 -0 0.9 -0 2.6 0 5.3 0 7.9 -0 1.9 -0 3.7 0 5.6 0 2.2 -0 4.4 0 6.6 -0 0.1 -0 3.7 1.2 4.3 1.4 0.7 0.2 2.2 0.8 2.8 0.9 0.9 0.1 1.9 -0.1 2.9 -0.1 0.5 0 1.1 0.3 1.6 0.5 0.1 0 0.3 0.1 0.4 0.2 0.1 0 1.1 0.3 1.2 0.3 0.3 0.1 0.6 0.3 0.9 0.4 0.9 0.4 0.5 0.4 1.6 0.6 0.7 0.1 1.5 0.1 2.2 0.3 0.1 0.1 0.6 0.1 0.7 0.1 0.1 -0 1 0.2 1.3 0.3 0 0 -0.2 0.7 -0.2 0.7z" id="path11" style="fill:#4D4D4D;fill-rule:evenodd"/>
    <path d="m205.6 433.5c0.3 0.1 0.4 0.6 0.6 0.8 0.3 0.3 0.6 0.6 0.9 0.9 0.3 0.3 0.4 0.7 0.7 0.9 0.7 0.6 1.1 0.6 1.8 1.5 0.2 0.2 0.3 0.6 0.4 0.8 0 0.1 0.1 0.2 0.1 0.2 0 0.3 0.1 0.6 0.2 0.9 0.1 0.2 0.2 0.4 0.2 0.7 0 0 0 0.1 -0 0.1l-0.1 0c-0.4 -0.2 -0.3 -2 -1.2 -1.8 -1.1 0.2 -1 0.7 -1.8 1.4 -0.3 0.2 -0.7 0.3 -0.9 0.5 -0.4 0.4 -0.3 1 0 1.5 0.7 0.9 2.2 1.1 3.2 1 0.5 -0 0.9 -0.3 1.4 -0.2 0.4 0.1 0.5 0.6 0.7 0.9 0.2 0.2 0.4 0.3 0.4 0.6 0.1 0.2 0 0.4 0.1 0.6 0.1 0.4 0.4 0.8 0.5 1.3 0.3 0.2 0.5 0.9 0.9 1.2 0.1 0.1 1.7 1.3 1.8 1.3 0.4 0.2 0.9 0.5 1.2 0.8 0.1 0.1 0.1 0.2 0.2 0.3 0 0.1 0 0.1 0 0.2l0.1 0c0.4 -0.2 1.4 0.2 1.6 0.6 0 0.4 -0.2 0.6 0.1 1.1 0 0.1 0.1 0.1 0.2 0.2 0.2 0.1 0.5 0.2 0.7 0.4 0.1 0.1 0.2 0.2 0.4 0.3 0.2 0.1 0.5 0.2 0.7 0.3 0.2 0.1 0.5 0.4 0.7 0.5 0.2 0.2 1.2 0.6 1.5 0.8 0.9 0.4 1.9 0.7 2.7 1.1 0.2 0.1 0.3 0.3 0.4 0.4 0.1 0 0.8 0.4 0.9 0.5 0.3 0.1 0.7 0.1 1 0.2 0.6 0.2 1.2 0.5 1.8 0.8 0.7 0.4 1.2 1.4 2 1.8 0.5 0.3 1 0.3 1.5 0.7 0.2 0 0.5 0 0.6 0.1 0.2 0.1 0.3 0.3 0.5 0.4 0.2 0.2 0.6 0.3 0.8 0.4 0.5 0.2 1.1 0.3 1.6 0.5 0.4 0.1 0.8 0.3 1.2 0.5 0.7 0.2 1.4 0.4 2.1 0.6 0.2 0.1 0.4 0.3 0.7 0.4 0.4 0.1 0.5 -0.2 0.8 -0.1 0.3 0.1 0.5 0.3 0.8 0.3 0.4 0 0.7 -0.2 1.1 -0.2 0.3 -0 0.6 0 0.9 -0 0.3 -0 0.5 -0.1 0.8 -0.2 0.2 -0 0.4 0.1 0.7 0 0.4 -0 0.7 -0.1 1.1 -0.2 0.1 -0 1.4 -0 1.5 -0 0.1 0 0.2 0.1 0.3 0.1 0.2 0 0.4 0 0.6 0.1l0.1 0.1c-0 0.3 -0.5 0.3 -0.7 0.5 -0.1 0.1 -0 0.3 -0.1 0.4 -0.1 0.2 -0.2 0.1 -0.2 0.4 0 0.1 0.1 0.2 0.1 0.2 -0.1 0.3 -0.4 0.3 -0.5 0.4l0 0.1c0.1 0.1 0.1 0.1 0.2 0.2 -0.2 0.2 -0.7 0.5 -0.9 0.7 -0.1 0.2 -0 0.3 -0.1 0.4 -0.1 0.5 -0.6 0.6 -1 0.5 -0.1 -0.1 -0.1 -0.2 -0.1 -0.3l-0 -0.1c-0.2 -0.2 -1 -0.4 -1 0.1 0.5 1 -1.3 0 -1.7 0.5 -0 0.1 -0 0.2 -0 0.3 -0.2 0.3 -0.8 0.2 -1.1 0.1 -0.2 -0.3 0.2 -0.4 -0.1 -0.7 -0.4 -0.4 -1 -0.2 -1.4 -0.3 -0.2 -0 -0.4 -0.1 -0.6 -0.1 -0.2 -0 -0.4 0.1 -0.6 0.1 -0.2 0 -0.3 -0.1 -0.5 -0 0 0.1 0.1 0.2 0.2 0.3l-0 0.1c-0.3 0.1 -0.5 0.4 -0.7 0.5 -1.9 0.7 -2.5 0.3 -4.2 0.4 -0.8 0 -0.2 1.1 -1.3 1 -0.7 -0 -2.2 -0.2 -2.7 -0.6 -0.2 -0.1 -0.3 -0.3 -0.4 -0.4 -0.3 -0.2 -0.8 -0.4 -1.1 -0.6 -0.5 -0.2 -1 -0 -1.6 -0.1 -0.3 -0 -0.7 -0.4 -1 -0.4 -0.4 -0.1 -1.5 -0.1 -1.9 -0.2 -0.3 -0 -0.6 0 -0.9 0 -0.5 -0 -1 -0.2 -1.5 -0.2 -0.4 -0 -0.8 0 -1.2 0 -0.4 -0 -0.8 -0.3 -1.3 -0.2 -0.3 0 -0.5 0.1 -0.8 0.2 -0.4 0.1 -0.8 0.1 -1.2 0.1 -0.3 -0 -0.6 -0.1 -1 -0.1 -0.3 -0 -0.6 0 -0.9 -0 -0.4 -0.1 -0.8 -0.1 -1.2 -0.2 -0.4 -0 -0.7 -0 -1.1 -0.1 -0.6 -0.1 -1.1 -0.4 -1.7 -0.5 -0.3 -0.1 -0.7 0 -1 -0.1 -0.2 -0.1 -0.3 -0.2 -0.4 -0.3 -0.1 -0.1 -0.2 -0.1 -0.3 0l-0 0c-0.1 0.2 0.1 0.4 -0.1 0.6 -0.1 0.1 -0.6 0 -0.8 0 -0.7 0.1 -1.8 0.4 -2.4 -0.1 -0.1 -0.1 -0.2 -0.3 -0.3 -0.4 -0 -0 -0.1 -0.1 -0.2 -0.1 -0 -2.7 0 -5.5 0 -8.2 0 -0.6 -0 -3.5 0 -4.1 0 0 -0 -8.1 -0 -8.2 0.1 -0.1 -0.1 -9.3 0 -10.5z" id="path13" style="fill:#4D4D4D;fill-rule:evenodd"/>
    <path d="m205.5 464.9c0.1 0.2 0.2 0.4 0.4 0.5 0.1 0.1 0.2 0.1 0.3 0.2l0 0.1c-0.1 0.1 -0.4 0.1 -0.7 0.2 -0 -0.3 -0 -0.6 -0 -0.9z" id="path15" style="fill:#4D4D4D;fill-rule:evenodd"/>
    <path d="m205.4 433.6 2.7 -4.2" id="path5153" style="color:#000000;fill:none;stroke:#4D4D4D;stroke-width:0.99299204;stroke-linecap:butt;stroke-linejoin:round;stroke-miterlimit:3.8636899;stroke-opacity:1;stroke-dasharray:none;stroke-dashoffset:0;marker:none;visibility:visible;display:inline;overflow:visible;enable-background:accumulate"/>
  </g>
</svg>
