<?xml version="1.0" ?><!DOCTYPE svg  PUBLIC '-//W3C//DTD SVG 1.1//EN'  'http://www.w3.org/Graphics/SVG/1.1/DTD/svg11.dtd'><svg enable-background="new 0 0 128 128" height="128px" id="Layer_1" version="1.1" viewBox="0 0 128 128" width="128px" xml:space="preserve" xmlns="http://www.w3.org/2000/svg" xmlns:xlink="http://www.w3.org/1999/xlink"><g><path d="M95.492,74.161l-5.068-6.49l-5.061,6.255c-0.475,0.587-1.188,0.928-1.943,0.928h-6.131l-6.893,16.983   c-0.385,0.951-1.309,1.56-2.314,1.56c-0.1,0-0.199-0.006-0.301-0.018c-1.121-0.136-2.012-1.004-2.174-2.12l-5.858-40.018   L54.8,74.455c-0.193,0.908-0.875,1.635-1.769,1.886c-0.894,0.25-1.854-0.015-2.492-0.689L42.454,67.1l-4.058,6.803   c-0.451,0.757-1.267,1.22-2.147,1.22H13.759C22.807,87.689,38.294,104.473,64,120.844c25.707-16.371,41.195-33.154,50.242-45.722   H97.463C96.693,75.122,95.967,74.768,95.492,74.161z"  style="fill:#4D4D4D;"/><path d="M128,42.392c0-19.46-15.775-35.236-35.236-35.236c-11.881,0-22.381,5.887-28.763,14.896   c-6.382-9.01-16.882-14.896-28.764-14.896C15.776,7.156,0,22.932,0,42.392c0,4.479,0.844,8.757,2.367,12.696   c0.565,1.463,2.786,7.031,7.97,15.034h24.491l5.024-8.423c0.401-0.672,1.095-1.118,1.873-1.204c0.781-0.086,1.553,0.199,2.09,0.768   l7.087,7.495l6.859-32.175c0.252-1.184,1.306-2.02,2.526-1.978c1.209,0.039,2.217,0.939,2.393,2.136l6.542,44.694l4.066-10.022   c0.383-0.942,1.299-1.56,2.316-1.56h6.621l6.287-7.772c0.475-0.587,1.189-0.928,1.943-0.928c0.008,0,0.014,0,0.021,0   c0.762,0.006,1.48,0.36,1.949,0.961l6.254,8.007h18.982c5.184-8.003,7.404-13.571,7.969-15.034   C127.156,51.149,128,46.869,128,42.392z" style="fill:#4D4D4D;"/></g></svg>
