<?xml version="1.0" ?><!DOCTYPE svg  PUBLIC '-//W3C//DTD SVG 1.1//EN'  'http://www.w3.org/Graphics/SVG/1.1/DTD/svg11.dtd'><svg height="512px" id="Layer_1" style="enable-background:new 0 0 512 512;" version="1.1" viewBox="0 0 512 512" width="512px" xml:space="preserve" xmlns="http://www.w3.org/2000/svg" xmlns:xlink="http://www.w3.org/1999/xlink"><g><rect height="512" style="fill:none;" width="512"/><path d="M271.922,128c5.703,0.031,11,0.625,16.078,1.5v155.078c-2.391-7.359-7.313-13.922-14.563-18.047   c-5.188-2.938-10.469-4.313-17.438-3.922V129.484C261.047,128.625,266.281,128.031,271.922,128z M272,16C165.953,16,80,80.5,80,160   c22-57,96-66.5,112,0c16-34,45.609-47.828,80-48c34.391,0.172,64,14,80,48c16-66.5,90-57,112,0C464,80.5,378.047,16,272,16z    M478.531,398.406c0-35.766-21.938-52.063-68.047-73.109c-49-22.344-49-30.266-49-37.266c0-12.938,17.641-23.875,38.516-23.875   c12.325,0,23.842,3.618,33.234,10.331c4.264,3.047,10.11,2.586,13.833-1.104l13.261-13.148c4.672-4.641,4.109-12.25-1.016-16.172   c-10.406-8.047-22.422-13.734-35.313-16.906v-24.39c0-5.946-4.82-10.767-10.767-10.767h-18.467C388.82,192,384,196.82,384,202.767   v22.671c-36.109,5.844-62.516,31.25-62.516,62.594c0,34.359,24.391,51.766,72.406,73.672   c44.641,20.359,44.641,27.219,44.641,36.703C438.531,410.703,421.703,425,400,425c-12.563,0-26.748-5.658-38.655-15.149   c-4.253-3.39-10.373-3.081-14.251,0.731l-13.266,13.043c-4.547,4.484-4.219,11.906,0.703,15.984   c14.766,12.234,32.125,20.484,49.469,23.734v21.89c0,5.946,4.82,10.767,10.767,10.767h18.467c5.946,0,10.767-4.82,10.767-10.767   v-23.89C455.188,452.484,478.531,427.391,478.531,398.406z M119.969,208c0,17.688,14.328,32,32,32s32-14.313,32-32   s-14.328-32-32-32S119.969,190.313,119.969,208z M265.578,280.469c-7.734-4.359-17.5-1.656-21.875,6.031l-13.031,21.922   l-8.438-19.922c-10.891-32.031-26.875-32.5-46.219-32.5c-3.047,21.813-9.125,39.922-14.422,52.547C161.969,287.938,158,268,158,268   s6-6.359,6-12h-24c0,5.641,6,12,6,12s-3.969,19.953-3.594,40.563C137.125,295.938,131.047,277.828,128,256   c-12,0-41.625,0-41.625,36v48c0,36,25.625,36,25.625,36v96c0,13.266,5.938,24,19.188,24S152,488.453,152,475.188   c0,13.266,7.563,20.813,20.828,20.813C186.063,496,192,485.266,192,472V298.594l20.625,49.844c4.453,11.063,22.609,15.547,30,2.563   l28.984-48.688C275.969,294.594,273.25,284.828,265.578,280.469z" style="fill:#4D4D4D;"/></g></svg>
