<?xml version="1.0" ?><!DOCTYPE svg  PUBLIC '-//W3C//DTD SVG 1.1//EN'  'http://www.w3.org/Graphics/SVG/1.1/DTD/svg11.dtd'><svg height="40px" id="el_x5F_transport" style="enable-background:new 0 0 40 40;" version="1.1" viewBox="0 0 40 40" width="40px" xml:space="preserve" xmlns="http://www.w3.org/2000/svg" xmlns:xlink="http://www.w3.org/1999/xlink"><path d="M14.679,12.976h0.34V9.977c0-1.649,1.35-2.998,3-2.998l0,0  c1.65,0,2.999,1.349,2.999,2.998v2.999h0.34c0.363,0,0.66,0.297,0.66,0.66v0.68c0,0.362-0.296,0.659-0.66,0.659  c-2.226,0-4.453,0-6.679,0c-0.363,0-0.66-0.297-0.66-0.659v-0.68C14.02,13.272,14.316,12.976,14.679,12.976L14.679,12.976z   M22.207,17.973h-4.188v4.998h8.575c0.087,0,0.161-0.046,0.198-0.124s0.028-0.165-0.026-0.233l-3.185-3.979  C23.235,18.202,22.759,17.973,22.207,17.973L22.207,17.973z M10.52,28.969c2.485,0,4.499,2.015,4.499,4.498  c0,2.484-2.014,4.499-4.499,4.499c-2.484,0-4.499-2.015-4.499-4.499C6.021,30.983,8.036,28.969,10.52,28.969L10.52,28.969z   M10.52,31.968c-0.828,0-1.5,0.671-1.5,1.499s0.672,1.5,1.5,1.5c0.828,0,1.5-0.672,1.5-1.5S11.348,31.968,10.52,31.968L10.52,31.968  z M29.516,31.968c0.828,0,1.5,0.671,1.5,1.499s-0.672,1.5-1.5,1.5s-1.5-0.672-1.5-1.5S28.688,31.968,29.516,31.968L29.516,31.968z   M29.516,28.969c-2.484,0-4.499,2.015-4.499,4.498c0,2.484,2.015,4.499,4.499,4.499s4.499-2.015,4.499-4.499  C34.015,30.983,32,28.969,29.516,28.969L29.516,28.969z M4.222,22.971h1.799l4.682-5.46c0.866-1.01,2.011-1.536,3.34-1.536h7.904  c1.356,0,2.524,0.55,3.39,1.594l4.459,5.419h6.019c1.149,0,2.097,0.858,2.191,1.983h-3.991c-0.55,0-1,0.449-1,0.999l0,0  c0,0.55,0.45,1,1,1h3.999l0,0v5.458c0,0.848-0.692,1.539-1.54,1.539h-1.483c0.015-0.165,0.023-0.332,0.023-0.5  c0-3.035-2.463-5.498-5.499-5.498s-5.499,2.463-5.499,5.498c0,0.168,0.008,0.335,0.022,0.5h-8.044  c0.015-0.165,0.023-0.332,0.023-0.5c0-3.035-2.462-5.498-5.499-5.498c-3.037,0-5.499,2.463-5.499,5.498  c0,0.168,0.008,0.335,0.023,0.5H3.562c-0.848,0-1.54-0.691-1.54-1.539V26.97h0.527c0.549,0,1-0.45,1-1l0,0  c0-0.55-0.45-0.999-1-0.999H2.031C2.133,23.853,3.078,22.971,4.222,22.971L4.222,22.971z M18.518,24.971  c-0.275,0-0.5,0.225-0.5,0.499v1c0,0.275,0.225,0.5,0.5,0.5l0,0c0.275,0,0.5-0.225,0.5-0.5v-1  C19.018,25.195,18.793,24.971,18.518,24.971L18.518,24.971L18.518,24.971z M15.519,24.971c-0.275,0-0.5,0.225-0.5,0.499v1  c0,0.275,0.225,0.5,0.5,0.5h0c0.275,0,0.5-0.225,0.5-0.5v-1C16.019,25.195,15.794,24.971,15.519,24.971L15.519,24.971L15.519,24.971  z M16.019,17.973h-2.153c-0.553,0-1.028,0.229-1.374,0.661l-3.185,3.979c-0.055,0.068-0.064,0.155-0.027,0.233  s0.112,0.124,0.198,0.124h6.541V17.973L16.019,17.973z M12.345,4.961c-0.386,0.385-0.386,1.014,0,1.398l1.982,1.982  c0.277-0.626,0.708-1.17,1.245-1.582l-1.813-1.813c-0.386-0.386-1.014-0.386-1.4,0L12.345,4.961L12.345,4.961z M18.009,2.639h0.02  c0.545,0,0.99,0.445,0.99,0.99v2.424c-0.319-0.083-0.655-0.126-1-0.126l0,0c-0.345,0-0.68,0.043-1,0.126V3.629  C17.019,3.084,17.463,2.639,18.009,2.639L18.009,2.639z M23.656,5.003c-0.385-0.386-1.014-0.386-1.4,0l-1.771,1.771  c0.535,0.416,0.963,0.963,1.236,1.592l1.95-1.949c0.385-0.385,0.385-1.014,0-1.399L23.656,5.003L23.656,5.003z M25.977,10.666v0.02  c0,0.545-0.444,0.99-0.99,0.99H22.05V9.957c0-0.095-0.003-0.188-0.01-0.28h2.947C25.532,9.677,25.977,10.121,25.977,10.666  L25.977,10.666z M9.98,10.605v-0.02c0-0.545,0.444-0.989,0.99-0.989h3.009v1.999H10.97C10.425,11.596,9.98,11.15,9.98,10.605  L9.98,10.605z M18.019,8.978c-0.55,0-1,0.449-1,0.999v2.999h2V9.977C19.018,9.427,18.568,8.978,18.019,8.978L18.019,8.978z" style="fill-rule:evenodd;clip-rule:evenodd;fill:#4D4D4D;"/></svg>
