<?xml version="1.0" ?><!DOCTYPE svg  PUBLIC '-//W3C//DTD SVG 1.1//EN'  'http://www.w3.org/Graphics/SVG/1.1/DTD/svg11.dtd'><svg enable-background="new 0 0 500 500" height="500px" id="couple" version="1.1" viewBox="0 0 500 500" width="500px" xml:space="preserve" xmlns="http://www.w3.org/2000/svg" xmlns:xlink="http://www.w3.org/1999/xlink"><g><path d="M175.335,138.816c17.825,0,32.275-14.451,32.275-32.282c0-17.825-14.451-32.275-32.275-32.275   c-17.824,0-32.282,14.451-32.282,32.275C143.053,124.366,157.511,138.816,175.335,138.816z" fill="#4D4D4D"/><path d="M310.411,139.874c18.163,0,32.898-14.729,32.898-32.898c0-11.651-6.064-21.879-15.2-27.725   c-0.537-9.104-8.244-16.335-17.698-16.335c-9.458,0-17.165,7.231-17.702,16.336c-9.135,5.845-15.196,16.073-15.196,27.724   C277.513,125.145,292.241,139.874,310.411,139.874z" fill="#4D4D4D"/><path d="M399.063,253.243h-0.478l-32.06-106.031c-0.097-0.322-0.217-0.63-0.336-0.938   c-0.468-12.989-9.51-23.767-21.642-26.88c-5.091,13.949-18.451,23.949-34.138,23.949c-15.688,0-29.044-10-34.135-23.949   c-12.133,3.112-21.168,13.881-21.644,26.861c-0.122,0.314-0.244,0.629-0.344,0.958l-6.821,22.56l-0.001-22.165   c0.002-2.57-0.745-4.96-2.018-6.987c-4.91-14.828-18.876-25.529-35.352-25.529h-0.095c-3.848,15.588-17.913,27.194-34.667,27.194   c-16.754,0-30.818-11.605-34.673-27.194h-0.088c-20.568,0-37.248,16.672-37.248,37.241v0.477c-0.075,0.568-0.128,1.143-0.128,1.732   l0.006,98.702h-1.854c-9.58,0-17.343,7.764-17.343,17.343v6.508v147.924v5.203c0,4.79,3.882,8.672,8.672,8.672   c4.79,0,8.671-3.882,8.671-8.672v-5.203V277.094v-6.508h3.434c2.226,4.115,6.577,6.911,11.578,6.914   c7.276-0.004,13.17-5.897,13.17-13.17v-96.66h7.445v20.439v89.386v145.259c0,8.909,7.229,16.138,16.138,16.138   c8.916,0,16.145-7.229,16.145-16.138V277.496h12.411v145.259c0,8.909,7.229,16.138,16.138,16.138   c8.916,0,16.138-7.229,16.138-16.138V277.496V188.11V167.67h7.195v89.722c0,1.14,0.16,2.239,0.433,3.294   c0.903,4.753,4.344,8.856,9.296,10.355c7.093,2.141,14.579-1.87,16.727-8.963l31.096-102.867h5.106L235.76,323.118h44.076v102.95   c0,7.079,5.738,12.824,12.818,12.824c7.086,0,12.824-5.745,12.824-12.824v-102.95h4.933h4.925v102.95   c0,7.079,5.745,12.824,12.832,12.824c7.072,0,12.817-5.745,12.817-12.824v-102.95h44.077l-48.045-163.906h5.106l31.096,102.867   c2.148,7.093,9.634,11.104,16.728,8.963c0.436-0.132,0.859-0.285,1.271-0.456l0,0h7.845v6.508v147.924v5.203   c0,4.79,3.882,8.672,8.672,8.672c4.789,0,8.672-3.882,8.672-8.672v-5.203V277.094v-6.508   C416.407,261.007,408.643,253.243,399.063,253.243z M399.483,258.191c0-0.256-0.018-0.514-0.032-0.771   C399.466,257.678,399.483,257.936,399.483,258.191z M399.231,255.608c-0.086-0.432-0.191-0.863-0.321-1.294   C399.04,254.745,399.146,255.177,399.231,255.608z M399.421,256.903c-0.027-0.285-0.075-0.572-0.123-0.858   C399.346,256.331,399.394,256.618,399.421,256.903z M398.769,262.486c-0.071,0.213-0.146,0.423-0.229,0.631   C398.622,262.909,398.697,262.698,398.769,262.486z M394.985,268.205c0.164-0.146,0.329-0.292,0.485-0.446   C395.314,267.913,395.149,268.059,394.985,268.205z M391.659,270.378c0.249-0.114,0.501-0.225,0.74-0.353   C392.16,270.153,391.908,270.264,391.659,270.378z M392.903,269.727c0.202-0.119,0.407-0.235,0.601-0.364   C393.311,269.491,393.105,269.607,392.903,269.727z M393.993,269.008c0.181-0.133,0.363-0.263,0.536-0.403   C394.356,268.745,394.174,268.875,393.993,269.008z M398.312,263.656c-0.091,0.202-0.186,0.401-0.285,0.599   C398.126,264.058,398.221,263.858,398.312,263.656z M397.749,264.775c-0.108,0.191-0.222,0.379-0.339,0.564   C397.527,265.154,397.641,264.967,397.749,264.775z M397.085,265.838c-0.124,0.179-0.255,0.353-0.389,0.525   C396.829,266.19,396.961,266.017,397.085,265.838z M396.324,266.835c-0.141,0.167-0.289,0.326-0.438,0.486   C396.035,267.162,396.184,267.002,396.324,266.835z M398.945,261.935c0.064-0.218,0.118-0.439,0.171-0.661   C399.063,261.495,399.01,261.717,398.945,261.935z M399.464,258.737c-0.01,0.243-0.019,0.486-0.042,0.728   C399.445,259.224,399.454,258.98,399.464,258.737z M399.35,260.021c-0.031,0.232-0.064,0.464-0.108,0.693   C399.285,260.485,399.318,260.254,399.35,260.021z" fill="#4D4D4D"/></g></svg>
