<?xml version="1.0" ?><!DOCTYPE svg  PUBLIC '-//W3C//DTD SVG 1.1//EN'  'http://www.w3.org/Graphics/SVG/1.1/DTD/svg11.dtd'><svg enable-background="new 0 0 512 512" height="512px" id="Layer_1" version="1.1" viewBox="0 0 512 512" width="512px" xml:space="preserve" xmlns="http://www.w3.org/2000/svg" xmlns:xlink="http://www.w3.org/1999/xlink"><path d="M428.75,127.5L127.5,428.75c-12.5,12.5-29.578,9.313-42.063-3.188C72.938,413.078,69.75,396,82.25,383.5  L383.5,82.25c12.5-12.5,29.578-9.313,42.063,3.188C438.063,97.938,441.25,115,428.75,127.5z M447.5,359.5c0,48.594-39.391,88-88,88  s-88-39.406-88-88s39.391-88,88-88S447.5,310.906,447.5,359.5z M383.5,359.5c0-30.922-10.75-56-24-56s-24,25.078-24,56  s10.75,56,24,56S383.5,390.422,383.5,359.5z M239.5,151.5c0,48.594-39.391,88-88,88s-88-39.406-88-88s39.391-88,88-88  S239.5,102.906,239.5,151.5z M175.5,151.5c0-30.922-10.75-56-24-56s-24,25.078-24,56s10.75,56,24,56S175.5,182.422,175.5,151.5z" fill="#737373"/></svg>