<?xml version="1.0" ?><!DOCTYPE svg  PUBLIC '-//W3C//DTD SVG 1.1//EN'  'http://www.w3.org/Graphics/SVG/1.1/DTD/svg11.dtd'><svg enable-background="new 0 0 512 512" id="Layer_1" version="1.1" viewBox="0 0 512 512" xml:space="preserve" xmlns="http://www.w3.org/2000/svg" xmlns:xlink="http://www.w3.org/1999/xlink"><g><path d="M473.5,267.1H38.5c-0.2,2.3-0.2,4.6-0.2,7c0,120.2,97.5,217.8,217.8,217.8s217.7-97.5,217.7-217.8   C473.7,271.7,473.7,269.4,473.5,267.1z M66.8,281.2h84.2c1,35.9,8.4,69.7,21.1,100.2c-17.8,6.9-34.3,16.2-49.6,27.1   C89.4,375.7,68.6,330.8,66.8,281.2z M133,418c13.9-9.6,28.8-17.7,44.8-23.8c12.2,25.3,28.3,47.9,47.1,66.8   C190.2,455.1,158.6,440,133,418z M249,463.4h-0.7c-23.3-19.5-42.9-44.7-57.3-74c18.4-5.7,37.9-8.9,58-9.6V463.4z M249,365.7   c-22.1,0.7-43.5,4.3-63.7,10.8c-12.1-29-19.3-61.2-20.3-95.4h84V365.7z M263,281.2h84c-0.9,34.1-8,66.4-20.2,95.4   c-20.2-6.5-41.6-10.1-63.8-10.8V281.2z M263.8,463.4H263v-83.6c20.2,0.7,39.6,3.8,58.1,9.6C306.7,418.7,287.1,444,263.8,463.4z    M287.1,461c18.9-18.8,34.9-41.4,47.2-66.8c16,6.1,30.9,14.2,44.8,23.8C353.5,440,321.9,455.1,287.1,461z M389.7,408.5   c-15.3-10.9-31.8-20.2-49.7-27.1c12.8-30.5,20.3-64.4,21.1-100.3h84.3C443.5,330.8,422.6,375.7,389.7,408.5z" style="fill:#4D4D4D;"/><path d="M314.2,49.3V20.1H197.8v29.2h-30.3v205.3h71.3v-30.3h34.4v30.3h71.3V49.3H314.2z M221.9,104.9h-27.6V77.3h27.6V104.9z    M221.9,200.8h-27.6v-27.6h27.6V200.8z M221.9,152.9h-27.6v-27.6h27.6V152.9z M269.8,200.8h-27.6v-27.6h27.6V200.8z M269.8,152.9   h-27.6v-27.6h27.6V152.9z M269.8,104.9h-27.6V77.3h27.6V104.9z M317.7,200.8h-27.6v-27.6h27.6V200.8z M317.7,152.9h-27.6v-27.6   h27.6V152.9z M317.7,104.9h-27.6V77.3h27.6V104.9z" style="fill:#4D4D4D;"/><g><path d="M38.3,107v147.6h107.9V107H38.3z M84,198.2H56.4v-27.6H84V198.2z M84,154.7H56.4v-27.6H84V154.7z M128.4,198.2h-27.6    v-27.6h27.6V198.2z M128.4,154.7h-27.6v-27.6h27.6V154.7z" style="fill:#4D4D4D;"/><path d="M365.8,107v147.6h107.9V107H365.8z M411.6,198.2H384v-27.6h27.6V198.2z M411.6,154.7H384v-27.6h27.6V154.7z M455.9,198.2    h-27.6v-27.6h27.6V198.2z M455.9,154.7h-27.6v-27.6h27.6V154.7z" style="fill:#4D4D4D;"/></g></g></svg>
