<?xml version="1.0" ?><svg enable-background="new 0 0 515.91 728.5" height="512" id="Layer_1" version="1.1" viewBox="0 0 512.00003 512" width="512" xml:space="preserve" xmlns="http://www.w3.org/2000/svg" xmlns:cc="http://creativecommons.org/ns#" xmlns:dc="http://purl.org/dc/elements/1.1/" xmlns:inkscape="http://www.inkscape.org/namespaces/inkscape" xmlns:rdf="http://www.w3.org/1999/02/22-rdf-syntax-ns#" xmlns:sodipodi="http://sodipodi.sourceforge.net/DTD/sodipodi-0.dtd" xmlns:svg="http://www.w3.org/2000/svg"><defs id="defs7"/><g id="g17342" style="fill:#4d4d4d;fill-opacity:1" transform="translate(13075.637,-26499.835)"><path d="m -13052.282,26835.157 c -1.921,0 -3.829,0.809 -5.185,2.17 -1.357,1.36 -2.172,3.239 -2.17,5.162 l 0,109 c 0,1.921 0.813,3.823 2.17,5.186 1.357,1.36 3.264,2.165 5.185,2.17 l 27.205,0 c 1.926,0 3.846,-0.81 5.208,-2.17 1.361,-1.363 2.172,-3.26 2.17,-5.186 l 0,-109 c 0,-1.926 -0.809,-3.848 -2.17,-5.208 -1.362,-1.363 -3.282,-2.126 -5.208,-2.124 l -27.205,0 z m 117.955,6.578 c -33.97,0.395 -67.725,11.374 -67.725,11.374 -2.94,0.945 -5.12,3.951 -5.117,7.037 l 0,72.956 c 0.142,4.957 3.362,8.217 7.674,8.634 2.322,0.199 5.937,0.698 13.203,1.69 0.312,0.05 3.306,0.858 6.967,2.307 3.66,1.449 8.316,3.503 13.59,5.917 10.549,4.826 23.556,11.192 36.707,17.52 13.152,6.327 26.43,12.593 37.62,17.473 11.192,4.88 19.205,8.492 26.474,9.046 11.038,0.857 29.899,-2.207 49.224,-5.277 19.327,-3.07 38.987,-6.397 44.223,-6.648 15.527,-0.731 28.332,-12.385 36.751,-17.838 10.933,-7.103 23.519,-14.701 33.921,-24.601 l 0.02,0 c 3.768,-3.579 6.635,-8.21 6.556,-14.321 -0.684,-5.04 -5.199,-3.76 -6.35,-5.848 1.518,-1.637 6.023,-5.796 6.35,-8.955 1.08,-9.381 -8.519,-14.076 -16.309,-14.71 -14.426,-0.717 -27.537,7.983 -34.789,14.871 -11.166,10.65 -23.161,14.243 -39.699,16.149 -19.802,2.296 -38.36,3.844 -56.076,-1.759 -2.637,-0.833 -8.709,-3.494 -14.276,-5.847 -2.783,-1.174 -5.536,-2.271 -7.949,-3.153 -1.81,-0.661 -2.956,-1.323 -5.003,-1.598 6.034,-0.78 15.847,-2.19 24.921,-1.12 10.971,1.295 44.994,1.365 59.046,3.929 5.372,0.978 10.667,-0.295 14.642,-2.855 3.974,-2.562 6.712,-6.175 8.588,-9.982 3.751,-7.618 5.308,-11.763 -0.115,-19.233 -4.922,-6.778 -12.513,-9.06 -20.923,-11.443 -8.408,-2.382 -17.889,-4.01 -26.313,-5.346 -17.423,-2.765 -30.444,-2.144 -43.285,-4.591 -4.631,-0.881 -12.669,-5.525 -23.733,-10.759 -11.064,-5.234 -25.44,-10.743 -44.336,-12.493 -4.764,-0.441 -9.628,-0.582 -14.481,-0.526 z" id="path12188-8-5-0-3" style="font-size:medium;font-style:normal;font-variant:normal;font-weight:normal;font-stretch:normal;text-indent:0;text-align:start;text-decoration:none;line-height:normal;letter-spacing:normal;word-spacing:normal;text-transform:none;direction:ltr;block-progression:tb;writing-mode:lr-tb;text-anchor:start;baseline-shift:baseline;color:#000000;fill:#4d4d4d;fill-opacity:1;stroke:none;stroke-width:19.54213333;marker:none;visibility:visible;display:inline;overflow:visible;enable-background:accumulate;font-family:Sans;-inkscape-font-specification:Sans"/><path d="m -12586.992,26676.513 c 1.921,0 3.829,-0.809 5.185,-2.171 1.357,-1.36 2.172,-3.239 2.17,-5.162 l 0,-109 c 0,-1.921 -0.813,-3.823 -2.17,-5.186 -1.357,-1.36 -3.264,-2.165 -5.185,-2.169 l -27.205,0 c -1.926,0 -3.846,0.809 -5.208,2.169 -1.362,1.363 -2.172,3.26 -2.17,5.186 l 0,109 c 0,1.926 0.808,3.848 2.17,5.208 1.362,1.364 3.282,2.127 5.208,2.125 l 27.205,0 z m -117.955,-6.579 c 33.97,-0.395 67.725,-11.374 67.725,-11.374 2.94,-0.945 5.12,-3.951 5.117,-7.037 l 0,-72.956 c -0.142,-4.956 -3.362,-8.217 -7.674,-8.633 -2.323,-0.2 -5.937,-0.698 -13.203,-1.691 -0.312,-0.05 -3.306,-0.858 -6.967,-2.307 -3.66,-1.448 -8.316,-3.503 -13.591,-5.916 -10.548,-4.827 -23.555,-11.193 -36.706,-17.52 -13.152,-6.328 -26.43,-12.593 -37.621,-17.474 -11.191,-4.88 -19.204,-8.491 -26.473,-9.045 -11.039,-0.857 -29.899,2.207 -49.224,5.276 -19.327,3.07 -38.987,6.397 -44.223,6.648 -15.527,0.731 -28.332,12.386 -36.751,17.839 -10.933,7.103 -23.519,14.7 -33.921,24.601 l -0.02,0 c -3.768,3.578 -6.635,8.21 -6.556,14.321 0.683,5.039 5.199,3.759 6.35,5.847 -1.518,1.637 -6.023,5.797 -6.35,8.955 -1.08,9.381 8.519,14.077 16.309,14.71 14.426,0.717 27.537,-7.982 34.789,-14.87 11.166,-10.65 23.161,-14.244 39.699,-16.149 19.802,-2.297 38.36,-3.845 56.076,1.758 2.637,0.834 8.709,3.495 14.276,5.848 2.783,1.174 5.536,2.27 7.949,3.152 1.81,0.662 2.956,1.323 5.003,1.599 -6.034,0.779 -15.847,2.19 -24.921,1.119 -10.971,-1.295 -44.994,-1.365 -59.046,-3.928 -5.372,-0.978 -10.667,0.295 -14.642,2.855 -3.974,2.561 -6.712,6.175 -8.588,9.981 -3.751,7.619 -5.308,11.764 0.114,19.234 4.923,6.777 12.514,9.059 20.924,11.443 8.408,2.381 17.889,4.01 26.313,5.345 17.423,2.766 30.444,2.145 43.285,4.592 4.631,0.88 12.669,5.524 23.733,10.758 11.064,5.234 25.44,10.744 44.335,12.494 4.765,0.44 9.629,0.582 14.482,0.525 z" id="path8904-0-8" style="font-size:medium;font-style:normal;font-variant:normal;font-weight:normal;font-stretch:normal;text-indent:0;text-align:start;text-decoration:none;line-height:normal;letter-spacing:normal;word-spacing:normal;text-transform:none;direction:ltr;block-progression:tb;writing-mode:lr-tb;text-anchor:start;baseline-shift:baseline;color:#000000;fill:#4d4d4d;fill-opacity:1;stroke:none;stroke-width:19.54213333;marker:none;visibility:visible;display:inline;overflow:visible;enable-background:accumulate;font-family:Sans;-inkscape-font-specification:Sans"/><path d="m -12864.906,27094.531 c -1.369,1.745 -2.566,3.531 -3.594,5.313 -7.04,12.206 -6.94,24.424 -6.938,24.531 0,0.107 -0.281,21.156 -0.281,21.156 -0.359,0.176 -0.766,0.298 -1.093,0.531 -1.517,1.074 -2.507,2.601 -3.126,4.157 -1.234,3.11 -1.374,6.538 -1.374,10.906 0,13.82 7.978,26.954 15.874,34.656 6.187,22.85 24.079,40.019 45.813,40.657 21.733,-0.638 39.627,-17.807 45.813,-40.657 7.897,-7.702 15.843,-20.836 15.843,-34.656 0,-4.368 -0.141,-7.796 -1.375,-10.906 -0.617,-1.556 -1.608,-3.084 -3.125,-4.157 -0.329,-0.233 -0.735,-0.354 -1.093,-0.531 0,0 1.267,-10.981 -0.282,-20.969 -0.413,-2.663 -0.905,-5.097 -1.5,-7.312 -7.711,-3.709 -15.314,-7.722 -23.5,-10.344 -25.125,-5.167 -51.555,-3.98 -76.062,-12.375 z m 2,123.844 c -3.162,1.218 -41.475,16.018 -52.094,23.156 -11.074,7.443 -17.885,15.873 -23.781,28.657 -1.16,2.514 -2.242,5.103 -3.219,7.75 24.926,-1.088 49.924,2.717 72.25,14.25 12.716,8.172 27.596,11.161 42.531,11.968 19.958,2.108 40.606,3.494 59.219,11.438 6.857,2.486 13.113,7.173 17.188,13.187 21.054,-2.538 42.031,-6.73 57.374,-13.593 1.479,-0.665 2.532,-2.25 2.532,-3.876 0,-13.538 -3.667,-28.342 -9.563,-41.124 -5.895,-12.784 -12.738,-21.214 -23.812,-28.657 -10.568,-7.104 -48.52,-21.783 -52,-23.125 -8.896,13.22 -22.937,22.987 -38.969,24.719 -19.081,1.998 -37.299,-9.327 -47.656,-24.75 z" id="path17300" style="font-size:medium;font-style:normal;font-variant:normal;font-weight:normal;font-stretch:normal;text-indent:0;text-align:start;text-decoration:none;line-height:normal;letter-spacing:normal;word-spacing:normal;text-transform:none;direction:ltr;block-progression:tb;writing-mode:lr-tb;text-anchor:start;baseline-shift:baseline;color:#2d2d2d;fill:#4d4d4d;fill-opacity:1;stroke:none;stroke-width:16.00000191;marker:none;visibility:visible;display:inline;overflow:visible;enable-background:accumulate;font-family:Sans;-inkscape-font-specification:Sans" transform="translate(0,-448)"/></g></svg>