<?xml version="1.0" ?><svg height="512" id="svg4156" version="1.1" width="512" xmlns="http://www.w3.org/2000/svg" xmlns:cc="http://creativecommons.org/ns#" xmlns:dc="http://purl.org/dc/elements/1.1/" xmlns:inkscape="http://www.inkscape.org/namespaces/inkscape" xmlns:rdf="http://www.w3.org/1999/02/22-rdf-syntax-ns#" xmlns:sodipodi="http://sodipodi.sourceforge.net/DTD/sodipodi-0.dtd" xmlns:svg="http://www.w3.org/2000/svg"><defs id="defs4158"/><g id="layer1" transform="translate(0,448)"><g id="g43887" style="fill:#4D4D4D;fill-opacity:1" transform="matrix(0.76245535,0,0,0.76245535,6102.7459,-15880.635)"><path d="m -7579.4688,20961.188 c -2.2139,5.441 -4.3594,10.923 -7.375,15.937 -17.5291,30.661 -51.8135,53.827 -88.2187,50.656 -37.6354,-3.706 -68.4998,-32.198 -82.3437,-66.469 a 7.2149477,7.2149477 0 0 0 -2.4376,1.344 l -67.3437,57 a 7.2149477,7.2149477 0 0 0 -0.5625,10.532 l 13.3125,13.781 c 0.01,0 -0.01,0.03 0,0.03 7.5897,7.905 12.3763,13.846 14.1563,22.156 1.7812,8.317 0.6437,20.134 -6.5313,39.625 -13.087,35.555 -24.9687,62.363 -24.9687,92.563 0,53.629 35.515,94.17 94.1874,109.094 40.2584,10.24 44.0073,13.411 64.7188,30.187 a 7.2149477,7.2149477 0 0 0 9.0938,0 c 20.71,-16.775 24.4523,-19.947 64.7187,-30.187 58.6723,-14.923 94.2187,-55.465 94.2187,-109.094 0,-30.193 -11.8773,-56.997 -24.9687,-92.563 -7.1755,-19.491 -8.3125,-31.308 -6.5313,-39.625 1.78,-8.31 6.5666,-14.251 14.1563,-22.156 0.01,0 -0.01,-0.03 0,-0.03 l 13.2813,-13.781 a 7.2149477,7.2149477 0 0 0 -0.5313,-10.563 c -55.2726,-46.769 -61.0563,-51.516 -67.125,-56.875 a 7.2149477,7.2149477 0 0 0 -2.9063,-1.562 z m -88.8124,107.406 c 1.8707,0 3.6554,1.243 4.375,2.968 l 18.4062,44.157 47.6562,3.812 c 1.8677,0.147 3.607,1.5 4.1876,3.281 0.5805,1.781 -0.014,3.874 -1.4376,5.094 l -36.3437,31.156 11.125,46.5 c 0.437,1.821 -0.3287,3.868 -1.8437,4.969 -1.5157,1.101 -3.7144,1.196 -5.3126,0.219 l -40.8124,-24.938 -40.8438,24.938 c -0.8137,0.498 -1.7653,0.735 -2.7188,0.688 -1.395,-0.07 -2.7566,-0.757 -3.5937,-1.876 -0.8365,-1.117 -1.1389,-2.641 -0.8125,-4 l 11.0938,-46.5 -36.3126,-31.156 c -1.4215,-1.218 -2.0155,-3.313 -1.4374,-5.094 0.578,-1.78 2.2596,-3.13 4.125,-3.281 l 47.6874,-3.812 18.4063,-44.157 c 0.7196,-1.725 2.5351,-2.968 4.4063,-2.968 z" id="path14372-4" style="font-size:medium;font-style:normal;font-variant:normal;font-weight:normal;font-stretch:normal;text-indent:0;text-align:start;text-decoration:none;line-height:normal;letter-spacing:normal;word-spacing:normal;text-transform:none;direction:ltr;block-progression:tb;writing-mode:lr-tb;text-anchor:start;baseline-shift:baseline;color:#000000;fill:#4D4D4D;fill-opacity:1;fill-rule:nonzero;stroke:none;stroke-width:16;marker:none;visibility:visible;display:inline;overflow:visible;enable-background:accumulate;font-family:Sans;-inkscape-font-specification:Sans" transform="translate(0,-448)"/><path d="m -7567.5495,20385.555 c -7.2511,2.949 -14.6113,5.634 -22.0889,7.986 -58.0926,19.988 -122.7907,15.222 -179.3034,-7.774 -0.1369,9.481 -0.2711,19.015 -0.2711,19.015 -0.6432,0.315 -1.3688,0.512 -1.9588,0.934 -2.731,1.932 -4.4942,4.734 -5.6052,7.534 -2.2197,5.599 -2.4709,11.696 -2.4709,19.557 0,24.869 14.2955,48.519 28.5076,62.38 11.1332,41.117 43.4016,71.988 82.5097,73.137 39.108,-1.149 71.3464,-32.02 82.4795,-73.137 14.2121,-13.861 28.5077,-37.511 28.5077,-62.38 0,-7.861 -0.2522,-13.958 -2.4711,-19.557 -1.1099,-2.8 -2.8761,-5.602 -5.6051,-7.534 -0.5921,-0.422 -1.3175,-0.619 -1.9588,-0.934 0,0 -0.1323,-9.64 -0.2712,-19.227 z" id="path43860" style="font-size:medium;font-style:normal;font-variant:normal;font-weight:normal;font-stretch:normal;text-indent:0;text-align:start;text-decoration:none;line-height:normal;letter-spacing:normal;word-spacing:normal;text-transform:none;direction:ltr;block-progression:tb;writing-mode:lr-tb;text-anchor:start;baseline-shift:baseline;color:#2d2d2d;fill:#4D4D4D;fill-opacity:1;stroke:none;stroke-width:16.00000191;marker:none;visibility:visible;display:inline;overflow:visible;enable-background:accumulate;font-family:Sans;-inkscape-font-specification:Sans"/><path d="m -7782.7084,20366.79 c 16.3671,8.131 61.7245,27.929 114.4548,27.929 52.7139,0 98.0794,-19.79 114.4384,-27.929 -16.359,-8.105 -61.7245,-27.92 -114.4384,-27.92 -52.7303,0 -98.0959,19.815 -114.4548,27.92 z" id="path43864" style="fill:#4D4D4D;fill-opacity:1"/><path d="m -7787.6375,20360.454 c 15.5772,-7.982 62.6626,-29.434 119.3839,-29.434 56.7049,0 103.7902,21.452 119.3839,29.434 1.4318,-2.518 2.4769,-5.159 2.987,-7.998 7.2826,-41.325 -60.7863,-90.764 -122.3709,-90.764 -61.601,0 -129.6699,49.439 -122.3709,90.764 0.4937,2.839 1.5388,5.48 2.987,7.998 z m 119.4827,-94.286 c 14.4745,0 26.2005,11.726 26.2005,26.201 0,14.474 -11.726,26.217 -26.2005,26.217 -14.4746,0 -26.2006,-11.743 -26.2006,-26.217 0,-14.475 11.7343,-26.201 26.2006,-26.201 z" id="path43866" style="fill:#4D4D4D;fill-opacity:1"/></g></g></svg>
