<?xml version="1.0" ?><svg height="512" id="svg4156" version="1.1" width="512" xmlns="http://www.w3.org/2000/svg" xmlns:cc="http://creativecommons.org/ns#" xmlns:dc="http://purl.org/dc/elements/1.1/" xmlns:inkscape="http://www.inkscape.org/namespaces/inkscape" xmlns:rdf="http://www.w3.org/1999/02/22-rdf-syntax-ns#" xmlns:sodipodi="http://sodipodi.sourceforge.net/DTD/sodipodi-0.dtd" xmlns:svg="http://www.w3.org/2000/svg"><defs id="defs4158"/><g id="layer1" transform="translate(0,448)"><g id="g40030" transform="matrix(1.0009238,0,0,1.0009238,12488.837,-19520.248)"><path d="m -12297.153,19095.514 c -16.54,18.799 -27.153,43.952 -28.424,66.084 0,0.201 -0.575,39.494 -0.575,39.494 -0.666,0.328 -1.4,0.534 -2.012,0.971 -2.829,2.001 -4.672,4.897 -5.822,7.797 -2.301,5.801 -2.552,12.159 -2.552,20.303 0,25.768 14.814,50.251 29.539,64.612 11.534,42.601 44.935,74.599 85.454,75.789 40.52,-1.19 73.921,-33.188 85.455,-75.789 14.726,-14.361 29.539,-38.844 29.539,-64.612 0,-8.144 -0.252,-14.502 -2.551,-20.303 -1.15,-2.9 -2.995,-5.796 -5.822,-7.797 -0.614,-0.437 -1.347,-0.643 -2.013,-0.971 0,0 -0.575,-39.293 -0.575,-39.494 -1.272,-22.132 -11.885,-47.285 -28.424,-66.084 -15.108,-15.24 -47.995,-24.883 -75.607,-24.883 -27.613,0 -60.503,9.643 -75.61,24.883 z" id="path38807" style="font-size:medium;font-style:normal;font-variant:normal;font-weight:normal;font-stretch:normal;text-indent:0;text-align:start;text-decoration:none;line-height:normal;letter-spacing:normal;word-spacing:normal;text-transform:none;direction:ltr;block-progression:tb;writing-mode:lr-tb;text-anchor:start;baseline-shift:baseline;color:#2d2d2d;fill:#4d4d4d;fill-opacity:1;stroke:none;stroke-width:16.00000191;marker:none;visibility:visible;display:inline;overflow:visible;enable-background:accumulate;font-family:Sans;-inkscape-font-specification:Sans"/><path d="m -12302.25,19785.281 c -4.013,1.547 -38.351,14.847 -66.125,27.375 l 92.187,0 c -10.192,-7.589 -19.084,-16.983 -26.062,-27.375 z m 161.5,0.03 c -7.06,10.491 -15.855,19.834 -25.938,27.344 l 91.969,0 c -27.576,-12.435 -61.627,-25.646 -66.031,-27.344 z m -278.25,59.344 c -8.805,8.993 -15.825,19.298 -22.156,32 l 439.25,0 c -6.331,-12.702 -13.351,-23.007 -22.156,-32 l -394.938,0 z m -34.75,64 c -3.151,10.545 -5.469,21.349 -6.719,32 l 477.844,0 c -1.244,-10.651 -3.544,-21.455 -6.687,-32 l -464.438,0 z m 14.594,64 c 66.919,22.666 170.435,25.532 217.594,25.532 47.16,0 150.704,-2.866 217.624,-25.532 l -435.218,0 z" id="path38792" style="font-size:medium;font-style:normal;font-variant:normal;font-weight:normal;font-stretch:normal;text-indent:0;text-align:start;text-decoration:none;line-height:normal;letter-spacing:normal;word-spacing:normal;text-transform:none;direction:ltr;block-progression:tb;writing-mode:lr-tb;text-anchor:start;baseline-shift:baseline;color:#2d2d2d;fill:#4d4d4d;fill-opacity:1;stroke:none;stroke-width:16.00000191;marker:none;visibility:visible;display:inline;overflow:visible;enable-background:accumulate;font-family:Sans;-inkscape-font-specification:Sans" transform="translate(0,-448)"/></g></g></svg>