<?xml version="1.0" ?><!DOCTYPE svg  PUBLIC '-//W3C//DTD SVG 1.1//EN'  'http://www.w3.org/Graphics/SVG/1.1/DTD/svg11.dtd'><svg height="512px" id="Слой_1" style="enable-background:new 0 0 512 512;" version="1.1" viewBox="0 0 512 512" width="512px" xml:space="preserve" xmlns="http://www.w3.org/2000/svg" xmlns:xlink="http://www.w3.org/1999/xlink"><g><path d="M87.504,336.691h410.951c0-23.928,0-48.858,0-72.791c-83.505-15.934-158.703-69.047-229.818-140.566   c-3.007-3.499-7.411-5.747-12.348-5.747H144.861c-8.891,0-18.766,5.479-25.768,16.251   c-36.456,60.611-36.636,123.777-42.249,187.528C77.298,329.297,81.486,334.684,87.504,336.691z M468.734,271.086   c6.018,1.434,11.944,2.602,17.691,3.544v27.524c-5.926-0.497-11.852-1.081-17.691-1.752V271.086z M432.416,259.997   c7.14,2.602,14.187,4.938,21.143,7.002v31.427c-7.135-1.03-14.187-2.156-21.143-3.411V259.997z M388.553,241.006   c8.395,4.174,16.881,8.128,25.409,11.718v38.608c-8.707-1.885-17.194-3.903-25.409-6.059V241.006z M343.252,215.054   c9.296,6.11,19.083,11.99,29.183,17.511v48.262c-10.279-3.007-20.067-6.197-29.183-9.429V215.054z M292.433,174.244   c9.829,10.15,21.86,20.297,35.33,30.08v61.328c-13.782-5.388-25.68-10.817-35.33-15.847V174.244z M251.265,301.525h-34.751v-17.911   h34.751V301.525z M137.859,135.908c38.428,0,76.857,0,115.29,0l-5.884,79.372H114.33   C117.833,187.402,124.927,160.687,137.859,135.908z M96.015,283.614h34.705v17.911H96.015V283.614z" style="fill:#4D4D4D;"/><path d="M506,356.071v-10.413H83.446v10.413H93.5l-9.47,4.174H59.471l-13.921,7.498h21.281l-18.408,8.081   H34.958l-13.921,7.545h10.238L6,394.413h38.787l22.945-11.043h90.865l-25.276,11.043h38.746l22.986-11.043h40.897l13.966-7.545   h-39.283l16.697-8.081h33.179l13.921-7.498h-31.519l8.62-4.174H506z M175.75,375.825H83.308l16.748-8.081h94.102L175.75,375.825z    M211.305,360.246H115.59l8.666-4.174h96.566L211.305,360.246z" style="fill:#4D4D4D;"/></g></svg>
