<?xml version="1.0" ?><svg height="100" id="Layer_1" version="1.0" viewBox="0 0 98.867 100" width="98.866997" xml:space="preserve" xmlns="http://www.w3.org/2000/svg" xmlns:cc="http://creativecommons.org/ns#" xmlns:dc="http://purl.org/dc/elements/1.1/" xmlns:inkscape="http://www.inkscape.org/namespaces/inkscape" xmlns:rdf="http://www.w3.org/1999/02/22-rdf-syntax-ns#" xmlns:sodipodi="http://sodipodi.sourceforge.net/DTD/sodipodi-0.dtd" xmlns:svg="http://www.w3.org/2000/svg"><defs id="defs11"/><path d="m 4.7528386,33.647916 24.1947014,0 0,-24.1947009 -24.1947014,0 m 22.1644234,22.0010539 -20.2247175,0 0,-19.79016 20.2247175,0 z" id="rect2994" style="fill:#000000;fill-opacity:0.99470903;fill-rule:nonzero;stroke:none"/><path d="m 4.658746,65.626264 24.194703,0 0,-24.194701 -24.194703,0 z" id="rect2994-1" style="fill:#000000;fill-opacity:0.99470903;fill-rule:nonzero;stroke:none"/><path d="m 4.6587448,97.528915 24.1947032,0 0,-24.194702 -24.1947032,0 z" id="rect2994-1-7" style="fill:#000000;fill-opacity:0.99470903;fill-rule:nonzero;stroke:none"/><path d="m 36.483597,33.80092 24.194703,0 0,-24.1947028 -24.194703,0 z" id="rect2994-4" style="fill:#000000;fill-opacity:0.99470903;fill-rule:nonzero;stroke:none"/><path d="m 36.389504,97.681919 24.194704,0 0,-24.194701 -24.194704,0 z" id="rect2994-1-7-9" style="fill:#000000;fill-opacity:0.99470903;fill-rule:nonzero;stroke:none"/><path d="m 68.203935,33.495832 24.194702,0 0,-24.1947011 -24.194702,0 z" id="rect2994-48" style="fill:#000000;fill-opacity:0.99470903;fill-rule:nonzero;stroke:none"/><path d="m 68.109842,65.474177 24.194704,0 0,-24.194698 -24.194704,0 z" id="rect2994-1-8" style="fill:#000000;fill-opacity:0.99470903;fill-rule:nonzero;stroke:none"/><path d="m 68.109841,97.376838 24.194704,0 0,-24.194711 -24.194704,0 z" id="rect2994-1-7-2" style="fill:#000000;fill-opacity:0.99470903;fill-rule:nonzero;stroke:none"/><path d="m 36.432314,33.720231 24.194702,0 0,-24.1947013 -24.194702,0 m 22.164424,22.0010543 -20.224718,0 0,-19.79016 20.224718,0 z" id="rect2994-5" style="fill:#000000;fill-opacity:0.99470903;fill-rule:nonzero;stroke:none"/><path d="m 68.2374,33.521078 24.194702,0 0,-24.1947003 -24.194702,0 m 22.164424,22.0010533 -20.224718,0 0,-19.790161 20.224718,0 z" id="rect2994-17" style="fill:#000000;fill-opacity:0.99470903;fill-rule:nonzero;stroke:none"/><path d="m 68.093329,65.393963 24.194702,0 0,-24.194701 -24.194702,0 m 22.164424,22.001054 -20.224718,0 0,-19.79016 20.224718,0 z" id="rect2994-11" style="fill:#000000;fill-opacity:0.99470903;fill-rule:nonzero;stroke:none"/><path d="m 36.313663,65.699043 24.194702,0 0,-24.194701 -24.194702,0 m 22.164424,22.001054 -20.224718,0 0,-19.79016 20.224718,0 z" id="rect2994-52" style="fill:#000000;fill-opacity:0.99470903;fill-rule:nonzero;stroke:none"/><path d="m 4.6399376,65.593115 24.1947004,0 0,-24.194702 -24.1947004,0 m 22.1644224,22.001055 -20.2247164,0 0,-19.790161 20.2247164,0 z" id="rect2994-7" style="fill:#000000;fill-opacity:0.99470903;fill-rule:nonzero;stroke:none"/><path d="m 4.5848527,97.504134 24.1947033,0 0,-24.194704 -24.1947033,0 m 22.1644253,22.001054 -20.2247192,0 0,-19.79016 20.2247192,0 z" id="rect2994-6" style="fill:#000000;fill-opacity:0.99470903;fill-rule:nonzero;stroke:none"/><path d="m 36.32638,97.703284 24.194702,0 0,-24.194701 -24.194702,0 m 22.164424,22.001055 -20.224718,0 0,-19.790161 20.224718,0 z" id="rect2994-14" style="fill:#000000;fill-opacity:0.99470903;fill-rule:nonzero;stroke:none"/><path d="m 68.080617,97.372777 24.194702,0 0,-24.194701 -24.194702,0 m 22.164424,22.001054 -20.224718,0 0,-19.790161 20.224718,0 z" id="rect2994-2" style="fill:#000000;fill-opacity:0.99470903;fill-rule:nonzero;stroke:none"/><path d="m 4.6360355,33.798784 24.1947035,0 0,-24.1947034 -24.1947035,0 z" id="rect2994-4-3" style="fill:#000000;fill-opacity:0.99470903;fill-rule:nonzero;stroke:none"/></svg>