<?xml version="1.0" ?><!DOCTYPE svg  PUBLIC '-//W3C//DTD SVG 1.1//EN'  'http://www.w3.org/Graphics/SVG/1.1/DTD/svg11.dtd'><svg enable-background="new 0 0 512 512" height="512px" id="Layer_1" version="1.1" viewBox="0 0 512 512" width="512px" xml:space="preserve" xmlns="http://www.w3.org/2000/svg" xmlns:xlink="http://www.w3.org/1999/xlink"><g><path d="M441.75,48H70.25C49.125,48,32,65.125,32,86.25V448c0,8.844,7.156,16,16,16h54.109   c6.063,0,11.609-3.422,14.313-8.844L128,432h256l11.578,23.156c2.703,5.422,8.25,8.844,14.313,8.844H464c8.844,0,16-7.156,16-16   V86.25C480,65.125,462.875,48,441.75,48z M432,373.75c0,5.656-4.594,10.25-10.25,10.25H90.25C84.594,384,80,379.406,80,373.75   v-267.5C80,100.594,84.594,96,90.25,96h331.5c5.656,0,10.25,4.594,10.25,10.25V373.75z M227.5,221.875   c7.688,15.047,5.422,33.875-7.172,46.469c-15.656,15.641-41.016,15.641-56.656,0c-15.656-15.641-15.656-41.016,0-56.656   c12.578-12.594,31.406-14.875,46.453-7.188l-8.25,24.781c-5.766-5.297-14.688-5.25-20.281,0.344   c-5.719,5.734-5.719,15.047,0,20.781c5.75,5.734,15.047,5.734,20.781,0c5.594-5.594,5.641-14.5,0.344-20.266L227.5,221.875z    M410.328,112H101.672c-3.141,0-5.672,2.547-5.672,5.672v244.656c0,3.125,2.531,5.672,5.672,5.672h308.656   c3.141,0,5.672-2.547,5.672-5.672V117.672C416,114.547,413.469,112,410.328,112z M192,305.594   c-36.219,0-65.594-29.359-65.594-65.594c0-36.235,29.375-65.594,65.594-65.594c36.234,0,65.594,29.359,65.594,65.594   C257.594,276.234,228.234,305.594,192,305.594z M384,288c0,17.672-14.328,32-32,32s-32-14.328-32-32   c0-11.813,6.469-22.016,16-27.563v-40.875c-9.531-5.547-16-15.734-16-27.563c0-17.688,14.344-32,32-32s32,14.313,32,32   c0,11.828-6.469,22.016-16,27.563v40.875C377.531,265.984,384,276.188,384,288z" fill="#4D4D4D"/></g></svg>