<?xml version="1.0" ?><!DOCTYPE svg  PUBLIC '-//W3C//DTD SVG 1.1//EN'  'http://www.w3.org/Graphics/SVG/1.1/DTD/svg11.dtd'><svg enable-background="new 0 0 512 512" height="512px" id="Layer_1" version="1.1" viewBox="0 0 512 512" width="512px" xml:space="preserve" xmlns="http://www.w3.org/2000/svg" xmlns:xlink="http://www.w3.org/1999/xlink"><g><path d="M404.75,221.906c-20.953,7.031-43.625-4.203-50.656-25.156c-7.031-20.938,4.211-43.594,25.172-50.656   c20.938-7.031,43.609,4.25,50.642,25.188C436.939,192.22,425.672,214.875,404.75,221.906z M174.031,254.234   C128.336,242.625,94.398,201.266,94.398,152c0-58.234,47.367-105.609,105.602-105.609c58.234,0,105.602,47.375,105.602,105.609   c0,14.156-2.844,27.641-7.922,40h32.297c3.906-12.656,6.023-26.078,6.023-40c0-74.984-61.016-136-136-136   C125.016,16,64,77.016,64,152c0,66.453,47.969,121.859,111.078,133.609C170.375,275.516,170.148,264.203,174.031,254.234z    M249.898,371.391l-16.273,47.125l-63.18,38.813c-9.93,5.656-13.383,18.313-7.727,28.219c3.43,6.031,9.438,9.672,15.836,10.344   c4.172,0.438,8.469-0.375,12.383-2.608l69.836-42.609c4.289-2.438,7.569-6.359,9.242-10.984l15.297-45.547l-13.773-5.656   C262.773,384.875,255.477,378.813,249.898,371.391z M371.719,362.328l-45.569-18.625l40.305-69.406   c9.147-15.766,4.063-35.938-11.453-45.469l-18.313-11.25c-5.288-3.25-11.375-4.969-17.577-4.969h-60.438   c-3.328,0.219-6.547,1.281-9.336,3.125l-48.727,37.047c-8.844,5.859-11.273,17.766-5.422,26.609   c3.695,5.594,9.805,8.608,16.031,8.608c3.641,0,7.32-1.031,10.578-3.188l42.875-33.608l41.664,0.125l-41.53,73.625   c-4.384,7.844-5.978,17.155-3.031,25.608c2.944,8.47,9.375,15.267,17.672,18.672l66.069,27.142l13.392,82.359   C360.602,488.859,369.367,496,379.273,496c1.147,0,2.297-0.094,3.461-0.297c11.28-1.875,18.875-12.531,16.969-23.813   l-15.297-93.797C383.211,370.984,378.414,365.016,371.719,362.328z M196.289,224h7.414c2.367,0,4.297-1.75,4.297-3.906v-13.375   c24.648-4.453,35.992-20.375,35.992-36.313c0-22.234-18.219-31.625-36.063-37.891c-17.703-6.078-23.102-10.438-23.102-18.641   c0-6.172,5.273-13.391,20.102-13.391c9.82,0,17.938,2.531,22.258,4.906l1.086,0.609c0.906,0.5,2.031,0.609,3.047,0.266   c1.008-0.313,1.797-1.031,2.133-1.938l5.07-13.313c0.68-1.797-0.156-3.781-2.008-4.75c-7.086-3.688-17.398-5.828-28.516-6.125   V67.906c0-2.156-1.93-3.906-4.297-3.906h-7.414C193.93,64,192,65.75,192,67.906v13.563c-20.07,4.016-33.289,16.844-33.289,34.141   c0,16.641,12.266,28.703,37.469,36.844c18.055,6,21.688,11.781,21.688,19.156c0,9.891-8.539,15.813-22.82,15.813   c-9.805,0-19.859-2.547-27.617-6.969l-1.117-0.641c-0.922-0.516-2.07-0.625-3.102-0.297c-1.032,0.328-1.828,1.063-2.156,2   l-4.852,13.703c-0.609,1.703,0.125,3.563,1.805,4.547c7.813,4.641,21.539,7.844,33.992,8.156v12.172   C192,222.25,193.93,224,196.289,224z" fill="#4D4D4D"/></g></svg>