<?xml version="1.0" ?><svg enable-background="new 0 0 515.91 728.5" height="512" id="Layer_1" version="1.1" viewBox="0 0 512.00003 512" width="512" xml:space="preserve" xmlns="http://www.w3.org/2000/svg" xmlns:cc="http://creativecommons.org/ns#" xmlns:dc="http://purl.org/dc/elements/1.1/" xmlns:inkscape="http://www.inkscape.org/namespaces/inkscape" xmlns:rdf="http://www.w3.org/1999/02/22-rdf-syntax-ns#" xmlns:sodipodi="http://sodipodi.sourceforge.net/DTD/sodipodi-0.dtd" xmlns:svg="http://www.w3.org/2000/svg"><defs id="defs7"/><g id="g20580" transform="translate(1041.0912,-5677.7386)"><path d="m -785.09375,6249.0312 -199,198.9688 0,174.5 c 0,4.432 3.5681,8 8,8 l 382,0 c 4.432,0 8,-3.568 8,-8 l 0,-174.4688 -199,-199 z m 97.15625,151 c 0.42902,0 0.84915,0.1485 1.15625,0.4376 0.48167,0.4095 0.69985,1.1167 0.53125,1.7187 l -9.4375,35.7813 c -0.14453,0.578 -0.60944,1.0502 -1.1875,1.2187 -0.57806,0.1446 -1.27803,0 -1.6875,-0.4063 l -8.75,-8.6874 -47.9375,47.9374 c -1.39701,1.3969 -3.43118,2.1445 -5.40625,2 -1.97506,-0.1445 -3.85102,-1.1985 -5.03125,-2.8124 l -40.625,-55.625 -63.71875,40.875 c -1.42107,0.9395 -3.18897,1.3272 -4.875,1.0624 -1.68603,-0.289 -3.25271,-1.2376 -4.3125,-2.5624 -1.05979,-1.3488 -1.58919,-3.0712 -1.46875,-4.7813 0.12042,-1.686 0.90377,-3.3438 2.15625,-4.5 0.3372,-0.3371 0.67711,-0.6029 1.0625,-0.8437 l 69.1875,-44.3438 c 1.44516,-0.9403 3.25862,-1.3059 4.96875,-0.9688 1.71011,0.3132 3.30088,1.2907 4.3125,2.6876 l 39.71875,54.375 42.15625,-42.1876 -7.71875,-7.6874 c -0.60218,-0.6023 -0.64773,-1.6936 -0.0937,-2.3438 0.24087,-0.2649 0.50654,-0.4665 0.84375,-0.5625 l 35.71875,-9.7187 c 0.1385,-0.037 0.29449,-0.063 0.4375,-0.063 z m -31.9375,60.6876 31.34375,0 c 1.9028,0 3.4375,1.5418 3.4375,3.4687 l 0,99.0625 c 0,1.9029 -1.5347,3.4375 -3.4375,3.4375 l -31.34375,0 c -1.9028,0 -3.4375,-1.5346 -3.4375,-3.4375 l 0,-99.0625 c 0,-1.9269 1.5347,-3.4687 3.4375,-3.4687 z m -107.84375,11.9062 31.34375,0 c 1.92689,0 3.4375,1.5348 3.4375,3.4375 l 0,87.1875 c 0,1.9029 -1.51061,3.4375 -3.4375,3.4375 l -31.34375,0 c -1.92689,0 -3.4375,-1.5346 -3.4375,-3.4375 l 0,-87.1875 c 0,-1.9028 1.51061,-3.4375 3.4375,-3.4375 z m 53.90625,25.7188 31.34375,0 c 1.90279,0 3.4375,1.5105 3.4375,3.4374 l 0,61.4688 c 0,1.9029 -1.53471,3.4375 -3.4375,3.4375 l -31.34375,0 c -1.90281,0 -3.4375,-1.5346 -3.4375,-3.4375 l 0,-61.4688 c 0,-1.9268 1.53469,-3.4374 3.4375,-3.4374 z m -107.84375,12.5312 31.375,0 c 1.9028,0 3.4375,1.566 3.4375,3.4688 l 0,48.9062 c 0,1.9029 -1.5347,3.4375 -3.4375,3.4375 l -31.375,0 c -1.90281,0 -3.4375,-1.5346 -3.4375,-3.4375 l 0,-48.9062 c 0,-1.9029 1.53469,-3.4688 3.4375,-3.4688 z" id="path15400" style="fill:#4D4D4D;fill-opacity:1;fill-rule:nonzero;stroke:none" transform="translate(0,-448)"/><path d="m -1031.3464,5974.7111 c -12.9928,-12.9928 -12.9929,-33.9128 0,-46.9057 79.0725,-79.0724 163.1308,-163.1308 240.392,-240.392 3.2482,-3.2482 8.4782,-3.2482 11.7264,0 82.8867,82.8867 169.0757,169.0758 240.3919,240.392 12.9929,12.9929 12.9929,33.9128 0,46.9057 -12.9929,12.9929 -33.9128,12.9929 -46.9057,0 l -199.3495,-199.3493 -199.3493,199.3493 c -12.9929,12.9929 -33.9127,12.993 -46.9058,0 z" id="path15402" style="fill:#4D4D4D;fill-opacity:1;fill-rule:nonzero;stroke:none"/></g></svg>
