<?xml version="1.0" ?><!DOCTYPE svg  PUBLIC '-//W3C//DTD SVG 1.1//EN'  'http://www.w3.org/Graphics/SVG/1.1/DTD/svg11.dtd'><svg enable-background="new 0 0 512 512" height="512px" id="Layer_1" version="1.1" viewBox="0 0 512 512" width="512px" xml:space="preserve" xmlns="http://www.w3.org/2000/svg" xmlns:xlink="http://www.w3.org/1999/xlink"><g><path d="M99.672,192h216.656c2.031,0,3.672,1.641,3.672,3.672v8.656c0,2.031-1.641,3.672-3.672,3.672H99.672   c-2.031,0-3.672-1.641-3.672-3.672v-8.656C96,193.641,97.641,192,99.672,192z M300.328,112c2.031,0,3.672-1.641,3.672-3.672v-8.656   c0-2.031-1.641-3.672-3.672-3.672H195.672c-2.031,0-3.672,1.641-3.672,3.672v8.656c0,2.031,1.641,3.672,3.672,3.672H300.328z    M96,355.672v8.656c0,2.031,1.641,3.672,3.672,3.672h136.289c1.328-5.469,2.984-10.813,4.953-16H99.672   C97.641,352,96,353.641,96,355.672z M99.672,320c-2.031,0-3.672,1.656-3.672,3.688v8.625c0,2.031,1.641,3.688,3.672,3.688H248.07   c3-5.594,6.461-10.906,10.188-16L99.672,320L99.672,320z M96,300.328c0,2.031,1.641,3.672,3.672,3.672h172.094   c5.898-5.906,12.359-11.25,19.258-16H99.672c-2.031,0-3.672,1.641-3.672,3.672V300.328z M96,236.328   c0,2.031,1.641,3.672,3.672,3.672h216.656c2.031,0,3.672-1.641,3.672-3.672v-8.656c0-2.031-1.641-3.672-3.672-3.672H99.672   c-2.031,0-3.672,1.641-3.672,3.672V236.328z M96,268.328c0,2.031,1.641,3.672,3.672,3.672h216.656c2.031,0,3.672-1.641,3.672-3.672   v-8.656c0-2.031-1.641-3.672-3.672-3.672H99.672c-2.031,0-3.672,1.641-3.672,3.672V268.328z M256.609,388.344l30.867,8.984   c1.444-43.297,36.891-78.125,80.522-78.125c20.742,0,39.531,8,53.805,20.938l-16.733,14.25c-1.853,1.578-2.688,4.031-2.181,6.406   c0.509,2.375,2.281,4.281,4.609,4.953l62.93,18.359c2.345,0.781,4.914,0.313,6.836-1.188c1.923-1.53,2.938-3.905,2.695-6.313   l-6.695-66.655c-0.241-2.438-1.827-4.547-4.102-5.47c-2.281-0.922-4.875-0.5-6.742,1.095l-16.672,14.188   C425.609,300.203,398.297,288,368,288C310.086,288,262.438,331.984,256.609,388.344z M368,480.797   c-20.742,0-39.531-8-53.805-20.938l16.733-14.25c1.853-1.578,2.688-4.031,2.181-6.406c-0.509-2.375-2.281-4.281-4.609-4.953   l-62.93-18.359c-2.344-0.78-4.914-0.313-6.836,1.188c-1.922,1.531-2.938,3.906-2.695,6.313l6.695,66.656   c0.242,2.438,1.828,4.547,4.102,5.469c2.281,0.923,4.875,0.5,6.742-1.094l16.672-14.188C310.391,499.797,337.703,512,368,512   c57.797,0,105.344-43.781,111.336-100l-30.836-9.109C446.938,446.078,411.555,480.797,368,480.797z M72,432c-4.422,0-8-3.578-8-8   V128h48c17.672,0,32-14.328,32-32V48h200c4.422,0,8,3.578,8,8v209.031c0,0,0.023,0,0.031,0C357.281,264.422,362.594,264,368,264   c5.422,0,10.742,0.406,16,1.031V48c0-17.672-14.328-32-32-32H141.25c-8.484,0-16.625,3.375-22.625,9.375l-77.25,77.25   c-6,6-9.375,14.141-9.375,22.625V432c0,17.672,14.328,32,32,32h171.992l-3.211-32H72z" fill="#4D4D4D"/></g></svg>