<?xml version="1.0" ?><!DOCTYPE svg  PUBLIC '-//W3C//DTD SVG 1.1//EN'  'http://www.w3.org/Graphics/SVG/1.1/DTD/svg11.dtd'><svg enable-background="new 0 0 512 512" height="512px" id="Layer_1" version="1.1" viewBox="0 0 512 512" width="512px" xml:space="preserve" xmlns="http://www.w3.org/2000/svg" xmlns:xlink="http://www.w3.org/1999/xlink"><g><path d="M64,244.047c4.906-2.453,10.281-3.922,16-4.375V223c0-26.344-3.172-46.297-18.563-46.891   C63.969,187.781,64,199.844,64,207V244.047z M210.594,339.406c-15.938-13.641-39.266-17.203-53.688-18.359l-44.5-50.797   c-11.125-12.594-33.031-19.047-46.344-6.641c-13.297,12.438-9.156,35.453,1.969,48.031c0,0,13.813,14.422,33.719,37.813l0,0   c2.125,2.5,4.266,5.016,6.531,7.719C112.75,362.5,122.5,381,117.25,393.25c-0.797-0.594-1.438-1.391-2.063-2.266l-20.406-22.517   C72.094,341.359,55.5,324,55.328,323.828C39.719,306.188,34.563,277.719,48,257.953V207c0-26.75-3.203-47-19.203-47   C6.797,160,0,176,0,208s0,48,0,73.031C0,310.734,23.688,353,57.438,391.234c10.5,11.875,26.047,27.344,50.219,39.358   C125.594,439.516,129.594,448,129.594,480H240C240,384,234.094,359.5,210.594,339.406z M448,207c0-7.156,0.031-19.219,2.563-30.891   C435.172,176.703,432,196.656,432,223v16.672c5.719,0.453,11.094,1.922,16,4.375V207z M272,480h110.406   c0-32,4-40.484,21.938-49.406c24.188-12.016,39.719-27.483,50.219-39.359C488.313,353,512,310.734,512,281.031   C512,256,512,240,512,208s-6.797-48-28.797-48c-16,0-19.203,20.25-19.203,47v50.953c13.438,19.766,8.281,48.234-7.328,65.875   c-0.172,0.172-16.766,17.531-39.453,44.641l-20.406,22.516c-0.625,0.875-1.266,1.673-2.063,2.267   c-5.25-12.25,4.5-30.75,8.969-36.078c2.267-2.703,4.406-5.219,6.531-7.719l0,0c19.906-23.392,33.719-37.813,33.719-37.813   c11.125-12.578,15.267-35.594,1.969-48.031c-13.313-12.405-35.219-5.952-46.344,6.642l-44.5,50.797   c-14.422,1.156-37.75,4.72-53.688,18.359C277.906,359.5,272,384,272,480z M378.563,82.578   c-31.905-1.156-72.688-16.922-119.28-49.563c-1.953-1.359-4.609-1.359-6.563,0c-46.594,32.641-87.375,48.406-119.25,49.563   c-3.063,0.109-5.469,2.563-5.469,5.563c0,12.969,0,39.625,0,96.406c0,88.281,110.25,129.656,126.125,135.156   c1.219,0.406,2.531,0.406,3.766,0C273.75,314.203,384,272.797,384,184.547c0-56.781,0-83.438,0-96.406   C384,85.141,381.594,82.688,378.563,82.578z M352,184.547c0,57.063-70.844,91.281-96,101.609V176h-96v-64.547   c29.422-5.969,62-20.219,96-42.094V176h96V184.547z" fill="#4D4D4D"/></g></svg>