<?xml version="1.0" ?><!DOCTYPE svg  PUBLIC '-//W3C//DTD SVG 1.1//EN'  'http://www.w3.org/Graphics/SVG/1.1/DTD/svg11.dtd'><svg height="512px" style="enable-background:new 0 0 512 512;" version="1.1" viewBox="0 0 512 512" width="512px" xml:space="preserve" xmlns="http://www.w3.org/2000/svg" xmlns:xlink="http://www.w3.org/1999/xlink"><g id="Layer_1"><g><rect height="512" style="fill:none;" width="512"/><path d="M149.234,332.406c6.648,8.547,18.609,17.688,39.734,18.078    c7.602,0.141,16.023-0.906,25.031-3.094l3.109-0.75c3.828-0.922,8.063-1.969,12.406-3.078C236.063,352.734,240,363.875,240,376    c0,30.938-25.07,56-56,56c-30.945,0-56-25.063-56-56C128,358.266,136.391,342.656,149.234,332.406z M317.82,299.563    c-1.852,0.813-8.648,5.25-14.102,8.797c-2.07,1.344-4.445,2.859-6.711,4.328C300.984,330.594,316.898,344,336,344v64    c-22.094,0-40,17.906-40,40H72c0-22.094-17.906-40-40-40v-64c22.094,0,40-17.906,40-40h67.359    c-0.305-6.656,0.414-12.969,2.289-17.75c1.953-4.969,4.297-9.719,7-14.25H48c-26.508,0-48,21.484-48,48v112    c0,26.516,21.492,48,48,48h272c26.508,0,48-21.484,48-48V320c0-10.563-3.516-20.25-9.297-28.172    c-8.25,1.75-15.844,2.984-22.531,4.047C328.375,297.109,321.656,298.188,317.82,299.563z M435.828,16.813    c-13.344,3.797-24.156,10.672-38.813,18.328c-90,47-196.25,39.25-220,77c-27.43,51.609-48.813,89.078-48.93,107.547    c-0.016,0.078-0.07,0.141-0.086,0.219c2.391,14.188,12.734,31.563,23.516,48.031c8.086-12.094,18.758-22.609,32.352-31.109    c9.305-5.828,16.555-9.906,22.875-13.156c-2.141-4.156-4.438-8.375-6.734-12.328c10.461-8.578,23.617-25.594,28.453-38.188    c13.227,0.109,30.25-3.156,44.773-6.922c6.055,6.469,12.234,12.828,20.32,18.969c-4.594,11.344-9.977,21.438-24.758,29.563    c-23.766,13.078-44.711,17.109-73.508,35.828c-17.32,11.25-28.805,25.406-35.102,42.297c-4.359,11.703-0.68,53.203,54.336,38.844    c10.352-2.703,24.141-6.109,36.141-10.625c24.867-9.328,56.789-35.203,65.242-38.406c15.922-6.047,50.633-5.531,89.414-26.078    c14.469-7.656,26.781-20.75,32.133-36.5c33.539-66.188,61.492-60.922,69.297-73.906C523.688,117.969,469.516,7.234,435.828,16.813    z" style="fill:#4D4D4D;"/></g></g></svg>
