<?xml version="1.0" ?><!DOCTYPE svg  PUBLIC '-//W3C//DTD SVG 1.1//EN'  'http://www.w3.org/Graphics/SVG/1.1/DTD/svg11.dtd'><svg enable-background="new 0 0 173.036 193.328" height="193.328px" id="Layer_1" version="1.1" viewBox="0 0 173.036 193.328" width="173.036px" xml:space="preserve" xmlns="http://www.w3.org/2000/svg" xmlns:xlink="http://www.w3.org/1999/xlink"><g><g><path d="M25.234,23.995L25.234,23.995L25.234,23.995z" fill="#4D4D4D"/><path d="M35.291,47.691H15.186c-4.178,0-7.772,0.33-8.018,0.736l-0.444,0.738c-0.217,0.364-0.393,0.99-0.393,1.41    v138.3h37.814V50.571c0-0.417-0.179-1.046-0.394-1.41c0,0-0.198-0.33-0.441-0.739C43.05,48.021,39.469,47.691,35.291,47.691z     M32.043,164.292H18.429v-13.623h13.614V164.292z M32.043,134.035H18.429v-13.618h13.614V134.035z M32.043,103.785H18.429V90.168    h13.614V103.785z M32.043,73.53H18.429V59.918h13.614V73.53z" fill="#4D4D4D"/></g><g><path d="M147.958,23.995L147.958,23.995L147.958,23.995z" fill="#4D4D4D"/><path d="M158.009,47.691h-20.111c-4.174,0-7.762,0.33-8.009,0.736l-0.446,0.738    c-0.219,0.364-0.396,0.99-0.396,1.41v138.3h37.819V50.571c0-0.417-0.184-1.046-0.394-1.41c0,0-0.2-0.33-0.445-0.739    C165.775,48.021,162.189,47.691,158.009,47.691z M154.764,164.292h-13.614v-13.623h13.614V164.292z M154.764,134.035h-13.614    v-13.618h13.614V134.035z M154.764,103.785h-13.614V90.168h13.614V103.785z M154.764,73.53h-13.614V59.918h13.614V73.53z" fill="#4D4D4D"/></g><path d="M123.813,10.857c0,0-0.424-0.445-0.956-1.004c-0.519-0.543-4.328-0.998-8.508-0.998H58.688   c-4.174,0-7.989,0.446-8.513,0.998l-0.951,1.004c-0.283,0.302-0.523,0.882-0.523,1.303v172.925h75.631V12.16   C124.335,11.743,124.103,11.164,123.813,10.857z M74.121,160.505H60.504v-13.619h13.617V160.505z M74.121,130.253H60.504V116.64   h13.617V130.253z M74.121,100.001H60.504V86.388h13.617V100.001z M74.121,69.749H60.504V56.135h13.617V69.749z M74.121,39.496   H60.504V25.88h13.617V39.496z M94.085,177.905c0,1.669-1.349,3.025-3.021,3.025h-9.078c-1.669,0-3.029-1.356-3.029-3.025v-10.591   c0-1.668,1.354-3.023,3.029-3.023h9.078c1.663,0,3.021,1.354,3.021,3.023V177.905z M111.934,160.505H98.318v-13.619h13.615V160.505   z M111.934,130.253H98.318V116.64h13.615V130.253z M111.934,100.001H98.318V86.388h13.615V100.001z M111.934,69.749H98.318V56.135   h13.615V69.749z M111.934,39.496H98.318V25.88h13.615V39.496z" fill="#4D4D4D"/><path d="M169.328,193.328H3.705c-2.04,0-3.705-1.908-3.705-4.265v-5.683c0-2.357,1.658-4.264,3.705-4.264h165.623   c2.047,0,3.708,1.906,3.708,4.264v5.683C173.036,191.419,171.373,193.328,169.328,193.328z" fill="#4D4D4D"/><ellipse cx="86.341" cy="11.813" fill="#4D4D4D" rx="37.751" ry="9.208"/><ellipse cx="25.047" cy="49.721" fill="#4D4D4D" rx="18.602" ry="5.525"/><ellipse cx="147.958" cy="49.534" fill="#4D4D4D" rx="18.605" ry="5.525"/><path d="M104.137,11.042h-34.99c-4.067,0-7.371-2.472-7.371-5.518C61.775,2.473,65.072,0,69.146,0h34.99   c4.067,0,7.366,2.473,7.366,5.524C111.503,8.57,108.204,11.042,104.137,11.042z" fill="#4D4D4D"/></g></svg>
