<?xml version="1.0" ?><svg height="512" id="svg4156" version="1.1" width="512" xmlns="http://www.w3.org/2000/svg" xmlns:cc="http://creativecommons.org/ns#" xmlns:dc="http://purl.org/dc/elements/1.1/" xmlns:inkscape="http://www.inkscape.org/namespaces/inkscape" xmlns:rdf="http://www.w3.org/1999/02/22-rdf-syntax-ns#" xmlns:sodipodi="http://sodipodi.sourceforge.net/DTD/sodipodi-0.dtd" xmlns:svg="http://www.w3.org/2000/svg"><defs id="defs4158"/><g id="layer1" transform="translate(0,448)"><g id="g14167" transform="matrix(2.3192382,0,0,2.3192382,18838.362,5899.6052)"><path d="m -8115.0987,-2581.9123 0.01,0.01 c -0.3324,-1.7632 -0.5472,-3.572 -0.6285,-5.4224 -0.047,-1.0714 -0.042,-2.1007 -0.01,-3.0936 0.072,-1.9696 1.5804,-3.8051 3.5003,-4.2503 0.2183,-0.05 0.5232,-0.1207 0.8956,-0.1948 2.1004,-0.4046 5.7679,-1.1561 5.7679,-1.1561 0.1116,-0.025 0.2305,-0.049 0.342,-0.085 1.3272,-0.4309 2.2016,-1.6079 2.323,-2.9149 -0.012,0.1326 -0.019,0.2649 -0.029,0.3979 0.3198,-4.1853 1.1196,-8.2537 2.3557,-12.1394 0.3879,-1.254 0.024,-2.6747 -1.0378,-3.5808 -0.089,-0.076 -0.1819,-0.147 -0.2757,-0.212 l -4.8781,-3.2587 c -0.1927,-0.1287 -0.416,-0.269 -0.6638,-0.4435 -1.6045,-1.1292 -2.3251,-3.3767 -1.6654,-5.2245 0.9914,-2.7757 2.307,-5.4515 3.9453,-7.9676 l 0.01,-0.01 0.026,-0.039 c 0.1417,-0.2122 0.282,-0.422 0.424,-0.635 1.0121,-1.4819 2.1421,-2.9215 3.3932,-4.2874 0.7243,-0.7908 1.4587,-1.5016 2.1857,-2.1785 1.4439,-1.3418 3.8112,-1.5752 5.4835,-0.5323 0.1896,0.1189 0.4511,0.2873 0.7665,0.4982 1.7872,1.2153 4.9018,3.2539 4.9018,3.2539 0.097,0.061 0.1911,0.13 0.2952,0.1832 1.2435,0.6339 2.6939,0.4183 3.7035,-0.42 3.0506,-2.5761 6.3984,-4.8272 9.9902,-6.6847 1.1357,-0.6207 1.8688,-1.8543 1.7601,-3.2283 -0.01,-0.1164 -0.031,-0.2359 -0.053,-0.3481 l -1.1466,-5.7614 c -0.045,-0.2273 -0.1024,-0.4884 -0.1565,-0.7864 -0.3361,-1.9332 0.7539,-4.0257 2.5271,-4.8658 2.6634,-1.2619 5.4823,-2.2146 8.4202,-2.8352 l 0.01,0 0.048,-0.01 0.7544,-0.1501 c 1.763,-0.3324 3.572,-0.5474 5.4224,-0.6286 1.0712,-0.047 2.102,-0.034 3.0949,0 1.9697,0.072 3.7959,1.5739 4.2409,3.4939 0.049,0.2186 0.1282,0.5219 0.2023,0.8941 0.4049,2.1012 1.1557,5.768 1.1557,5.768 0.027,0.1111 0.051,0.2301 0.084,0.342 0.4252,1.3106 1.5762,2.178 2.8634,2.3165 0.016,0 0.035,0.01 0.051,0.01 4.1749,0.3506 8.2274,1.185 12.0993,2.4473 -0.1179,-0.038 -0.2315,-0.085 -0.3498,-0.1222 1.2544,0.3878 2.66,0.035 3.5664,-1.0267 0.076,-0.089 0.1533,-0.1913 0.2184,-0.2854 l 3.2651,-4.8876 c 0.1285,-0.1927 0.269,-0.4162 0.4437,-0.6639 1.1288,-1.6047 3.3699,-2.3154 5.2179,-1.6557 2.7757,0.9911 5.4529,2.3148 7.9692,3.9532 l 0.01,0 0.029,0.028 c 0.2121,0.1417 0.4312,0.2883 0.6447,0.4306 1.4819,1.0117 2.9118,2.1355 4.2778,3.3865 0.7909,0.7242 1.5109,1.4652 2.1879,2.1924 1.342,1.4435 1.5718,3.7947 0.5291,5.4672 -0.1187,0.1898 -0.2782,0.4575 -0.4885,0.7729 l -3.2715,4.8972 c -0.061,0.097 -0.1201,0.1973 -0.1736,0.3015 -0.6338,1.2433 -0.4185,2.6938 0.4202,3.7037 2.5664,3.0398 4.8072,6.3756 6.6605,9.953 0.6128,1.1609 1.8704,1.9136 3.262,1.8035 0.1166,-0.01 0.2275,-0.031 0.34,-0.051 l 5.7616,-1.1466 c 0.2273,-0.045 0.4877,-0.1048 0.7863,-0.1564 1.933,-0.3363 4.016,0.7475 4.8563,2.5205 1.2618,2.6636 2.2324,5.4873 2.8528,8.4251 l 0,0.01 0.01,0.048 0.1501,0.7543 c 0.3324,1.7632 0.5474,3.572 0.6287,5.4224 0.047,1.0713 0.034,2.1023 0,3.0952 -0.072,1.9695 -1.582,3.7971 -3.5019,4.2423 -0.2183,0.05 -0.5216,0.1289 -0.894,0.203 -2.1319,0.4112 -5.7679,1.1561 -5.7679,1.1561 -0.1114,0.025 -0.239,0.051 -0.3499,0.086 -1.3277,0.431 -2.1854,1.6047 -2.3068,2.9116 0.024,-0.2844 0.027,-0.5739 0.046,-0.8599 -0.2977,4.3526 -1.1052,8.5764 -2.3818,12.5951 -0.388,1.254 -0.032,2.6763 1.0297,3.5823 0.089,0.076 0.1833,0.1551 0.2774,0.2201 l 4.8939,3.2555 c 0.1927,0.1287 0.4168,0.2689 0.6638,0.4436 1.6054,1.1289 2.3095,3.3797 1.6495,5.2275 -0.9911,2.7757 -2.2987,5.45 -3.9373,7.9661 l -0.01,0 -0.034,0.04 c -0.1419,0.2123 -0.2804,0.43 -0.4227,0.6431 -1.0116,1.4818 -2.1434,2.9134 -3.3945,4.2793 -0.7241,0.7908 -1.4574,1.5097 -2.1841,2.1865 -1.4436,1.3418 -3.8046,1.5655 -5.4771,0.5227 -0.1899,-0.1188 -0.4491,-0.2793 -0.7649,-0.4901 -1.7987,-1.2234 -4.8939,-3.2556 -4.8939,-3.2556 -0.097,-0.061 -0.2068,-0.1268 -0.3111,-0.18 -1.2436,-0.6338 -2.6937,-0.4184 -3.7038,0.4201 0.1623,-0.1368 0.3227,-0.2819 0.4833,-0.4215 -3.1724,2.7428 -6.6645,5.1219 -10.4297,7.0725 -1.1611,0.6124 -1.9134,1.8703 -1.8036,3.2619 0.01,0.1165 0.031,0.236 0.053,0.3481 l 1.145,5.7535 c 0.045,0.2272 0.1025,0.4883 0.1565,0.7863 0.3366,1.9331 -0.7443,4.0322 -2.5176,4.8723 -2.6634,1.2618 -5.4823,2.2145 -8.4201,2.8352 l -0.01,0 -0.048,0.01 -0.7544,0.1501 -0.01,0 c -1.7632,0.3324 -3.572,0.5473 -5.4223,0.6286 -1.0712,0.047 -2.1023,0.034 -3.0953,0 -1.9694,-0.072 -3.7971,-1.5819 -4.2422,-3.502 -0.049,-0.2185 -0.1277,-0.522 -0.2017,-0.8942 -0.405,-2.1012 -1.1482,-5.7694 -1.1482,-5.7694 -0.027,-0.1112 -0.055,-0.2211 -0.09,-0.3324 -0.4308,-1.3274 -1.6077,-2.2017 -2.915,-2.323 -4.2835,-0.3598 -8.4334,-1.2368 -12.3959,-2.5551 0.2203,0.074 0.4412,0.1567 0.6623,0.2269 -1.2539,-0.3879 -2.6764,-0.032 -3.5822,1.0299 -0.076,0.089 -0.1374,0.1881 -0.2025,0.2822 l -3.2747,4.8811 c -0.1288,0.1927 -0.2677,0.4243 -0.4421,0.672 -1.1291,1.6047 -3.3781,2.317 -5.2259,1.6573 -2.7757,-0.9912 -5.4449,-2.3164 -7.9613,-3.9549 l -0.048,-0.032 c -0.2121,-0.1417 -0.43,-0.2802 -0.6431,-0.4226 -1.4821,-1.0116 -2.9132,-2.1435 -4.2793,-3.3945 -0.7906,-0.7242 -1.5096,-1.4571 -2.1866,-2.1843 -1.3417,-1.4435 -1.5668,-3.8124 -0.524,-5.4849 0.1189,-0.1899 0.2792,-0.4493 0.49,-0.7649 0.7063,-1.0763 3.254,-4.902 3.254,-4.902 0.061,-0.097 0.1302,-0.191 0.1831,-0.2951 0.6341,-1.2433 0.4183,-2.6937 -0.4202,-3.7037 0.2313,0.2739 0.4735,0.54 0.7119,0.8094 -2.8605,-3.2546 -5.3431,-6.8575 -7.3628,-10.756 -0.6125,-1.1609 -1.8704,-1.9136 -3.262,-1.8034 -0.1166,0.01 -0.2275,0.031 -0.3401,0.051 l -5.7615,1.1466 c -0.2273,0.045 -0.4877,0.1048 -0.7863,0.1565 -1.933,0.3363 -4.0256,-0.754 -4.8659,-2.5271 -1.2619,-2.6634 -2.2225,-5.4808 -2.8432,-8.4186 l 0,-0.01 -0.01,-0.048 -0.1518,-0.7623 z m 37.7504,-6.6949 c 2.8848,13.9557 15.7803,23.9097 30.3556,22.756 14.9616,-1.1844 26.4794,-13.6991 26.4209,-28.7075 l -0.086,-2.1519 c -1.2499,-15.7939 -15.075,-27.5913 -30.869,-26.341 -15.7939,1.2502 -27.5751,15.0718 -26.3252,30.8657 0.079,0.9871 0.2039,1.9494 0.3774,2.9031 0.039,0.2238 0.08,0.4542 0.1266,0.6755 z" id="path9128-1-7" style="fill:#4d4d4d;fill-opacity:1;fill-rule:nonzero;stroke:none"/><path d="m -8017.4266,-2674.7235 0.011,0 c 0.027,-1.8666 0.1515,-3.7471 0.3977,-5.6502 0.1425,-1.1017 0.3343,-2.1632 0.5303,-3.1678 0.3899,-1.9924 1.9072,-3.5355 3.5323,-3.588 0.185,-0.01 0.4422,-0.018 0.7558,-0.016 l 3.646,0.027 c 0.15,0 0.3013,-0.012 0.4531,-0.029 1.6497,-0.1822 2.9706,-1.2475 3.58,-2.6707 0.01,-0.023 0.024,-0.041 0.032,-0.064 1.7581,-4.5208 4.2205,-8.6517 7.2432,-12.2775 -0.035,0.042 -0.074,0.075 -0.109,0.1178 0.9837,-1.2304 1.2812,-2.9292 0.6265,-4.4832 -0.06,-0.1411 -0.1302,-0.2905 -0.2018,-0.4223 l -1.7893,-3.1633 c -0.094,-0.1663 -0.2136,-0.3529 -0.33,-0.5743 -0.7555,-1.4315 -0.1755,-3.5029 1.3516,-4.8231 2.2949,-1.9829 4.8132,-3.7822 7.5157,-5.3495 l 0.011,0 0.043,-0.021 0.6935,-0.4048 0.011,0 c 1.6308,-0.9084 3.3172,-1.7378 5.0881,-2.4761 1.0254,-0.4275 2.0399,-0.789 3.0074,-1.1214 1.9204,-0.6585 4.0191,-0.1156 4.8781,1.2658 0.097,0.1571 0.229,0.3779 0.3835,0.6501 l 1.7998,3.1634 c 0.076,0.1294 0.1653,0.2561 0.256,0.3795 0.966,1.3143 2.5097,1.9308 4.0216,1.7773 4.0133,-0.6275 8.1764,-0.7092 12.408,-0.1783 1.0663,0.1339 2.1174,0.3021 3.1572,0.5087 -0.4401,-0.089 -0.8732,-0.1732 -1.3142,-0.2469 1.5575,0.2367 3.1796,-0.3511 4.1983,-1.6953 0.092,-0.122 0.1838,-0.2582 0.2616,-0.3863 l 1.8464,-3.1367 c 0.097,-0.1647 0.1939,-0.3471 0.3278,-0.5585 0.862,-1.3702 2.9571,-1.9107 4.8639,-1.248 2.8641,0.9956 5.6671,2.2701 8.3757,3.8269 l 0.01,0.011 0.043,0.022 0.6872,0.415 0.011,0 c 1.602,0.9582 3.155,2.0092 4.6801,3.1739 0.8832,0.6743 1.7161,1.3637 2.4879,2.0358 1.5307,1.3338 2.1017,3.4198 1.3342,4.8537 -0.087,0.1627 -0.2019,0.3963 -0.3604,0.6661 l -1.836,3.1368 c -0.074,0.1306 -0.1463,0.2681 -0.2078,0.4084 -0.6778,1.5442 -0.4053,3.2579 0.5602,4.5027 -0.1031,-0.1292 -0.2157,-0.2523 -0.3209,-0.3799 3.0862,3.7655 5.5558,8.0317 7.2752,12.6327 0.5742,1.4672 1.9098,2.5783 3.5826,2.7882 0.1522,0.019 0.3027,0.032 0.4529,0.036 l 3.6356,0.027 c 0.1909,0 0.4192,0 0.6688,0.01 1.6176,0.061 3.1223,1.603 3.5012,3.5859 0.571,2.9784 0.8651,6.0523 0.8712,9.1763 l 0,0.022 6e-4,0.043 -0.01,0.7983 0,0.01 c -0.028,1.8666 -0.1622,3.7469 -0.4084,5.65 -0.1422,1.1017 -0.3236,2.1526 -0.5196,3.1571 -0.3902,1.9925 -1.9176,3.5355 -3.5432,3.588 -0.1845,0.01 -0.443,0.029 -0.7558,0.027 l -3.6353,-0.027 c -0.15,0 -0.3008,0 -0.4531,0.018 -1.6346,0.1807 -2.9627,1.2229 -3.5796,2.6276 -0.013,0.027 -0.026,0.048 -0.032,0.075 -0.01,0.011 -0.01,0.022 -0.012,0.033 -1.7401,4.4808 -4.1651,8.5693 -7.1339,12.1596 -0.9839,1.2305 -1.271,2.9403 -0.616,4.4942 0.06,0.1411 0.1189,0.2797 0.1913,0.4114 l 1.7998,3.1634 c 0.094,0.1662 0.2032,0.3529 0.319,0.5742 0.7566,1.4315 0.1763,3.5137 -1.3514,4.8339 -2.2943,1.9829 -4.8025,3.7714 -7.5049,5.3388 l -0.019,0.01 -0.031,0.021 -0.6933,0.3941 -0.011,0 c -1.6312,0.9085 -3.3284,1.7378 -5.0995,2.4761 -1.0257,0.4274 -2.029,0.7997 -2.997,1.1322 -1.9202,0.6585 -4.0196,0.1049 -4.8778,-1.2765 -0.097,-0.1572 -0.2392,-0.3781 -0.394,-0.6502 l -1.7893,-3.1633 c -0.077,-0.1294 -0.1653,-0.2454 -0.256,-0.3688 -0.9706,-1.3209 -2.523,-1.9505 -4.0432,-1.7883 -4.0118,0.6261 -8.1816,0.7074 -12.3971,0.1784 -1.111,-0.1394 -2.206,-0.3135 -3.2867,-0.5313 0.4823,0.099 0.97,0.1886 1.4546,0.2697 -1.5577,-0.2367 -3.1802,0.3619 -4.1986,1.706 -0.093,0.122 -0.1832,0.2367 -0.2613,0.3648 l -1.8464,3.1474 c -0.097,0.1648 -0.1944,0.358 -0.3277,0.5693 -0.8621,1.3703 -2.9574,1.9107 -4.8642,1.248 -2.8644,-0.9956 -5.6781,-2.2809 -8.3862,-3.8377 l -0.01,-0.011 -0.032,-0.021 -0.6981,-0.4043 c -1.6026,-0.9581 -3.1772,-2.02 -4.7021,-3.1848 -0.883,-0.6743 -1.6944,-1.3527 -2.4664,-2.0247 -1.5303,-1.334 -2.112,-3.4308 -1.345,-4.8646 0.088,-0.1629 0.2024,-0.3964 0.361,-0.6663 l 1.8464,-3.1366 c 0.074,-0.1306 0.1465,-0.2682 0.2081,-0.4084 0.6675,-1.5215 0.4135,-3.2084 -0.5175,-4.4485 -2.962,-3.6851 -5.3374,-7.8384 -7.008,-12.3071 -0.5736,-1.4672 -1.9098,-2.5782 -3.5826,-2.7882 -0.1522,-0.019 -0.292,-0.032 -0.4423,-0.036 l -3.6459,-0.027 c -0.1912,0 -0.4088,0 -0.6585,0 -1.6176,-0.061 -3.1222,-1.6031 -3.5013,-3.586 -0.5716,-2.9783 -0.8756,-6.0525 -0.8817,-9.1764 l 0,-0.01 0,-0.043 0.01,-0.8091 z m 21.6291,-29.0874 c 0.1337,-0.1451 0.2777,-0.2853 0.4131,-0.4286 l -0.01,-0.011 c -0.1368,0.1446 -0.2679,0.2934 -0.4025,0.4394 z m 7.8846,29.499 c -0.2967,12.5728 8.9673,23.5678 21.715,25.1671 12.8801,1.6161 24.8288,-6.9684 27.4065,-19.6914 l 0.3046,-1.8318 c 1.7063,-13.5971 -7.9368,-26.0059 -21.5337,-27.7118 -13.5972,-1.7059 -25.9951,7.9371 -27.7013,21.5342 -0.1064,0.8498 -0.1713,1.6956 -0.1911,2.5337 z m 34.8156,-42.7129 c 0.086,0.02 0.1616,0.046 0.2476,0.067 l 0,-0.01 c -0.085,-0.02 -0.1625,-0.036 -0.2476,-0.056 z m 32.2029,57.0588 c 0.05,-0.1525 0.1066,-0.2987 0.1546,-0.4519 l -0.011,0 c -0.048,0.1524 -0.094,0.3004 -0.1439,0.4521 z" id="rect9269-9-9-2-4" style="fill:#4d4d4d;fill-opacity:1;fill-rule:nonzero;stroke:none"/></g></g></svg>