<?xml version="1.0" ?><!DOCTYPE svg  PUBLIC '-//W3C//DTD SVG 1.1//EN'  'http://www.w3.org/Graphics/SVG/1.1/DTD/svg11.dtd'><svg enable-background="new 0 0 512 512" height="512px" version="1.1" viewBox="0 0 512 512" width="512px" xml:space="preserve" xmlns="http://www.w3.org/2000/svg" xmlns:xlink="http://www.w3.org/1999/xlink"><g id="nuclear_silo"/><g id="pumpjack_x2C__oil_drilling"/><g id="lpg_tank"/><g id="oil_barrel"/><g id="petrol_can"/><g id="tap_oil"/><g id="wind_turbine_x2C__windmill"/><g id="solar_pannel_x2C__solar_cell"/><g id="refinery"/><g id="factory"/><g id="crane"><g><g><g><g><rect fill="#4D4D4D" height="19.717" width="85.306" x="67.063" y="418.794"/></g><g><rect fill="#4D4D4D" height="19.719" width="85.306" x="67.063" y="393.102"/></g><g><rect fill="#4D4D4D" height="19.718" width="85.306" x="67.063" y="444.484"/></g></g><g><path d="M169.882,21.729c0.033-0.063,0.065-0.129,0.093-0.196c0.026-0.065,0.049-0.132,0.068-0.2      c0.021-0.068,0.039-0.138,0.054-0.208c0.014-0.07,0.022-0.142,0.029-0.212c0.008-0.071,0.013-0.143,0.013-0.214      c0-0.072-0.005-0.143-0.012-0.214c-0.007-0.074-0.017-0.148-0.031-0.223c-0.014-0.068-0.031-0.133-0.051-0.2      c-0.023-0.078-0.048-0.152-0.079-0.227c-0.013-0.029-0.019-0.062-0.032-0.091c-0.018-0.038-0.044-0.068-0.063-0.106      c-0.021-0.038-0.034-0.08-0.057-0.117c-0.019-0.028-0.042-0.051-0.061-0.079c-0.043-0.064-0.091-0.124-0.14-0.182      c-0.047-0.057-0.095-0.111-0.146-0.16c-0.053-0.052-0.107-0.098-0.165-0.144s-0.114-0.09-0.177-0.131      c-0.059-0.039-0.118-0.071-0.18-0.104c-0.065-0.032-0.132-0.066-0.2-0.095c-0.064-0.025-0.13-0.046-0.196-0.066      c-0.07-0.021-0.14-0.04-0.211-0.054c-0.069-0.014-0.14-0.021-0.211-0.029c-0.072-0.007-0.143-0.013-0.214-0.013      c-0.073,0-0.145,0.005-0.217,0.013c-0.072,0.006-0.145,0.015-0.217,0.029c-0.071,0.014-0.141,0.033-0.211,0.054      c-0.072,0.021-0.144,0.045-0.215,0.075c-0.031,0.014-0.063,0.02-0.095,0.033L49.7,73.576c-0.045,0.021-0.082,0.051-0.125,0.074      c-0.072,0.041-0.144,0.08-0.21,0.125c-0.059,0.041-0.112,0.089-0.166,0.135c-0.055,0.047-0.11,0.095-0.16,0.146      c-0.052,0.054-0.097,0.112-0.144,0.17c-0.042,0.055-0.085,0.109-0.122,0.166c-0.04,0.062-0.073,0.127-0.106,0.191      s-0.065,0.126-0.092,0.192c-0.025,0.066-0.045,0.133-0.065,0.201c-0.021,0.07-0.041,0.14-0.054,0.213      c-0.014,0.071-0.021,0.145-0.026,0.217c-0.007,0.07-0.014,0.14-0.013,0.213c0.001,0.08,0.011,0.159,0.02,0.24      c0.006,0.05,0.003,0.098,0.013,0.147l59.067,320.319c0.007,0.04,0.022,0.075,0.032,0.115c0.016,0.064,0.031,0.129,0.053,0.189      c0.023,0.069,0.051,0.135,0.08,0.2c0.025,0.058,0.05,0.113,0.08,0.166c0.035,0.065,0.076,0.126,0.118,0.188      c0.032,0.049,0.064,0.096,0.102,0.142c0.048,0.058,0.099,0.11,0.151,0.163c0.04,0.04,0.079,0.082,0.122,0.119      c0.056,0.048,0.116,0.091,0.176,0.132c0.048,0.034,0.094,0.069,0.143,0.099c0.063,0.039,0.132,0.068,0.199,0.101      c0.052,0.023,0.102,0.051,0.155,0.072c0.076,0.028,0.157,0.048,0.237,0.068c0.049,0.011,0.095,0.029,0.145,0.039      c0.132,0.023,0.267,0.037,0.403,0.037c0.072,0,0.145-0.004,0.218-0.011c0.029-0.003,0.056-0.013,0.085-0.017      c0.035-0.005,0.07-0.004,0.105-0.01c0.043-0.008,0.081-0.025,0.124-0.036c0.075-0.019,0.149-0.04,0.222-0.065      c0.068-0.023,0.134-0.052,0.198-0.083c0.067-0.031,0.133-0.063,0.196-0.103c0.063-0.036,0.12-0.077,0.18-0.12      c0.057-0.043,0.112-0.086,0.165-0.136c0.054-0.047,0.104-0.098,0.152-0.151c0.049-0.052,0.095-0.106,0.138-0.164      c0.042-0.056,0.081-0.114,0.118-0.175c0.038-0.061,0.073-0.125,0.105-0.189c0.031-0.063,0.058-0.129,0.083-0.194      c0.025-0.069,0.048-0.139,0.068-0.21c0.018-0.068,0.031-0.14,0.043-0.212c0.012-0.073,0.021-0.145,0.025-0.217      c0.006-0.075,0.005-0.151,0.001-0.229c-0.001-0.043,0.006-0.086,0.001-0.131L81.126,76.775l87.955-54.177      c0.028-0.017,0.051-0.039,0.077-0.059c0.065-0.045,0.127-0.092,0.188-0.143c0.054-0.046,0.107-0.093,0.156-0.144      c0.052-0.053,0.1-0.108,0.145-0.166c0.047-0.058,0.09-0.114,0.13-0.174C169.814,21.854,169.849,21.793,169.882,21.729z       M77.593,73.697c-0.041,0.024-0.073,0.059-0.112,0.085c-0.065,0.047-0.131,0.093-0.191,0.146      c-0.054,0.05-0.103,0.102-0.151,0.152c-0.049,0.054-0.098,0.105-0.141,0.162c-0.046,0.06-0.085,0.121-0.124,0.183      c-0.037,0.062-0.073,0.12-0.105,0.184c-0.031,0.065-0.058,0.131-0.084,0.198c-0.025,0.067-0.051,0.134-0.069,0.205      c-0.02,0.07-0.032,0.142-0.045,0.213c-0.012,0.071-0.023,0.141-0.029,0.211c-0.006,0.081-0.003,0.161-0.001,0.241      c0.002,0.047-0.005,0.093,0,0.141l25.952,268.596L53.161,76.896l80.24-37.573L77.593,73.697z" fill="#4D4D4D"/><path d="M453.701,73.43L228.186,18.521c-1.185-0.285-2.383,0.427-2.691,1.605      c-0.311,1.181,0.383,2.392,1.556,2.722l193.272,54.448v96.155c0,1.234,1,2.236,2.236,2.236c1.234,0,2.236-1.002,2.236-2.236      v-97.85c0-1.001-0.666-1.882-1.63-2.152l-74.558-21.004l102.328,24.913v96.093c0,1.234,1.001,2.236,2.236,2.236      s2.237-1.002,2.237-2.236v-97.85C455.409,74.57,454.703,73.673,453.701,73.43z" fill="#4D4D4D"/></g><g><path d="M466.485,169.158c-0.714-1.444-2.225-2.363-3.881-2.363h-49.672c-1.656,0-3.167,0.919-3.881,2.363      c-0.714,1.445-0.507,3.157,0.535,4.404l23.013,27.529c-0.014,2.205-0.02,5.717-0.02,6.001c0,3.132,0.392,5.896,1.16,8.208      c0.578,1.784,1.516,3.597,2.789,5.395c0.914,1.274,2.479,3.053,4.788,5.439c2.574,2.656,3.583,4.175,3.976,4.979      c0.54,1.103,0.802,2.284,0.802,3.61c0,2.452-0.798,4.547-2.438,6.408c-1.577,1.788-3.445,2.658-5.71,2.658      c-2.184,0-3.954-0.776-5.414-2.372c-1.549-1.696-2.594-4.495-3.106-8.322c-0.128-0.951-0.939-1.661-1.9-1.661l-6.581,0.005      c-1.059,0-1.916,0.859-1.916,1.917c0,5.646,2.285,11.654,5.822,15.308c3.289,3.397,7.66,5.118,12.989,5.118      c5.625,0,10.2-1.842,13.6-5.476c3.363-3.599,5.068-8.001,5.068-13.086c0-2.938-0.601-5.691-1.785-8.188      c-1.169-2.461-3.332-5.308-6.611-8.703c-2.473-2.565-3.454-3.847-3.845-4.472c-0.524-0.841-0.922-1.833-1.181-2.954      c-0.158-0.693-0.346-4.742-0.447-9.454l23.312-27.889C466.992,172.315,467.2,170.604,466.485,169.158z" fill="#4D4D4D"/></g></g><g><g><rect fill="#4D4D4D" height="29.977" width="118.357" x="39.221" y="75.602"/></g><g><rect fill="#4D4D4D" height="29.977" width="239.119" x="237.242" y="75.602"/></g></g><polygon fill="#4D4D4D" points="277.723,473.319 229.464,473.319 165.863,473.319 43.307,473.319 35.639,494.051 285.391,494.051       "/><path d="M165.863,17.949v446.253h7.256v-10.997l24.479-22.587l24.61,22.707v10.877h7.256V17.949H165.863z     M173.119,44.956l19.128,17.649l-19.128,17.651V44.956z M174.874,296.042l22.789-21.028l22.726,20.968l-22.791,21.028    L174.874,296.042z M220.354,347.881l-22.757,20.997l-22.757-20.997l22.757-20.999L220.354,347.881z M174.906,244.144    l22.757-20.998l22.758,20.998l-22.758,20.999L174.906,244.144z M174.906,192.276l22.757-20.999l22.758,20.999l-22.758,20.997    L174.906,192.276z M174.874,140.378l22.724-20.969l22.791,21.028l-22.726,20.968L174.874,140.378z M174.841,88.539l22.757-20.998    l22.757,20.998l-22.757,20.998L174.841,88.539z M173.119,96.823l19.129,17.649l-19.129,17.651V96.823z M173.119,148.63    l19.195,17.712l-19.195,17.711V148.63z M173.119,200.498l19.195,17.712l-19.195,17.712V200.498z M173.119,252.366l19.195,17.711    l-19.195,17.712V252.366z M173.119,304.295l19.129,17.65l-19.129,17.651V304.295z M173.119,356.163l19.129,17.65l-19.129,17.65    V356.163z M173.119,443.333v-35.301l19.129,17.649L173.119,443.333z M174.841,399.748l22.757-20.998l22.757,20.998l-22.757,20.998    L174.841,399.748z M222.208,443.455l-19.261-17.773l19.261-17.772V443.455z M222.208,391.585l-19.261-17.771l19.261-17.771    V391.585z M222.208,339.717l-19.261-17.771l19.261-17.772V339.717z M222.208,287.789l-19.195-17.712l19.195-17.711V287.789z     M222.208,235.922l-19.195-17.712l19.195-17.712V235.922z M222.208,184.053l-19.195-17.711l19.195-17.712V184.053z     M222.208,132.245l-19.261-17.772l19.261-17.771V132.245z M222.208,80.378l-19.261-17.772l19.261-17.772V80.378z M222.208,34.96    l-24.61,22.709l-24.479-22.587v-9.878h49.089V34.96z" fill="#4D4D4D"/></g></g><g id="Mine_wagon"/><g id="fuel_station"/><g id="transmission_tower_x2C__high_voltage"/><g id="tanker_truck_x2C__petrol_tanker"/></svg>
