<?xml version="1.0" ?><!DOCTYPE svg  PUBLIC '-//W3C//DTD SVG 1.1//EN'  'http://www.w3.org/Graphics/SVG/1.1/DTD/svg11.dtd'><svg height="512px" id="Слой_1" style="enable-background:new 0 0 512 512;" version="1.1" viewBox="0 0 512 512" width="512px" xml:space="preserve" xmlns="http://www.w3.org/2000/svg" xmlns:xlink="http://www.w3.org/1999/xlink"><g><path d="M447.441,257.467H116.727c-32.291,0-58.554,26.268-58.554,58.565   c0,32.274,26.263,58.554,58.554,58.554h330.714c32.285,0,58.559-26.28,58.559-58.554C506,283.736,479.726,257.467,447.441,257.467z    M116.727,336.686c-11.392,0-20.665-9.278-20.665-20.654c0-11.398,9.273-20.67,20.665-20.67c11.387,0,20.659,9.272,20.659,20.67   C137.386,327.408,128.114,336.686,116.727,336.686z M134.56,360.797c17.79-7.103,30.378-24.458,30.378-44.764   c0-20.339-12.588-37.694-30.388-44.787h74.593c-17.795,7.093-30.405,24.448-30.405,44.787c0,20.306,12.61,37.661,30.394,44.764   H134.56z M226.976,336.686c-11.403,0-20.675-9.278-20.675-20.654c0-11.398,9.272-20.67,20.675-20.67   c11.376,0,20.649,9.272,20.649,20.67C247.624,327.408,238.352,336.686,226.976,336.686z M244.793,360.797   c17.8-7.103,30.389-24.458,30.389-44.764c0-20.339-12.599-37.694-30.41-44.787h74.604c-17.795,7.093-30.389,24.448-30.389,44.787   c0,20.306,12.583,37.661,30.378,44.764H244.793z M337.197,336.686c-11.387,0-20.643-9.278-20.643-20.654   c0-11.398,9.256-20.67,20.643-20.67c11.404,0,20.67,9.272,20.67,20.67C357.868,327.408,348.601,336.686,337.197,336.686z    M355.036,360.797c17.795-7.103,30.383-24.458,30.383-44.764c0-20.339-12.599-37.694-30.399-44.787h74.599   c-17.806,7.093-30.41,24.448-30.41,44.787c0,20.306,12.605,37.661,30.389,44.764H355.036z M447.441,336.686   c-11.392,0-20.665-9.278-20.665-20.654c0-11.398,9.272-20.67,20.665-20.67c11.392,0,20.659,9.272,20.659,20.67   C468.1,327.408,458.833,336.686,447.441,336.686z" style="fill:#4D4D4D;"/><path d="M167.231,231.574h-46.014v16.202h325.724v-16.202h-46.01v-49.716   c0-24.551-28.943-44.444-64.636-44.444H231.867c-35.693,0-64.636,19.893-64.636,44.444v2.413H52.667v-5.734H6v32.253h46.667v-5.734   h114.564V231.574z" style="fill:#4D4D4D;"/></g></svg>
