<?xml version="1.0" ?><!DOCTYPE svg  PUBLIC '-//W3C//DTD SVG 1.1//EN'  'http://www.w3.org/Graphics/SVG/1.1/DTD/svg11.dtd'><svg enable-background="new 0 0 256 256" height="256px" id="Layer_1" version="1.1" viewBox="0 0 256 256" width="256px" xml:space="preserve" xmlns="http://www.w3.org/2000/svg" xmlns:xlink="http://www.w3.org/1999/xlink"><g><g><path d="M123.209,78.315c11.787-5.944,19.056-12.161,28.891-19.299c9.03-6.888,19.806,5.799,9.837,13.118     c-13.324,10.164-20.296,15.251-34.771,23.858c-3.077,1.829-7.03,1.916-10.022-0.396c-6.321-4.889-12.663-10.036-18.501-15.698     c0.636,19.678-0.979,47.384-0.573,65.438l-3.572,0.019c-1.663,33.846-4.046,76.078-4.819,108.131     c-0.032,1.392-1.181,2.514-2.575,2.514H75.886c-1.39,0-2.54-1.119-2.575-2.504l-2.588-98.722c-0.04-1.574-1.138-2.36-2.238-2.36     c-1.1,0-2.197,0.786-2.238,2.36l-2.588,98.722c-0.035,1.385-1.187,2.504-2.576,2.504H49.865c-1.392,0-2.541-1.122-2.574-2.514     c-0.77-31.933-3.645-74.07-5.3-107.869l-2.279,0.014c-0.091-3.812,0.099-9.966,0.02-11.141     c-10.298-7.695-26.01-20.997-34.774-30.082c-3.322-3.443-3.571-8.433-0.658-12.239c9.409-12.293,21.321-27.569,33.627-39.772     c1.553-1.537,1.959-1.5,5.123-2.373c5.553-1.532,8.463-2.581,14.067-4.165c1.614,6.445,5.076,22.311,7.602,28.632l1.532-19.428     l2.378-1.573l2.378,1.573l1.642,19.43c2.6-7.021,6.225-20.988,7.236-28.587c7.196,2.014,9.855,2.187,16.516,5.081     c2.983,1.296,4.48,5.042,6.777,7.544C109.366,65.272,116.057,72.471,123.209,78.315L123.209,78.315z M68.628,0     c8.758,0,15.86,6.858,15.86,15.319c0,8.182-5.893,25.841-15.86,25.841c-9.968,0-15.859-17.659-15.859-25.841     C52.769,6.858,59.87,0,68.628,0L68.628,0z M39.989,114.324c-0.055-6.637-0.084-16.781-0.167-23.641V76.458     c-5.443,5.772-12.199,14.776-17.17,21.14C27.574,103.243,34.443,108.936,39.989,114.324L39.989,114.324z" fill="#4D4D4D"/><path d="M171.092,64.038h15.916v55.331h-15.916V64.038L171.092,64.038z M192.692,50.395h15.918v68.974h-15.918     V50.395L192.692,50.395z M214.296,79.198h15.916v40.171h-15.916V79.198L214.296,79.198z M149.489,98.146h15.917v21.223h-15.917     V98.146L149.489,98.146z" fill="#4D4D4D"/><path d="M183.604,133.009v62.431l49.361,53.309c1.62,1.751,1.514,4.482-0.236,6.102     c-1.749,1.62-4.482,1.513-6.102-0.236l-43.023-46.468v22.535c0,2.875-2.333,5.207-5.207,5.207c-2.876,0-5.207-2.332-5.207-5.207     v-22.535l-43.025,46.468c-1.62,1.749-4.352,1.856-6.101,0.236c-1.749-1.62-1.856-4.351-0.237-6.102l49.363-53.309v-62.431     h-64.914c-2.875,0-5.206-2.331-5.206-5.207c0-2.873,2.332-5.206,5.206-5.206h1.89V95.452c2.231,1.736,4.386,3.693,7.116,4.592     v22.552h122.23V35.293h-122.23V67.31c-2.431-2.227-4.804-4.519-7.116-6.868V35.293h-1.89c-2.875,0-5.206-2.331-5.206-5.206     c0-2.876,2.332-5.207,5.206-5.207h64.914v-9.291c0-2.876,2.331-5.206,5.207-5.206c2.874,0,5.207,2.33,5.207,5.206v9.291h64.911     c2.876,0,5.207,2.331,5.207,5.207c0,2.874-2.331,5.206-5.207,5.206h-1.889v87.302h1.889c2.876,0,5.207,2.333,5.207,5.206     c0,2.876-2.331,5.207-5.207,5.207H183.604L183.604,133.009z" fill="#4D4D4D"/></g></g></svg>
