<?xml version="1.0" ?><!DOCTYPE svg  PUBLIC '-//W3C//DTD SVG 1.1//EN'  'http://www.w3.org/Graphics/SVG/1.1/DTD/svg11.dtd'><svg enable-background="new 0 0 60 60" height="60px" id="Layer_1" version="1.1" viewBox="0 0 60 60" width="60px" xml:space="preserve" xmlns="http://www.w3.org/2000/svg" xmlns:xlink="http://www.w3.org/1999/xlink"><g><path style="fill:#4D4D4D" clip-rule="evenodd" d="M19.771,46.635c-1.679,0.42-3.673,0.628-5.667,0.628   c-7.343,0-13.22-3.041-13.22-6.714c0-0.631,0.106-1.363,0.106-2.098c0-0.104,0-0.316,0-0.527c0-0.312-0.106-0.627-0.106-0.943   c0-0.627,0.106-1.363,0.106-2.098c0-0.208,0-0.315,0.104-0.523l0,0c0-0.211,0-0.419,0-0.735c0-0.631,0.105-1.363,0.105-2.098   c0-0.211,0-0.315,0-0.523c0-0.211-0.105-0.527-0.105-0.735c0-0.735,0.105-1.47,0.105-2.206c0-0.104,0-0.315,0.104-0.42   c-0.104-0.312-0.209-0.627-0.209-0.943c0-0.735,0.105-1.471,0.105-2.202c0-0.108,0.104-0.316,0.104-0.527H1.41   c-0.106-0.208-0.106-0.419-0.106-0.627c0-0.735,0.106-1.471,0.106-2.102c0-3.773,5.875-6.714,13.22-6.714   c7.24,0,13.22,2.941,13.22,6.714c0,0.631-0.106,1.367-0.106,2.102l0,0c0,0.104,0,0.208-0.104,0.315l-1.365,0.416v-0.104h0.106   c0.104-0.104,0.104-0.208,0.104-0.312c-0.104-1.994,0-0.739-0.104-1.051c-1.155,2.098-6.19,3.884-11.961,3.884   c-5.667,0-10.806-1.994-11.751-4.2c-0.209,0.315-0.105-0.524-0.105,1.366c0,0.104,0,0.208,0.105,0.312l0,0c0,0.104,0,0.104,0,0.211   c0.629,1.259,3.043,2.833,6.4,3.777c1.678,0.315,3.462,0.419,5.351,0.419c1.888,0,3.566-0.104,5.035-0.419   c0.525-0.104,0.945-0.211,1.259-0.316l-0.209,1.575c-1.889,0.523-3.882,0.735-5.98,0.735c-5.455,0-10.071-1.679-12.169-3.988   c0.104,0.211,0.104,0.527,0.104,1.051c0,0.104,0,0.316,0.104,0.524h0.105c0,0.104,0,0.208,0.106,0.315   c1.153,1.886,5.769,4.092,11.33,4.092c2.204,0,4.302-0.316,6.19-0.839l-0.104,1.679c-1.784,0.419-3.778,0.627-5.876,0.627   c-4.616,0-8.708-1.259-10.7-2.833c-0.42-0.419-0.839-0.731-1.259-1.047c0,0.104,0.104,0.42,0.104,1.047c0,0.107,0,0.212,0,0.423   h0.104c0.105,0.104,0.105,0.208,0.105,0.416c0.945,1.367,3.986,3.149,7.975,3.78c1.153,0.104,2.412,0.208,3.777,0.208   c0.629,0,1.363,0,2.098,0c1.259-0.208,2.518-0.42,3.672-0.732l-0.106,1.571c-1.782,0.419-3.776,0.631-5.875,0.631   c-1.784,0-3.463-0.211-4.932-0.523c-3.147-0.631-5.561-1.786-6.923-3.36c0,0.211,0,0.527,0,0.947c0,0.208,0,0.312,0,0.419h0.104   c0,0.104,0,0.104,0,0.208c0.629,1.259,3.147,2.833,6.504,3.78c1.574,0.312,3.359,0.416,5.247,0.416   c1.678,0,3.357-0.104,4.722-0.416c0.419,0,0.733-0.107,1.153-0.212l-0.104,1.575c-1.678,0.419-3.672,0.627-5.771,0.627   c-5.351,0-9.967-1.678-12.067-3.984c0,0.208,0,0.523,0,0.943c0,0.208,0.106,0.419,0.212,0.627h0.104c0,0.107,0,0.211,0,0.316   c1.259,1.786,5.875,3.988,11.436,3.988c2.204,0,4.302-0.316,6.086-0.735l-0.105,1.678c-1.679,0.42-3.777,0.632-5.875,0.632   c-4.512,0-8.604-1.259-10.596-2.938c-0.525-0.315-0.945-0.631-1.261-1.051c0,0.211,0,0.523,0,1.051   c0,1.887,5.247,4.932,11.751,4.932c2.098,0,4.198-0.212,5.98-0.735L19.771,46.635z M14.63,15.68c6.504,0,11.751,2.098,11.751,4.72   c0,2.625-5.247,4.723-11.751,4.723c-6.506,0-11.751-2.098-11.751-4.723C2.879,17.778,8.124,15.68,14.63,15.68L14.63,15.68z" fill-rule="evenodd"/><path style="fill:#4D4D4D" clip-rule="evenodd" d="M45.58,52.09L45.58,52.09c0,3.673-5.875,6.718-13.22,6.718   c-7.237,0-13.114-3.045-13.114-6.718c0-0.627,0-1.362,0.105-2.098c0-0.212,0-0.315,0-0.523h1.363   c0.316,2.413,5.457,4.407,11.857,4.407c6.294,0,11.434-1.994,11.75-4.407h1.363c0,0.208,0,0.312,0,0.523   C45.684,50.728,45.58,51.463,45.58,52.09L45.58,52.09z M44.217,51.463c0.104,0.208,0.104-1.052,0.104,1.047   c0,2.098-5.667,4.827-12.169,4.827c-6.506,0-11.647-3.041-11.647-4.932c0-1.89-0.104-1.051,0-1.362   c1.049,2.202,6.086,4.3,11.855,4.3C38.13,55.343,43.166,53.561,44.217,51.463L44.217,51.463z" fill-rule="evenodd"/><path style="fill:#4D4D4D" clip-rule="evenodd" d="M46,31.313L46,31.313c0,3.672-5.875,6.61-13.112,6.61   c-7.345,0-13.222-2.938-13.222-6.61c0-0.735,0.106-1.467,0.106-2.098c0-3.776,5.875-6.714,13.22-6.714   c7.237,0,13.112,2.938,13.112,6.714C46.104,29.847,46,30.578,46,31.313L46,31.313z M32.991,23.656c6.506,0,11.75,2.095,11.75,4.72   c0,2.625-5.244,4.724-11.75,4.724s-11.857-2.098-11.857-4.724C21.134,25.751,26.485,23.656,32.991,23.656L32.991,23.656z    M44.637,30.578c0.104,0.316,0.104-0.943,0.104,1.051c0.104,2.098-5.559,4.932-12.065,4.932c-6.504,0-11.751-3.042-11.751-4.932   s-0.104-1.051,0.106-1.363c0.943,2.202,5.98,4.196,11.75,4.196C38.55,34.462,43.585,32.68,44.637,30.578L44.637,30.578z" fill-rule="evenodd"/><path style="fill:#4D4D4D" clip-rule="evenodd" d="M45.58,48.521L45.58,48.521c0,3.673-5.875,6.718-13.22,6.718   c-7.237,0-13.114-3.045-13.114-6.718c0-0.628,0.105-1.363,0.105-2.098c0-0.208,0-0.316,0-0.524h1.363   c0.316,2.414,5.457,4.408,11.857,4.408c6.294,0,11.434-1.994,11.75-4.408h1.363c0,0.208,0,0.316,0,0.524   C45.684,47.158,45.58,47.894,45.58,48.521L45.58,48.521z M44.217,47.894c0.104,0.208,0.104-1.051,0.104,1.048   c0,2.102-5.559,4.935-12.169,4.935c-6.506,0-11.647-3.148-11.647-5.039c0-1.887-0.104-1.047,0.105-1.362   c0.943,2.202,5.98,4.3,11.75,4.3C38.13,51.774,43.166,49.992,44.217,47.894L44.217,47.894z" fill-rule="evenodd"/><path style="fill:#4D4D4D" clip-rule="evenodd" d="M45.792,45.164L45.792,45.164c0,3.673-5.982,6.718-13.22,6.718   c-7.239,0-13.22-3.045-13.22-6.718c0-0.627,0.104-1.362,0.104-2.098c0-0.208,0-0.315,0.106-0.523h1.363   c0.315,2.413,5.457,4.407,11.751,4.407c6.294,0,11.542-1.994,11.75-4.407h1.367c0.104,0.208,0.104,0.315,0.104,0.523   C45.896,43.802,45.792,44.537,45.792,45.164L45.792,45.164z M44.425,44.537c0.108,0.208,0.108-1.051,0.108,1.047   c0,2.099-5.667,4.932-12.173,4.932c-6.504,0-11.75-3.041-11.75-5.035c0-1.891,0-1.051,0.104-1.259   c0.945,2.098,6.086,4.196,11.857,4.196C38.235,48.418,43.273,46.635,44.425,44.537L44.425,44.537z" fill-rule="evenodd"/><path style="fill:#4D4D4D" clip-rule="evenodd" d="M45.792,41.703v0.104c0,3.673-5.878,6.61-13.116,6.61   c-7.343,0-13.22-2.938-13.22-6.61c0-0.735,0.106-1.471,0.106-2.202c0-0.107,0-0.315,0-0.527h1.469   c0.209,2.518,5.455,4.408,11.75,4.408c6.294,0,11.437-1.891,11.753-4.408h1.363c0,0.212,0,0.42,0,0.527   C45.896,40.337,45.792,41.072,45.792,41.703L45.792,41.703z M44.425,41.072c0.108,0.315,0.108-0.943,0.108,1.051   c0.104,2.099-5.563,4.932-12.065,4.932c-6.506,0-11.753-3.045-11.753-4.932c0-1.89-0.104-1.051,0.106-1.366   c0.943,2.206,5.98,4.199,11.751,4.199C38.342,44.956,43.377,43.17,44.425,41.072L44.425,41.072z" fill-rule="evenodd"/><path style="fill:#4D4D4D" clip-rule="evenodd" d="M45.792,38.239L45.792,38.239c0,3.672-5.878,6.609-13.116,6.609   c-7.343,0-13.22-2.938-13.22-6.609c0-0.735,0.106-1.467,0.106-2.202c0-0.104,0-0.316,0-0.524h1.469   c0.313,2.518,5.455,4.404,11.75,4.404c6.294,0,11.437-1.887,11.753-4.404h1.363c0,0.208,0,0.419,0,0.524   C45.896,36.772,45.792,37.504,45.792,38.239L45.792,38.239z M44.425,37.504c0.212,0.315,0.108-0.943,0.212,1.051   c0,2.098-5.667,4.932-12.169,4.932c-6.506,0-11.753-3.042-11.753-4.932c0-1.89-0.104-1.051,0.106-1.363   c0.943,2.202,5.98,4.196,11.751,4.196C38.342,41.388,43.377,39.605,44.425,37.504L44.425,37.504z" fill-rule="evenodd"/><path style="fill:#4D4D4D" clip-rule="evenodd" d="M46,34.882L46,34.882c0,3.673-5.875,6.61-13.22,6.61   c-7.238,0-13.218-2.938-13.218-6.61c0-0.735,0.104-1.47,0.21-2.098c0-0.212,0-0.42,0-0.631h1.363   c0.315,2.521,5.457,4.512,11.753,4.512c6.398,0,11.538-1.991,11.854-4.512h1.363c0,0.211,0,0.419,0,0.631   C46.104,33.412,46,34.147,46,34.882L46,34.882z M44.637,34.147c0.104,0.315,0.104-0.943,0.104,1.051   c0,2.098-5.667,4.931-12.169,4.931c-6.506,0-11.647-3.045-11.647-4.931c0-1.89-0.104-1.051,0-1.367   c1.049,2.206,6.086,4.2,11.855,4.2C38.55,38.031,43.481,36.245,44.637,34.147L44.637,34.147z" fill-rule="evenodd"/><path style="fill:#4D4D4D" clip-rule="evenodd" d="M58.592,27.641L58.592,27.641c0,3.673-5.878,6.718-13.22,6.718h-0.107v-0.315   c0-0.104,0-0.524,0-1.155c6.506,0,12.068-2.729,12.068-4.827v-1.047c-0.107,0-0.211,0.104-0.211,0.208   c-1.363,1.994-6.19,3.673-11.75,3.673l0.104-1.047c0,0-0.104-0.212-0.211-0.423c6.506-0.101,12.068-2.833,12.068-4.928V23.76   c-2.206,2.202-6.61,3.672-11.753,3.672c-0.315,0-0.627,0-0.943,0c0-0.211-0.104-0.419,0-0.419c0.104-0.107-0.735-0.735-1.679-1.262   c0.839,0.107,1.679,0.107,2.518,0.107c1.679,0,3.357-0.107,4.828-0.315c3.146-0.732,5.663-1.994,6.714-3.253   c0.104-0.313,0.208-0.524,0.315-0.839h0.104c0-0.104,0-0.212,0-0.312v-0.947c-0.211,0.315-0.419,0.523-0.735,0.735   c-1.783,1.679-6.19,3.042-11.226,3.042c-1.782,0-3.461-0.208-4.931-0.523c-3.042-0.628-5.559-1.783-6.926-3.357   c0,0.208,0,0.523,0,0.943c0,0.208,0,0.316,0.108,0.42l0,0c0,0.104,0,0.104,0,0.211c0.312,0.523,0.943,1.155,1.886,1.783   l-3.357-0.42c0-0.315,0-0.735,0-1.047c0-0.211,0.104-0.315,0.104-0.527h0.107c-0.107-0.212-0.107-0.42-0.107-0.735   c0-0.627,0.107-1.363,0.107-2.098c0-0.211,0-0.312,0-0.523c0-0.212,0-0.527,0-0.735c0-0.735,0-1.471,0.104-2.202   c0-0.107,0-0.315,0-0.423c-0.104-0.312-0.104-0.627-0.104-0.939c0-0.739,0-1.471,0.104-2.102c0-0.208,0-0.42,0-0.631h0.104   c0-0.208-0.104-0.416-0.104-0.628c0-0.735,0.104-1.467,0.104-2.098c0-3.673,5.979-6.714,13.22-6.714   c7.345,0,13.22,3.042,13.22,6.714c0,0.631-0.104,1.363-0.104,2.098l0,0c0,0.212,0,0.527-0.107,0.735c0,0.208,0,0.316,0,0.524   c0,0.631-0.104,1.363-0.104,2.102l0,0c0,0.312,0,0.523-0.104,0.839h0.208c0,0.208,0,0.416,0,0.523c0,0.731-0.104,1.467-0.104,2.098   v0.104c0,0.208,0,0.523-0.104,0.735H58.8c0,0.211,0,0.312,0,0.523c0,0.735-0.104,1.471-0.104,2.098l0,0c0,0.315,0,0.523,0,0.839   c0,0.107,0,0.315,0,0.423c0,0.732-0.104,1.467-0.104,2.095l0,0c0,0.315,0,0.631-0.108,0.947h0.108   c0.104,0.208,0.104,0.316,0.104,0.524C58.696,26.278,58.592,27.013,58.592,27.641L58.592,27.641z M33.831,14.633h0.104   c0,0.1,0.104,0.208,0.104,0.312c1.155,1.89,5.771,4.092,11.333,4.092c6.502,0,12.169-2.833,12.169-4.932v-0.628   c-2.202,2.095-6.61,3.565-11.749,3.565c-5.455,0-10.075-1.571-12.065-3.988c0,0.211,0,0.527,0,1.051   C33.727,14.209,33.727,14.421,33.831,14.633L33.831,14.633z M57.541,16.623c-0.104,0.104-0.104,0.104-0.208,0.212   c-1.366,1.994-6.19,3.672-11.753,3.672c-4.512,0-8.708-1.262-10.702-2.833c-0.419-0.315-0.839-0.735-1.151-1.051   c0,0.104,0,0.42,0,1.051c0,0.104,0,0.208,0.104,0.42h0.104c0,0.104,0,0.312,0,0.419c0.943,1.363,3.988,3.149,7.973,3.777   c1.155,0.104,2.414,0.211,3.776,0.211c0.735,0,1.367,0,2.102,0c4.928-0.524,8.916-2.518,9.651-4.196c0-0.107,0-0.211,0-0.211l0,0   c0.104-0.104,0.104-0.316,0.104-0.42V16.623z M33.935,11.061L33.935,11.061c0,0.107,0,0.107,0.104,0.211   c0.527,1.259,2.937,2.833,6.402,3.777c1.574,0.315,3.357,0.523,5.351,0.523c1.782,0,3.461-0.208,5.035-0.523   c2.938-0.628,5.351-1.887,6.294-3.042c0.211-0.315,0.315-0.631,0.419-0.947h0.212c0-0.101,0-0.208,0-0.312   c0-1.994,0-0.735-0.107-1.051c-1.151,2.202-6.19,3.988-11.854,3.988c-5.771,0-10.914-2.098-11.857-4.304   c-0.104,0.316-0.104-0.523-0.104,1.367C33.831,10.853,33.935,10.96,33.935,11.061L33.935,11.061z M45.896,2.876   c6.506,0,11.857,1.994,11.857,4.62c0,2.625-5.351,4.72-11.857,4.72s-11.75-2.095-11.75-4.72C34.146,4.87,39.39,2.876,45.896,2.876   L45.896,2.876z" fill-rule="evenodd"/></g></svg>
