<?xml version="1.0" ?><!DOCTYPE svg  PUBLIC '-//W3C//DTD SVG 1.1//EN'  'http://www.w3.org/Graphics/SVG/1.1/DTD/svg11.dtd'><svg height="512px" id="Layer_1" style="enable-background:new 0 0 512 512;" version="1.1" viewBox="0 0 512 512" width="512px" xml:space="preserve" xmlns="http://www.w3.org/2000/svg" xmlns:xlink="http://www.w3.org/1999/xlink"><g><rect height="512" style="fill:none;" width="512"/><path d="M496,128v256c0,26.516-21.484,48-48,48H64c-26.508,0-48-21.484-48-48V128c0-26.516,21.492-48,48-48   h384C474.516,80,496,101.484,496,128z M400,112H112c0,35.344-28.656,64-64,64v160c35.344,0,64,28.656,64,64h288   c0-35.344,28.656-64,64-64V176C428.656,176,400,147.344,400,112z M136.047,320h240.766c9.594,0,9.594-24,0-24H136.047   C125.313,296,125.313,320,136.047,320z M160,368h192c9.594,0,9.594-24,0-24H160C149.266,344,149.266,368,160,368z M183.969,221.375   c-3.414-3.875-5.719-8.477-6.953-13.375h-56.039c-16,0-7.156,16,0,16h8.977c-16,0-7.156,16,0,16h52.758   C181.336,233.828,181.625,227.367,183.969,221.375z M391.25,208H335c-1.234,4.898-3.531,9.516-6.969,13.391   c2.359,5.984,2.641,12.445,1.266,18.609h53.188c6.406,0,16-16,0-16h8.766C397.641,224,407.25,208,391.25,208z M278.156,269.547   c5-1.813,8.766-5.984,10.047-11.141l2.203-8.75l8.969-0.641c5.297-0.375,10.063-3.359,12.719-7.953   c2.656-4.609,2.859-10.219,0.531-15l-3.938-8.094l6.484-6.266c3.813-3.688,5.563-9.047,4.625-14.281   c-0.922-5.234-4.375-9.672-9.234-11.828l-8.234-3.672l0.938-8.938c0.563-5.281-1.547-10.5-5.609-13.922   c-2.922-2.453-6.578-3.75-10.297-3.75c-1.469,0-2.938,0.203-4.391,0.609l-8.672,2.5l-5.031-7.469   c-2.969-4.422-7.938-7.063-13.266-7.063s-10.297,2.641-13.266,7.063l-5.047,7.438l-8.656-2.469   c-1.453-0.406-2.922-0.609-4.391-0.609c-3.719,0-7.375,1.297-10.297,3.75c-4.063,3.422-6.172,8.641-5.609,13.922l0.938,8.938   l-8.234,3.672c-4.852,2.172-8.313,6.594-9.234,11.828s0.813,10.578,4.633,14.281l6.477,6.266l-3.938,8.094   c-2.32,4.781-2.125,10.391,0.531,15c2.656,4.594,7.422,7.578,12.719,7.953l8.984,0.656l2.188,8.734   c1.281,5.156,5.047,9.328,10.047,11.141c1.781,0.656,3.625,0.969,5.469,0.969c3.328,0,6.625-1.047,9.406-3.047l7.266-5.297   l7.297,5.297c2.781,2,6.078,3.047,9.406,3.047C274.531,270.516,276.375,270.203,278.156,269.547z" style="fill:#4D4D4D;"/></g></svg>
