<?xml version="1.0" ?><svg enable-background="new 0 0 515.91 728.5" height="512" id="Layer_1" version="1.1" viewBox="0 0 512.00003 512" width="512" xml:space="preserve" xmlns="http://www.w3.org/2000/svg" xmlns:cc="http://creativecommons.org/ns#" xmlns:dc="http://purl.org/dc/elements/1.1/" xmlns:inkscape="http://www.inkscape.org/namespaces/inkscape" xmlns:rdf="http://www.w3.org/1999/02/22-rdf-syntax-ns#" xmlns:sodipodi="http://sodipodi.sourceforge.net/DTD/sodipodi-0.dtd" xmlns:svg="http://www.w3.org/2000/svg"><defs id="defs7"/><g id="g4131" transform="translate(4.4960647e-6,3.530829)"><g id="g4042" style="fill:#4d4d4d;fill-opacity:1" transform="matrix(0.99999879,0,0,0.99999879,-497.71484,140.2862)"><path d="m 530.86718,75.491669 c 12.51315,3.594599 15.9798,31.252341 16.99898,43.469391 1.82739,21.60895 10.5358,29.2049 25.76495,46.63041 23.95884,19.57043 29.16277,24.38818 47.07975,24.60336 -5.686,-12.57869 -18.51369,-25.61513 -28.02656,-33.89338 -10.99458,-9.56766 -15.63819,-22.68842 -10.04356,-34.51847 4.56938,-9.6621 18.96887,-8.25944 26.37869,-2.04843 19.83061,16.62228 32.71892,36.48764 56.59886,47.86203 24.46798,13.58352 51.5904,28.05549 63.55161,54.7783 12.31041,36.72019 11.90147,67.36253 5.94524,105.7174 -0.82759,7.07436 -1.09533,12.0375 -5.13713,12.35243 -19.92875,0 -40.40625,0 -60.95405,0 -6.68435,-0.52087 -4.89636,-16.03553 -5.0795,-23.72405 0.15589,-30.76425 -18.88892,-49.5344 -40.63603,-57.80753 -22.71379,-11.60897 -54.76564,-32.12924 -59.56873,-40.83828 -13.51295,-26.28597 -41.8226,-45.25259 -44.96524,-70.22435 -3.14247,-24.97084 -14.37263,-77.19261 12.09272,-72.358831 z" id="path8612" style="fill:#4d4d4d;fill-opacity:1"/><path d="m 976.56434,75.491669 c -12.51315,3.594599 -15.97979,31.252341 -16.99898,43.469391 -1.82739,21.60895 -10.53579,29.2049 -25.76494,46.63041 -23.95884,19.57043 -29.16278,24.38818 -47.07976,24.60336 5.686,-12.57869 18.51369,-25.61513 28.02656,-33.89338 10.99458,-9.56766 15.6382,-22.68842 10.04356,-34.51847 -4.56937,-9.6621 -18.96887,-8.25944 -26.37869,-2.04843 -19.83061,16.62228 -32.71891,36.48764 -56.59886,47.86203 -24.46797,13.58352 -51.5904,28.05549 -63.55161,54.7783 -12.31041,36.72019 -11.90147,67.36253 -5.94523,105.7174 0.82759,7.07436 1.09532,12.0375 5.13713,12.35243 19.92874,0 40.40625,0 60.95405,0 6.68435,-0.52087 4.89636,-16.03553 5.0795,-23.72405 -0.1559,-30.76425 18.88891,-49.5344 40.63603,-57.80753 22.71379,-11.60897 54.76564,-32.12924 59.56873,-40.83828 13.51295,-26.28597 41.8226,-45.25259 44.96524,-70.22435 3.14246,-24.97084 14.37263,-77.19261 -12.09273,-72.358831 z" id="path3825" style="fill:#4d4d4d;fill-opacity:1"/></g><path d="m 254.81537,24.212139 c -3.88673,0.03971 -7.81862,0.349951 -11.78459,0.959673 -2.29618,0.353354 -4.48194,0.811638 -6.57654,1.307357 -4.15428,0.985764 -7.4022,4.963987 -7.53639,9.231472 -0.0142,0.484942 -0.0403,1.158755 -0.0403,1.981171 0.0283,4.633886 -0.0203,12.74347 -0.0203,12.74347 -0.007,0.247859 -0.0114,0.504792 -0.0403,0.756621 -0.35432,3.002101 -2.48251,5.357045 -5.20816,6.167549 0.2769,-0.08054 0.5593,-0.1469 0.83739,-0.225171 -8.7572,2.449663 -17.06133,5.861271 -24.79459,10.130458 -2.50036,1.354434 -5.67297,1.199592 -8.04707,-0.673815 -0.19869,-0.156541 -0.39391,-0.338608 -0.57184,-0.510464 l -8.9865,-8.986449 c -0.35484,-0.355056 -0.74987,-0.773071 -1.22546,-1.225683 -3.07754,-2.931769 -8.15786,-3.510863 -11.80496,-1.327776 -5.47836,3.28002 -10.60337,7.219108 -15.25665,11.763946 l -0.0203,0.01702 -0.0614,0.05898 c -0.39091,0.390789 -0.79191,0.791787 -1.18457,1.184279 -2.7206,2.77636 -5.28581,5.77052 -7.65896,9.006299 -1.37394,1.873406 -2.58641,3.745111 -3.7172,5.575977 -2.24054,3.635077 -1.7383,8.754474 1.18467,11.866615 0.33271,0.352779 0.8074,0.848497 1.38881,1.429296 3.33793,3.283419 8.98668,9.027286 8.98668,9.027286 0.17049,0.1798 0.35341,0.35222 0.51052,0.55073 1.87256,2.37422 2.02836,5.54705 0.67399,8.04719 0.28642,-0.51954 0.58074,-1.03624 0.87822,-1.55181 -4.5935,8.01884 -8.24968,16.61449 -10.84512,25.61173 -0.83858,2.6754 -3.16193,4.75582 -6.12716,5.10578 -0.2516,0.0283 -0.50797,0.0397 -0.75566,0.0397 l -12.72412,0 c -0.5019,0 -1.0798,-0.0114 -1.73597,0 -4.24953,0.10321 -8.23721,3.29136 -9.27244,7.41422 -1.55488,6.19249 -2.39482,12.59203 -2.47133,19.09648 l 0,0.0169 0,0.10212 0,1.67489 c 0.0391,3.88691 0.35018,7.81863 0.95996,11.78437 0.3529,2.29595 0.8117,4.48244 1.30713,6.57705 0.98555,4.15406 4.96382,7.4023 9.23159,7.53617 0.48494,0.0114 1.15898,0.0397 1.98106,0.0397 4.63563,-0.0283 12.74437,0.017 12.74437,0.017 0.24775,0.005 0.50411,0.0114 0.75571,0.0397 2.96445,0.34938 5.28853,2.42982 6.12723,5.10635 0.01,0.0341 0.0307,0.0675 0.0402,0.10211 2.51001,8.72215 5.9949,16.9792 10.31405,24.6719 -0.13175,-0.23424 -0.2791,-0.45941 -0.40849,-0.69479 1.35433,2.50128 1.19909,5.65255 -0.67398,8.02734 -0.15711,0.19851 -0.33815,0.39362 -0.51057,0.57171 l -9.00694,9.00688 c -0.35499,0.35449 -0.77301,0.74925 -1.22546,1.22512 -2.93216,3.07753 -3.49015,8.1368 -1.30711,11.78436 3.27945,5.47842 7.21899,10.60348 11.76418,15.25722 l 0,0.017 0.0817,0.059 c 0.39085,0.39078 0.79203,0.79121 1.18462,1.18484 2.77602,2.72078 5.77126,5.28557 9.00687,7.65867 1.87313,1.37429 3.74442,2.58636 5.57574,3.71732 3.63446,2.24094 8.73321,1.73785 11.84592,-1.18485 0.35311,-0.33294 0.84834,-0.78781 1.42964,-1.36804 l 9.0274,-9.00743 c 0.17967,-0.17072 0.37315,-0.35279 0.57183,-0.51047 2.37361,-1.87227 5.54671,-2.02825 8.04703,-0.67382 7.54375,4.16822 15.57263,7.52085 23.95719,9.94613 2.72565,0.81106 4.85383,3.16488 5.20815,6.16812 0.0295,0.25182 0.0363,0.50762 0.0404,0.75548 l 0,12.72418 c 0,0.50196 -0.0164,1.07992 0,1.73615 0.10288,4.24935 3.2913,8.21678 7.41381,9.25247 6.19268,1.55464 12.59216,2.41506 19.09639,2.49106 l 0.0204,0 0.10212,0 1.67471,0 c 3.88674,-0.0397 7.81861,-0.34995 11.7846,-0.95967 2.29618,-0.35279 4.48192,-0.81165 6.57655,-1.30736 4.15428,-0.9852 7.40219,-4.96398 7.53638,-9.23147 0.0142,-0.48494 0.0402,-1.15875 0.0402,-1.98118 -0.0278,-4.70365 0.0203,-12.7446 0.0203,-12.7446 0.005,-0.24728 0.0114,-0.52464 0.0403,-0.77534 0.35432,-3.00323 2.4825,-5.33776 5.20816,-6.14826 -0.59429,0.17185 -1.19756,0.30968 -1.79735,0.4702 9.12213,-2.47292 17.75595,-5.98435 25.75454,-10.39591 2.50037,-1.35443 5.67297,-1.19902 8.04708,0.67382 0.19869,0.15711 0.39391,0.33804 0.57183,0.51047 l 8.98651,9.00743 c 0.35484,0.35505 0.74987,0.77307 1.22546,1.22454 3.07754,2.93347 8.15785,3.49102 11.80494,1.30736 5.47838,-3.27945 10.60342,-7.19755 15.2567,-11.74295 l 0,-0.017 0.0818,-0.081 c 0.39091,-0.39135 0.79191,-0.79236 1.18457,-1.18486 2.72061,-2.77578 5.2858,-5.77108 7.65895,-9.00685 1.37395,-1.87284 2.58641,-3.74512 3.71721,-5.57598 2.24054,-3.63452 1.71783,-8.73292 -1.20504,-11.84563 -0.33277,-0.35335 -0.78703,-0.84794 -1.36844,-1.42985 -3.35994,-3.30442 -8.98668,-9.0256 -8.98668,-9.0256 -0.17049,-0.18036 -0.35341,-0.3732 -0.51052,-0.57229 -1.87256,-2.37422 -2.02837,-5.54647 -0.67397,-8.04718 -0.22196,0.4027 -0.46568,0.80483 -0.69447,1.20525 4.80103,-8.45442 8.55301,-17.51858 11.13103,-27.0206 -0.16568,0.62106 -0.3326,1.24269 -0.51058,1.85865 0.81039,-2.7253 3.16488,-4.85338 6.16805,-5.20844 0.2516,-0.0283 0.50797,-0.0397 0.75566,-0.0397 l 12.72412,0 c 0.50191,0 1.07981,0.0114 1.73599,0 4.24951,-0.10211 8.23719,-3.27037 9.27243,-7.39323 1.55487,-6.19251 2.39481,-12.59202 2.47132,-19.09649 l 0,-0.0169 0,-0.10156 0,-1.67546 0,-0.0169 c -0.0391,-3.8869 -0.35017,-7.81862 -0.95995,-11.78436 -0.3529,-2.29596 -0.81171,-4.48245 -1.30714,-6.57706 -0.98553,-4.15405 -4.96381,-7.4023 -9.23159,-7.53616 -0.48494,-0.0114 -1.15897,-0.0397 -1.98106,-0.0397 -4.63563,0.0283 -12.74437,-0.017 -12.74437,-0.017 -0.24774,-0.005 -0.50411,-0.0114 -0.7557,-0.0397 -3.00251,-0.35392 -5.35763,-2.482 -6.16807,-5.20844 -2.57569,-8.94901 -6.18479,-17.40232 -10.66129,-25.26405 0.25058,0.43674 0.5132,0.86723 0.75578,1.30736 -1.35432,-2.50015 -1.19914,-5.67353 0.67393,-8.04718 0.15711,-0.19908 0.33815,-0.37322 0.51057,-0.55131 l 8.98651,-9.007427 c 0.35494,-0.355064 0.79343,-0.749825 1.24587,-1.22512 2.93218,-3.078107 3.49016,-8.157799 1.30713,-11.804786 -3.27945,-5.478422 -7.21898,-10.603489 -11.76417,-15.257226 l -0.0817,-0.08167 c -0.39085,-0.390788 -0.79202,-0.791787 -1.18456,-1.184278 -2.77602,-2.721345 -5.77136,-5.285012 -9.00695,-7.658674 -1.87313,-1.373718 -3.74444,-2.586922 -5.57576,-3.717885 -3.6344,-2.240374 -8.75362,-1.71743 -11.86633,1.205263 -0.35307,0.333505 -0.84828,0.78725 -1.42963,1.368614 -1.98825,1.955647 -9.0274,8.98645 -9.0274,8.98645 -0.17968,0.170722 -0.35273,0.353922 -0.55141,0.510465 -2.37361,1.872838 -5.54665,2.028246 -8.04703,0.673812 0.67966,0.375476 1.34899,0.77137 2.022,1.16386 -8.12438,-4.701381 -16.8421,-8.446492 -25.9792,-11.089564 -2.72559,-0.810504 -4.85383,-3.164882 -5.20809,-6.168116 -0.0295,-0.251829 -0.0368,-0.507629 -0.0409,-0.755488 l 0,-12.724186 c 0,-0.501956 0.0165,-1.079916 0,-1.736146 -0.10278,-4.249337 -3.29125,-8.236634 -7.41383,-9.27231 -6.19266,-1.555216 -12.59209,-2.395215 -19.09637,-2.471784 l -0.0203,0 -0.10222,0 -1.67472,0 z m 0.0402,69.114095 c 38.55535,-0.626171 72.0761,28.055156 76.69172,67.174906 4.66395,39.52868 -21.91804,75.95773 -60.98568,83.57386 l -5.637,0.89956 c -41.72767,4.92314 -79.54994,-24.91636 -84.47325,-66.64346 -4.92338,-41.72766 24.91549,-79.550263 66.64311,-84.473418 2.60801,-0.307975 5.19074,-0.489475 7.7611,-0.531448 z" id="path8854-7" style="fill:#4d4d4d;fill-opacity:1;fill-rule:nonzero;stroke:none"/></g></svg>