<?xml version="1.0" ?><!DOCTYPE svg  PUBLIC '-//W3C//DTD SVG 1.1//EN'  'http://www.w3.org/Graphics/SVG/1.1/DTD/svg11.dtd'><svg enable-background="new 0 0 80.001 80" height="80px" id="Layer_1" version="1.1" viewBox="0 0 80.001 80" width="80.001px" xml:space="preserve" xmlns="http://www.w3.org/2000/svg" xmlns:xlink="http://www.w3.org/1999/xlink"><path d="M73.348,20.231C68.026,10.321,59.023,3.637,48.945,0.984l-2.922,16.319l5.193,9.692L7.989,50.156  c-2.182,1.168-3.01,3.91-1.84,6.091c0.645,1.201,1.77,1.973,3.011,2.246v11.514H2.035v9h17.25v-9H12.16V58.121  c0.026-0.013,0.055-0.019,0.081-0.033l22.212-11.901l-10.774,32.83h3.156l0.681-2.075l2.075,2.075h4.339l6.358-6.358l6.358,6.358  h4.333l2.077-2.076l0.681,2.076h3.156L44.379,40.869l11.088-5.941l5.192,9.692l13.703,5.961v28.395h3V45.399  C78.841,37.089,77.642,28.246,73.348,20.231z M10.326,52.484c0.782,0,1.416,0.635,1.416,1.418c0,0.782-0.634,1.416-1.416,1.416  c-0.783,0-1.417-0.634-1.417-1.416C8.909,53.119,9.543,52.484,10.326,52.484z M40.286,36.673c0.782,0,1.417,0.635,1.417,1.417  s-0.635,1.417-1.417,1.417s-1.417-0.635-1.417-1.417S39.504,36.673,40.286,36.673z M35.938,51.281l2.229,2.229l-4.407,4.407  L35.938,51.281z M31.761,76.943l-3.196-3.196l3.123-9.516l0.087-0.087l6.393,6.393L31.761,76.943z M33.896,62.023l6.393-6.392  l6.393,6.392l-6.393,6.393L33.896,62.023z M42.409,53.51l2.229-2.229l2.176,6.635L42.409,53.51z M48.813,76.941l-6.404-6.404  l6.393-6.393l0.085,0.084l3.121,9.518L48.813,76.941z M43.591,48.086l-3.303,3.303l-3.303-3.303l1.297-3.952l3.412-1.828  L43.591,48.086z M57.26,25.57l7.754-7.148c1.137,1.456,2.164,3.003,3.047,4.647c0.893,1.666,1.621,3.383,2.211,5.132L60.01,30.702  L57.26,25.57z M53.588,9.098c2.656,1.313,5.106,2.995,7.313,4.956l-6.567,6.054l-2.037-3.801L53.588,9.098z M71.697,42.878  l-6.733-2.929l-2.028-3.786l8.711-2.123C72.059,36.961,72.094,39.926,71.697,42.878z" style="fill:#4D4D4D"/></svg>
