<?xml version="1.0" ?><!DOCTYPE svg  PUBLIC '-//W3C//DTD SVG 1.1//EN'  'http://www.w3.org/Graphics/SVG/1.1/DTD/svg11.dtd'><svg height="512px" id="Слой_1" style="enable-background:new 0 0 512 512;" version="1.1" viewBox="0 0 512 512" width="512px" xml:space="preserve" xmlns="http://www.w3.org/2000/svg" xmlns:xlink="http://www.w3.org/1999/xlink"><g><path d="M158.189,148.045c-17.332,5.754-26.671,24.468-20.925,41.789c5.732,17.318,24.453,26.671,41.771,20.928   c17.34-5.757,26.728-24.467,20.967-41.792C194.228,151.652,175.528,142.299,158.189,148.045z" style="fill:none;"/><path d="M83.624,322.719c-17.318,5.726-26.7,24.439-20.917,41.764c5.76,17.335,24.46,26.717,41.793,20.938   c17.324-5.76,26.678-24.474,20.91-41.775C119.656,326.312,100.957,316.938,83.624,322.719z" style="fill:none;"/><path d="M85.446,225.727c-17.318,5.765-26.671,24.471-20.953,41.779c5.768,17.314,24.496,26.696,41.799,20.938   c17.318-5.764,26.7-24.461,20.953-41.785C121.456,229.327,102.777,219.978,85.446,225.727z" style="fill:none;"/><g><path d="M449.021,201.556l-35.16-6.264c-3.288-0.574-6.746,0.223-9.46,2.271    c-2.678,2.016-4.428,5.07-4.776,8.432l-27.372,255.68c-0.688,6.384,3.663,12.198,9.983,13.325    c6.313,1.106,12.393-2.831,13.966-9.045l62.533-249.427c0.801-3.291,0.22-6.763-1.58-9.601    C455.306,204.089,452.345,202.151,449.021,201.556z" style="fill:#4D4D4D;"/><path d="M466.482,156.888c35.685-39.107,18.891-106.324,3.827-150.313    c-0.568-1.506-6.363,0.248-6.548,1.754c-3.295,29.818-15.093,55.554-36.69,76.255c-14.796,14.168-23.901,29.984-19.926,50.901    c2.742,14.721,11.776,24.73,22.859,28.861l11.727,2.09C450.128,166.469,458.837,163.468,466.482,156.888z" style="fill:#4D4D4D;"/><polygon points="404.096,186.269 461.938,196.579 465.672,175.464 407.837,165.178   " style="fill:#4D4D4D;"/></g><path d="M133.906,131.319C45.467,160.729,1.634,268.307,35.972,371.598   c34.338,103.308,114.43,137.023,146.225,134.245c65.346-5.768-19.069-75.337,33.027-129.934   c38.491-40.312,148.344,66.086,162.316-109.002C386.071,160.431,269.827,86.146,133.906,131.319z M104.5,385.422   c-17.332,5.779-36.032-3.603-41.793-20.938c-5.782-17.325,3.6-36.039,20.917-41.764c17.332-5.782,36.032,3.592,41.786,20.928   C131.178,360.948,121.824,379.662,104.5,385.422z M106.292,288.445c-17.303,5.758-36.032-3.624-41.799-20.938   c-5.718-17.308,3.635-36.014,20.953-41.779c17.332-5.75,36.011,3.6,41.799,20.932C132.992,263.984,123.61,282.681,106.292,288.445z    M179.036,210.762c-17.318,5.743-36.039-3.61-41.771-20.928c-5.747-17.321,3.592-36.035,20.925-41.789   c17.339-5.747,36.039,3.607,41.814,20.925C205.764,186.295,196.375,205.005,179.036,210.762z M280.662,217.278   c-17.311,5.771-36.032-3.607-41.793-20.928c-5.718-17.325,3.607-36.018,20.96-41.796c17.325-5.747,35.996,3.628,41.786,20.946   C307.312,192.817,297.98,211.52,280.662,217.278z" style="fill:#4D4D4D;"/></g></svg>
