<?xml version="1.0" ?><!DOCTYPE svg  PUBLIC '-//W3C//DTD SVG 1.1//EN'  'http://www.w3.org/Graphics/SVG/1.1/DTD/svg11.dtd'><svg enable-background="new 0 0 512 512" height="512px" id="Layer_1" version="1.1" viewBox="0 0 512 512" width="512px" xml:space="preserve" xmlns="http://www.w3.org/2000/svg" xmlns:xlink="http://www.w3.org/1999/xlink"><g><path d="M256,64C132.281,64,32,149.969,32,256c0,52.031,24.242,99.156,63.461,133.75   c-2.844,31.906-18,51.094-37.656,67.656l-6.813,5.797c-2.492,2.156-3.547,5.563-2.703,8.766c0.844,3.188,3.43,5.642,6.672,6.281   c5.836,1.172,12.477,1.75,19.734,1.75c24.781,0,66.961-7.234,130.852-37.063C221.789,446.141,238.625,448,256,448   c123.719,0,224-85.969,224-192S379.719,64,256,64z M144,290.406c-19,0-34.398-15.406-34.398-34.406S125,221.594,144,221.594   S178.398,237,178.398,256S163,290.406,144,290.406z M256,290.406c-19,0-34.398-15.406-34.398-34.406S237,221.594,256,221.594   S290.398,237,290.398,256S275,290.406,256,290.406z M368,290.406c-19,0-34.398-15.406-34.398-34.406S349,221.594,368,221.594   S402.398,237,402.398,256S387,290.406,368,290.406z" fill="#4D4D4D"/></g></svg>