<?xml version="1.0" ?><svg enable-background="new 0 0 515.91 728.5" height="512" id="Layer_1" version="1.1" viewBox="0 0 512.00003 512" width="512" xml:space="preserve" xmlns="http://www.w3.org/2000/svg" xmlns:cc="http://creativecommons.org/ns#" xmlns:dc="http://purl.org/dc/elements/1.1/" xmlns:inkscape="http://www.inkscape.org/namespaces/inkscape" xmlns:rdf="http://www.w3.org/1999/02/22-rdf-syntax-ns#" xmlns:sodipodi="http://sodipodi.sourceforge.net/DTD/sodipodi-0.dtd" xmlns:svg="http://www.w3.org/2000/svg"><defs id="defs7"/><path d="m 21.6299,137.46244 c -3.1189,0 -5.6299,2.511 -5.6299,5.63 l 0,225.81512 c 0,3.119 2.511,5.63 5.6299,5.63 l 50.2081,0 0,-14.801 0.1979,-1.473 1.6714,-2.727 2.881,-1.363 3.1668,0.417 2.4412,2.089 0.9017,3.057 0,14.801 407.27213,0 c 3.1189,0 5.6299,-2.511 5.6299,-5.63 l 0,-225.81512 c 0,-3.119 -2.511,-5.63 -5.6299,-5.63 l -407.27213,0 0,19.5951 -0.1979,1.4737 -1.6714,2.7045 -2.881,1.3857 -3.1669,-0.4174 -2.4412,-2.0894 -0.9016,-3.0571 0,-19.5951 z m 109.76271,19.023 310.68281,0 c 3.11891,0 5.62991,2.511 5.62991,5.63 l 0,18.01211 c 0,3.119 -2.511,5.63 -5.62991,5.63 l -310.68281,0 c -3.119,0 -5.6299,-2.511 -5.6299,-5.63 l 0,-18.01211 c 0,-3.119 2.5109,-5.63 5.6299,-5.63 z m -54.80431,17.52811 3.1668,0.417 2.4412,2.09 0.9017,3.057 0,22.52 -0.1979,1.474 -1.6714,2.704 -2.881,1.386 -3.1669,-0.418 -2.4412,-2.089 -0.9016,-3.057 0,-22.52 0.1979,-1.474 1.6714,-2.727 z m 0,45.04 3.1668,0.417 2.4412,2.09 0.9017,3.057 0,22.52 -0.1979,1.473 -1.6714,2.705 -2.881,1.386 -3.1669,-0.418 -2.4412,-2.089 -0.9016,-3.057 0,-22.52 0.1979,-1.474 1.6714,-2.727 z m 60.65431,3.277 121.9022,0 c 3.119,0 5.63,2.511 5.63,5.63 0,3.119 -2.511,5.63 -5.63,5.63 l -121.9022,0 c -3.1191,0 -5.63,-2.511 -5.63,-5.63 0,-3.119 2.5109,-5.63 5.63,-5.63 z m 226.80471,15.504 c 0.022,0 0.044,0 0.066,0 0.2315,0 0.4648,0.03 0.6817,0.11 l 68.7034,25.335 15.59241,-17.066 c 0.014,-0.02 0.029,-0.04 0.044,-0.06 4.0862,-4.09 8.8252,-6.785 13.3492,-7.829 4.5239,-1.043 9.0039,-0.391 11.9637,2.573 2.9501,2.955 3.5946,7.421 2.5511,11.942 -1.0436,4.521 -3.7387,9.261 -7.8292,13.349 -0.022,0.01 -0.044,0.03 -0.066,0.04 l -17.0659,15.592 25.3349,68.68201 c 0.2311,0.626 0.061,1.381 -0.4179,1.847 l -1.8033,1.781 c -0.3177,0.316 -0.7614,0.502 -1.2096,0.506 l -9.0388,0 c -0.5188,0 -1.0348,-0.236 -1.3634,-0.638 l -38.22241,-47.81101 -23.3336,21.28901 11.5458,22.916 c 0.3113,0.628 0.1922,1.444 -0.2858,1.957 l -1.6054,1.737 c -0.3258,0.348 -0.7993,0.552 -1.2756,0.55 l -8.0931,0 c -0.4658,0 -0.9291,-0.194 -1.2535,-0.528 l -13.3493,-14.141 c -2.7627,1.675 -5.6845,2.483 -8.357,2.133 -0.8093,0.404 -1.7309,0.45 -2.4851,0.265 -0.9808,-0.244 -1.7799,-0.791 -2.4411,-1.452 -0.6611,-0.661 -1.1867,-1.46 -1.4295,-2.441 -0.1855,-0.749 -0.1528,-1.658 0.242,-2.463 -0.3565,-2.677 0.4912,-5.576 2.1771,-8.336 l -14.1629,-13.393 c -0.3421,-0.321 -0.5456,-0.784 -0.5498,-1.253 l 0,-8.09301 c 0.01,-0.479 0.2165,-0.954 0.5718,-1.275 l 1.6934,-1.606 c 0.5168,-0.487 1.3459,-0.607 1.9793,-0.286 l 22.9598,11.54601 21.2883,-23.31201 -47.8328,-38.244 c -0.4041,-0.319 -0.6534,-0.827 -0.6598,-1.342 l 0,-9.016 c 0,-0.456 0.1847,-0.909 0.5058,-1.232 l 1.8034,-1.803 c 0.2823,-0.295 0.6714,-0.486 1.0776,-0.528 z m -226.80471,22.058 163.29311,0 c 3.119,0 5.63,2.511 5.63,5.63 0,3.119 -2.511,5.63 -5.63,5.63 l -163.29311,0 c -3.1191,0 -5.63,-2.511 -5.63,-5.63 0,-3.119 2.5109,-5.63 5.63,-5.63 z m -60.65431,4.201 3.1668,0.417 2.4412,2.09 0.9017,3.057 0,22.52 -0.1979,1.473 -1.6714,2.705 -2.881,1.386 -3.1669,-0.418 -2.4412,-2.089 -0.9016,-3.057 0,-22.52 0.1979,-1.474 1.6714,-2.727 z m 60.65431,33.362 163.29311,0 c 3.119,0 5.63,2.511 5.63,5.63 0,3.119 -2.511,5.63001 -5.63,5.63001 l -163.29311,0 c -3.1191,0 -5.63,-2.51101 -5.63,-5.63001 0,-3.119 2.5109,-5.63 5.63,-5.63 z m -60.65431,11.67801 3.1668,0.417 2.4412,2.09 0.9017,3.057 0,22.52 -0.1979,1.473 -1.6714,2.705 -2.881,1.385 -3.1669,-0.417 -2.4412,-2.089 -0.9016,-3.057 0,-22.52 0.1979,-1.474 1.6714,-2.727 z m 60.65431,25.884 121.9022,0 c 3.119,0 5.63,2.511 5.63,5.63 0,3.119 -2.511,5.63 -5.63,5.63 l -121.9022,0 c -3.1191,0 -5.63,-2.511 -5.63,-5.63 0,-3.119 2.5109,-5.63 5.63,-5.63 z" id="rect21156" style="fill:#4D4D4D;fill-opacity:1;stroke:none"/></svg>
