<?xml version="1.0" ?><svg height="512" id="svg4156" version="1.1" width="512" xmlns="http://www.w3.org/2000/svg" xmlns:cc="http://creativecommons.org/ns#" xmlns:dc="http://purl.org/dc/elements/1.1/" xmlns:inkscape="http://www.inkscape.org/namespaces/inkscape" xmlns:rdf="http://www.w3.org/1999/02/22-rdf-syntax-ns#" xmlns:sodipodi="http://sodipodi.sourceforge.net/DTD/sodipodi-0.dtd" xmlns:svg="http://www.w3.org/2000/svg"><defs id="defs4158"/><g id="layer1" transform="translate(0,448)"><g id="g35924" style="fill:#4D4D4D;fill-opacity:1" transform="matrix(1.0796307,0,0,1.0796307,7041.8163,-19096.833)"><path d="m -6352.8125,18002.719 c -4.929,1.9 -64.6012,24.997 -81.1563,36.125 -17.264,11.605 -27.9318,24.726 -37.125,44.656 -9.1908,19.931 -14.9062,43.019 -14.9062,64.125 0,2.533 1.563,5.028 3.875,6.063 40.1976,17.981 105.2911,24.155 153.8438,26.156 -0.7192,-25.076 -1.0626,-46.282 -1.0626,-46.282 l 13.2813,-31.406 -26.5625,-15.656 18.0938,-56.5 c -11.2364,-6.93 -21.0159,-16.462 -28.2813,-27.281 z m 135.0937,0.03 c -7.4029,11 -17.0817,20.482 -28.3124,27.344 l 18.0624,56.406 -26.5624,15.656 13.2812,31.406 c 0,0 -0.3741,21.223 -1.0938,46.313 48.5564,-2 113.6384,-8.203 153.8438,-26.187 2.308,-1.034 3.875,-3.53 3.875,-6.063 0,-21.106 -5.7153,-44.194 -14.9062,-64.125 -9.191,-19.93 -19.8288,-33.051 -37.0938,-44.656 -16.476,-11.076 -75.6687,-34.002 -81.0938,-36.094 z m -69.9062,38.906 -16.5,17.063 8.5,22.937 c -3.3654,32.955 -8.0559,65.831 -11.1878,98.782 7.2449,0.119 17.6033,0.31 21.5,0.312 3.9112,0.06 14.8887,-0.129 21.5625,-0.25 -3.7338,-32.948 -7.4781,-65.896 -11.2188,-98.844 l 8.5,-22.937 -16.5312,-17.063 c -1.6107,0.04 -3.2483,0.04 -4.6247,0 z" id="path35904" style="font-size:medium;font-style:normal;font-variant:normal;font-weight:normal;font-stretch:normal;text-indent:0;text-align:start;text-decoration:none;line-height:normal;letter-spacing:normal;word-spacing:normal;text-transform:none;direction:ltr;block-progression:tb;writing-mode:lr-tb;text-anchor:start;baseline-shift:baseline;color:#2d2d2d;fill:#4D4D4D;fill-opacity:1;stroke:none;stroke-width:16.00000191;marker:none;visibility:visible;display:inline;overflow:visible;enable-background:accumulate;font-family:Sans;-inkscape-font-specification:Sans" transform="translate(0,-448)"/><path d="m -6197.1792,17441.461 c -1.85,0.706 -3.726,1.368 -5.562,1.969 -48.001,12.603 -99.027,13.392 -147.813,4.594 -7.659,-1.551 -15.648,-3.553 -23.25,-6.407 -0.228,0.11 -0.45,0.23 -0.656,0.375 -2.365,1.673 -3.882,4.075 -4.844,6.5 -1.923,4.85 -2.156,10.189 -2.156,17 0,21.547 12.405,41.991 24.719,54 9.646,35.625 37.585,62.412 71.469,63.407 33.885,-0.995 61.76,-27.782 71.406,-63.407 12.314,-12.009 24.687,-32.453 24.687,-54 0,-6.811 -0.202,-12.15 -2.125,-17 -0.962,-2.425 -2.51,-4.827 -4.875,-6.5 -0.309,-0.219 -0.65,-0.377 -1,-0.531 z" id="path35879" style="font-size:medium;font-style:normal;font-variant:normal;font-weight:normal;font-stretch:normal;text-indent:0;text-align:start;text-decoration:none;line-height:normal;letter-spacing:normal;word-spacing:normal;text-transform:none;direction:ltr;block-progression:tb;writing-mode:lr-tb;text-anchor:start;baseline-shift:baseline;color:#2d2d2d;fill:#4D4D4D;fill-opacity:1;stroke:none;stroke-width:16.00000191;marker:none;visibility:visible;display:inline;overflow:visible;enable-background:accumulate;font-family:Sans;-inkscape-font-specification:Sans"/><path d="m -6296.3352,17288.164 a 6.7987874,6.7987874 0 0 0 -6.798,6.798 l 0,4.7 c -42.486,8.621 -77.579,46.429 -79.214,92.757 l -10.197,8.498 a 6.7987874,6.7987874 0 0 0 -2.151,7.143 c 0,0 0.424,1.298 1.062,2.47 0.638,1.171 1.596,2.648 3.027,4.275 2.864,3.253 7.566,7.136 15.11,10.808 15.089,7.343 41.517,14.021 89.199,14.021 47.67,0 74.59,-6.615 90.101,-13.809 7.756,-3.596 12.632,-7.376 15.668,-10.515 3.036,-3.14 4.488,-6.453 4.488,-6.453 a 6.7987874,6.7987874 0 0 0 -2.204,-7.754 l -11.393,-8.817 c -1.659,-46.05 -35.743,-83.775 -77.833,-92.544 l 0,-4.78 a 6.7987874,6.7987874 0 0 0 -6.798,-6.798 l -3.983,0 -14.712,0 -3.372,0 z" id="path35864" style="font-size:medium;font-style:normal;font-variant:normal;font-weight:normal;font-stretch:normal;text-indent:0;text-align:start;text-decoration:none;line-height:normal;letter-spacing:normal;word-spacing:normal;text-transform:none;direction:ltr;block-progression:tb;writing-mode:lr-tb;text-anchor:start;baseline-shift:baseline;color:#2d2d2d;fill:#4D4D4D;fill-opacity:1;fill-rule:nonzero;stroke:none;stroke-width:16;marker:none;visibility:visible;display:inline;overflow:visible;enable-background:accumulate;font-family:Sans;-inkscape-font-specification:Sans"/></g></g></svg>
