<?xml version="1.0" ?><svg height="512" id="svg4156" version="1.1" width="512" xmlns="http://www.w3.org/2000/svg" xmlns:cc="http://creativecommons.org/ns#" xmlns:dc="http://purl.org/dc/elements/1.1/" xmlns:inkscape="http://www.inkscape.org/namespaces/inkscape" xmlns:rdf="http://www.w3.org/1999/02/22-rdf-syntax-ns#" xmlns:sodipodi="http://sodipodi.sourceforge.net/DTD/sodipodi-0.dtd" xmlns:svg="http://www.w3.org/2000/svg"><defs id="defs4158"/><g id="layer1" transform="translate(0,448)"><g id="g37522" style="fill:#4d4d4d;fill-opacity:1" transform="matrix(0.99993341,0,0,0.99993341,3865.1815,-18980.327)"><path d="m -3609.4062,19101.406 c -29.5184,0.397 -45.4741,13.61 -53.125,26.875 -7.6504,13.265 -7.5327,26.54 -7.5313,26.657 0,0.116 -0.3125,23 -0.3125,23 -0.3892,0.189 -0.8298,0.34 -1.1875,0.593 -1.6488,1.166 -2.7046,2.841 -3.375,4.531 -1.3408,3.381 -1.5313,7.097 -1.5313,11.844 0,15.02 8.6667,29.286 17.25,37.656 6.7234,24.831 26.1931,43.494 49.8126,44.188 23.6185,-0.694 43.0578,-19.357 49.7812,-44.188 8.5834,-8.37 17.2188,-22.636 17.2188,-37.656 0,-4.747 -0.16,-8.464 -1.5,-11.844 -0.6712,-1.69 -1.7576,-3.365 -3.4063,-4.531 -0.3578,-0.253 -0.767,-0.403 -1.1563,-0.593 0,0 1.3391,-11.928 -0.3437,-22.782 -1.6836,-10.853 -4.5136,-18.16 -10.375,-22.781 -2.0229,-13.417 -8.2164,-19.498 -19.3125,-24.406 -7.4889,-3.271 -18.249,-6.394 -30.9062,-6.563 z m -49.5313,161.25 c -3.8389,1.506 -47.2603,18.644 -59.3437,26.906 -12.6398,8.645 -20.427,18.405 -27.1563,33.25 -6.729,14.845 -10.9375,32.061 -10.9375,47.782 0,1.887 1.1525,3.731 2.8438,4.5 39.6759,18.056 112.5277,20.156 144.0937,20.156 31.5671,0 104.3861,-2.099 144.0625,-20.156 1.6892,-0.769 2.875,-2.613 2.875,-4.5 0,-15.721 -4.209,-32.938 -10.9375,-47.782 -6.7287,-14.845 -14.4849,-24.605 -27.125,-33.25 -12.0621,-8.248 -55.4352,-25.347 -59.4063,-26.906 -6.6518,29.737 -15.6497,58.923 -27.4062,83.656 -4.347,8.86 -9.0659,17.845 -12.8125,24.626 -1.8732,3.389 -3.4795,6.205 -4.75,8.25 -0.6351,1.021 -1.1787,1.828 -1.6563,2.468 -0.2386,0.32 -0.4667,0.617 -0.75,0.906 -0.1417,0.144 -0.2669,0.287 -0.5312,0.469 -0.2645,0.181 -0.6642,0.486 -1.5625,0.5 -0.8984,-0.01 -1.267,-0.319 -1.5313,-0.5 -0.2645,-0.182 -0.452,-0.325 -0.5937,-0.469 -0.2834,-0.289 -0.4799,-0.586 -0.7187,-0.906 -0.4772,-0.64 -1.0211,-1.447 -1.6563,-2.468 -1.2705,-2.045 -2.9081,-4.861 -4.7813,-8.25 -3.7465,-6.781 -8.4342,-15.766 -12.7812,-24.626 -11.7566,-24.734 -20.7854,-53.919 -27.4375,-83.656 z m 37.4063,31 a 2.3050826,2.3451401 0 0 0 -2.0313,2.782 l 3.5625,18.593 a 2.3050826,2.3451401 0 0 0 2.25,1.907 l 16.5938,0 a 2.3050826,2.3451401 0 0 0 2.2812,-1.907 l 3.5625,-18.593 a 2.3050826,2.3451401 0 0 0 -2.25,-2.782 l -23.75,0 a 2.3050826,2.3451401 0 0 0 -0.2187,0 z m 4,28.032 a 2.3050825,2.34514 0 0 0 -2,1.812 l -4.4688,19.688 c 4.3736,9.398 9.1949,18.597 14.5,27.5 5.3563,-8.846 10.2284,-18.015 14.625,-27.438 l -4.4375,-19.75 a 2.3050825,2.34514 0 0 0 -2.2813,-1.812 l -15.6874,0 a 2.3050825,2.34514 0 0 0 -0.25,0 z" id="path37457" style="font-size:medium;font-style:normal;font-variant:normal;font-weight:normal;font-stretch:normal;text-indent:0;text-align:start;text-decoration:none;line-height:normal;letter-spacing:normal;word-spacing:normal;text-transform:none;direction:ltr;block-progression:tb;writing-mode:lr-tb;text-anchor:start;baseline-shift:baseline;color:#2d2d2d;fill:#4d4d4d;fill-opacity:1;stroke:none;stroke-width:16.00000191;marker:none;visibility:visible;display:inline;overflow:visible;enable-background:accumulate;font-family:Sans;-inkscape-font-specification:Sans" transform="translate(0,-448)"/><path d="m -3740.375,19079.906 c -23.0051,0.309 -35.4436,10.599 -41.4062,20.938 -5.9624,10.338 -5.8761,20.689 -5.875,20.781 0,0.09 -0.25,17.937 -0.25,17.937 -0.3035,0.149 -0.6275,0.24 -0.9063,0.438 -1.2848,0.909 -2.1337,2.214 -2.6563,3.531 -1.0453,2.635 -1.1562,5.518 -1.1562,9.219 0,11.705 6.7166,22.851 13.4062,29.375 5.2396,19.353 20.4365,33.866 38.8438,34.406 18.4072,-0.54 33.5419,-15.053 38.7812,-34.406 6.6897,-6.524 13.4376,-17.67 13.4376,-29.375 0,-3.701 -0.1116,-6.584 -1.1563,-9.219 -0.5228,-1.317 -1.4029,-2.622 -2.6875,-3.531 -0.279,-0.198 -0.6028,-0.29 -0.9062,-0.438 0,0 1.0616,-9.29 -0.25,-17.75 -1.312,-8.457 -3.5258,-14.149 -8.0938,-17.75 -1.577,-10.456 -6.4148,-15.236 -15.0625,-19.062 -5.8362,-2.549 -14.1983,-4.962 -24.0625,-5.094 z m 261.9375,0 c -23.0052,0.309 -35.4437,10.599 -41.4063,20.938 -5.9623,10.338 -5.8759,20.689 -5.875,20.781 0,0.09 -0.25,17.937 -0.25,17.937 -0.3034,0.149 -0.6274,0.24 -0.9062,0.438 -1.2848,0.909 -2.1336,2.214 -2.6562,3.531 -1.0453,2.635 -1.1563,5.518 -1.1563,9.219 0,11.705 6.7479,22.851 13.4375,29.375 5.2395,19.353 20.4052,33.866 38.8125,34.406 18.4072,-0.54 33.5417,-15.053 38.7813,-34.406 6.6894,-6.524 13.4374,-17.67 13.4374,-29.375 0,-3.701 -0.1426,-6.584 -1.1874,-9.219 -0.5229,-1.317 -1.3404,-2.622 -2.625,-3.531 -0.2789,-0.198 -0.6027,-0.29 -0.9063,-0.438 0,0 1.0616,-9.29 -0.25,-17.75 -1.312,-8.457 -3.5258,-14.149 -8.0937,-17.75 -1.5771,-10.456 -6.4462,-15.236 -15.0938,-19.062 -5.8362,-2.549 -14.1984,-4.962 -24.0625,-5.094 z m -298.625,121.344 c -2.6784,1.032 -35.1005,13.58 -44.0937,19.625 -9.3792,6.304 -15.1629,13.424 -20.1563,24.25 -4.993,10.827 -8.125,23.379 -8.125,34.844 -1e-4,1.377 0.8701,2.719 2.125,3.281 27.8911,12.476 77.8091,14.507 102.9063,14.688 18.0157,-23.181 47.7102,-32.839 74.1874,-43.407 1.3662,-1.153 6.015,-1.165 5.7188,-2.906 -3.5977,-8.707 -8.6143,-16.916 -14.0938,-24.687 -3.5424,-5.713 -6.4178,-12.177 -8.1874,-18.907 -8.3387,-3.461 -15.5859,-6.272 -16.9063,-6.781 -7.5352,11.197 -19.422,19.501 -33,20.969 -16.1615,1.693 -31.6031,-7.906 -40.375,-20.969 z m 261.9375,0 c -1.2067,0.465 -8.4869,3.318 -16.9062,6.812 -1.7646,6.936 -4.7208,13.623 -8.3126,19.5 -5.8973,7.252 -10.5283,15.363 -13.8437,24.126 18.4,8.799 38.2809,14.917 55.9687,25.218 9.459,5.433 17.3588,12.664 23.8438,21.032 25.1315,-0.186 74.9886,-2.228 102.8438,-14.688 1.2536,-0.562 2.125,-1.904 2.125,-3.281 0,-11.465 -3.1324,-24.017 -8.125,-34.844 -4.9932,-10.826 -10.777,-17.946 -20.1563,-24.25 -8.9506,-6.017 -41.1162,-18.489 -44.0625,-19.625 -7.5352,11.197 -19.4219,19.501 -33,20.969 -16.1615,1.693 -31.6031,-7.906 -40.375,-20.969 z" id="path7-0-5-14-46" style="font-size:medium;font-style:normal;font-variant:normal;font-weight:normal;font-stretch:normal;text-indent:0;text-align:start;text-decoration:none;line-height:normal;letter-spacing:normal;word-spacing:normal;text-transform:none;direction:ltr;block-progression:tb;writing-mode:lr-tb;text-anchor:start;baseline-shift:baseline;color:#2d2d2d;fill:#4d4d4d;fill-opacity:1;stroke:none;stroke-width:16.00000191;marker:none;visibility:visible;display:inline;overflow:visible;enable-background:accumulate;font-family:Sans;-inkscape-font-specification:Sans" transform="translate(0,-448)"/></g></g></svg>