<?xml version="1.0" ?><!DOCTYPE svg  PUBLIC '-//W3C//DTD SVG 1.1//EN'  'http://www.w3.org/Graphics/SVG/1.1/DTD/svg11.dtd'><svg height="512px" id="Layer_1" style="enable-background:new 0 0 512 512;" version="1.1" viewBox="0 0 512 512" width="512px" xml:space="preserve" xmlns="http://www.w3.org/2000/svg" xmlns:xlink="http://www.w3.org/1999/xlink"><g><path d="M463.078,235.859c0,11.047-8.953,20-20,20h-52.672c-13.313,0-25.672-6.609-33.063-17.688   l-19.922-29.828l17.016-42.625c0.359-0.891,0.5-1.844,0.797-2.766l35.391,53.016l52.453-0.109   C454.125,215.859,463.078,224.813,463.078,235.859z M200.5,280.109l-11.344,80.766l-56.594,62.641   c-8.875,9.828-8.109,25.016,1.719,33.891c4.594,4.156,10.344,6.188,16.094,6.188c6.547,0,13.078-2.656,17.813-7.906l56.578-62.625   c6.359-7.031,10.438-15.75,11.781-25.188l6.203-43.813l-35.125-35.156C204.906,286.203,202.609,283.203,200.5,280.109z M328,32   c-22.078,0-40,17.906-40,40s17.922,40,40,40s40-17.906,40-40S350.078,32,328,32z M99.395,224.231   c-9.659-5.055-21.586-1.324-26.642,8.335l-20.474,39.116c-2.428,4.639-2.914,10.051-1.351,15.048   c1.563,4.996,5.048,9.167,9.686,11.595l63.816,33.396c4.639,2.428,10.052,2.913,15.048,1.349c4.996-1.563,9.167-5.048,11.594-9.687   l20.465-39.115c5.053-9.658,1.321-21.585-8.336-26.64L99.395,224.231z M339.219,330.031l-48.313-48.344l48.672-121.906   c2.453-6.125,2.266-13.016-0.516-19.016c-2.797-6-7.938-10.578-14.219-12.656l-3.719-1.234   c-0.469,16.125-17.781,42.875-17.781,42.875s5.531-34.063-0.359-48.875l-22.719-7.531c-2.313-0.75-8.266-1.375-9.703-1.375H198.25   c-15.531,0-29.719,9.125-36.141,23.25l-27.672,60.625c-4.594,10.031-0.172,21.906,9.891,26.5c2.688,1.219,5.5,1.813,8.281,1.813   c7.594,0,14.859-4.344,18.203-11.719l27.438-60.469h42.297l-31.313,78.5c-6.484,16.25-2.672,34.75,9.703,47.125l85.094,85.125V456   c0,13.25,10.75,24,24,24s24-10.75,24-24v-95.047C352.031,349.281,347.484,338.281,339.219,330.031z" style="fill:#4D4D4D;"/><rect height="512" style="fill:none;" width="512"/></g></svg>
