<?xml version="1.0" ?><!DOCTYPE svg  PUBLIC '-//W3C//DTD SVG 1.1//EN'  'http://www.w3.org/Graphics/SVG/1.1/DTD/svg11.dtd'><svg height="512px" id="Layer_1" style="enable-background:new 0 0 512 512;" version="1.1" viewBox="0 0 512 512" width="512px" xml:space="preserve" xmlns="http://www.w3.org/2000/svg" xmlns:xlink="http://www.w3.org/1999/xlink"><g><rect height="512" style="fill:none;" width="512"/><path d="M271.938,267.594l0.063,0.125l-118.844,50.141c-7.641,4.406-17.453,1.766-21.859-5.859   s-1.781-17.453,5.859-21.859l89-67.375L240,112c0-8.813,7.188-16,16-16s16,7.188,16,16c0,0,16,125.484,16,128   C288,251.844,281.5,262.063,271.938,267.594z M80,240c0-97.047,78.938-176,176-176s176,78.953,176,176   c0,0.313-0.047,0.594-0.047,0.906c19.453,2.188,35.75,8.438,47.125,17.219c0.484-6,0.922-12,0.922-18.125   c0-123.672-100.313-224-224-224S32,116.328,32,240c0,107.188,75.391,196.703,176,218.719v-49.547   C134.234,388.219,80,320.391,80,240z M416,376.031c-35.344,0-64-14.328-64-32V368c0,17.672,28.656,32,64,32s64-14.328,64-32   v-23.969C480,361.703,451.344,376.031,416,376.031z M416,336c-35.344,0-64-14.328-64-32v23.969c0,17.672,28.656,32,64,32   s64-14.328,64-32V304C480,321.672,451.344,336,416,336z M416,416c-35.344,0-64-14.328-64-32v23.969c0,17.672,28.656,32,64,32   s64-14.328,64-32V384C480,401.672,451.344,416,416,416z M416,456.031c-35.344,0-64-14.328-64-32V448c0,17.672,28.656,32,64,32   s64-14.328,64-32v-23.969C480,441.703,451.344,456.031,416,456.031z M416,256c-35.344,0-64,14.328-64,32s28.656,32,64,32   s64-14.328,64-32S451.344,256,416,256z M288,432c-35.344,0-64-14.328-64-32v23.969c0,17.672,28.656,32,64,32s64-14.328,64-32V400   C352,417.672,323.344,432,288,432z M288,472.031c-35.344,0-64-14.328-64-32V464c0,17.672,28.656,32,64,32s64-14.328,64-32v-23.969   C352,457.703,323.344,472.031,288,472.031z M288,352c-35.344,0-64,14.328-64,32s28.656,32,64,32s64-14.328,64-32   S323.344,352,288,352z" style="fill:#4D4D4D;"/></g></svg>
