<?xml version="1.0" ?><!DOCTYPE svg  PUBLIC '-//W3C//DTD SVG 1.0//EN'  'http://www.w3.org/TR/2001/REC-SVG-20010904/DTD/svg10.dtd'><svg enable-background="new 0 0 450 450" height="450px" id="Layer_1" version="1.0" viewBox="0 0 450 450" width="450px" xml:space="preserve" xmlns="http://www.w3.org/2000/svg" xmlns:xlink="http://www.w3.org/1999/xlink"><g><path d="M76.257,294.159c0.404,0.084,0.807,0.125,1.204,0.125c2.672,0,5.069-1.863,5.646-4.583   c0,0,0.003-0.014,0.026-0.116c0.342-1.59,4.314-18.006,15.003-33.507c5.334-7.762,12.298-15.271,21.219-20.806   c8.935-5.532,19.804-9.182,33.527-9.194c11.328,0,24.644,2.529,40.264,8.854c1.771,0.717,3.761,0.516,5.355-0.539   c1.595-1.056,2.555-2.809,2.587-4.719c0-0.001,0-0.009,0.004-0.107c0.033-1.535,0.826-17.965,9.072-35.253   c4.115-8.655,10.047-17.516,18.614-25.051c8.575-7.532,19.78-13.806,34.838-17.25c3.11-0.709,5.058-3.806,4.348-6.917   c-0.709-3.111-3.807-5.059-6.917-4.347c-17.388,3.955-30.792,11.542-40.856,20.689c-15.119,13.736-22.718,30.73-26.591,44.175   c-1.79,6.232-2.791,11.73-3.352,15.874c-13.802-4.836-26.218-6.966-37.366-6.966c-16.328-0.016-29.874,4.625-40.643,11.578   c-16.179,10.445-26.161,25.755-32.208,38.325c-6.039,12.594-8.161,22.581-8.229,22.884   C71.142,290.431,73.136,293.496,76.257,294.159z" fill="#4D4D4D"/><path d="M345.259,88.918c0.931-2.496,0.913-4.966-0.055-7.411c-1.038-2.624-2.647-4.333-4.829-5.128   c-2.182-0.793-5.038-1.067-8.569-0.822l7.844,19.821C342.458,93.57,344.327,91.417,345.259,88.918z" fill="#4D4D4D"/><path d="M347.356,131.267c32.807-11.857,49.792-48.064,37.935-80.871c-11.856-32.807-48.062-49.791-80.869-37.936   c-32.809,11.857-49.792,48.062-37.937,80.871C278.341,126.139,314.548,143.123,347.356,131.267z M298.357,49.696   c1.991-4.627,6.002-8.446,12.031-11.461l-1.898-4.796c-1.003-2.535-0.553-4.177,1.347-4.929c1.931-0.764,3.387,0.09,4.364,2.564   l1.936,4.888c3.358-0.944,6.39-1.377,9.092-1.295c2.701,0.082,5.313,0.794,7.831,2.134c1.967,1.002,3.642,2.171,5.026,3.508   c1.384,1.336,2.344,2.683,2.881,4.042c0.598,1.508,0.563,3.031-0.102,4.567c-0.666,1.538-1.783,2.616-3.353,3.237   c-2.957,1.17-5.505,0.329-7.646-2.522c-2.486-3.377-5.875-4.932-10.168-4.665l7.451,18.824c4.146-0.454,7.496-0.698,10.047-0.73   c2.552-0.032,5.019,0.405,7.401,1.31c2.527,0.92,4.753,2.334,6.676,4.242c1.925,1.908,3.431,4.235,4.517,6.979   c1.361,3.44,1.828,6.98,1.403,10.621c-0.427,3.641-1.833,7.031-4.219,10.174c-2.386,3.142-5.663,5.749-9.834,7.817l1.883,4.761   c0.706,1.778,1.045,3.146,1.021,4.097c-0.026,0.951-0.626,1.661-1.802,2.126c-1.087,0.431-1.98,0.399-2.681-0.09   c-0.7-0.491-1.323-1.431-1.874-2.819l-2.259-5.71c-3.685,1.004-7.099,1.396-10.24,1.174c-3.142-0.223-5.967-0.928-8.477-2.115   c-2.513-1.186-4.594-2.631-6.244-4.334c-1.65-1.701-2.862-3.532-3.64-5.494c-0.572-1.449-0.523-2.977,0.147-4.587   c0.672-1.608,1.853-2.748,3.543-3.416c1.356-0.538,2.629-0.673,3.815-0.411c1.185,0.264,2.187,0.898,3.002,1.901   c1.794,2.151,3.25,3.764,4.375,4.836c1.121,1.074,2.51,1.913,4.161,2.515c1.652,0.602,3.601,0.791,5.85,0.563l-8.328-21.043   c-4.485,0.485-8.354,0.577-11.614,0.278c-3.258-0.298-6.234-1.379-8.925-3.245c-2.693-1.865-4.827-4.79-6.403-8.773   C296.399,59.23,296.367,54.321,298.357,49.696z" fill="#4D4D4D"/><path d="M313.36,63.465c1.81,0.697,4.271,1.005,7.38,0.925l-6.859-17.332c-2.234,1.758-3.817,3.535-4.747,5.333   c-0.928,1.799-0.896,3.95,0.095,6.453C310.172,61.228,311.548,62.769,313.36,63.465z" fill="#4D4D4D"/><path d="M413.681,425.868h-12.469V147.824h-87.818v278.044h-44.484v-159.03h-87.818v159.03h-44.485V318.45H48.789   v107.418H36.32c-4.266,0-7.724,3.459-7.724,7.724c0,3.988,3.023,7.271,6.904,7.68v0.044h0.819h377.361h0.818v-0.044   c3.881-0.409,6.905-3.691,6.905-7.68C421.404,429.327,417.945,425.868,413.681,425.868z" fill="#4D4D4D"/></g></svg>
