<?xml version="1.0" ?><!DOCTYPE svg  PUBLIC '-//W3C//DTD SVG 1.1//EN'  'http://www.w3.org/Graphics/SVG/1.1/DTD/svg11.dtd'><svg height="512px" id="Слой_1" style="enable-background:new 0 0 512 512;" version="1.1" viewBox="0 0 512 512" width="512px" xml:space="preserve" xmlns="http://www.w3.org/2000/svg" xmlns:xlink="http://www.w3.org/1999/xlink"><g><path d="M231.606,293.591c12.078,0,24.316-0.723,36.559-2.17c90.698-10.997,155.876-59.354,164.021-100.931   c-7.023-1.245-15.649-2.289-22.837-3.251c-20.346-2.531-45.67-5.7-71.634-13.648c-23.235-7.101-44.465-17.819-64.976-28.171   c-31.623-16.015-61.442-31.101-95.272-31.101c-4.697,0-9.473,0.238-14.408,0.879c-40.574,4.857-66.18,15.653-76.093,31.989   c-8.227,13.644-10.073,36.6-5.778,72.238C85.56,255.906,143.033,293.591,231.606,293.591z M295.978,199.839   c23.918,0,43.339,11.638,43.339,26.005c0,14.33-19.422,26.005-43.339,26.005c-23.881,0-43.224-11.675-43.224-26.005   C252.754,211.477,272.097,199.839,295.978,199.839z" style="fill:#4D4D4D;"/><path d="M505.307,273.963c0.119-9.99,0.682-75.69,0.682-94.951h-0.072c-0.104-3.52-0.346-7.051-0.771-10.594   c-5.219-43.224-48.481-48.682-86.728-53.457c-18.497-2.367-39.448-5.018-59.396-11.116c-17.256-5.219-34.792-14.088-53.375-23.519   c-41.375-20.909-89.215-45.111-151.298-37.565C89.456,50.588,47.033,72.418,24.64,109.462c-16.743,27.631-19.72,60.5-18.342,90.378   H6.02v129.99l0.16,2.486c9.752,81.271,106.832,138.336,225.385,138.336c14.848,0,29.979-0.879,45.308-2.688   C415.369,451.229,515.338,366.227,505.307,273.963z M60.278,131.053c15.333-25.405,47.757-40.734,99.008-46.915   c6.259-0.723,12.279-1.085,18.181-1.085c41.256,0,75.887,17.54,109.36,34.434c19.344,9.793,39.328,19.948,60.036,26.248   c23.359,7.101,46.233,10.031,66.382,12.522c36.92,4.615,49.483,7.742,50.564,17.137c8.067,67.22-79.82,135.525-191.912,148.972   c-13.442,1.644-26.967,2.445-40.29,2.445c-96.439,0-174.496-43.664-181.441-101.654C44.908,179.653,48.077,151.239,60.278,131.053z    M271.896,426.547c-112.853,13.726-215.029-31.224-224.218-98.083v-25.406c39.934,39.01,106.532,63.452,183.928,63.452   c14.926,0,30.177-0.925,45.267-2.729c79.633-9.598,146.495-41.8,187.06-84.971C470.747,345.697,383.28,413.19,271.896,426.547z" style="fill:#4D4D4D;"/></g></svg>
