<?xml version="1.0" ?><!DOCTYPE svg  PUBLIC '-//W3C//DTD SVG 1.1//EN'  'http://www.w3.org/Graphics/SVG/1.1/DTD/svg11.dtd'><svg style="enable-background:new 0 0 218.51 152.241;" version="1.1" viewBox="0 0 218.51 152.241" xml:space="preserve" xmlns="http://www.w3.org/2000/svg" xmlns:xlink="http://www.w3.org/1999/xlink"><g id="Layer_2"><path d="M173.811,11.719l-2.317,8.707l-10.288,38.645l-50.419,36.214l-2.881,2.069   c2.701,2.732,4.974,5.886,6.724,9.349l5.944-4.18l29.476,24.849l4.863-1.602l16.011-59.994l4.505-16.923l7.494-28.148l4.268-1.2   l-3.007-10.701L173.811,11.719z M147.123,111.966l-18.968-15.471l28.544-20.501L147.123,111.966z M81.596,94.479   c-15.951,0-28.882,12.931-28.882,28.881c0,15.951,12.931,28.881,28.882,28.881c15.952,0,28.882-12.93,28.882-28.881   C110.478,107.41,97.548,94.479,81.596,94.479z M81.596,138.709c-8.476,0-15.347-6.872-15.347-15.349   c0-8.477,6.871-15.348,15.347-15.348c8.477,0,15.349,6.872,15.349,15.348C96.944,131.837,90.073,138.709,81.596,138.709z    M89.966,123.36c0,4.623-3.746,8.37-8.37,8.37c-4.623,0-8.369-3.747-8.369-8.37c0-4.623,3.746-8.37,8.369-8.37   C86.22,114.99,89.966,118.737,89.966,123.36z M119.564,26.898l-84.701,14.12l36.45-30.273L119.564,26.898z M53.495,99.309L0,55.429   l158.258-26.383l-6.666,24.966L99.805,91.16c-5.376-3.049-11.587-4.798-18.209-4.798C70.349,86.362,60.28,91.388,53.495,99.309z    M209.871,13.131l-3.007-10.702L215.503,0l3.007,10.702L209.871,13.131z M200.763,4.144l3.007,10.702l-10.479,2.945l-3.007-10.702   L200.763,4.144z" style="fill:#4D4D4D;"/></g><g id="Layer_1"/></svg>