<?xml version="1.0" ?><!DOCTYPE svg  PUBLIC '-//W3C//DTD SVG 1.0//EN'  'http://www.w3.org/TR/2001/REC-SVG-20010904/DTD/svg10.dtd'><svg enable-background="new 0 0 350 350" height="350px" id="Layer_1" version="1.0" viewBox="0 0 350 350" width="350px" xml:space="preserve" xmlns="http://www.w3.org/2000/svg" xmlns:xlink="http://www.w3.org/1999/xlink"><g><path d="M234.936,130.81c2.531,5.179,6.992,14.234,6.992,14.234s3.271,5.525-0.535,9.978l-39.234,37.951   c0,0-0.926,8.568,13.376,10.267c0,0,5.624-0.158,11.304-4.084c0,0,0.468,8.415,13.578,7.892c0,0,6.451-1.19,9.499-3.412   c0,0,4.336,5.16,13.576,3.661c9.239-1.502,9.754-5.321,9.754-5.321s6.66,4.898,15.178,1.129   c8.515-3.773,38.024-42.813,38.024-42.813s10.473-11.518,5.818-32.163c-4.117-18.264,2.873-37.478,2.873-37.478l-29.563-34.547   l-28.097,36.276c0,0-5.519,9.552-21.159,8.477c0,0-9.381-3.208-17.866,1.223c-8.486,4.435-23.532,18.129-23.532,18.129   l13.024,6.163C227.945,126.37,233.758,128.407,234.936,130.81z" fill="#4D4D4D"/><path d="M344.807,228.495l-21.725-49.158c-5.782,9.075-11.937,18.194-16.843,24.163l6.911,15.604   c4.145,6.944-1.737,11.881-1.737,11.881l-40.967,29.688c-5.76,4.274-14.118,3.463-14.118,3.463l-36.414-1.345   c-4.774-0.793-66.938-32.651-66.938-32.651l11.384-11.481c0,0,47.03,21.017,57.212,24.168c10.184,3.15,11.516,6.521,34.521,0.877   c0,0,13.421-0.678,11.009-11.001c-2.411-10.321-9.46-0.54-22.342-3.312c-7.727-1.661-51.789-18.266-62.741-30.126l42.991-45.611   c4.14-5.115,0.031-11.339,0.031-11.339s-4.4-6.038-5.218-7.035c-2.152-2.624-6.063-3.437-6.063-3.437l-44.756-15.87l-40.42,43.198   l22.128,18.893l-30.425,33.167c-12.199,13.246,0.067,30.995,0.067,30.995l15.933,14.559c0,0,66.336,31.757,69.37,33.584   c4.1,2.47,11.324,2.75,11.324,2.75l48.901,2.566c12.445,2.001,23.131-5.61,23.131-5.61l49.582-36.226   C350.672,241.855,344.807,228.495,344.807,228.495z" fill="#4D4D4D"/><path d="M121.972,138.832l10.906,4.269l16.694-20.055L93.845,95.15c-31.601-19.428-42.582-6.239-49.515-3.368   c-6.934,2.872-24.86,18.418-24.86,18.418l21.334,17.546l10.212-7.794c7.486-5.754,15.978-5.854,22.651-4.489l-0.079,0.665   c-0.327,2.751,1.637,5.248,4.387,5.576c2.281,0.273,4.368-1.042,5.207-3.066c1.408,0.662,2.22,1.142,2.22,1.142l1.537,0.875   l-0.303,2.537c-0.328,2.751,1.637,5.248,4.387,5.577c2.205,0.263,4.228-0.959,5.119-2.869l3.865,2.203l-0.362,3.032   c-0.329,2.75,1.636,5.247,4.387,5.575c2.366,0.283,4.536-1.136,5.306-3.29l2.975,1.695l-0.301,2.527   c-0.328,2.752,1.636,5.247,4.387,5.576C119.146,143.547,121.644,141.584,121.972,138.832z" fill="#4D4D4D"/><path d="M6.77,166.044c0,15.193,14.28,19.413,19.293,19.413s19.293-4.22,19.293-19.413   c0-15.192-19.293-35.604-19.293-35.604S6.77,150.852,6.77,166.044z" fill="#4D4D4D"/></g></svg>
