<?xml version="1.0" standalone="no"?>
<!DOCTYPE svg PUBLIC "-//W3C//DTD SVG 20010904//EN"
 "http://www.w3.org/TR/2001/REC-SVG-20010904/DTD/svg10.dtd">
<svg version="1.0" xmlns="http://www.w3.org/2000/svg"
 width="128.000000pt" height="128.000000pt" viewBox="0 0 128.000000 128.000000"
 preserveAspectRatio="xMidYMid meet">
<metadata>
Created by potrace 1.11, written by Peter Selinger 2001-2013
</metadata>
<g transform="translate(0.000000,128.000000) scale(0.100000,-0.100000)"
fill="#4D4D4D" stroke="none">
<path d="M576 1264 c-9 -8 -16 -19 -16 -24 0 -15 -63 -17 -89 -2 -24 13 -30
13 -76 -9 -35 -17 -51 -31 -53 -46 -5 -32 -51 -62 -85 -56 -22 4 -35 -2 -68
-36 -33 -33 -40 -46 -35 -65 8 -34 -22 -84 -54 -88 -19 -2 -31 -15 -49 -53
-22 -47 -23 -51 -8 -78 16 -27 14 -87 -4 -87 -37 0 -55 -112 -23 -144 8 -9 19
-16 23 -16 18 0 20 -60 4 -87 -15 -27 -14 -31 8 -78 18 -38 30 -51 49 -53 32
-4 62 -54 54 -88 -9 -35 65 -109 102 -101 36 7 82 -22 86 -53 2 -19 15 -31 53
-49 46 -22 52 -22 76 -9 26 15 89 13 89 -2 0 -38 112 -57 144 -24 9 8 16 19
16 24 0 15 63 17 89 2 24 -13 30 -13 76 9 38 18 51 30 53 49 4 31 50 60 86 53
37 -8 111 66 102 101 -8 33 23 86 50 86 26 0 36 12 58 69 15 39 15 46 2 67
-16 23 -12 84 5 84 4 0 15 7 23 16 32 32 14 144 -23 144 -17 0 -21 61 -5 84
13 21 13 28 -2 67 -22 57 -32 69 -58 69 -27 0 -58 53 -50 86 5 19 -2 32 -35
65 -33 34 -46 40 -68 36 -34 -6 -80 24 -85 56 -2 15 -18 29 -53 46 -46 22 -52
22 -76 9 -26 -15 -89 -13 -89 2 0 38 -112 57 -144 24z m163 -199 c85 -20 156
-62 220 -130 169 -179 154 -457 -33 -622 -130 -114 -317 -140 -475 -66 -73 34
-170 131 -204 204 -14 30 -31 85 -38 122 -40 216 111 439 334 493 71 17 120
16 196 -1z"/>
<path d="M546 1030 c-153 -39 -268 -165 -298 -330 -31 -166 66 -346 230 -423
61 -29 76 -32 163 -32 90 0 99 2 171 38 208 102 285 344 176 549 -64 120 -188
197 -326 204 -42 2 -94 -1 -116 -6z m43 -125 c38 -137 64 -137 104 0 21 74 25
80 47 76 21 -3 76 -26 89 -37 1 -1 -15 -36 -38 -77 -70 -127 -51 -146 74 -77
40 22 75 40 77 40 9 0 49 -100 43 -109 -2 -5 -37 -17 -75 -26 -39 -10 -81 -26
-93 -36 -20 -16 -21 -19 -6 -34 8 -8 49 -25 90 -36 41 -12 78 -25 82 -29 8 -7
-30 -110 -41 -110 -2 0 -37 18 -77 40 -125 69 -143 50 -74 -76 23 -41 39 -77
36 -80 -2 -3 -28 -14 -56 -25 -39 -15 -53 -16 -56 -7 -3 7 -14 44 -25 83 -35
124 -65 124 -100 0 -11 -39 -22 -76 -25 -83 -3 -9 -17 -8 -56 7 -28 11 -53 22
-56 25 -3 3 13 38 36 79 70 127 51 146 -74 77 -40 -22 -75 -40 -77 -40 -11 0
-49 103 -41 110 4 4 41 17 82 29 41 11 82 28 90 36 15 15 14 18 -5 34 -12 10
-53 26 -90 36 -38 10 -73 21 -77 25 -8 7 30 110 41 110 2 0 37 -18 77 -40 125
-69 144 -50 74 77 -23 41 -39 76 -36 79 5 5 98 43 107 44 3 0 16 -38 29 -85z"/>
<path d="M585 695 c-16 -15 -25 -36 -25 -55 0 -19 9 -40 25 -55 49 -50 135
-15 135 55 0 19 -9 40 -25 55 -15 16 -36 25 -55 25 -19 0 -40 -9 -55 -25z"/>
</g>
</svg>
