<?xml version="1.0" ?><!DOCTYPE svg  PUBLIC '-//W3C//DTD SVG 1.1//EN'  'http://www.w3.org/Graphics/SVG/1.1/DTD/svg11.dtd'><svg enable-background="new 0 0 512 512" height="512px" id="Layer_1" version="1.1" viewBox="0 0 512 512" width="512px" xml:space="preserve" xmlns="http://www.w3.org/2000/svg" xmlns:xlink="http://www.w3.org/1999/xlink"><g><path d="M249.531,185.125l211.281,182.906c25.594,25.594,25.594,67.125,0,92.75   c-25.595,25.625-67.125,25.625-92.734,0L185.406,249.453 M185.406,249.453C168.234,264.375,150.516,272,132.422,272h-0.016   c-22.563-0.031-45.469-11.5-68.078-34.125c-23.797-23.734-42.234-71.969-26.453-121.781c0.688-2.188,2.469-3.844,4.703-4.375   c0.516-0.125,1.047-0.188,1.547-0.188c1.719,0,3.391,0.672,4.641,1.906l55.484,55.531c4.547,4.516,10.703,7,17.313,7   c7.266,0,14.5-3.047,19.844-8.375l26.438-26.438c10.563-10.578,11.156-27.219,1.328-37.047l-55.484-55.453   c-1.625-1.625-2.281-3.969-1.75-6.188c0.563-2.219,2.219-4.016,4.406-4.688C128.469,33.938,141.219,32,154.25,32   c32.375,0,63.75,12,83.906,32.125c40.953,41,44.75,82.781,11.375,121 M440,412c0-15.453-12.563-28-28-28c-15.5,0-28,12.547-28,28   c0,15.469,12.5,27.969,28,27.969C427.438,439.969,440,427.469,440,412z M226.422,394.406l-40.313-68.875   c-2-3.422-5.703-5.531-9.703-5.531H95.594c-4,0-7.703,2.109-9.703,5.531l-40.313,68.875c-2.016,3.438-2.016,7.719,0,11.156   l40.313,68.905c2,3.422,5.703,5.531,9.703,5.531h80.813c4,0,7.703-2.109,9.703-5.531l40.313-68.905   C228.438,402.125,228.438,397.844,226.422,394.406z M136,440c-22.094,0-40-17.906-40-40s17.906-40,40-40c22.094,0,40,17.906,40,40   S158.094,440,136,440z" fill="#4D4D4D"/></g></svg>
