<?xml version="1.0" ?><!DOCTYPE svg  PUBLIC '-//W3C//DTD SVG 1.1//EN'  'http://www.w3.org/Graphics/SVG/1.1/DTD/svg11.dtd'><svg enable-background="new 0 0 512 512" height="512px" id="Layer_1" version="1.1" viewBox="0 0 512 512" width="512px" xml:space="preserve" xmlns="http://www.w3.org/2000/svg" xmlns:xlink="http://www.w3.org/1999/xlink"><g><path d="M389.406,337.984c28.906-28.906-3.438-108.078-71.75-176.344c-68.313-68.281-146.688-99.813-175.594-70.938   c-43.406,43.406-21.094,87.641-33.125,139.344c-7.031,30.172-31.484,58.392-63.75,90.625c-22.688,22.703-15.297,66.859,16,98.156   s75.469,38.672,98.172,15.969c0.016-0.016,0.016-0.016,0.031-0.031c33.578,14,55.516,38.923,69.609,55.673   c4.656,5.516,12.5,7.141,18.938,3.905c12.906-6.453,28.031-14.172,41.031-20.78c4.188-2.125,6.938-6.281,7.281-10.953   s-1.781-9.172-5.608-11.875c-16.688-11.828-36.298-25.359-43.688-29.517c3.703-3.703,9.172-28.938-19.984-41.358   c7.625-3.953,15.281-6.953,23.063-8.767C301.75,359.063,346,381.375,389.406,337.984z M163.063,111.703   c18.375-18.391,79.094,12.5,135.563,68.953c56.469,56.453,87.374,117.141,68.968,135.516   c-18.391,18.406-79.094-12.484-135.563-68.953C175.563,190.797,144.656,130.094,163.063,111.703z M204.578,361.625l-1.375-0.094   c-19.828-1.391-40.703-11.688-57.266-28.25c-16-15.984-26.234-36.219-28.094-55.531l-0.109-1.266   c8.203-13.172,14.156-26.375,17.422-40.344c4.797-20.672,4.906-39.844,4.984-56.781c0.031-6.203,0.141-11.828,0.359-17.25   c12.594,32.109,37.766,69.406,72.5,104.125c34.938,34.922,72.672,60.358,105.125,73.094c-5.594,0.266-11.406,0.406-17.813,0.469   c-16.813,0.156-35.844,0.313-56.391,5.094C230.313,348.063,217.422,353.75,204.578,361.625z M286.438,267.625   c-12.53-9.281-26.25-20.891-40.78-35.406c-14.156-14.156-25.563-27.578-34.719-39.844c21.203-13.766,49.75-11.531,68.344,7.063   C297.813,217.984,300.094,246.453,286.438,267.625z M405.936,83.357c1.393,1.391,2.137,3.301,2.054,5.267   c-0.082,1.965-0.984,3.807-2.488,5.076l-50.912,42.997c-2.796,2.361-6.935,2.183-9.518-0.409l-3.423-3.437   c-2.576-2.585-2.745-6.711-0.392-9.499l42.996-50.901c1.271-1.503,3.11-2.405,5.075-2.488c1.966-0.083,3.876,0.662,5.267,2.053   L405.936,83.357z M479.827,203.612c0.43,1.92,0.036,3.933-1.087,5.549c-1.123,1.616-2.871,2.688-4.821,2.955l-66.031,9.037   c-3.627,0.496-7.026-1.874-7.817-5.448l-1.053-4.754c-0.787-3.562,1.278-7.134,4.76-8.227l63.567-19.965   c1.877-0.589,3.915-0.365,5.619,0.617s2.919,2.634,3.349,4.554L479.827,203.612z M290.031,3.875   c1.906,0.453,3.547,1.672,4.516,3.391c0.969,1.719,1.172,3.766,0.547,5.641L274.469,76.25c-1.125,3.469-4.719,5.5-8.281,4.672   l-4.75-1.109c-3.563-0.828-5.905-4.25-5.358-7.875l9.75-65.922c0.28-1.953,1.358-3.688,3-4.797   c1.608-1.094,3.641-1.484,5.547-1.031L290.031,3.875z" fill="#4D4D4D"/></g></svg>