<?xml version="1.0" ?><!DOCTYPE svg  PUBLIC '-//W3C//DTD SVG 1.1//EN'  'http://www.w3.org/Graphics/SVG/1.1/DTD/svg11.dtd'><svg enable-background="new 0 0 512 512" height="512px" id="Layer_1" version="1.1" viewBox="0 0 512 512" width="512px" xml:space="preserve" xmlns="http://www.w3.org/2000/svg" xmlns:xlink="http://www.w3.org/1999/xlink"><g><path d="M240,415.875c0,8.844-7.156,16-16,16s-16-7.156-16-16s7.156-16,16-16S240,407.031,240,415.875z    M288,399.875c-8.844,0-16,7.156-16,16s7.156,16,16,16s16-7.156,16-16S296.844,399.875,288,399.875z M424.75,208.5   c14.57,17.125,24.82,36.969,23.25,41.969c-1.82,5.75-27.438,17.438-52.406,20.563c-1.375,5.952-3.031,12.188-5.266,19.108   c-15.195,46.969-43.984,90.203-43.984,109.734c0,7.453,16.758,38.016-7.539,61.734c-21.602,21.094-61.539,18.266-82.805,18.266   c-21.266,0-61.203,2.828-82.805-18.266c-24.297-23.72-7.539-54.281-7.539-61.734c0-19.531-28.789-62.766-43.984-109.734   c-2.234-6.922-3.891-13.156-5.266-19.108C91.438,267.906,65.82,256.219,64,250.469c-1.57-5,8.68-24.844,23.25-41.969   C-32.398,194.5-17.602,74.656,63.078,32c-44.883,119.328,55.813,91.688,55.813,91.688s9.539-43.813,48.594-43.813   c22.125,0,37.063,17.594,88.516,17.594s66.391-17.594,88.516-17.594c39.056,0,48.595,43.813,48.595,43.813   S493.805,151.328,448.922,32C529.602,74.656,544.398,194.5,424.75,208.5z M184.273,286.641   c18.891,5.781,44.875-10.516,44.875-10.516s-13.633-28.391-32.516-34.156c-18.875-5.766-32.453,0.938-35.867,13.281   S165.391,280.891,184.273,286.641z M320.797,420.656c-5.547-20.234-14.227-42.031-64.789-42.031   c-50.562,0-59.242,21.797-64.797,42.031c-1.758,6.406-0.602,14.953,3.133,20.297c3.734,5.359,9.594,8.516,15.828,8.516   c12.07,0,28.172,0,45.836,0c17.672,0,33.758,0,45.828,0c6.234,0,12.102-3.156,15.836-8.516   C321.398,435.609,322.563,427.078,320.797,420.656z M351.234,255.25c-3.414-12.344-16.992-19.047-35.867-13.281   c-18.883,5.766-32.516,34.156-32.516,34.156s25.983,16.297,44.874,10.516C346.609,280.891,354.648,267.594,351.234,255.25z" fill="#4D4D4D"/></g></svg>