<?xml version="1.0" ?><!DOCTYPE svg  PUBLIC '-//W3C//DTD SVG 1.1//EN'  'http://www.w3.org/Graphics/SVG/1.1/DTD/svg11.dtd'><svg enable-background="new 0 0 512 512" height="512px" id="Layer_1" version="1.1" viewBox="0 0 512 512" width="512px" xml:space="preserve" xmlns="http://www.w3.org/2000/svg" xmlns:xlink="http://www.w3.org/1999/xlink"><g><path d="M448,368h-81.875c4.219-15.313,6.672-31.359,6.672-48H448c8.844,0,16,7.156,16,16v16   C464,360.844,456.844,368,448,368z M300.875,176H464c8.844,0,16-7.156,16-16v-16c0-8.844-7.156-16-16-16H256   c-8.836,0-16,7.156-16,16v1.875C262.328,152.039,282.875,162.367,300.875,176z M464,224v-16c0-8.844-7.156-16-16-16H319.547   c13.953,13.906,25.5,30.172,34.344,48H448C456.844,240,464,232.844,464,224z M480,64H272c-8.836,0-16,7.156-16,16v16   c0,8.844,7.164,16,16,16h208c8.844,0,16-7.156,16-16V80C496,71.156,488.844,64,480,64z M464,384H360.875   c-6.625,17.438-15.813,33.609-27.219,48H464c8.844,0,16-7.156,16-16v-16C480,391.156,472.844,384,464,384z M480,256H360.875   c5.781,15.156,9.625,31.219,11.109,48H480c8.844,0,16-7.156,16-16v-16C496,263.156,488.844,256,480,256z M192,160   c-88.367,0-160,71.633-160,160c0,88.375,71.633,160,160,160c88.375,0,160-71.625,160-160C352,231.633,280.375,160,192,160z    M192,433.594c-62.641,0-113.602-50.953-113.602-113.594S129.359,206.398,192,206.398S305.594,257.359,305.594,320   S254.641,433.594,192,433.594z M240,348.766c0-20.391-11.672-32.172-37.797-41.766c-17.359-6.766-24.5-12.281-24.5-19.828   c0-8.094,9.219-12.75,19.797-12.75c11.563,0,25.281,9.375,29.531,12.063c0.75,0.453,1.609,0.703,2.469,0.703   c0.531,0,1.063-0.094,1.547-0.266c1.328-0.453,2.359-1.531,2.813-2.844l5.906-19.969c0.656-1.938-0.109-4.078-1.859-5.172   c-6.828-4.406-19.547-8.579-29.906-9.625v-19.5c0-3.203-2.531-5.813-5.641-5.813h-20.703c-3.141,0-5.656,2.609-5.656,5.813v20.922   c-19.438,6.141-32,20.625-32,39.422c0,18.25,13.313,30.531,38.797,39.656c18.141,6.655,24.109,13.405,24.109,21.125   c0,9.483-8.656,12.594-20.406,12.594c-11.125,0-23-5.453-29.813-9.391c-0.734-0.423-1.531-0.642-2.344-0.642   c-0.547,0-1.094,0.125-1.625,0.313c-1.313,0.483-2.313,1.516-2.719,2.844l-5.781,20.625c-0.656,2,0.203,4.188,2.047,5.266   c8.766,5.063,18.078,8.719,29.734,8.172v17.875c0,4.797,2.516,7.406,5.656,7.406h20.703c3.109,0,5.641-2.609,5.641-5.813v-20.422   C229.063,384.094,240,369.5,240,348.766z" fill="#4D4D4D"/></g></svg>