<?xml version="1.0" ?><!DOCTYPE svg  PUBLIC '-//W3C//DTD SVG 1.1//EN'  'http://www.w3.org/Graphics/SVG/1.1/DTD/svg11.dtd'><svg height="512px" id="Layer_1" style="enable-background:new 0 0 512 512;" version="1.1" viewBox="0 0 512 512" width="512px" xml:space="preserve" xmlns="http://www.w3.org/2000/svg" xmlns:xlink="http://www.w3.org/1999/xlink"><g><g><ellipse cx="250.595" cy="141.067" rx="62.402" ry="64.25" style="fill:#4D4D4D;"/><polygon points="251.344,221.072 234.855,233.025 250.55,249.916 234.855,266.807 251.344,349.184     267.83,266.807 252.136,249.916 267.83,233.025   " style="fill:#4D4D4D;"/><path d="M284.359,222.46L250.89,400.483l-35.716-177.936C172.639,225.121,139,252.794,139,286.581v119.527    c0,0-8.568,29.074,112.273,29.074c120.844,0,110.727-29.074,110.727-29.074V286.581C362,252.402,327.627,224.472,284.359,222.46z     M330,315h-45v-8h45V315z" style="fill:#4D4D4D;"/></g><ellipse cx="416.58" cy="134.271" rx="47.404" ry="48.806" style="fill:#4D4D4D;"/><ellipse cx="95.398" cy="134.271" rx="47.404" ry="48.806" style="fill:#4D4D4D;"/><polygon points="95.713,189.295 82.122,199.148 95.059,213.072 82.122,226.997 95.713,294.909    109.306,226.997 96.367,213.072 109.306,199.148  " style="fill:#4D4D4D;"/><polygon points="417.236,189.295 403.646,199.148 416.582,213.072 403.646,226.997 417.236,294.909    430.829,226.997 417.891,213.072 430.829,199.148  " style="fill:#4D4D4D;"/><path d="M508,341.838v-98.539c0-28.177-28.105-51.204-63.775-52.86l-27.478,146.76L387.455,190.51   c-22.957,1.389-42.7,11.648-53.614,26.386c6.642,3.463,12.983,7.614,18.423,12.427C369.367,244.452,379,264.788,379,286.581v77.711   c9,0.95,22.999,1.515,38.247,1.515C516.87,365.807,508,341.838,508,341.838z" style="fill:#4D4D4D;"/><path d="M119,286.581c0-21.598,10.805-42.012,30.392-57.484c7.758-6.129,16.568-11.209,26.054-15.111   c-11.491-13.416-30.622-22.526-52.563-23.547l-27.568,146.76L65.834,190.51C30.768,192.63,3,215.445,3,243.299v98.539   c0,0-7.077,23.969,92.545,23.969c8.555,0,15.455-0.181,23.455-0.504V286.581z" style="fill:#4D4D4D;"/></g></svg>
