<?xml version="1.0" ?><!DOCTYPE svg  PUBLIC '-//W3C//DTD SVG 1.1//EN'  'http://www.w3.org/Graphics/SVG/1.1/DTD/svg11.dtd'><svg enable-background="new 0 0 512 512" height="512px" id="Layer_1" version="1.1" viewBox="0 0 512 512" width="512px" xml:space="preserve" xmlns="http://www.w3.org/2000/svg" xmlns:xlink="http://www.w3.org/1999/xlink"><g><path d="M448,368h-81.875c4.219-15.313,6.672-31.359,6.672-48H448c8.844,0,16,7.156,16,16v16   C464,360.844,456.844,368,448,368z M300.875,176H464c8.844,0,16-7.156,16-16v-16c0-8.844-7.156-16-16-16H256   c-8.836,0-16,7.156-16,16v1.875C262.328,152.031,282.875,162.375,300.875,176z M464,224v-16c0-8.844-7.156-16-16-16H319.547   c13.953,13.906,25.5,30.172,34.344,48H448C456.844,240,464,232.844,464,224z M480,64H272c-8.836,0-16,7.156-16,16v16   c0,8.844,7.164,16,16,16h208c8.844,0,16-7.156,16-16V80C496,71.156,488.844,64,480,64z M464,384H360.875   c-6.625,17.438-15.813,33.609-27.219,48H464c8.844,0,16-7.156,16-16v-16C480,391.156,472.844,384,464,384z M480,256H360.875   c5.781,15.156,9.625,31.219,11.109,48H480c8.844,0,16-7.156,16-16v-16C496,263.156,488.844,256,480,256z M192,160   c-88.367,0-160,71.625-160,160s71.633,160,160,160c88.375,0,160-71.625,160-160S280.375,160,192,160z M192,433.594   c-62.641,0-113.602-50.953-113.602-113.594S129.359,206.406,192,206.406S305.594,257.359,305.594,320S254.641,433.594,192,433.594z    M186.602,368c5.445-9.078,9.031-19.859,9.188-32.016H220c2.211,0,4-1.797,4-4V308c0-2.203-1.789-4-4-4h-29.328   c-1.633-13.234,0.898-24.156,7.484-29.75c6.297-5.344,15.766-5.219,25.813,0.219c1.742,0.953,3.867,0.281,4.859-1.531   l10.648-19.266c0.516-0.953,0.656-2.078,0.383-3.141c-0.273-1.047-0.945-1.938-1.852-2.453   c-20.305-11.531-43.594-10.734-58.93,2.297c-13.961,11.859-20.32,31.125-18.445,53.625H148.07c-2.211,0-4,1.797-4,4v23.984   c0,2.203,1.789,4,4,4h17.898c-0.326,17.6-14.683,27.766-20.009,30.935c-1.212,0.722-1.959,2.033-1.959,3.442v25.635   c0,2.211,1.792,4.004,4.004,4.004h87.992c2.211,0,4.004-1.793,4.004-4.004v-23.992c0-2.211-1.792-4.004-4.004-4.004H186.602   L186.602,368z" fill="#4D4D4D"/></g></svg>