<?xml version="1.0" ?><svg contentScriptType="text/ecmascript" contentStyleType="text/css" enable-background="new 0 0 220 227" height="23.906997680664062px" id="Layer_1" preserveAspectRatio="xMidYMid meet" version="1.0" viewBox="88.0 78.0155029296875 23.906997680664062 23.906997680664062" width="23.906997680664062px" xml:space="preserve" xmlns="http://www.w3.org/2000/svg" xmlns:xlink="http://www.w3.org/1999/xlink" zoomAndPan="magnify"><g><rect fill="#4D4D4D" height="10.938" width="1.834" x="106.031" y="84.5"/><path d="M111.907,87.469c0,0.488-0.409,0.885-0.914,0.885h-3.047c-0.505,0-0.915-0.396-0.915-0.885l0,0   c0-0.488,0.41-0.885,0.915-0.885h3.047C111.498,86.584,111.907,86.98,111.907,87.469L111.907,87.469z" fill="#4D4D4D"/><path d="M111.907,92.469c0,0.488-0.409,0.885-0.914,0.885h-3.047c-0.505,0-0.915-0.396-0.915-0.885l0,0   c0-0.488,0.41-0.885,0.915-0.885h3.047C111.498,91.584,111.907,91.98,111.907,92.469L111.907,92.469z" fill="#4D4D4D"/><polygon fill="#4D4D4D" points="104.99,95.438 96.031,92.438 96.031,87.5 104.99,84.5  "/><rect fill="#4D4D4D" height="2.709" width="8.031" x="88" y="88.625"/></g></svg>
