<?xml version="1.0" ?><!DOCTYPE svg  PUBLIC '-//W3C//DTD SVG 1.1//EN'  'http://www.w3.org/Graphics/SVG/1.1/DTD/svg11.dtd'><svg enable-background="new 0 0 512 512" height="512px" id="Layer_1" version="1.1" viewBox="0 0 512 512" width="512px" xml:space="preserve" xmlns="http://www.w3.org/2000/svg" xmlns:xlink="http://www.w3.org/1999/xlink"><g><path d="M368,432c-17.672,0-32-14.328-32-32s14.328-32,32-32s32,14.328,32,32S385.672,432,368,432z M304,400   c0-17.672-14.328-32-32-32s-32,14.328-32,32s14.328,32,32,32S304,417.672,304,400z M208,400c0-17.672-14.328-32-32-32   s-32,14.328-32,32s14.328,32,32,32S208,417.672,208,400z M112,400c0-17.672-14.328-32-32-32s-32,14.328-32,32s14.328,32,32,32   S112,417.672,112,400z M400,320H32v32h369.602c26.47,0,48,21.531,48,48s-21.53,48-48,48H32v32h368c44.18,0,80-35.82,80-80   S444.18,320,400,320z M347.828,208H384v41.625c0,2.563,1.531,4.875,3.883,5.875c2.352,0.992,5.07,0.477,6.898-1.305l83.289-81.547   c1.233-1.203,1.93-2.867,1.93-4.609s-0.695-3.406-1.93-4.609l-83.305-81.617c-1.828-1.789-4.548-2.305-6.898-1.305   c-2.336,1.008-3.867,3.344-3.867,5.914V128h-36.172c-6.531,0-11.828,5.297-11.828,11.828v56.344   C336,202.703,341.297,208,347.828,208z M32,264V72c0-22.094,17.906-40,40-40h88v48l16-16l16,16V32h88c22.094,0,40,17.906,40,40v192   c0,22.094-17.906,40-40,40H72C49.906,304,32,286.094,32,264z M184.797,160H208v48h16v-48h23.203l-31.211-38.406L184.797,160z    M112,240v16h128v-16H112z M104.797,160H128v48h16v-48h23.203l-31.211-38.406L104.797,160z" fill="#4D4D4D"/></g></svg>