<?xml version="1.0" ?><svg height="512" id="svg4156" version="1.1" width="512" xmlns="http://www.w3.org/2000/svg" xmlns:cc="http://creativecommons.org/ns#" xmlns:dc="http://purl.org/dc/elements/1.1/" xmlns:inkscape="http://www.inkscape.org/namespaces/inkscape" xmlns:rdf="http://www.w3.org/1999/02/22-rdf-syntax-ns#" xmlns:sodipodi="http://sodipodi.sourceforge.net/DTD/sodipodi-0.dtd" xmlns:svg="http://www.w3.org/2000/svg"><defs id="defs4158"/><g id="layer1" transform="translate(0,448)"><path d="m 256,-448.00001 c -141.3848,0 -255.999995,114.616 -255.999995,256 C 5e-6,-50.614985 114.6152,64.000015 256,64.000015 c 141.3849,0 256,-114.615 256,-256.000025 0,-141.384 -114.6151,-256 -256,-256 z m 97.31259,79.40699 c 1.4511,-0.02 2.9012,0.36101 4.2187,0.96901 31.4034,25.33099 57.6608,56.804 79.5625,90.65599 4.0126,6.677 11.1223,13.715 8.25,22.25 -11.085,23.474 -35.3841,37.524 -59.8438,43.46801 -7.5462,1.352 -15.6517,5.053 -23.0312,1.15699 -32.2252,-16.32899 -63.8234,-34.11699 -95.4375,-51.688 -29.8485,-16.414 -24.3879,-18.322 -34.9687,-12.343 -17.8524,10.223 -37.6558,20.05 -58.81259,19.031 -15.2409,-1.525 -31.4695,-8.279 -39.6562,-21.781 -6.13419,-9.331 0.14291,-21.658 8.6875,-27.032 20.26931,-10.313 38.7291,-23.789 57.99999,-35.937 10.56091,-7.931 23.84631,-11.79299 37.0313,-10.469 21.72901,3.447 43.5262,6.507 65.4062,8.875 6.8099,-2.563 13.1586,-7.284 19.75,-10.75 10.2523,-5.241 19.2656,-12.654 30.2188,-16.344 0.2074,-0.02 0.4176,-0.03 0.625,-0.03 l 0,-0.03 z m -231.65629,94.875 c 1.8483,4.341 4.7011,8.22601 8.0937,11.656 l -7.3124,13.031 c 13.8396,7.76 29.5369,9.097 43.6562,5 17.917,2.805 36.85689,-1.19 52.84379,-9.687 6.6017,-3.02299 12.96251,-6.57099 19.2187,-10.219 l 182.0313,102.06301 c 2.90991,1.632 4.06861,5.777 2.43741,8.68699 l -75.5,134.625035 c -1.6323,2.91 -5.74611,4.069 -8.6562,2.438 L 69.187605,-167.09302 c -2.91,-1.631 -4.0692,-5.777 -2.4376,-8.688 l 54.906305,-97.937 z m -12.875,49.031 -27.781295,49.594 49.562595,27.781 c 15.3577,-27.39 5.6104,-62.017 -21.7813,-77.375 z m 162.87499,5.344 a 6.3728438,6.3728438 0 0 0 -5.125,3.34301 l -2.5313,4.469 c -0.07,-0.03 -0.4062,-0.187 -0.4062,-0.187 a 6.3728438,6.3728438 0 0 0 -0.2812,-0.125 c -19.35699,-8.429 -35.21759,-1.96 -41.18759,8.687 -2.7638,4.929 -4.08951,10.96599 -2.2187,16.875 3.1207,9.856 10.7428,16.393 17.875,21.563 l -16.6563,29.718 c -5.1732,-4.237 -8.577,-7.977 -10.125,-11.281 -1.62551,-3.457 -1.9014,-6.614 0,-12 a 6.3799428,6.3799428 0 1 0 -12.03121,-4.25 c -2.7236,7.715 -2.4936,15.29 0.5,21.657 2.9918,6.369 8.12151,11.389 14.375,16.406 a 6.3728438,6.3728438 0 0 0 0.1875,0.125 c 0,0 0.5606,0.402 0.7813,0.562 l -2.68759,4.781 a 6.3802062,6.3802062 0 1 0 11.125,6.25 l 2.56259,-4.59301 c 0.119,0.06 0.5937,0.25 0.5937,0.25 a 6.3728438,6.3728438 0 0 0 0.094,0.06 c 7.90641,3.398 16.0017,4.829 23.625,3.157 7.6229,-1.673 14.4366,-6.752 18.78131,-14.5 2.50479,-4.468 3.78459,-9.089 3.4375,-14 -0.504,-7.115 -4.3616,-12.907 -8.75,-17.719 -2.8599,-3.135 -6.0498,-5.902 -9.1562,-8.313 l 14.3124,-25.5 c 6.3145,5.131 8.6645,10.529 9.4688,15.188 0.8322,4.819 -0.6912,9.403 -0.6562,9.344 a 6.3802062,6.3802062 0 1 0 11.125,6.25 c 2.4396,-4.351 3.3757,-10.142 2.0624,-17.75 -1.3126,-7.611 -5.6119,-16.5 -14.8437,-23.657 a 6.3728438,6.3728438 0 0 0 -0.3437,-0.219 c 0,0 -0.42,-0.305 -0.5313,-0.374 l 2.625,-4.657 a 6.3728438,6.3728438 0 0 0 -2.5,-8.781 6.3728438,6.3728438 0 0 0 -2.8437,-0.78099 6.3728438,6.3728438 0 0 0 -0.031,0 6.3728438,6.3728438 0 0 0 -0.625,0 z m -26.9375,16.09301 c 0.4195,-0.02 0.8371,-0.01 1.2812,0 3.2299,0.09 7.1033,0.943 11.75,2.90699 l -13.6562,24.34301 c -5.705,-4.431 -10.4976,-9.183 -12.0625,-14.124 -0.5593,-1.76501 -0.2607,-4.14301 1.2187,-6.782 1.6139,-2.878 5.1764,-6.106 11.4688,-6.344 z m 114.0938,21.563 c -15.3587,27.392 -5.6104,62.048 21.7812,77.406 l 27.8125,-49.593 -49.5937,-27.81301 z m -110.68759,24.563 c 2.19129,1.777 4.28909,3.649 6.06259,5.593 3.3355,3.657 5.2422,7.306 5.43741,10.063 0.2137,3.023 0.1313,3.354 -1.8437,6.875 -2.8703,5.121 -6.1715,7.358 -10.375,8.281 -4.0808,0.899 -9.3559,0.246 -15.3125,-2.219 l 16.0312,-28.593 z m 89.93759,69.905995 c -19.4964,0.386 -38.27109,10.819 -48.5,29.06203 l 49.56241,27.782 27.81259,-49.56303 c -8.5597,-4.8 -17.83359,-7.159 -27,-7.281 -0.6301,0 -1.2461,-0.01 -1.875,0 z" id="path3778-1-83" style="fill:#4d4d4d;fill-opacity:1;fill-rule:nonzero;stroke:none"/></g></svg>