<?xml version="1.0" ?><!DOCTYPE svg  PUBLIC '-//W3C//DTD SVG 1.1//EN'  'http://www.w3.org/Graphics/SVG/1.1/DTD/svg11.dtd'><svg height="43.3492mm" style="shape-rendering:geometricPrecision; text-rendering:geometricPrecision; image-rendering:optimizeQuality; fill-rule:evenodd; clip-rule:evenodd" version="1.1" viewBox="0 0 4335 4335" width="43.3492mm" xml:space="preserve" xmlns="http://www.w3.org/2000/svg" xmlns:xlink="http://www.w3.org/1999/xlink"><defs><style type="text/css">
   <![CDATA[
    .fil0 {fill:#4D4D4D}
   ]]>
  </style></defs><g id="Layer_x0020_1"><path class="fil0" d="M3815 1685c0,0 -111,-206 -153,-417 -42,-211 -9,-441 -248,-591 -218,-137 -587,-245 -652,-264l0 -3c0,0 0,1 -1,2 -6,-2 -8,-2 -8,-2 0,0 -12,36 -39,85 -73,110 -228,290 -469,298 -241,-8 -396,-187 -469,-298 -27,-50 -39,-85 -39,-85 0,0 -3,1 -8,2 -1,-2 -1,-2 -1,-2l0 3c-64,18 -434,127 -652,264 -239,150 -206,380 -248,591 -42,211 -153,417 -153,417 224,244 538,211 561,206 23,-5 94,-169 94,-169 0,0 56,562 56,975 0,412 -112,1008 -112,1008 0,0 134,46 311,95l0 8c0,0 145,40 333,71 105,20 206,34 290,34 13,0 26,0 40,-1 13,0 27,1 40,1 84,0 185,-13 290,-34 188,-31 333,-71 333,-71l0 -8c176,-49 311,-95 311,-95 0,0 -112,-595 -112,-1008 0,-412 56,-975 56,-975 0,0 70,164 94,169 23,5 337,38 561,-206z"/></g></svg>
