<?xml version="1.0" ?><!DOCTYPE svg  PUBLIC '-//W3C//DTD SVG 1.1//EN'  'http://www.w3.org/Graphics/SVG/1.1/DTD/svg11.dtd'><svg enable-background="new 0 0 80 80" id="Layer_1" version="1.1" viewBox="0 0 80 80" xml:space="preserve" xmlns="http://www.w3.org/2000/svg" xmlns:xlink="http://www.w3.org/1999/xlink"><g><g><g><rect fill="#4D4D4D" height="11.6" width="9.9" x="40.5" y="57.7"/><rect fill="#4D4D4D" height="11.6" width="10.3" x="29.2" y="57.7"/><path d="M2,38.1v31.2h4.2V52.2h4v17.1h3.1V52.2h4v17.1H26V57.7h-2.8V54h33.8v3.6h-3.2v11.6h9.6V52.2h4v17.1h3.1     V52.2h4v17.1H78V38.1H2z M12.3,48.2H6.2v-5.4h6.1V48.2z M24.7,48.2h-6.1v-5.4h6.1V48.2z M37.1,48.2H31v-5.4h6.1V48.2z M49.5,48.2     h-6.1v-5.4h6.1V48.2z M61.9,48.2h-6.1v-5.4h6.1V48.2z M74.3,48.2h-6.1v-5.4h6.1V48.2z" fill="#4D4D4D"/></g><path d="M59.1,27.3v-3.1h3.6v-2.5H17.3v2.5h3.6v3.1H0.5v2.4H2V36h76v-6.4h1.5v-2.4H59.1z M12.3,33.7H6.2v-3.6h6.1    V33.7z M24.7,33.7h-6.1v-3.6h6.1V33.7z M37.1,33.7H31v-3.6h6.1V33.7z M49.5,33.7h-6.1v-3.6h6.1V33.7z M61.9,33.7h-6.1v-3.6h6.1    V33.7z M74.3,33.7h-6.1v-3.6h6.1V33.7z" fill="#4D4D4D"/></g></g><g><g><rect fill="#4D4D4D" height="11.9" width="1" x="39.5" y="12.6"/></g></g><g><g><path d="M39.6,12.6c0,0,1.6-0.4,4.2,0s5.3-0.2,5.3-0.2v3.8c0,0-2.1,1-5.2,0.6c-3.1-0.4-4.2,0.1-4.2,0.1V12.6z" fill="#4D4D4D"/></g></g></svg>
