<?xml version="1.0" ?><!DOCTYPE svg  PUBLIC '-//W3C//DTD SVG 1.1//EN'  'http://www.w3.org/Graphics/SVG/1.1/DTD/svg11.dtd'><svg height="78px" id="Layer_1" style="enable-background:new 0 0 78 78;" version="1.1" viewBox="0 0 78 78" width="78px" xml:space="preserve" xmlns="http://www.w3.org/2000/svg" xmlns:xlink="http://www.w3.org/1999/xlink"><style type="text/css">
	.st0{fill:#4D4D4D;}
</style><path class="st0" d="M67.5,24h8.3c1.2,0,2.3-1,2.3-2.3c0-1.2-1-2.3-2.3-2.3H72V15h3.7c1.2,0,2.3-1,2.3-2.3c0-1.2-1-2.3-2.3-2.3H2.3  c-1.2,0-2.3,1-2.3,2.3C0,14,1,15,2.3,15h5.3v7.4H2.3c-1.2,0-2.3,1-2.3,2.3c0,1.2,1,2.3,2.3,2.3H12v4.5H2.3c-1.2,0-2.3,1-2.3,2.3  v22.5c0,1.2,1,2.3,2.3,2.3h2.1c0.5,5.1,4.8,9.1,10,9.1c3.1,0,6-1.5,7.8-3.7c1.8,2.3,4.7,3.7,7.8,3.7c5.2,0,9.5-4,10-9h12  c0.5,5.1,4.8,9,10,9s9.5-4,10-9h3.8c1.2,0,2.3-1,2.3-2.3V42.2c0-1.2-1-2.3-2.3-2.3h-8.3c-0.8,0-1.5-0.7-1.5-1.5V25.5  C66,24.6,66.7,24,67.5,24z M27,15h10.5v7.4H27V15z M12,15h10.5v7.4H12V15z M14.4,63c-3.1,0-5.5-2.5-5.5-5.5s2.5-5.5,5.5-5.5  s5.6,2.5,5.6,5.5S17.5,63,14.4,63z M30,63c-3.1,0-5.5-2.5-5.5-5.5s2.5-5.5,5.5-5.5s5.5,2.5,5.5,5.5S33.1,63,30,63z M46.5,25.5v12.2  c0,1.2-1,2.3-2.3,2.3S42,39,42,37.7v-6.3H22.5v-4.5H42V15h10.5v4.5h0C49.2,19.5,46.5,22.2,46.5,25.5z M51,38.5v-13  c0-0.8,0.7-1.5,1.5-1.5H60c0.8,0,1.5,0.7,1.5,1.5v13c0,0.8-0.7,1.5-1.5,1.5h-7.5C51.7,40,51,39.3,51,38.5z M62,63  c-3.1,0-5.5-2.5-5.5-5.5s2.5-5.5,5.5-5.5s5.5,2.5,5.5,5.5S65.1,63,62,63z M57,19.5V15h10.5v4.5H57z"/></svg>
