<?xml version="1.0" ?><!DOCTYPE svg  PUBLIC '-//W3C//DTD SVG 1.1//EN'  'http://www.w3.org/Graphics/SVG/1.1/DTD/svg11.dtd'><svg enable-background="new 0 0 80 80" height="80px" id="Layer_1" version="1.1" viewBox="0 0 80 80" width="80px" xml:space="preserve" xmlns="http://www.w3.org/2000/svg" xmlns:xlink="http://www.w3.org/1999/xlink"><path d="M17.2,15.313c1.01-1.682,2.185-2.947,3.44-3.813H1v15h10.607L17.2,15.313z M43,68.5h36v-15H43V68.5z   M6.104,37.509L8.608,32.5H1v15h4.459C3.915,45.014,4.028,41.511,6.104,37.509z M64,47.5h15v-15H64V47.5z M43,11.5v10.065  l-4.487-7.979c-0.472-0.784-0.981-1.467-1.513-2.086V11.5h-0.001H29.02c1.256,0.866,2.43,2.132,3.439,3.813l12.484,22.195  c4.095,7.898-0.813,13.871-9.71,13.871h-8.247v5.12h3.042v6.056c0,3.252-2.637,5.89-5.889,5.89c-3.254,0-5.891-2.638-5.891-5.89  V56.5h3.188v-3h-0.016v-12h-3v12H1v15h36v-15h-4.383v-1.075h8.882c5.164,0,9.075-1.87,10.898-4.925H58v-15h-8.851l-3.374-6H79v-15  H43z" fill="#4D4D4D"/></svg>
