<?xml version="1.0" ?><!DOCTYPE svg  PUBLIC '-//W3C//DTD SVG 1.1//EN'  'http://www.w3.org/Graphics/SVG/1.1/DTD/svg11.dtd'><svg enable-background="new 0 0 164 164" height="164px" id="Layer_1" version="1.1" viewBox="0 0 164 164" width="164px" xml:space="preserve" xmlns="http://www.w3.org/2000/svg" xmlns:xlink="http://www.w3.org/1999/xlink"><path clip-rule="evenodd" d="M105.627,3.833c16.014,4.859,29.949,14.491,40.15,27.244h-28.911  C113.968,21.996,110.233,12.915,105.627,3.833L105.627,3.833z M81.84,164c-3.635,0-7.212-0.237-10.722-0.697  c-5-10.02-9.258-20.04-12.686-30.061h46.814c-3.427,10.021-7.687,20.041-12.685,30.061C89.053,163.764,85.475,164,81.84,164  L81.84,164z M59.167,160.815c-4.448-9.191-8.182-18.384-11.18-27.573H17.903C28.34,146.289,42.686,156.072,59.167,160.815  L59.167,160.815z M115.693,133.242c-2.998,9.191-6.732,18.383-11.18,27.573c16.48-4.743,30.826-14.526,41.264-27.573H115.693  L115.693,133.242z M10.695,122.634c-5.982-10.491-9.706-22.436-10.52-35.17h39.156c0.574,11.723,2.435,23.446,5.525,35.17H10.695  L10.695,122.634z M48.886,87.464h65.908c-0.8,11.723-2.924,23.447-6.232,35.17H55.118C51.81,110.911,49.686,99.187,48.886,87.464  L48.886,87.464z M124.349,87.464h39.156c-0.814,12.734-4.538,24.679-10.521,35.17h-34.16  C121.914,110.91,123.775,99.187,124.349,87.464L124.349,87.464z M0.175,76.855c0.815-12.734,4.539-24.678,10.52-35.17h33.112  c-2.902,11.724-4.426,23.447-4.639,35.17H0.175L0.175,76.855z M52.827,41.686h58.027c2.899,11.724,4.283,23.447,4.297,35.17H48.53  C48.543,65.133,49.928,53.409,52.827,41.686L52.827,41.686z M119.873,41.686h33.111c5.981,10.492,9.705,22.436,10.521,35.17h-38.994  C124.298,65.133,122.774,53.409,119.873,41.686L119.873,41.686z M17.903,31.077C28.104,18.326,42.04,8.691,58.054,3.833  c-4.607,9.082-8.341,18.163-11.24,27.244H17.903L17.903,31.077z M69.024,1.319c-5.558,9.92-9.915,19.839-13.153,29.758h51.938  c-3.24-9.919-7.596-19.838-13.153-29.758C90.48,0.661,86.2,0.32,81.84,0.32C77.48,0.32,73.2,0.662,69.024,1.319z" fill="#4D4D4D" fill-rule="evenodd"/></svg>
