<?xml version="1.0" ?><!DOCTYPE svg  PUBLIC '-//W3C//DTD SVG 1.1//EN'  'http://www.w3.org/Graphics/SVG/1.1/DTD/svg11.dtd'><svg enable-background="new 0 0 500 500" height="500px" id="Layer_1" version="1.1" viewBox="0 0 500 500" width="500px" xml:space="preserve" xmlns="http://www.w3.org/2000/svg" xmlns:xlink="http://www.w3.org/1999/xlink"><g><path d="M462.695,374h-28.307c-4.102,0-7.389,3.955-7.389,7.239v75.759c0,3.285,3.287,6.002,7.389,6.002h28.307   c4.1,0,8.305-2.717,8.305-6.002v-75.759C471,377.955,466.795,374,462.695,374z" fill="#4D4D4D"/><path d="M391.635,372.157c0,0-42.529-15.854-66.044-12.881c-15.376,1.943-51.584,20.438-65.507,23.782   c-13.921,3.343-55.901-1.586-72.608-1.586s-28.993-0.281-32.519,10.504c-3.152,9.637,11.67,14.393,11.67,14.393   s66.833,8.084,101.63,10.033c19.438,1.089,20.254,3.691,20.371,9.265c0.104,4.932-14.231,7.433-14.231,7.433l-120.437-9.671   c-9.746-1.114-32.706-19.437-32.706-19.437c-47.953-56.11-74.154-66.996-86.005-63.051c-11.817,3.939-0.927,20.813-0.927,20.813   s75.238,88.089,79.411,93.666c4.179,5.571,18.099,10.03,18.099,10.03s64.039,20.063,72.391,23.41   c8.354,3.34,33.41,1.112,33.41,1.112s141.664-26.818,154.203-27.869c18.055-1.506,19.164-5.572,19.164-5.572V387.42   C413,378.106,391.635,372.157,391.635,372.157z" fill="#4D4D4D"/><circle cx="281.14" cy="40.617" fill="#4D4D4D" r="31.313"/><path d="M155.23,321.767c1.779,0.68,3.608,1.001,5.405,1.001c6.109,0,11.868-3.717,14.176-9.766l27.427-71.876   c0.874-2.291,1.181-4.759,0.891-7.193l-2.005-16.908l8.507,17.692l-1.901,72.478c-0.22,8.376,6.392,15.344,14.767,15.563   c0.135,0.003,0.271,0.005,0.404,0.005c8.194,0,14.942-6.532,15.158-14.772l1.996-76.145c0.064-2.408-0.449-4.799-1.492-6.971   l-20.983-53.654c1.162-21.163,19.91-52.214,19.91-52.214c1.502,5.259,4.791,9.251,6.95,10.51l30.91,18.006   c-4.523,5.375-6.664,11.381-7.214,15.723l-22.707,150.603c-0.534,3.551,1.911,6.863,5.46,7.398   c3.544,0.531,6.863-2.197,7.398-5.746l4.856-32.5h89.532l4.941,32.518c0.493,3.215,3.263,5.659,6.418,5.659   c0.328,0,0.66,0.046,0.992-0.005c3.55-0.545,5.985-3.824,5.442-7.374l-23.18-151.175c-0.036-0.237-0.088-0.467-0.149-0.701   c-2.532-9.382-14.369-27.125-41.044-27.125c-0.302,0-0.593,0.016-0.89,0.02l-44.366-25.843l-3.513-6.905   c-4.523-16.033-5.043-30.694-7.509-38.694c-3.693-11.984-12.797-21.94-30.658-16.179c-18.575,5.992-56.081,48.187-57.409,90.935   c-0.183,1.28-0.224,2.6-0.064,3.946l0.081,0.681c0.022,0.546,0.017,1.095,0.053,1.64c0.221,8.487,1.237,16.023,2.842,22.779   l7.896,66.622l-26.094,68.388C143.478,310.013,147.402,318.781,155.23,321.767z M281.029,164.77   c0.049-0.402,0.83-5.938,5.811-10.628l9.218,5.407c2.059,1.199,4.311,1.788,6.533,1.788c4.476,0,8.832-2.304,11.247-6.45   c1.104-1.893,1.667-3.945,1.753-5.994c14.131,3.496,18.302,14.032,18.918,15.887L350.684,270h-85.578l15.9-105.184   C281.014,164.755,281.022,164.831,281.029,164.77z" fill="#4D4D4D"/></g></svg>
