<?xml version="1.0" ?><!DOCTYPE svg  PUBLIC '-//W3C//DTD SVG 1.1//EN'  'http://www.w3.org/Graphics/SVG/1.1/DTD/svg11.dtd'><svg enable-background="new 0 0 512 512" height="512px" id="Layer_1" version="1.1" viewBox="0 0 512 512" width="512px" xml:space="preserve" xmlns="http://www.w3.org/2000/svg" xmlns:xlink="http://www.w3.org/1999/xlink"><g><path d="M176,307.625c0-2.002,1.623-3.625,3.625-3.625h138.188c6.595,10.906,13.25,21.625,19.906,32H179.625   c-2.002,0-3.625-1.623-3.625-3.625V307.625z M470.344,176h-83.438c15.813,30.031,28.969,56.563,39.906,80H480v182.344   c0,5.328-4.344,9.656-9.656,9.656H41.672c-5.336,0-9.672-4.328-9.672-9.656V256h214.797c-3.977-5.172-7.945-11.078-11.773-18.594   c-4.352-8.563-9.523-18.391-14.953-28.703c-5.594-10.625-11.414-21.766-17.008-32.703H41.672C18.656,176,0,194.656,0,217.688   v220.656C0,461.344,18.656,480,41.672,480h428.672c23,0,41.656-18.656,41.656-41.656V217.688C512,194.656,493.344,176,470.344,176z    M176,396.375c0,2.002,1.623,3.625,3.625,3.625h203.938c-7.938-9.625-16.094-20.313-24.344-32H179.625   c-2.002,0-3.625,1.623-3.625,3.625V396.375z M100.25,416h7.5c2.344,0,4.25-1.906,4.25-4.25v-11.844   c8.227-0.313,15.742-3.438,20.813-6.938c7.422-5.155,11.188-12.875,11.188-23.03c0-15.281-17.078-21.813-28.547-24.656   l-15.977-3.531c-7.727-1.75-14.375-4-14.375-10.281c0-3.438,1.938-5.938,4.898-7.688c3.109-1.844,7.766-3.188,13.875-3.188   c6.031,0,10.688,1.656,13.867,4.063c1.586,1.219,3.203,3.594,4.008,6.125c0.422,1.313,1.828,2.219,3.43,2.219h14.906   c1.016,0,1.984-0.375,2.656-1.031c0.672-0.625,0.984-1.5,0.859-2.344c-1.047-7.063-4.375-12.906-9.984-17.594   c-4.563-3.813-13.672-7.344-21.617-7.656V292.25c0-2.344-1.906-4.25-4.25-4.25h-7.5c-2.344,0-4.25,1.906-4.25,4.25v11.875   c-8.227,0.281-15.742,3.406-20.813,6.906C67.766,316.188,64,322.688,64,334.094c0,15.813,17.086,21.688,28.547,24.625l15.977,3.531   c7.727,1.75,14.375,3.844,14.375,10.313c0,3.406-1.938,5.938-4.898,7.688c-3.109,1.813-7.766,3.188-13.875,3.188   c-6.031,0-10.688-1.656-13.867-4.095c-1.586-1.219-3.203-3.563-4.008-6.125c-0.422-1.28-1.828-2.188-3.43-2.188H67.914   c-1.016,0-1.984,0.375-2.656,1c-0.672,0.655-0.984,1.5-0.859,2.344c1.047,7.063,4.375,12.938,9.984,17.594   c4.586,3.813,12.445,7.375,21.617,7.688v12.094C96,414.094,97.906,416,100.25,416z M289.281,196.438   C233.195,92.297,222.063,69.594,249.703,53c27.766-16.594,40.516,5.328,97.234,110.5L289.281,196.438z M357.781,182.5   c58.375,110,102.469,223.766,87.156,232.906c-15.375,9.233-84.875-90.359-144.72-200.063L357.781,182.5z M260.688,224.344   c-15.421-30.313-41.085-76.547-52.046-103.688c-1.578-3.922-0.164-8.469,3.328-10.688l4.625-2.875c1.664-1.031,3.586-1.375,5.492-1   c0.336,0.063,0.68,0.125,1.016,0.234c2.148,0.734,3.898,2.453,4.813,4.672c10.297,25.25,29.383,59.313,51.586,102.109   l14.031,27.359c2.063,4.031,0.594,9.219-3.031,11.406C286.875,254.031,273.594,249.719,260.688,224.344z" fill="#4D4D4D"/></g></svg>