<?xml version="1.0" ?><!DOCTYPE svg  PUBLIC '-//W3C//DTD SVG 1.1//EN'  'http://www.w3.org/Graphics/SVG/1.1/DTD/svg11.dtd'><svg height="512px" id="Layer_1" style="enable-background:new 0 0 512 512;" version="1.1" viewBox="0 0 512 512" width="512px" xml:space="preserve" xmlns="http://www.w3.org/2000/svg" xmlns:xlink="http://www.w3.org/1999/xlink"><g><rect height="512" style="fill:none;" width="512"/><path d="M448,240v-64c0-8.844-7.156-16-16-16s-16,7.156-16,16v64h-48v256h80c26.5,0,48-21.5,48-48V288   C496,261.5,474.5,240,448,240z M464,448h-64v-32h64V448z M464,384h-64v-32h64V384z M464,320h-64v-32h64V320z M16,240v208   c0,26.5,21.484,48,48,48h48V192H64C37.484,192,16,213.5,16,240z M80,448H48v-48h32V448z M80,368H48v-48h32V368z M80,288H48v-48h32   V288z M304,48v-8c0-13.25-10.75-24-24-24h-80c-13.25,0-24,10.75-24,24v8c-26.516,0-48,21.5-48,48v400h224V96   C352,69.5,330.5,48,304,48z M192,448h-32v-32h32V448z M192,384h-32v-32h32V384z M192,320h-32v-32h32V320z M192,256h-32v-32h32V256z    M192,192h-32v-32h32V192z M192,128h-32V96h32V128z M256,448h-32v-32h32V448z M256,384h-32v-32h32V384z M256,320h-32v-32h32V320z    M256,256h-32v-32h32V256z M256,192h-32v-32h32V192z M256,128h-32V96h32V128z M320,448h-32v-32h32V448z M320,384h-32v-32h32V384z    M320,320h-32v-32h32V320z M320,256h-32v-32h32V256z M320,192h-32v-32h32V192z M320,128h-32V96h32V128z" style="fill:#4D4D4D;"/></g></svg>
