<?xml version="1.0" ?><!DOCTYPE svg  PUBLIC '-//W3C//DTD SVG 1.1//EN'  'http://www.w3.org/Graphics/SVG/1.1/DTD/svg11.dtd'><svg enable-background="new 0 0 256 256" height="256px" id="Layer_1" version="1.1" viewBox="0 0 256 256" width="256px" xml:space="preserve" xmlns="http://www.w3.org/2000/svg" xmlns:xlink="http://www.w3.org/1999/xlink"><g><path clip-rule="evenodd" d="M201.884,101.173h15.369l3.974-10.115L228,90.686V78.674    l5.008-15.838L128.376,22c-0.008-0.002-96.216,37.354-104.949,40.837L28,78.704v11.981l7.271,0.374l4.473,10.115h15.37    l4.223-9.989h16.718l4.223,9.989h15.37l4.223-9.989h16.72l4.223,9.989h15.37l4.223-9.989h16.719l4.223,9.989h15.37l4.223-9.989    h16.719L201.884,101.173L201.884,101.173z M128.499,73.145c-6.654,0-12.047-5.387-12.047-12.034    c0-6.646,5.393-12.033,12.047-12.033c6.654,0,12.047,5.388,12.047,12.033C140.546,67.757,135.153,73.145,128.499,73.145    L128.499,73.145z M34,78.698v-0.999l94.25-37.072l94.122,37.073l-0.189,1L34,78.698L34,78.698z M6,239.019h244V256H6V239.019    L6,239.019z M239,224.036v9.989H18v-9.989C227,224.036,198,224.036,239,224.036L239,224.036z M58.398,207.687l5.031,9.357H31.43    l5.031-9.357l3.284-100.52h15.37L58.398,207.687L58.398,207.687z M98.933,207.687l5.031,9.357h-32l5.031-9.357l3.284-100.52h15.37    L98.933,207.687L98.933,207.687z M139.468,207.687l5.03,9.357H112.5l5.03-9.357l3.285-100.52h15.37L139.468,207.687    L139.468,207.687z M180.003,207.687l5.03,9.357h-31.999l5.03-9.357l3.285-100.52h15.37L180.003,207.687L180.003,207.687z     M220.538,207.687l5.031,9.357h-32l5.031-9.357l3.284-100.52h15.37L220.538,207.687z" fill="#4D4D4D" fill-rule="evenodd"/></g></svg>
