<?xml version="1.0" ?><svg enable-background="new 0 0 515.91 728.5" height="512" id="Layer_1" version="1.1" viewBox="0 0 512.00003 512" width="512" xml:space="preserve" xmlns="http://www.w3.org/2000/svg" xmlns:cc="http://creativecommons.org/ns#" xmlns:dc="http://purl.org/dc/elements/1.1/" xmlns:inkscape="http://www.inkscape.org/namespaces/inkscape" xmlns:rdf="http://www.w3.org/1999/02/22-rdf-syntax-ns#" xmlns:sodipodi="http://sodipodi.sourceforge.net/DTD/sodipodi-0.dtd" xmlns:svg="http://www.w3.org/2000/svg"><defs id="defs7"/><g id="g9700" transform="translate(17493.517,-21739.858)"><path d="m -17450.27,21856.173 c -11.962,0 -21.82,9.856 -21.82,21.821 l 0,185.418 -8.154,0 c -4.031,0 -7.273,3.244 -7.273,7.274 l 0,29.094 c 0,4.029 3.242,7.273 7.273,7.273 l 8.154,0 0,5.513 c 0,11.961 9.858,21.821 21.82,21.821 l 25.856,0 c -3.003,-32.533 24.826,-65.151 58.018,-65.747 28.222,-2.05 54.801,18.602 61.769,45.573 2.003,6.641 2.58,13.465 1.96,20.174 l 126.236,0 c -3.081,-33.554 26.639,-67.119 61.03,-65.747 27.347,-0.851 52.449,20.1 58.927,46.17 1.884,6.448 2.418,13.063 1.818,19.577 l 29.89,0 c 11.963,0 21.82,-9.86 21.82,-21.821 l 0,-5.513 8.155,0 c 4.03,0 7.274,-3.244 7.274,-7.273 l 0,-29.094 c 0,-4.03 -3.244,-7.274 -7.274,-7.274 l -8.155,0 0,-44.579 a 7.2742878,7.2742878 0 0 0 -2.131,-5.142 l -155.415,-155.388 a 7.2742878,7.2742878 0 0 0 -5.142,-2.13 l -284.636,0 z m 233.578,18.069 43.812,0 c 0.844,0 1.681,0.367 2.273,0.967 l 123.452,123.423 c 0.898,0.889 1.195,2.356 0.71,3.523 -0.483,1.167 -1.719,1.969 -2.983,1.96 l -167.264,0 c -1.676,0 -3.21,-1.534 -3.21,-3.21 l 0,-123.452 c 0,-1.676 1.534,-3.211 3.21,-3.211 z m -123.252,15.855 c 42.336,0 76.656,34.321 76.656,76.656 0,42.336 -34.32,76.657 -76.656,76.657 -42.335,0 -76.628,-34.322 -76.628,-76.657 0,-42.336 34.293,-76.656 76.628,-76.656 z" id="path14667-1" style="font-size:medium;font-style:normal;font-variant:normal;font-weight:normal;font-stretch:normal;text-indent:0;text-align:start;text-decoration:none;line-height:normal;letter-spacing:normal;word-spacing:normal;text-transform:none;direction:ltr;block-progression:tb;writing-mode:lr-tb;text-anchor:start;baseline-shift:baseline;color:#000000;fill:#333333;fill-opacity:1;fill-rule:nonzero;stroke:none;stroke-width:16;marker:none;visibility:visible;display:inline;overflow:visible;enable-background:accumulate;font-family:Sans;-inkscape-font-specification:Sans"/><path d="m -17215.953,21814.293 c -12.821,0 -23.156,10.334 -23.156,23.156 l 0,6.108 c 15.425,0 30.861,-0.09 46.283,-0.227 l 0,-5.881 c 0,-12.822 -10.305,-23.156 -23.127,-23.156 z" id="rect14670-7" style="fill:#00a1f1;fill-opacity:1;fill-rule:nonzero;stroke:none"/><path d="m -17350.967,21914.999 22.073,0 c 3.058,0 5.519,2.46 5.519,5.518 l 0,29.661 29.672,0 c 3.06,0 5.519,2.461 5.519,5.518 l 0,22.086 c 0,3.058 -2.459,5.518 -5.519,5.518 l -29.672,0 0,29.661 c 0,3.059 -2.461,5.531 -5.519,5.531 l -22.073,0 c -3.058,0 -5.531,-2.472 -5.531,-5.531 l 0,-29.661 -29.661,0 c -3.057,0 -5.518,-2.46 -5.518,-5.518 l 0,-22.086 c 0,-3.057 2.461,-5.518 5.518,-5.518 l 29.661,0 0,-29.661 c 0,-3.058 2.473,-5.518 5.531,-5.518 z" id="path11491-5-4" style="fill:#00a1f1;fill-opacity:1;fill-rule:nonzero;stroke:none"/><path d="m -15493.088,20717.027 c 0,29.158 -23.637,52.795 -52.795,52.795 -29.158,0 -52.795,-23.637 -52.795,-52.795 0,-29.157 23.637,-52.795 52.795,-52.795 29.158,0 52.795,23.638 52.795,52.795 z" id="path14732-0" style="fill:#333333;fill-opacity:1;fill-rule:nonzero;stroke:none" transform="matrix(0.909195,0,0,0.909195,-3229.2817,3293.6055)"/><path d="m -15493.088,20717.027 c 0,29.158 -23.637,52.795 -52.795,52.795 -29.158,0 -52.795,-23.637 -52.795,-52.795 0,-29.157 23.637,-52.795 52.795,-52.795 29.158,0 52.795,23.638 52.795,52.795 z" id="path14734-9" style="fill:#333333;fill-opacity:1;fill-rule:nonzero;stroke:none" transform="matrix(0.909195,0,0,0.909195,-2981.2777,3293.6055)"/></g></svg>