<?xml version="1.0" ?><!DOCTYPE svg  PUBLIC '-//W3C//DTD SVG 1.1//EN'  'http://www.w3.org/Graphics/SVG/1.1/DTD/svg11.dtd'><svg enable-background="new 0 0 33 33" height="33px" id="Layer_1" version="1.1" viewBox="0 0 33 33" width="33px" xml:space="preserve" xmlns="http://www.w3.org/2000/svg" xmlns:xlink="http://www.w3.org/1999/xlink"><g><circle cx="10.986" cy="28.225" fill="#1D76BB" r="3.437"/><circle cx="26.822" cy="28.225" fill="#1D76BB" r="3.437"/><path d="M32.146,6.435c-0.336-0.443-0.867-0.697-1.457-0.697H8.457C7.792,3.548,6.42,1.476,2.316,1.346   C2.277,1.342,2.238,1.339,2.198,1.339H1.605c-0.61,0-1.105,0.495-1.105,1.104c0,0.61,0.495,1.104,1.105,1.104h0.296   c3.463,0,4.102,1.439,4.577,3.319c0.963,3.806,1.666,6.744,2.179,8.89c0.37,1.549,0.638,2.668,0.818,3.334   c0.041,0.15,0.079,0.297,0.117,0.439c0.607,2.293,1.132,4.273,5.444,4.273h12.705h0.185h0.408c0.61,0,1.104-0.494,1.104-1.105   c0-0.609-0.494-1.104-1.104-1.104h-0.408h-0.185H15.037c-1.721,0-2.242-0.32-2.485-0.561c-0.205-0.203-0.354-0.514-0.49-0.914   h15.251c1.004,0,1.963-0.729,2.232-1.695l2.883-10.4C32.586,7.458,32.482,6.878,32.146,6.435z M21.518,17.912h-3.865l-0.395-3.877   h4.654L21.518,17.912z M22.137,11.826h-5.104l-0.395-3.877h5.893L22.137,11.826z M27.42,17.82   c-0.018,0.035-0.084,0.086-0.107,0.092h-3.574l0.395-3.877h4.336L27.42,17.82z M29.082,11.826h-4.725l0.395-3.877h5.404   L29.082,11.826z" fill="#404041"/></g></svg>